<svg width="46" height="45" viewBox="0 0 46 45" fill="none" xmlns="http://www.w3.org/2000/svg">
<path d="M15.9833 40.6406C13.7298 40.1238 15.9552 36.1441 18.286 33.1452C19.1811 31.9785 19.9828 30.743 20.6837 29.4503L19.7732 28.7999C19.7732 28.7999 17.8782 31.9323 16.7638 33.1382C15.6493 34.3441 13.9513 37.0722 13.8704 38.1339C13.7896 39.1956 13.8458 40.6406 15.9833 40.6406Z" fill="#4415FF"/>
<path d="M33.5897 38.9496C28.5553 38.7281 16.4827 23.284 16.4827 23.284C17.5655 22.7918 18.8663 20.714 18.8663 20.714L18.3424 20.1586C18.3424 20.1586 16.5178 22.6195 15.0834 22.8586C15.0834 22.8586 14.7002 22.8586 15.312 23.4492C15.9237 24.0398 21.0108 29.6015 22.0374 30.8883C23.0639 32.175 29.2936 38.598 31.0374 39.1183C32.6792 39.607 32.6792 39.607 33.1467 39.259L33.5897 38.9496Z" fill="#4415FF"/>
<path d="M13.6981 22.9535C12.6996 23.1398 11.6724 23.105 10.6887 22.8516L10.1579 22.7039C9.98209 22.6547 9.80631 22.5738 9.6446 22.5106C9.05324 22.2552 8.49297 21.9332 7.97467 21.5508C7.72858 21.3469 7.47194 21.1535 7.23991 20.9356C7.00564 20.7136 6.78382 20.4789 6.57545 20.2324C6.38552 20.0219 6.20713 19.8013 6.04108 19.5715C5.86809 19.3474 5.70957 19.1126 5.56647 18.8684L5.28874 18.4043C5.20788 18.2426 5.13405 18.0774 5.0567 17.9121C4.97267 17.7515 4.90777 17.5816 4.86335 17.4059C4.81764 17.2301 4.77194 17.0543 4.7403 16.8785C4.70866 16.7027 4.76139 16.6711 4.90553 16.8223C5.12748 17.0516 5.31463 17.3121 5.461 17.5957C6.04541 18.8704 6.8924 20.0073 7.94655 20.932C8.60951 21.4914 9.36822 21.9261 10.186 22.2152C11.0842 22.5469 12.0447 22.6754 12.9985 22.5914C13.2903 22.5563 13.5821 22.507 13.8669 22.4438C14.1516 22.3805 14.4329 22.2891 14.7036 22.166C15.529 21.8369 16.2842 21.3537 16.929 20.7422C17.4124 20.2649 17.8033 19.7023 18.0821 19.0828C18.1444 18.9499 18.1996 18.8138 18.2473 18.675C18.4372 18.1617 18.4899 18 18.6657 17.9121C18.7021 17.8913 18.7397 17.8725 18.7782 17.8559C18.8907 17.8207 18.954 18.0809 18.8415 18.5098C18.4606 19.8282 17.6312 20.9722 16.4965 21.7441C15.6575 22.3523 14.6989 22.7753 13.684 22.9852L13.6981 22.9535Z" fill="#4415FF"/>
<path d="M12.0072 17.0437C12.0634 16.9734 12.2884 16.6922 12.531 16.432C12.7736 16.1719 13.0302 15.9258 13.0794 15.8836C13.1287 15.8414 13.4943 15.5566 13.533 15.532L13.6279 15.4617L13.7228 15.3984H13.7509C13.7509 15.3984 13.7509 15.3738 13.7509 15.3633V15.3281V15.2719L13.7263 15.0926C13.7263 15.0609 13.6771 14.6285 13.6314 14.1785C13.5963 13.8467 13.528 13.5193 13.4275 13.2012C13.4029 13.1344 13.3361 12.9234 13.2552 12.7125C13.1933 12.5473 13.1229 12.3853 13.0443 12.2273C13.0232 12.1781 13.1392 12.1184 13.1638 12.1535C13.2648 12.3133 13.3518 12.4815 13.424 12.6562C13.5224 12.8857 13.6081 13.1205 13.6806 13.3594C13.765 13.6301 13.8177 13.8762 13.8212 13.8973C13.8705 14.0801 13.9126 14.2699 13.9478 14.4562L13.997 14.7164L14.0638 15.068L14.1025 15.2437L14.1658 15.5074C14.1658 15.5285 14.1904 15.5566 14.1658 15.5707L14.1095 15.6129L13.997 15.7043L13.8494 15.8273L13.5927 16.0453C13.3423 16.2631 13.1074 16.498 12.8896 16.7484C12.7665 16.8891 12.6505 17.0367 12.538 17.1809C12.4677 17.2687 12.3833 17.3426 12.3095 17.4269C12.2357 17.5113 12.1619 17.4797 12.0599 17.4269C11.958 17.3742 11.965 17.0965 12.0072 17.0437Z" fill="#4415FF"/>
<path d="M32.0215 19.6876C30.2145 19.2657 27.0997 17.1036 25.8622 17.1036C25.3594 17.1036 25.8129 19.0091 26.045 19.104C26.277 19.1989 25.3418 19.1848 25.1872 18.1583C25.1179 17.343 25.1784 16.5218 25.3664 15.7255C25.3664 15.7255 27.4758 17.1317 28.3899 17.3919C29.3039 17.652 32.5524 19.2376 32.5524 19.2376C32.5524 19.2376 32.25 19.7403 32.0215 19.6876Z" fill="#4415FF"/>
<path d="M25.145 19.4835C25.145 19.4835 25.4966 19.5749 25.3665 20.1585C25.2365 20.7421 23.3661 24.8202 23.3661 24.8202L22.7404 23.9484L25.145 19.4835Z" fill="#4415FF"/>
<path d="M23.1517 9.72074C22.9794 10.6102 22.3009 11.3133 22.0302 11.3309C21.8896 11.3309 21.6505 11.3907 21.6787 11.2571C21.5486 11.693 21.8404 12.5649 22.2869 12.136C22.5414 11.8681 22.7709 11.5774 22.9724 11.2676C23.324 10.7403 24.5298 9.94223 24.2134 9.21449C24.2134 9.21449 23.7775 8.24066 22.6384 9.06332C22.7206 9.05753 22.8029 9.07202 22.8782 9.10552C22.9535 9.13902 23.0193 9.1905 23.07 9.25543C23.1207 9.32036 23.1547 9.39676 23.1689 9.47789C23.1832 9.55903 23.1773 9.64243 23.1517 9.72074Z" fill="#4415FF"/>
<path d="M34.4333 15.0222C34.037 14.5453 33.5903 14.1127 33.1009 13.732C32.9216 13.5879 32.7493 13.4578 32.5489 13.3207C31.8915 12.839 31.1989 12.3996 30.4923 11.9812C30.1794 11.7984 29.8595 11.6297 29.543 11.4468C29.1239 11.2373 28.7219 10.9952 28.3407 10.7226C28.2247 10.6207 28.2704 10.6066 28.3934 10.6453C28.5908 10.7044 28.7826 10.7808 28.9665 10.8738C29.8032 11.3027 30.6681 11.7105 31.4837 12.2203C31.9723 12.5261 32.4962 12.8215 32.9848 13.1554C33.5295 13.5234 34.0359 13.9451 34.4966 14.414C34.7846 14.7076 35.0349 15.0359 35.2419 15.3914C35.3209 15.5291 35.3868 15.6738 35.4388 15.8238C35.4891 15.969 35.5313 16.1169 35.5653 16.2668C35.6145 16.4883 35.8747 16.6183 36.1313 16.759C36.5772 16.9336 36.9962 17.1703 37.3759 17.4621C37.4603 17.5319 37.5391 17.6083 37.6114 17.6906C37.7168 17.7951 37.789 17.9284 37.8188 18.0738C37.8344 18.1495 37.8258 18.2282 37.7942 18.2988C37.7838 18.3264 37.7696 18.3524 37.752 18.3761C37.6993 18.4394 37.5727 18.3234 37.4005 18.1547C37.1541 17.8706 36.8495 17.6429 36.5075 17.4867C36.3317 17.3953 36.1559 17.3179 35.938 17.2195C35.6985 17.1124 35.4824 16.9596 35.3016 16.7695C35.1658 16.5959 35.0773 16.3899 35.045 16.1718C35.0123 16.036 34.9651 15.904 34.9044 15.7781C34.7779 15.5108 34.6184 15.2605 34.4298 15.0328L34.4333 15.0222Z" fill="#4415FF"/>
<path d="M18.961 18.9036C18.683 19.7609 18.2224 20.5477 17.611 21.2098C17.0076 21.8557 16.2931 22.388 15.5016 22.7813C15.2098 22.9219 14.9215 23.0555 14.6227 23.168C14.3181 23.2749 14.0084 23.3664 13.6946 23.4422C12.5795 23.6773 11.4242 23.6399 10.3266 23.3332C9.23954 23.0326 8.22675 22.5094 7.3524 21.7969C6.58348 21.1741 5.91371 20.4379 5.36607 19.6137C4.64622 18.5724 4.21334 17.3599 4.111 16.0981C4.08287 15.7079 4.16373 15.7465 4.34303 16.0489C4.46655 16.2435 4.57808 16.4454 4.67701 16.6536C4.83564 16.9205 4.96866 17.2018 5.07428 17.4938C5.49627 18.6099 6.13153 19.6333 6.94459 20.5067C7.75131 21.3981 8.75038 22.0942 9.86607 22.5422L10.3794 22.725C10.5537 22.7776 10.7309 22.8198 10.9102 22.8516C11.2724 22.929 11.6405 22.9749 12.0106 22.9887C12.1934 22.9887 12.3797 22.9887 12.5626 22.9887H12.8438C12.9352 22.9887 13.0231 22.9606 13.1145 22.943L13.6629 22.8481L14.1938 22.6864C15.788 22.2102 17.136 21.1355 17.9555 19.6875C18.195 19.2456 18.3714 18.7722 18.4794 18.2813C18.5848 17.7855 18.6379 17.28 18.6376 16.7731V16.4848L18.6094 16.1965C18.5883 16.0067 18.5778 15.8133 18.5497 15.6235C18.3509 14.4785 17.9228 13.3856 17.2911 12.4102C16.6461 11.4315 15.8088 10.5943 14.8301 9.94926C14.6087 9.82621 14.3977 9.6891 14.1692 9.58012C13.3219 9.16527 13.0477 9.13715 12.879 8.87699C12.8344 8.82796 12.7944 8.77501 12.7594 8.71879C12.7208 8.63441 12.8016 8.58168 13.002 8.55707C13.1283 8.54641 13.2554 8.54641 13.3817 8.55707C13.5258 8.5852 13.6946 8.62738 13.8844 8.68363C14.9862 9.08795 15.974 9.75251 16.7637 10.6207C17.5856 11.4894 18.2378 12.5041 18.6868 13.6125C19.3845 15.2909 19.4912 17.1566 18.9891 18.9036H18.961Z" fill="#4415FF"/>
<path d="M13.294 15.293C13.297 15.2826 13.297 15.2717 13.294 15.2613L13.2483 14.966C13.2026 14.7621 13.1533 14.5547 13.1006 14.3508C13.0479 14.1469 13.0022 14.0555 12.9705 13.9043C12.8404 13.3734 12.7069 12.8496 12.5522 12.3117C12.4828 12.0731 12.4007 11.8384 12.3061 11.6086C12.1664 11.3308 12.0658 11.035 12.0072 10.7297C12.0072 10.6313 12.1233 10.5926 12.285 10.6172C12.374 10.6288 12.4592 10.66 12.5346 10.7087C12.61 10.7573 12.6737 10.8222 12.7209 10.8984C12.9807 11.4878 13.1775 12.1029 13.308 12.7336C13.3854 13.1133 13.5436 13.4824 13.6596 13.8656L13.8248 14.4949L13.9795 15.1629L14.0463 15.4617C14.0614 15.507 14.0685 15.5546 14.0674 15.6023L13.9338 15.6797L13.6736 15.8344L13.4944 15.9434C13.1588 16.1442 12.8453 16.3799 12.5592 16.6465C12.3513 16.8656 12.1609 17.1007 11.9897 17.3496C11.951 17.4023 11.9123 17.4586 11.8701 17.5078C11.7084 17.6977 11.624 17.7293 11.4518 17.6484C11.4122 17.633 11.3734 17.6154 11.3358 17.5957C11.2162 17.5219 11.1951 17.3707 11.2865 17.1984C11.5802 16.6783 11.9718 16.2198 12.4397 15.8484C12.6155 15.7121 12.7986 15.5853 12.9881 15.4688L13.1322 15.3773L13.2553 15.3H13.2764L13.294 15.293Z" fill="#4415FF"/>
<path d="M9.11386 17.5219L8.32636 17.1176C8.22792 17.0684 8.12246 17.0402 8.02402 16.991C7.67246 16.8187 7.34902 16.6008 7.008 16.418C6.85683 16.3336 6.69863 16.2668 6.54746 16.1859C6.34473 16.093 6.15455 15.9749 5.98144 15.8344C5.92871 15.7887 5.98144 15.7289 6.05878 15.6797C6.16551 15.6196 6.2902 15.5996 6.41035 15.6234C6.62404 15.6758 6.83422 15.7415 7.03964 15.8203C7.24399 15.9028 7.44249 15.9991 7.63378 16.1086C7.86582 16.2387 8.13652 16.3055 8.38613 16.418L9.20878 16.7695L9.71503 16.998C9.97519 17.1105 10.2283 17.2336 10.492 17.3496C10.6959 17.4305 10.9103 17.4726 11.1248 17.5465L11.2654 17.5922C11.4342 17.673 11.4623 17.7469 11.3955 17.9437C11.3955 17.9859 11.3674 18.0281 11.3498 18.0703C11.3254 18.1312 11.2814 18.1822 11.2247 18.2153C11.168 18.2484 11.102 18.2617 11.0369 18.2531C10.6575 18.1843 10.2887 18.0661 9.94003 17.9016L9.13144 17.5289L9.11386 17.5219Z" fill="#4415FF"/>
<path d="M32.6581 33.8063C33.1035 34.3219 33.509 34.8708 33.871 35.4481C34.2663 36.0625 34.5075 36.7632 34.5741 37.4907C34.6117 37.8985 34.5312 38.3086 34.3421 38.6719C34.0265 39.1808 33.5464 39.5666 32.9815 39.7653L32.6792 39.8286C32.5808 39.8338 32.4822 39.8338 32.3838 39.8286C32.0122 39.8163 31.6451 39.7426 31.2975 39.6106C30.3661 39.2426 29.4961 38.7352 28.7171 38.1059C27.3716 37.0526 26.1093 35.8972 24.9413 34.6501C23.7635 33.4196 22.6385 32.1505 21.5417 30.8567C20.5678 29.7071 19.6081 28.5469 18.6202 27.436C17.9874 26.7188 17.3405 26.0157 16.6936 25.3126C16.0467 24.6094 15.4069 23.9063 14.7495 23.2524C14.7003 23.2032 14.6616 23.1575 14.6264 23.1153C14.5913 23.0731 14.5737 23.059 14.5526 23.0344C14.5315 23.0098 14.4999 22.9501 14.5139 22.929C14.528 22.9079 14.6897 22.8833 14.9499 22.9817C15.7437 23.3486 16.4534 23.8752 17.0346 24.5286C18.3706 25.9735 19.6432 27.4571 20.9018 28.9723C22.1604 30.4876 23.4014 31.9712 24.7163 33.4231C25.5003 34.295 26.344 35.1422 27.2229 35.9579C28.0873 36.7786 29.0199 37.5243 30.0108 38.1868C30.5336 38.5434 31.1025 38.8273 31.7018 39.0305C31.9794 39.1153 32.2699 39.1498 32.5596 39.1325C32.6897 39.115 32.8165 39.0783 32.9358 39.0235C33.0613 38.9609 33.1792 38.8842 33.2874 38.795C33.5195 38.6359 33.6985 38.4107 33.8013 38.1488C33.9041 37.8868 33.9259 37.6 33.8639 37.3255C33.7231 36.7181 33.4612 36.1453 33.094 35.6415C32.6379 34.979 32.1388 34.3471 31.5999 33.7501C31.069 33.1489 30.4995 32.5618 29.9405 31.9922C28.2249 30.2344 26.4846 28.4485 24.7374 26.7188C23.3803 25.3794 22.0128 24.1067 20.6487 22.8059L19.7487 21.9551C18.6307 20.8794 18.3424 20.4786 18.237 20.1024C18.207 20.0219 18.1869 19.9381 18.1772 19.8528C18.1772 19.7544 18.3108 19.7825 18.5534 19.9337C18.9145 20.1767 19.2565 20.447 19.5764 20.7422C22.076 23.0028 24.6284 25.4778 27.1456 28.009C28.0831 28.9465 29.0135 29.8934 29.937 30.8497C30.8581 31.8094 31.8003 32.7657 32.6721 33.7993L32.6581 33.8063Z" fill="#4415FF"/>
<path d="M31.1779 18.8684C30.169 18.4254 29.1565 17.986 28.151 17.5254C27.7819 17.3567 27.4057 17.2055 27.0401 17.0192C26.7117 16.8563 26.3924 16.6756 26.0838 16.4778C25.7774 16.2756 25.4828 16.0561 25.2014 15.8204C24.5993 15.3645 24.1277 14.7583 23.8338 14.0625C23.7147 13.74 23.647 13.4007 23.6334 13.0571C23.6276 12.722 23.6655 12.3875 23.7459 12.0622C23.8353 11.6508 23.9771 11.2526 24.1678 10.8774C24.3444 10.4836 24.6019 10.1314 24.9237 9.84379C25.1416 9.67856 25.1733 9.79106 25.1276 10.0301C25.0796 10.3772 24.9863 10.7164 24.8498 11.0391C24.7087 11.3882 24.5913 11.7465 24.4983 12.1114C24.395 12.453 24.3498 12.8095 24.3647 13.1661C24.4398 13.8899 24.779 14.5608 25.3174 15.0504C25.6565 15.3911 26.0382 15.6865 26.4529 15.9293C26.8781 16.1811 27.3171 16.4088 27.7678 16.6114C28.7627 17.0789 29.7822 17.5219 30.7983 17.9649L32.6791 18.784C33.6283 19.1989 34.5776 19.6278 35.5162 20.0532C36.2475 20.3836 36.9752 20.6825 37.6889 21.0586C37.8436 21.1395 37.9983 21.2239 38.1565 21.3188C38.7225 21.6704 38.8596 21.9024 38.835 22.1344C38.831 22.1837 38.8204 22.2322 38.8033 22.2786C38.7295 22.3946 38.5115 22.2786 38.1354 22.0641C37.5623 21.7125 36.9154 21.4207 36.258 21.1149C35.6006 20.809 34.9291 20.5067 34.2471 20.2079L31.1779 18.886V18.8684Z" fill="#4415FF"/>
<path d="M35.1575 15.4477C34.7233 14.6419 34.098 13.9551 33.3365 13.4473C33.0587 13.2399 32.7493 13.0711 32.454 12.8848C31.3772 12.2427 30.2644 11.6628 29.1212 11.1481C28.615 10.9125 28.0911 10.6981 27.5743 10.4801C26.8891 10.235 26.2381 9.90295 25.6372 9.49222C25.4509 9.3516 25.5599 9.24613 25.7989 9.21097C26.1317 9.17548 26.468 9.22508 26.7763 9.35511C28.0806 9.93519 29.4517 10.4696 30.77 11.1657C31.5611 11.577 32.4118 11.9602 33.1993 12.4524C34.0897 12.9854 34.8691 13.6849 35.495 14.5125C35.6828 14.7818 35.8407 15.0706 35.9661 15.3739C36.0329 15.5215 36.0716 15.6832 36.1243 15.8379L36.1736 16.0805L36.2017 16.2036C36.2017 16.2387 36.2017 16.2633 36.2017 16.2914V16.3793V16.4637C36.2259 16.4805 36.2518 16.4946 36.279 16.5059L36.5251 16.6289C36.7302 16.7359 36.9297 16.8532 37.1228 16.9805C37.513 17.2249 37.8771 17.5088 38.2091 17.8278C38.7488 18.3475 39.1822 18.9672 39.4853 19.6524C39.5521 19.8034 39.6096 19.9584 39.6575 20.1164C39.6914 20.2424 39.7173 20.3704 39.7349 20.4996C39.7427 20.5885 39.7427 20.6779 39.7349 20.7668C39.7174 20.8852 39.6604 20.9943 39.5732 21.0762C39.5399 21.1099 39.5047 21.1416 39.4677 21.1711C39.3447 21.2379 39.2146 21.0094 39.0388 20.6403C38.8431 20.0842 38.576 19.556 38.2443 19.0688C37.8981 18.5808 37.4727 18.1542 36.9857 17.8067C36.7768 17.6585 36.5596 17.5224 36.3353 17.3989L36.163 17.311L35.9345 17.1985C35.8818 17.1739 35.8115 17.1422 35.7552 17.1106C35.7024 17.0739 35.6601 17.0243 35.6322 16.9664L35.6075 16.9278C35.6462 16.8996 35.5513 16.9629 35.5618 16.9559L35.5302 16.868L35.4669 16.6887C35.4542 16.4603 35.4164 16.2339 35.3544 16.0137C35.3228 15.9258 35.3017 15.8379 35.2665 15.75L35.14 15.4688L35.1575 15.4477Z" fill="#4415FF"/>
<path d="M25.3281 15.2085C25.4377 15.5177 25.4925 15.8437 25.4898 16.1718C25.5109 16.5902 25.5144 16.9804 25.5179 17.0542C25.5214 17.1281 25.5179 17.6413 25.5179 17.6906C25.5179 17.7398 25.5179 17.8909 25.5179 18.0843C25.5221 18.2209 25.547 18.356 25.5917 18.4851C25.6019 18.5038 25.609 18.5239 25.6128 18.5449C25.6339 18.5449 25.6128 18.5659 25.6937 18.6187C25.8865 18.7389 26.0874 18.8458 26.2948 18.9386L27.3495 19.4695C27.5355 19.5625 27.7141 19.6694 27.8839 19.7894C28.1054 19.9476 28.3093 20.1409 28.3796 20.1902C28.4499 20.2394 28.2988 20.3765 28.2566 20.3519C28.0843 20.2429 27.905 20.148 27.7257 20.046C27.4879 19.9146 27.2425 19.7972 26.9909 19.6945C26.6991 19.5714 26.432 19.4695 26.4109 19.4624C26.2034 19.3992 25.9925 19.3324 25.7816 19.255C25.6798 19.2194 25.5801 19.1783 25.4827 19.132L25.3738 19.0792L25.3175 19.0476L25.2788 18.9843C25.1963 18.9168 25.1302 18.8315 25.0855 18.7347C25.0154 18.5822 24.9646 18.4216 24.9343 18.2566C24.8793 17.9829 24.8441 17.7056 24.8288 17.4269L24.7972 16.2597C24.7972 16.0452 24.755 15.8343 24.748 15.6304C24.7325 15.5137 24.7325 15.3955 24.748 15.2788C24.748 15.2015 24.8323 15.1136 24.8956 15.0327C24.9589 14.9519 25.0046 15.0081 25.1031 15.0538C25.1887 15.0879 25.2656 15.1408 25.3281 15.2085Z" fill="#4415FF"/>
<path d="M16.1275 41.2137C15.7234 41.2868 15.3068 41.2404 14.9287 41.0801C14.5694 40.9336 14.2458 40.7119 13.9795 40.4297C13.7034 40.1389 13.522 39.7711 13.4592 39.375C13.3989 39.0037 13.4097 38.6244 13.4908 38.2571C13.5935 37.7536 13.7638 37.2664 13.9971 36.8086C14.1899 36.4132 14.4095 36.0314 14.6545 35.666C14.8935 35.3145 15.1432 34.9629 15.3892 34.6113L16.8869 32.5301C17.3299 31.9149 17.7623 31.2856 18.1842 30.6633C18.6966 29.8414 19.2664 29.0566 19.8892 28.3149C20.0896 28.0899 20.1494 28.1778 20.1142 28.4625C20.0565 28.9068 19.9043 29.3336 19.6678 29.7141C18.5568 31.3453 17.3896 32.9379 16.1908 34.5235C15.4486 35.4576 14.8273 36.4817 14.3416 37.5715C14.2195 37.8607 14.1299 38.1626 14.0744 38.4715C14.0127 38.7636 14.0127 39.0653 14.0744 39.3574C14.1525 39.6396 14.3023 39.8967 14.5094 40.1037C14.7164 40.3108 14.9735 40.4606 15.2557 40.5387C15.5997 40.6548 15.9739 40.6436 16.3103 40.5071C16.6662 40.3599 16.9907 40.1464 17.2666 39.8778C18.128 39.0055 18.8501 38.0059 19.4076 36.9141C19.8682 36.0739 20.2373 35.209 20.6381 34.3406C20.726 34.1508 20.8139 33.9645 20.9123 33.7746C21.2639 33.0715 21.4783 32.8781 21.7314 32.843C21.777 32.8258 21.8241 32.8128 21.8721 32.8043C21.9353 32.8043 21.9353 32.8746 21.9213 33.0293C21.8955 33.2475 21.8312 33.4594 21.7314 33.6551C21.0615 35.3025 20.2511 36.8892 19.3092 38.3977C18.9347 38.987 18.5075 39.5413 18.033 40.0535C17.782 40.3138 17.5065 40.5493 17.2103 40.7567C16.8864 40.9856 16.5191 41.1459 16.131 41.2278L16.1275 41.2137Z" fill="#4415FF"/>
<path d="M22.5082 23.5547C22.6155 23.3601 22.7328 23.1711 22.8598 22.9887L23.2113 22.4543C23.25 22.3875 23.4434 22.1028 23.4609 22.0536L23.6332 21.8039C23.7211 21.6774 23.8125 21.5368 23.8371 21.4911C23.8617 21.4454 24.6352 20.2641 24.6879 20.1059C24.7336 20.0039 25.0641 19.4379 25.1168 19.35C25.1168 19.3254 25.3172 19.3289 25.3172 19.3817C25.3167 19.5499 25.2744 19.7154 25.1941 19.8633C25.0887 20.0743 24.7336 20.7985 24.716 20.8301L24.4981 21.2766L24.4066 21.4805L24.1465 22.0465C24.0656 22.2258 23.9988 22.3981 23.9109 22.5809L23.5242 23.3473C23.4539 23.4914 23.3871 23.6426 23.3098 23.7868C23.2569 23.8679 23.1956 23.9434 23.127 24.0118C23.1059 24.0399 23.0531 24.0399 22.9898 24.0118C22.9266 23.9836 22.8316 23.9661 22.7719 23.9485C22.7355 23.9356 22.7037 23.9124 22.6805 23.8817C22.6429 23.84 22.6088 23.7953 22.5785 23.7481C22.5344 23.6931 22.5097 23.6252 22.5082 23.5547Z" fill="#4415FF"/>
<path d="M27.4126 23.2031C27.7641 22.7461 28.1157 22.2996 28.5095 21.8707C28.6536 21.7125 28.7837 21.5473 28.9384 21.4031C29.4745 20.8723 30.0976 20.4371 30.7805 20.1164L31.6595 19.6875C31.8423 19.5996 32.011 19.4976 32.2009 19.4133L32.7458 19.1742C32.8583 19.125 32.9075 19.2129 32.8794 19.3676C32.8314 19.5798 32.706 19.7666 32.5278 19.8914C31.7684 20.3273 30.9985 20.5945 30.3165 20.9883C29.9047 21.265 29.5322 21.5962 29.2091 21.9726C28.8364 22.3805 28.4848 22.8129 28.1544 23.2629C27.9505 23.5406 27.7466 23.8219 27.5532 24.1101C27.2614 24.5355 26.9591 24.9609 26.6848 25.4215C26.4739 25.773 26.2946 26.1246 26.0661 26.4762C26.0204 26.55 25.9712 26.6273 25.9149 26.7012C25.8462 26.8047 25.7548 26.8913 25.6477 26.9543C25.5861 26.99 25.5142 27.0036 25.4438 26.993C25.4157 26.9951 25.3875 26.9951 25.3595 26.993C25.2786 26.9648 25.3032 26.8066 25.3876 26.5816C25.5352 26.2512 25.697 25.9312 25.8622 25.5937C26.0274 25.2562 26.2559 24.9328 26.4352 24.6094C26.727 24.1207 27.0645 23.6531 27.3985 23.182L27.4126 23.2031Z" fill="#4415FF"/>
<path d="M22.867 11.7386C23.0428 11.8301 23.2186 11.9144 23.4049 11.9988L23.6826 12.1219L23.8373 12.1781L23.9287 12.2027C23.98 12.2105 24.0321 12.2105 24.0834 12.2027C24.1045 12.2027 24.0834 12.0726 24.0834 11.9461L24.0623 11.8301C24.0588 11.7985 24.0588 11.7667 24.0623 11.7351V11.6894H24.0131L23.89 11.6437L23.6369 11.5347C23.4647 11.4539 23.2854 11.3695 23.1236 11.2816C23.1062 11.3029 23.092 11.3266 23.0815 11.3519L22.9971 11.5066C22.9476 11.5804 22.9041 11.6579 22.867 11.7386Z" fill="#4415FF"/>
<path d="M23.3487 10.8281L24.326 11.2148C24.4001 11.06 24.4636 10.9002 24.5159 10.7367L23.5385 10.35C23.4656 10.5053 23.4022 10.665 23.3487 10.8281Z" fill="#4415FF"/>
<path d="M23.876 9.59062C23.8032 9.66279 23.7437 9.74729 23.7003 9.84022L23.5561 10.0933L23.2749 10.5996C23.085 10.9301 22.8917 11.257 22.6772 11.5594C22.5722 11.7064 22.4545 11.844 22.3256 11.9707C22.2733 12.0214 22.2155 12.0662 22.1534 12.1043C22.0971 12.1289 22.0866 12.1254 22.0866 12.1254C22.0558 12.0977 22.0307 12.0643 22.0128 12.0269L21.9917 11.9531C21.9826 11.9172 21.9756 11.8808 21.9706 11.8441C21.9564 11.6727 21.9646 11.5001 21.9952 11.3308C22.1274 10.6034 22.3945 9.90703 22.7827 9.27772C22.829 9.21033 22.8807 9.14683 22.9374 9.08788L22.976 9.04921H22.9971C22.9971 9.04921 23.0464 9.02812 23.0745 9.01757C23.2128 8.98193 23.3588 8.98929 23.4928 9.03866C23.6255 9.08452 23.7458 9.16031 23.8444 9.26015C23.9253 9.36562 23.971 9.43944 23.9393 9.53437C23.9393 9.57304 24.2522 9.88593 24.3436 9.72773C24.4098 9.5999 24.4353 9.45483 24.4164 9.31211C24.3975 9.16939 24.3353 9.0359 24.2381 8.92968C24.0798 8.74256 23.8712 8.6047 23.637 8.53241C23.4012 8.45843 23.1485 8.45843 22.9128 8.53241C22.8474 8.55281 22.7849 8.58115 22.7264 8.61679C22.6934 8.63822 22.6617 8.66171 22.6315 8.6871L22.5682 8.7539C22.4916 8.83475 22.4233 8.92308 22.3643 9.01757C22.1467 9.36066 21.9664 9.72602 21.8264 10.1074C21.6858 10.4769 21.5833 10.8597 21.5206 11.25C21.4821 11.4622 21.4738 11.6788 21.496 11.8934C21.496 11.9531 21.496 12.0058 21.5241 12.0656C21.5522 12.1254 21.5663 12.1922 21.5909 12.2519C21.6512 12.3915 21.7581 12.5058 21.8932 12.5754C21.9726 12.6089 22.0588 12.6235 22.1448 12.6181C22.2308 12.6126 22.3144 12.5871 22.3889 12.5437C22.4965 12.4873 22.5959 12.4163 22.6842 12.3328C22.8318 12.185 22.9682 12.0264 23.0921 11.8582C23.3276 11.5312 23.535 11.1937 23.7319 10.8598C23.9288 10.5258 24.1467 10.1953 24.2874 9.86132C24.2944 9.77694 23.9604 9.53085 23.876 9.59062Z" fill="#4415FF"/>
<path d="M40.2481 14.3367C40.2129 14.3789 40.1672 14.3192 40.1145 14.1961C40.0938 14.1374 40.0831 14.0756 40.0829 14.0133C40.0983 13.9771 40.1159 13.9419 40.1356 13.9078C40.1356 13.9078 40.3536 13.7918 40.4239 13.7496C40.4895 13.7132 40.5608 13.6882 40.6348 13.6758L41.0778 13.5703C41.1116 13.565 41.146 13.565 41.1797 13.5703C41.2981 13.5844 41.4181 13.5724 41.5313 13.5352C41.5524 13.5352 41.57 13.5352 41.5875 13.5035C41.7067 13.4485 41.836 13.4186 41.9672 13.4156C42.0727 13.4403 42.1782 13.4473 42.2836 13.4649C42.3012 13.4649 42.3153 13.4649 42.3293 13.4649C42.3434 13.4649 42.3997 13.5071 42.4313 13.5071C42.4756 13.5002 42.5206 13.5002 42.5649 13.5071C42.5895 13.5071 42.6141 13.5457 42.6387 13.5703C42.6516 13.6103 42.6516 13.6534 42.6387 13.6934C42.6387 13.725 42.6387 13.7672 42.6387 13.8024C42.6403 13.8152 42.6403 13.8282 42.6387 13.841C42.5674 13.922 42.4845 13.9919 42.3926 14.0485L42.2098 14.0977L42.0059 14.161C42.0059 14.161 41.9637 14.161 41.9426 14.161C41.9215 14.161 41.6614 14.2524 41.6473 14.2524C41.6332 14.2524 41.5348 14.2875 41.468 14.2524C41.468 14.2524 41.4434 14.2524 41.4329 14.2524C41.332 14.2718 41.2297 14.2824 41.127 14.284C41.0743 14.284 41.025 14.3051 40.9723 14.3121C40.9196 14.3192 40.9512 14.3121 40.9407 14.3121C40.9292 14.3086 40.917 14.3086 40.9055 14.3121C40.7869 14.3275 40.6694 14.351 40.5539 14.3824C40.5258 14.3824 40.3817 14.3578 40.35 14.3824C40.3184 14.4071 40.2586 14.3192 40.2481 14.3367Z" fill="#4415FF"/>
<path d="M36.8909 8.86638C36.8452 8.84529 36.8909 8.79607 37.0104 8.72576C37.0627 8.69526 37.1197 8.67386 37.1791 8.66248C37.2166 8.6705 37.2531 8.68228 37.2881 8.69763C37.3568 8.78027 37.4202 8.86716 37.478 8.95779C37.518 9.0181 37.5477 9.08463 37.5659 9.15466C37.608 9.29177 37.6502 9.4324 37.6889 9.56951C37.6961 9.60193 37.6961 9.63552 37.6889 9.66794C37.6811 9.77893 37.6967 9.89032 37.7346 9.9949C37.7345 10.0049 37.7371 10.0147 37.742 10.0233C37.747 10.032 37.7541 10.0391 37.7627 10.0441C37.8164 10.1538 37.8464 10.2736 37.8506 10.3957C37.8295 10.4976 37.8225 10.5961 37.8014 10.7015C37.8014 10.7015 37.8014 10.7297 37.8014 10.7437C37.7848 10.7526 37.7716 10.7667 37.764 10.7839C37.7563 10.8011 37.7547 10.8204 37.7592 10.8386C37.7579 10.8842 37.7496 10.9292 37.7346 10.9722C37.7158 10.9967 37.6933 11.0181 37.6678 11.0355C37.6467 11.0531 37.5588 11.0355 37.5518 11.0355C37.5448 11.0355 37.485 11.0355 37.4463 11.0355H37.4112C37.3417 10.9679 37.2804 10.8924 37.2284 10.8105C37.2284 10.8105 37.2284 10.7297 37.1862 10.6488C37.1695 10.5864 37.1483 10.5253 37.1229 10.466C37.1229 10.4484 37.1229 10.4273 37.1229 10.4062C37.1229 10.3851 37.0315 10.1496 37.028 10.139C37.0245 10.1285 36.9928 10.0371 37.028 9.9738C37.0304 9.9689 37.0317 9.96348 37.0317 9.95798C37.0317 9.95249 37.0304 9.94707 37.028 9.94216C37.0048 9.85119 36.9907 9.75817 36.9858 9.66443C36.9774 9.61794 36.9656 9.57212 36.9506 9.52732C36.9506 9.52732 36.9506 9.50974 36.9506 9.49919C36.9542 9.48774 36.9542 9.47549 36.9506 9.46404C36.9288 9.35397 36.8982 9.24581 36.8592 9.1406C36.8592 9.11951 36.8592 8.9824 36.8592 8.95779C36.8592 8.93318 36.912 8.87693 36.8909 8.86638Z" fill="#4415FF"/>
<path d="M10.6326 6.16643C10.6608 6.21214 10.594 6.23675 10.4709 6.25784C10.4161 6.26272 10.3609 6.25552 10.3092 6.23675C10.2815 6.20894 10.2567 6.1783 10.2354 6.14534C10.2354 6.12776 10.2002 5.85706 10.1897 5.76565C10.1773 5.68173 10.1773 5.59645 10.1897 5.51253L10.26 5.02737C10.2654 4.99263 10.2773 4.95923 10.2951 4.92893C10.3495 4.8195 10.3795 4.69954 10.383 4.57737C10.387 4.56791 10.389 4.55775 10.389 4.54749C10.389 4.53723 10.387 4.52707 10.383 4.51761C10.3641 4.40119 10.3641 4.28246 10.383 4.16604C10.427 4.07849 10.4579 3.9849 10.4744 3.88831C10.4744 3.88831 10.4744 3.8637 10.4744 3.84612C10.4894 3.83516 10.5006 3.81973 10.5063 3.80205C10.5119 3.78436 10.5119 3.76533 10.5061 3.74768V3.61761C10.5122 3.5885 10.5216 3.56019 10.5342 3.53323C10.5342 3.50511 10.601 3.48401 10.6115 3.48753C10.6221 3.49104 10.6608 3.46643 10.6819 3.45237C10.6899 3.45012 10.6984 3.45012 10.7065 3.45237C10.8209 3.51897 10.9241 3.60321 11.0123 3.70198C11.088 3.86763 11.1457 4.04087 11.1846 4.21878C11.1916 4.24528 11.1916 4.27314 11.1846 4.29964C11.1846 4.29964 11.2127 4.67581 11.2057 4.68636C11.2057 4.76018 11.2057 4.83401 11.1389 4.89378C11.0721 4.95354 11.1389 4.9219 11.1389 4.93597C11.1184 5.0575 11.0818 5.17574 11.0299 5.28753C11.0088 5.34378 10.9983 5.40354 10.9807 5.45979C10.9631 5.51604 10.9807 5.45979 10.9807 5.4844C10.9723 5.49652 10.9652 5.50948 10.9596 5.52307C10.9147 5.64941 10.8783 5.77861 10.8506 5.90979C10.8506 5.93792 10.7592 6.06448 10.7592 6.09964C10.7592 6.13479 10.6221 6.14886 10.6326 6.16643Z" fill="#4415FF"/>
<path d="M5.53491 9.49219C5.59116 9.46758 5.60522 9.54844 5.60522 9.68906C5.6008 9.75574 5.58159 9.82059 5.54897 9.87891C5.51639 9.907 5.48105 9.93173 5.44351 9.95273C5.31002 9.96031 5.17621 9.96031 5.04272 9.95273C4.95125 9.94578 4.86126 9.92565 4.77554 9.89297C4.60679 9.82617 4.42397 9.76641 4.2728 9.69961C4.23603 9.68192 4.20175 9.65946 4.17085 9.63281C4.06711 9.54646 3.94777 9.48082 3.81929 9.43945C3.79819 9.43945 3.78062 9.41836 3.75249 9.43945C3.61095 9.4077 3.47635 9.35052 3.35522 9.2707C3.26733 9.18633 3.17593 9.11953 3.08452 9.0457C3.08452 9.0457 3.05288 9.0457 3.04937 9.00703C3.04585 8.96836 3.00366 8.9332 2.97554 8.91211C2.93107 8.87585 2.89096 8.83456 2.85601 8.78906C2.83867 8.75969 2.8234 8.72915 2.8103 8.69766C2.8103 8.66953 2.82788 8.61328 2.83843 8.60625C2.84897 8.59922 2.85601 8.55703 2.86304 8.52891C2.86461 8.5196 2.86461 8.51009 2.86304 8.50078C2.98873 8.46334 3.11868 8.44208 3.24976 8.4375C3.24976 8.4375 3.68218 8.54648 3.7314 8.55352C3.78062 8.56055 3.77358 8.58164 3.79468 8.59922C3.81577 8.6168 4.14624 8.68711 4.14624 8.69414C4.20952 8.72578 4.27983 8.73633 4.31851 8.81719C4.32756 8.82793 4.33993 8.83535 4.35366 8.83828C4.46158 8.88664 4.56509 8.94428 4.66304 9.01055C4.71525 9.0387 4.76928 9.06336 4.82476 9.08438C4.83535 9.08977 4.84397 9.09839 4.84937 9.10898C4.84937 9.10898 4.87046 9.13008 4.88101 9.13359C5.00311 9.19722 5.13155 9.24789 5.26421 9.28477C5.29585 9.28477 5.41538 9.40078 5.45405 9.4043C5.49272 9.40781 5.51382 9.49219 5.53491 9.49219Z" fill="#4415FF"/>
<path d="M9.87668 38.9918C9.85559 38.9285 9.9259 38.8934 10.0525 38.8864C10.1093 38.8883 10.1648 38.904 10.2142 38.9321C10.2388 38.9672 10.2634 39.0024 10.281 39.034C10.2896 39.1524 10.3073 39.2699 10.3337 39.3856C10.3513 39.4699 10.3618 39.5473 10.3724 39.6281C10.3925 39.7896 10.4363 39.9471 10.5025 40.0957C10.5151 40.1299 10.5245 40.1652 10.5306 40.2012C10.5505 40.3333 10.6107 40.456 10.7029 40.5528C10.7029 40.5528 10.7275 40.5879 10.7556 40.5914C10.8652 40.6752 10.9654 40.7707 11.0544 40.8762C11.1185 40.9728 11.1941 41.0613 11.2794 41.1399C11.2794 41.1399 11.3111 41.1399 11.3146 41.1785C11.3181 41.2172 11.3638 41.2453 11.3954 41.2629C11.4271 41.2805 11.4833 41.3121 11.529 41.3438C11.5502 41.3689 11.5691 41.396 11.5853 41.4246C11.5853 41.4492 11.5853 41.5125 11.5607 41.516C11.5361 41.5196 11.5431 41.5653 11.5361 41.5934C11.5381 41.6027 11.5381 41.6122 11.5361 41.6215C11.3987 41.6446 11.2585 41.6446 11.1212 41.6215C11.1212 41.6215 10.9911 41.5758 10.8611 41.516C10.763 41.4693 10.6678 41.4164 10.5763 41.3578C10.55 41.3397 10.5283 41.3156 10.513 41.2875C10.3853 41.1957 10.2674 41.0909 10.1614 40.9746C10.0975 40.9076 10.0547 40.8233 10.0384 40.7321C10.0367 40.7149 10.0292 40.6988 10.0173 40.6864C9.94014 40.5538 9.88326 40.4104 9.84856 40.261C9.82395 40.1801 9.80637 40.1133 9.78176 40.0395C9.78 40.0255 9.78 40.0113 9.78176 39.9973C9.78351 39.9786 9.78351 39.9597 9.78176 39.941C9.75301 39.7631 9.73656 39.5834 9.73254 39.4031C9.7486 39.3072 9.76972 39.2121 9.79583 39.1184C9.78879 39.0867 9.88372 39.0235 9.87668 38.9918Z" fill="#4415FF"/>
</svg>
