<svg width="25" height="19" viewBox="0 0 25 19" fill="none" xmlns="http://www.w3.org/2000/svg">
<path d="M21 8.35156C21.1602 7.93359 21.25 7.47656 21.25 7C21.25 4.92969 19.5703 3.25 17.5 3.25C16.7305 3.25 16.0117 3.48438 15.418 3.88281C14.3359 2.00781 12.3164 0.75 10 0.75C6.54688 0.75 3.75 3.54688 3.75 7C3.75 7.10547 3.75391 7.21094 3.75781 7.31641C1.57031 8.08594 0 10.1719 0 12.625C0 15.7305 2.51953 18.25 5.625 18.25H20C22.7617 18.25 25 16.0117 25 13.25C25 10.832 23.2812 8.8125 21 8.35156ZM15.8086 11.8164L11.6914 15.9336C11.4492 16.1758 11.0508 16.1758 10.8086 15.9336L6.69141 11.8164C6.29688 11.4219 6.57813 10.75 7.13281 10.75H9.6875V6.375C9.6875 6.03125 9.96875 5.75 10.3125 5.75H12.1875C12.5312 5.75 12.8125 6.03125 12.8125 6.375V10.75H15.3672C15.9219 10.75 16.2031 11.4219 15.8086 11.8164Z" fill="#CDDAFD"/>
</svg>
