<svg width="154" height="41" viewBox="0 0 154 41" fill="none" xmlns="http://www.w3.org/2000/svg">
<path d="M22.1973 40.1001C30.1973 40.1001 34.4973 30.4001 28.9973 24.7001L28.8973 24.6001L16.8973 12.6001L4.8973 24.6001L4.7973 24.7001C-0.802704 30.4001 3.59731 40.1001 11.5973 40.1001H22.1973Z" fill="#4415FF"/>
<path d="M6.40045 14.3614C3.26152 11.0729 2.17244 7.14471 2.58272 3.37015L2.58985 3.30456L2.59351 3.23868C2.60264 3.07439 2.67356 2.91403 2.84294 2.76789C3.0239 2.61178 3.29347 2.5 3.59736 2.5H30.2973C30.8529 2.5 31.2456 2.8682 31.3099 3.35402C31.6292 7.14105 30.4373 11.1643 27.3941 14.3612L18.6651 5.63223L16.8973 3.86446L15.1296 5.63223L6.40045 14.3614Z" fill="#4415FF" stroke="white" stroke-width="5"/>
<path d="M44.2583 29.05V13.354H53.7143V15.706H47.0423V19.714H52.6823V22.066H47.0423V26.698H53.9543V29.05H44.2583ZM56.9324 29.05V17.266H59.2124L59.4044 18.874H59.5004C59.9964 18.346 60.5324 17.898 61.1084 17.53C61.7004 17.162 62.3644 16.978 63.1004 16.978C63.9644 16.978 64.6524 17.17 65.1644 17.554C65.6924 17.922 66.0924 18.434 66.3644 19.09C66.9244 18.482 67.5084 17.978 68.1164 17.578C68.7404 17.178 69.4204 16.978 70.1564 16.978C71.4044 16.978 72.3244 17.386 72.9164 18.202C73.5084 19.018 73.8044 20.17 73.8044 21.658V29.05H71.0204V22.018C71.0204 21.042 70.8684 20.354 70.5644 19.954C70.2764 19.554 69.8284 19.354 69.2204 19.354C68.4844 19.354 67.6604 19.842 66.7484 20.818V29.05H63.9884V22.018C63.9884 21.042 63.8364 20.354 63.5324 19.954C63.2444 19.554 62.7884 19.354 62.1644 19.354C61.4284 19.354 60.6044 19.842 59.6924 20.818V29.05H56.9324ZM77.1589 29.05V17.266H79.4389L79.6309 18.874H79.7269C80.2229 18.346 80.7589 17.898 81.3349 17.53C81.9269 17.162 82.5909 16.978 83.3269 16.978C84.1909 16.978 84.8789 17.17 85.3909 17.554C85.9189 17.922 86.3189 18.434 86.5909 19.09C87.1509 18.482 87.7349 17.978 88.3429 17.578C88.9669 17.178 89.6469 16.978 90.3829 16.978C91.6309 16.978 92.5509 17.386 93.1429 18.202C93.7349 19.018 94.0309 20.17 94.0309 21.658V29.05H91.2469V22.018C91.2469 21.042 91.0949 20.354 90.7909 19.954C90.5029 19.554 90.0549 19.354 89.4469 19.354C88.7109 19.354 87.8869 19.842 86.9749 20.818V29.05H84.2149V22.018C84.2149 21.042 84.0629 20.354 83.7589 19.954C83.4709 19.554 83.0149 19.354 82.3909 19.354C81.6549 19.354 80.8309 19.842 79.9189 20.818V29.05H77.1589ZM100.241 29.338C99.2175 29.338 98.3775 29.018 97.7215 28.378C97.0815 27.738 96.7615 26.906 96.7615 25.882C96.7615 24.618 97.3135 23.642 98.4175 22.954C99.5215 22.25 101.281 21.77 103.697 21.514C103.681 20.89 103.513 20.354 103.193 19.906C102.889 19.442 102.337 19.21 101.537 19.21C100.961 19.21 100.393 19.322 99.8335 19.546C99.2895 19.77 98.7535 20.042 98.2255 20.362L97.2175 18.514C97.8735 18.098 98.6095 17.738 99.4255 17.434C100.257 17.13 101.137 16.978 102.065 16.978C103.537 16.978 104.633 17.418 105.353 18.298C106.089 19.162 106.457 20.418 106.457 22.066V29.05H104.177L103.985 27.754H103.889C103.361 28.202 102.793 28.578 102.185 28.882C101.593 29.186 100.945 29.338 100.241 29.338ZM101.129 27.178C101.609 27.178 102.041 27.066 102.425 26.842C102.825 26.602 103.249 26.282 103.697 25.882V23.242C102.097 23.45 100.985 23.762 100.361 24.178C99.7375 24.578 99.4255 25.074 99.4255 25.666C99.4255 26.194 99.5855 26.578 99.9055 26.818C100.225 27.058 100.633 27.178 101.129 27.178ZM109.76 29.05V17.266H112.04L112.232 18.85H112.328C112.856 18.338 113.432 17.898 114.056 17.53C114.68 17.162 115.392 16.978 116.192 16.978C117.456 16.978 118.376 17.386 118.952 18.202C119.528 19.018 119.816 20.17 119.816 21.658V29.05H117.056V22.018C117.056 21.042 116.912 20.354 116.624 19.954C116.336 19.554 115.864 19.354 115.208 19.354C114.696 19.354 114.24 19.482 113.84 19.738C113.456 19.978 113.016 20.338 112.52 20.818V29.05H109.76ZM126.694 29.338C125.43 29.338 124.51 28.93 123.934 28.114C123.358 27.298 123.07 26.146 123.07 24.658V17.266H125.83V24.298C125.83 25.274 125.974 25.962 126.262 26.362C126.55 26.762 127.014 26.962 127.654 26.962C128.166 26.962 128.614 26.834 128.998 26.578C129.398 26.322 129.822 25.906 130.27 25.33V17.266H133.03V29.05H130.774L130.558 27.322H130.486C129.974 27.93 129.414 28.418 128.806 28.786C128.198 29.154 127.494 29.338 126.694 29.338ZM141.566 29.338C140.478 29.338 139.494 29.098 138.614 28.618C137.734 28.122 137.038 27.418 136.526 26.506C136.014 25.578 135.758 24.466 135.758 23.17C135.758 21.89 136.014 20.786 136.526 19.858C137.054 18.93 137.734 18.218 138.566 17.722C139.398 17.226 140.27 16.978 141.182 16.978C142.254 16.978 143.15 17.218 143.87 17.698C144.59 18.162 145.134 18.818 145.502 19.666C145.87 20.498 146.054 21.466 146.054 22.57C146.054 23.146 146.014 23.594 145.934 23.914H138.446C138.574 24.954 138.95 25.762 139.574 26.338C140.198 26.914 140.982 27.202 141.926 27.202C142.438 27.202 142.91 27.13 143.342 26.986C143.79 26.826 144.23 26.61 144.662 26.338L145.598 28.066C145.038 28.434 144.414 28.738 143.726 28.978C143.038 29.218 142.318 29.338 141.566 29.338ZM138.422 22.042H143.654C143.654 21.13 143.454 20.418 143.054 19.906C142.654 19.378 142.054 19.114 141.254 19.114C140.566 19.114 139.95 19.37 139.406 19.882C138.878 20.378 138.55 21.098 138.422 22.042ZM151.378 29.338C150.402 29.338 149.706 29.042 149.29 28.45C148.89 27.858 148.69 27.05 148.69 26.026V12.106H151.45V26.17C151.45 26.506 151.514 26.746 151.642 26.89C151.77 27.018 151.906 27.082 152.05 27.082C152.114 27.082 152.17 27.082 152.218 27.082C152.282 27.066 152.37 27.05 152.482 27.034L152.842 29.098C152.682 29.162 152.474 29.218 152.218 29.266C151.978 29.314 151.698 29.338 151.378 29.338Z" fill="white"/>
</svg>
