<svg width="45" height="45" viewBox="0 0 45 45" fill="none" xmlns="http://www.w3.org/2000/svg">
<path d="M28.4765 9.87537C26.346 9.80505 24.1874 9.84373 22.0324 9.84373C19.8773 9.84373 17.7292 9.93162 15.5847 10.0582C14.0167 10.1461 12.4593 10.2972 10.9089 10.4765C9.54763 10.6242 8.1972 10.8591 6.86596 11.1797C6.21917 11.3271 5.58986 11.5427 4.98861 11.823C4.71893 11.9441 4.46983 12.1066 4.25033 12.3047L4.13783 12.4523C4.11061 12.4979 4.08822 12.5462 4.07104 12.5965L4.01479 12.8144L3.96557 13.0535C3.85352 13.7241 3.77607 14.4 3.73354 15.0785C3.6808 15.7816 3.64565 16.4531 3.61752 17.1422C3.56127 18.5238 3.54369 19.9054 3.54721 21.2906C3.54721 23.7515 3.66674 26.2125 3.87768 28.6418C4.01127 30.2004 4.1976 31.7519 4.43666 33.2965C4.65693 34.8322 4.97754 36.3518 5.39643 37.8457C5.69526 38.7422 5.44565 38.7316 4.9394 38.0179C4.43315 37.3043 3.84955 35.8277 3.53315 34.0172C3.04942 30.8215 2.77111 27.5981 2.69994 24.3668C2.58544 21.1274 2.65704 17.8842 2.9144 14.6531C2.96713 14.1644 3.01283 13.6758 3.09369 13.1765C3.13404 12.9146 3.18921 12.6552 3.25893 12.3996C3.30379 12.2387 3.37766 12.0874 3.4769 11.9531L3.62455 11.7597L3.78627 11.6086C4.20662 11.2625 4.68194 10.9892 5.19252 10.8C5.67875 10.6164 6.1753 10.4615 6.67963 10.3359C8.63334 9.87377 10.6196 9.56231 12.621 9.40427C16.9769 9.01755 21.3398 8.94724 25.6921 8.94373C27.0351 8.94373 28.3781 8.96833 29.721 9.03865C31.0731 9.0939 32.4195 9.24546 33.7499 9.49216C34.2668 9.59121 34.7739 9.73592 35.2652 9.92458C35.5231 10.0252 35.7676 10.1575 35.9929 10.3183C36.216 10.4844 36.4086 10.6878 36.5624 10.9195C36.8648 11.3565 37.1127 11.8288 37.3007 12.3258C37.4915 12.8062 37.6558 13.2968 37.7929 13.7953C38.2994 15.7701 38.652 17.7812 38.8476 19.8105C39.1781 22.9324 39.3644 26.0015 39.4417 29.1023C39.4417 29.7843 39.4769 30.4523 39.4769 31.1414C39.4769 33.6937 39.3714 34.5058 39.1253 35.0437C39.0772 35.1659 39.0184 35.2835 38.9496 35.3953C38.7527 35.6308 38.6507 34.5902 38.6261 32.734C38.5874 29.9812 38.5101 27.1511 38.3413 24.2965C38.2043 21.4209 37.8767 18.5576 37.3605 15.7254C37.1688 14.6932 36.8852 13.6802 36.5132 12.6984C36.3371 12.2358 36.1007 11.7984 35.8101 11.3976C35.746 11.3127 35.6755 11.2327 35.5992 11.1586L35.5007 11.0742L35.3812 10.9898C35.1854 10.8718 34.9781 10.774 34.7624 10.698C33.7702 10.3828 32.7452 10.1823 31.7074 10.1004C30.6527 9.99138 29.5663 9.93513 28.4871 9.90349L28.4765 9.87537Z" fill="#4415FF"/>
<path d="M27.9705 28.0935C27.6767 27.9623 27.3705 27.861 27.0564 27.7911L26.8349 27.7384C26.7892 27.7384 26.7752 27.7771 26.7646 27.8122C26.7541 27.8474 26.7646 27.8122 26.7646 27.886C26.7646 27.9599 26.7646 27.9985 26.7646 28.0583V28.4099C26.7492 29.3029 26.7844 30.1962 26.8701 31.0853C26.9088 31.486 26.972 31.8798 27.0494 32.27L27.2111 33.0153C27.2568 33.265 27.2849 33.5146 27.3131 33.7642C27.3131 33.9189 27.1935 33.9435 27.0142 33.8521C26.7797 33.7221 26.6008 33.5108 26.5115 33.2579C26.249 32.2223 26.0981 31.1616 26.0615 30.0939C26.0615 29.4505 25.9525 28.7931 25.9736 28.111C25.9736 28.0161 25.9736 27.9247 25.9947 27.8263C25.9984 27.7638 26.0054 27.7016 26.0158 27.64C26.0158 27.5696 26.0404 27.4993 26.058 27.429C26.0905 27.2998 26.1518 27.1797 26.2373 27.0775C26.2797 27.0271 26.3342 26.9884 26.3957 26.965C26.4572 26.9417 26.5237 26.9344 26.5888 26.9439H26.9966C27.1127 26.9439 27.19 26.9825 27.292 27.0001C27.4767 27.0417 27.6586 27.0945 27.8369 27.1583C28.262 27.3127 28.6766 27.4947 29.0779 27.7032C29.6826 28.0126 30.2486 28.3747 30.8357 28.7122C31.2787 28.9759 31.7357 29.1974 32.1822 29.4153C32.2806 29.4681 32.3826 29.5067 32.4775 29.563C32.6124 29.6195 32.7283 29.7135 32.8115 29.8337C32.8623 29.9284 32.8773 30.0382 32.8537 30.1431C32.8537 30.2028 32.8537 30.2626 32.8291 30.3153C32.7869 30.4911 32.5478 30.5544 32.2349 30.4595C31.3829 30.0674 30.5655 29.6041 29.7916 29.0743C29.2075 28.7113 28.5963 28.394 27.9634 28.1251L27.9705 28.0935Z" fill="#4415FF"/>
<path d="M31.219 32.2875C31.6409 32.6988 32.0733 33.1031 32.5198 33.4898C32.6815 33.634 32.8713 33.75 33.026 33.8906C33.6061 34.3898 34.1967 34.868 34.812 35.318C35.0837 35.514 35.3692 35.6902 35.6663 35.8453C36.0424 36.0316 36.4327 36.2355 36.7631 36.3691C36.8545 36.4043 36.8721 36.5519 36.728 36.6926C36.6313 36.772 36.5169 36.8268 36.3945 36.8526C36.2721 36.8783 36.1453 36.874 36.0249 36.8402C35.5741 36.7019 35.1447 36.502 34.7487 36.2461C34.3547 36.0114 33.9849 35.7381 33.6448 35.4305C33.2334 35.0789 32.7553 34.7695 32.3229 34.418C31.8905 34.0664 31.3772 33.634 30.9377 33.2226C30.66 32.9695 30.3893 32.7094 30.1186 32.4492C29.7108 32.0519 29.3206 31.6336 28.9268 31.2258C28.6209 30.9058 28.2905 30.6141 27.9952 30.2625C27.9319 30.1851 27.8616 30.1078 27.8053 30.0234C27.754 29.9561 27.7159 29.8798 27.6928 29.7984C27.6733 29.7408 27.6649 29.6799 27.6682 29.6191C27.6942 29.5177 27.7491 29.4261 27.8264 29.3555C27.8573 29.3252 27.8902 29.297 27.9248 29.2711C27.9575 29.2544 27.9937 29.2457 28.0303 29.2457C28.067 29.2457 28.1031 29.2544 28.1358 29.2711C28.2415 29.2959 28.3394 29.3466 28.4206 29.4187C28.8987 29.9144 29.419 30.4734 29.9745 31.0359C30.3858 31.4508 30.8077 31.8656 31.2436 32.2699L31.219 32.2875Z" fill="#4415FF"/>
<path d="M22.7003 28.3957C22.7882 28.3957 22.8093 28.5293 22.7319 28.691C22.6888 28.7629 22.6313 28.8251 22.5632 28.8738L22.4225 28.9301C22.4014 28.9301 22.071 28.8703 21.9304 28.8703C21.8107 28.8615 21.6926 28.8378 21.5788 28.8C21.3503 28.7367 21.1218 28.6594 20.8757 28.5961C20.8241 28.5806 20.7755 28.5568 20.7315 28.5258C20.5758 28.4212 20.3975 28.3549 20.2112 28.3324C20.1796 28.3324 20.1514 28.3324 20.1128 28.3324C19.9096 28.3356 19.7073 28.3035 19.5151 28.2375C19.371 28.1531 19.2268 28.0758 19.0792 27.9984C19.0546 27.9984 19.03 27.9984 19.0159 27.9562C18.9807 27.8613 18.928 27.8719 18.8823 27.8578C18.8123 27.8377 18.7459 27.8069 18.6854 27.7664C18.6512 27.7312 18.6195 27.6936 18.5905 27.6539C18.5801 27.6313 18.5747 27.6067 18.5747 27.5818C18.5747 27.557 18.5801 27.5324 18.5905 27.5098C18.6221 27.4781 18.5905 27.4289 18.5905 27.3867C18.5888 27.3715 18.5888 27.3562 18.5905 27.341C18.6604 27.2755 18.7398 27.221 18.8261 27.1793C18.9121 27.1282 19.0059 27.0914 19.1038 27.0703H19.4554C19.6276 27.0703 19.8069 27.0914 19.8456 27.0703C19.8845 27.077 19.9209 27.094 19.9511 27.1195C19.9511 27.1195 20.4749 27.1758 20.496 27.1863C20.5944 27.225 20.7034 27.2215 20.7807 27.3234C20.7807 27.3445 20.8194 27.3445 20.837 27.3516C21.0113 27.3986 21.1799 27.4646 21.3397 27.5484C21.4206 27.5871 21.512 27.6082 21.5964 27.6398C21.5964 27.6398 21.6245 27.6609 21.6386 27.6715C21.6538 27.6864 21.6717 27.6983 21.6913 27.7066C21.8987 27.7734 22.078 27.907 22.2889 27.9738C22.3382 27.9738 22.521 28.1813 22.5807 28.2023C22.6405 28.2234 22.6651 28.3957 22.7003 28.3957Z" fill="#4415FF"/>
<path d="M25.0314 25.3688C25.1122 25.3688 25.0525 25.4426 25.0314 25.636C25.0314 25.6958 24.954 25.8575 24.9189 25.868C24.8513 25.8865 24.7814 25.8948 24.7114 25.8926C24.5275 25.8158 24.3489 25.7265 24.1771 25.6254C24.0643 25.5636 23.9623 25.4841 23.8747 25.3899C23.6919 25.2071 23.5232 25.0383 23.3403 24.8485C23.303 24.8058 23.2733 24.7571 23.2525 24.7044C23.1749 24.5284 23.0666 24.3676 22.9325 24.2297C22.9114 24.2087 22.8974 24.177 22.8517 24.1735C22.684 24.0362 22.5474 23.8648 22.4509 23.6708C22.4298 23.5794 22.4052 23.4985 22.3806 23.4106L22.3208 23.1399C22.3208 23.1153 22.2962 23.0942 22.3208 23.0555C22.3771 22.9606 22.3384 22.9219 22.3208 22.8692C22.2957 22.7861 22.2885 22.6986 22.2997 22.6126C22.3163 22.5534 22.3451 22.4983 22.3841 22.4508C22.4122 22.4087 22.4861 22.4192 22.5036 22.4262C22.5212 22.4333 22.5775 22.4262 22.6091 22.4262H22.6478C22.7287 22.4466 22.8085 22.4713 22.8868 22.5001C22.9638 22.5286 23.037 22.5663 23.1048 22.6126C23.1048 22.6126 23.1997 22.7145 23.3052 22.8165C23.4107 22.9184 23.5091 23.0415 23.5337 23.059C23.5583 23.0766 23.5618 23.1223 23.5689 23.1575C23.5759 23.1926 23.8993 23.4879 23.9204 23.509C23.9696 23.5899 24.054 23.6426 24.0435 23.7657C24.0435 23.7903 24.0435 23.8008 24.0716 23.8149C24.1695 23.9445 24.2542 24.0835 24.3247 24.2297C24.37 24.2971 24.4193 24.3617 24.4724 24.4231C24.4738 24.4383 24.4738 24.4536 24.4724 24.4688C24.4734 24.4893 24.4808 24.509 24.4935 24.5251C24.5975 24.6816 24.7151 24.8287 24.845 24.9645C24.8802 24.9962 24.954 25.2036 24.9962 25.2282C25.0384 25.2528 24.9997 25.3653 25.0314 25.3688Z" fill="#4415FF"/>
<path d="M28.6244 24.5427C28.6771 24.5743 28.5892 24.5989 28.4345 24.7044C28.3631 24.7493 28.2827 24.7781 28.199 24.7888C28.1404 24.7674 28.0857 24.7365 28.0372 24.6974C27.996 24.6218 27.9641 24.5416 27.9423 24.4583C27.9107 24.3458 27.879 24.2157 27.8685 24.156C27.8475 24.0397 27.8475 23.9206 27.8685 23.8044C27.9015 23.5854 27.9461 23.3683 28.0021 23.154C28.0157 23.1056 28.0384 23.0603 28.0689 23.0204C28.1667 22.8863 28.235 22.7329 28.2693 22.5704C28.2756 22.5566 28.2789 22.5416 28.2789 22.5265C28.2789 22.5113 28.2756 22.4963 28.2693 22.4825C28.2886 22.2982 28.3512 22.1211 28.4521 21.9657C28.5681 21.8602 28.6665 21.7477 28.779 21.6423C28.779 21.6423 28.779 21.6036 28.8388 21.6036C28.9372 21.6036 28.9478 21.5649 28.9759 21.5298C29.024 21.4836 29.0785 21.4446 29.1376 21.4138C29.1843 21.4077 29.2316 21.4077 29.2783 21.4138C29.3204 21.4138 29.4083 21.4946 29.4154 21.5087C29.4224 21.5227 29.4927 21.5685 29.5349 21.5966L29.5771 21.6282C29.5972 21.6996 29.6113 21.7725 29.6193 21.8462C29.6387 21.9183 29.6458 21.9932 29.6404 22.0677C29.6404 22.0677 29.5947 22.1767 29.556 22.2892C29.5253 22.3743 29.4995 22.4612 29.4786 22.5493C29.4786 22.5774 29.4435 22.5915 29.4224 22.6126C29.4013 22.6337 29.331 22.9642 29.324 22.9888C29.2888 23.0556 29.2888 23.1329 29.1904 23.1786C29.1728 23.1786 29.1693 23.2032 29.1658 23.2173C29.1247 23.3394 29.0717 23.4571 29.0076 23.5688C28.9847 23.6293 28.967 23.6917 28.9548 23.7552C28.9548 23.7552 28.9548 23.7763 28.9267 23.7868C28.9155 23.7961 28.907 23.8082 28.9021 23.822C28.8505 23.9626 28.8163 24.109 28.8001 24.2579C28.8001 24.2931 28.7017 24.4302 28.7122 24.4653C28.7228 24.5005 28.6033 24.5286 28.6244 24.5427Z" fill="#4415FF"/>
<path d="M9.01793 15.1172C9.13696 15.1434 9.24754 15.199 9.33964 15.2788C9.43174 15.3586 9.50243 15.4602 9.54528 15.5743C9.95309 16.6676 8.10739 16.7309 8.11793 15.7571C8.12321 15.6509 8.15248 15.5474 8.20355 15.4541C8.25462 15.3609 8.32616 15.2805 8.41278 15.2189C8.49941 15.1573 8.59886 15.1162 8.70368 15.0986C8.8085 15.081 8.91594 15.0874 9.01793 15.1172Z" fill="#4415FF"/>
<path d="M11.8231 14.8219C11.9419 14.8475 12.0524 14.9024 12.1445 14.9816C12.2366 15.0608 12.3074 15.1618 12.3505 15.2754C12.7583 16.3688 10.9126 16.432 10.9231 15.4582C10.9289 15.3524 10.9585 15.2492 11.0098 15.1564C11.0611 15.0636 11.1327 14.9837 11.2193 14.9225C11.3058 14.8613 11.4051 14.8204 11.5097 14.803C11.6142 14.7856 11.7214 14.792 11.8231 14.8219Z" fill="#4415FF"/>
<path d="M14.6287 14.5196C14.7472 14.547 14.8573 14.6029 14.9492 14.6826C15.0411 14.7622 15.1121 14.8632 15.1561 14.9766C15.5639 16.07 13.7182 16.1333 13.7287 15.1594C13.734 15.0533 13.7633 14.9497 13.8143 14.8565C13.8654 14.7633 13.9369 14.6829 14.0236 14.6213C14.1102 14.5597 14.2096 14.5185 14.3145 14.5009C14.4193 14.4833 14.5267 14.4897 14.6287 14.5196Z" fill="#4415FF"/>
<path d="M23.3473 39.1641C21.8953 39.2133 20.4433 39.245 18.9914 39.2696C18.4605 39.2696 17.9367 39.3047 17.4023 39.3082C15.532 39.3082 13.6652 39.2871 11.7984 39.2485C10.9687 39.2485 10.1355 39.2485 9.31639 39.2485H7.73436C7.21405 39.2485 6.67967 39.2485 6.20155 39.2485C6.16047 39.2621 6.11607 39.2621 6.07499 39.2485C6.04644 39.2293 6.02244 39.2041 6.00467 39.1746C5.95897 39.1149 5.98007 38.9848 6.12421 38.8618C6.53134 38.5636 7.02597 38.409 7.53046 38.4223C9.6996 38.4223 11.8336 38.4961 14.0027 38.5805C15.3 38.6332 16.65 38.5805 17.9754 38.5594C19.4332 38.5383 20.8922 38.5043 22.3523 38.4575C23.2488 38.4293 24.1488 38.3977 25.0453 38.352C26.4023 38.2887 27.7664 38.2149 29.1129 38.1094C30.1676 38.0215 31.1801 37.8914 32.2137 37.7578L32.8887 37.677C33.7394 37.5891 34.0137 37.6137 34.2141 37.7965C34.2626 37.8342 34.3074 37.8766 34.3476 37.9231C34.4461 38.0707 34.1086 38.2289 33.4898 38.3274C31.6476 38.6262 29.6965 38.8055 27.7312 38.9391C26.2723 39.0375 24.8027 39.1078 23.3367 39.1746L23.3473 39.1641Z" fill="#4415FF"/>
<path d="M22.7707 39.6246C21.5168 39.6668 20.2618 39.7008 19.0055 39.7266L17.6344 39.7617C16.0207 39.7793 14.4071 39.7617 12.7934 39.7617H10.6489C9.73832 39.7617 8.82074 39.7617 7.91722 39.7371C7.34769 39.716 8.06136 39.259 9.11957 39.266C10.9828 39.266 12.8356 39.3223 14.7129 39.3645C15.8344 39.3961 17.0016 39.3645 18.1477 39.3328C19.4063 39.3082 20.6684 39.2801 21.9305 39.2344C22.7075 39.2098 23.4809 39.1711 24.2578 39.1359C25.4321 39.0797 26.6133 39.0199 27.7735 38.932C28.677 38.8582 29.5629 38.7703 30.4559 38.6719L31.0395 38.6086C31.7778 38.5418 32.0133 38.5523 32.1821 38.6578C32.2216 38.6791 32.2593 38.7038 32.2946 38.7316C32.3719 38.8195 32.0766 38.918 31.5422 38.9918C29.9461 39.2063 28.2586 39.3434 26.5606 39.4559C25.302 39.5402 24.0329 39.6 22.7672 39.6598L22.7707 39.6246Z" fill="#4415FF"/>
<path d="M35.5782 6.1946C35.5782 6.30359 35.5255 6.41609 35.5044 6.52156C35.5044 6.56374 35.5044 6.60242 35.5044 6.64109C35.4692 6.78171 35.42 6.91882 35.3884 7.05593C35.3761 7.11625 35.3761 7.17843 35.3884 7.23874C35.3884 7.31609 35.4481 7.39343 35.3884 7.47078C35.3286 7.54812 34.6853 7.47078 34.6853 7.36882C34.6602 7.20863 34.6912 7.04469 34.7731 6.90476C34.8259 6.80984 34.7731 6.71492 34.7978 6.61999L34.8364 6.30359C34.8481 6.23844 34.8563 6.17273 34.861 6.10671C34.8733 6.00984 34.8733 5.91179 34.861 5.81492C34.8375 5.74013 34.8056 5.6682 34.7661 5.60046C34.7661 5.60046 34.745 5.56882 34.7661 5.55124C34.7872 5.53367 34.7661 5.49851 34.8329 5.48093C34.8864 5.46041 34.9417 5.44511 34.9981 5.43523L35.0931 5.41413C35.1952 5.40177 35.2988 5.41382 35.3954 5.44929C35.4677 5.4922 35.5279 5.55278 35.5703 5.62535C35.6128 5.69792 35.6361 5.78009 35.638 5.86413C35.638 5.97312 35.638 6.08562 35.638 6.1946H35.5782Z" fill="#4415FF"/>
<path d="M40.6161 8.87342L40.029 9.08787C39.9587 9.116 39.8954 9.15818 39.8216 9.18279L39.0446 9.42537C38.9307 9.46277 38.8201 9.50981 38.7142 9.566C38.5845 9.65021 38.4359 9.70095 38.2817 9.71365C38.1833 9.71365 38.1235 9.22147 38.2817 9.13709C38.5381 8.98431 38.8135 8.8661 39.1009 8.78553C39.2744 8.721 39.4396 8.63603 39.5931 8.5324C39.7759 8.43748 39.9657 8.36014 40.1556 8.27225L40.5071 8.11404C40.6829 8.02967 40.8587 7.95584 41.0345 7.8574C41.2103 7.75897 41.27 7.66404 41.386 7.59022C41.4134 7.57155 41.4429 7.55621 41.4739 7.54451C41.5935 7.50936 41.6532 7.54451 41.7411 7.67811C41.7411 7.70975 41.7833 7.73787 41.8009 7.76951C41.8277 7.8173 41.8417 7.87117 41.8417 7.92596C41.8417 7.98074 41.8277 8.03461 41.8009 8.0824C41.6652 8.32937 41.4494 8.52278 41.1892 8.63084C41.0064 8.71873 40.8165 8.79608 40.6267 8.88045L40.6161 8.87342Z" fill="#4415FF"/>
<path d="M27.4746 11.7948C25.6289 11.7351 23.7656 11.7562 21.9094 11.7738C20.0531 11.7913 18.1969 11.8511 16.3477 11.9566C14.9977 12.0374 13.6512 12.164 12.3153 12.3081C11.14 12.4308 9.97389 12.6292 8.82424 12.9023C8.26586 13.0295 7.72257 13.2157 7.20354 13.4577C6.97046 13.5698 6.75587 13.7168 6.56721 13.8937L6.46877 14.0238C6.44469 14.0638 6.42467 14.1062 6.409 14.1503C6.3744 14.2846 6.34741 14.4208 6.32815 14.5581C6.1589 15.723 6.05912 16.897 6.02932 18.0738C5.98361 19.2656 5.96604 20.4573 5.96955 21.6491C5.96955 23.7585 6.07502 25.8995 6.25432 27.9773C6.37033 29.3202 6.52854 30.6632 6.73596 31.9921C6.92576 33.3168 7.20293 34.6275 7.56565 35.9156C7.8258 36.689 7.61486 36.6784 7.18596 36.0632C6.56609 35.0078 6.15547 33.8428 5.97658 32.632C5.56382 29.8761 5.32896 27.0965 5.27346 24.3105C5.17297 21.5167 5.23401 18.7195 5.45627 15.9327C5.49846 15.5144 5.53713 15.0925 5.60744 14.6601C5.64213 14.4348 5.69027 14.2117 5.75158 13.9921C5.78838 13.8536 5.85166 13.7234 5.93791 13.6089L6.06096 13.4437L6.20158 13.3136C6.5623 13.011 6.97265 12.7731 7.41447 12.6105C7.82711 12.4537 8.24853 12.321 8.67658 12.2132C10.3621 11.8149 12.0757 11.5469 13.8024 11.4116C17.5535 11.0777 21.3153 11.0144 25.0699 11.0109C26.2266 11.0109 27.3867 11.032 28.5469 11.0917C29.703 11.1411 30.8543 11.2715 31.9922 11.482C32.4368 11.5688 32.8731 11.6935 33.2965 11.8546C33.5184 11.9464 33.7285 12.0644 33.9223 12.2062C34.1287 12.3425 34.3086 12.5152 34.4531 12.7159C34.7164 13.09 34.9303 13.4965 35.0895 13.9253C35.2564 14.3383 35.3985 14.7609 35.5149 15.1909C35.9444 16.8983 36.2383 18.6369 36.3938 20.3906C36.6821 23.0835 36.8403 25.7308 36.9035 28.4027C36.9035 28.9933 36.9352 29.5663 36.9352 30.1605C36.9352 32.3613 36.8438 33.0609 36.6328 33.5284C36.5906 33.6336 36.5412 33.7358 36.4852 33.8343C36.3199 34.0347 36.2356 33.1312 36.218 31.5386C36.1863 29.162 36.1196 26.7222 35.9754 24.2577C35.8554 21.781 35.5736 19.3148 35.1317 16.8749C34.9641 15.9832 34.7182 15.1079 34.3969 14.2593C34.2496 13.8607 34.0498 13.4836 33.8028 13.1378C33.7491 13.0615 33.6878 12.9909 33.6199 12.9269L33.5356 12.8531L33.4301 12.7792C33.2598 12.6768 33.0796 12.592 32.8922 12.5261C32.0357 12.2547 31.1511 12.0813 30.2555 12.0093C29.3379 11.9144 28.4098 11.8652 27.4781 11.8406L27.4746 11.7948Z" fill="#4415FF"/>
<path d="M22.9253 37.2199H19.2339L17.8839 37.241C16.3019 37.241 14.7199 37.2024 13.1343 37.1813C12.4312 37.1813 11.7281 37.1813 11.025 37.1813C10.1252 37.2034 9.2251 37.1588 8.33198 37.0477C7.77651 36.9774 8.51479 36.6645 9.53433 36.6328C11.3484 36.6328 13.173 36.6328 15.0117 36.675C16.1121 36.6961 17.2582 36.6469 18.3832 36.6328L22.0992 36.5836L24.3878 36.5449C25.541 36.5168 26.7011 36.4992 27.8472 36.45C28.7367 36.4149 29.605 36.341 30.491 36.2848C30.6843 36.2848 30.8742 36.2496 31.0675 36.2496C31.7953 36.2496 32.0273 36.3094 32.1855 36.4465C32.2238 36.4758 32.2591 36.5088 32.291 36.5449C32.3648 36.6469 32.0695 36.7559 31.5421 36.8438C29.9176 37.0359 28.2841 37.1427 26.6484 37.1637L22.9253 37.234V37.2199Z" fill="#4415FF"/>
<path d="M5.11515 27.4218C5.04132 26.3179 4.9921 25.214 4.9464 24.1101C4.92882 23.7093 4.88663 23.305 4.8796 22.9042C4.84796 21.498 4.85851 20.0601 4.9007 18.6398C4.92531 18.007 4.92179 17.3706 4.93937 16.7413C4.97101 15.9328 4.93937 15.1101 5.25929 14.2804C5.36828 14.0203 5.5757 14.1574 5.75148 14.4175C5.96618 14.7258 6.07139 15.0971 6.05031 15.4722C5.92023 17.0331 5.92726 18.6609 5.81476 20.2956C5.75499 21.2765 5.83937 22.2925 5.87452 23.298C5.9132 24.3984 5.9589 25.5023 6.0257 26.6062C6.06437 27.2847 6.11007 27.9632 6.16984 28.6382C6.26124 29.6648 6.33859 30.6949 6.48976 31.7038C6.61365 32.4757 6.77675 33.2408 6.97843 33.996C7.02062 34.1613 7.07335 34.3195 7.11906 34.4812C7.18382 34.687 7.23317 34.8974 7.26671 35.1105C7.27452 35.2326 7.24771 35.3545 7.18937 35.4621C7.16828 35.5113 7.15773 35.5675 7.14367 35.6027C7.1296 35.6378 7.04874 35.6519 6.91163 35.5746C6.83043 35.53 6.76157 35.466 6.71124 35.3882C6.63934 35.2977 6.58128 35.197 6.53898 35.0894C6.25625 34.407 6.03391 33.7012 5.87452 32.98C5.70929 32.2523 5.57218 31.5105 5.45968 30.7687C5.28038 29.6648 5.18195 28.5503 5.10812 27.4359L5.11515 27.4218Z" fill="#4415FF"/>
</svg>
