<svg width="132" height="160" viewBox="0 0 132 160" fill="none" xmlns="http://www.w3.org/2000/svg">
<path d="M40.1893 58.4298C40.0843 54.2053 40.0231 49.9895 39.9706 45.7737C39.9706 44.2343 39.8832 42.6949 39.8744 41.1555C39.8744 35.7327 39.8744 30.3099 39.9356 24.8871V21.4934L39.8919 18.2922C39.8919 18.231 39.8919 18.161 39.8919 18.0998C39.8272 18.0372 39.7496 17.9894 39.6645 17.9598L39.2884 17.7849L38.2301 17.2951C37.4929 16.9548 36.79 16.5448 36.1309 16.0706C34.7178 15.1208 33.6668 13.7215 33.1484 12.0997C32.886 11.0501 33.4458 11.1463 34.1367 11.7148L36.9968 14.0239C37.6548 14.5412 38.364 14.9896 39.1135 15.3621L40.3467 15.9656L40.8715 16.228C41.0716 16.3389 41.2593 16.4709 41.4313 16.6216C41.5951 16.7601 41.7215 16.9375 41.7986 17.1377C41.8685 17.3399 41.9212 17.5476 41.9561 17.7587C41.9561 20.0677 41.9561 22.3681 41.8861 24.6859C41.8161 27.0037 41.7899 29.0591 41.7374 31.307C41.6325 35.0767 41.7899 39.0039 41.8336 42.8611C41.8861 47.1031 41.9473 51.3452 42.0523 55.5785C42.1106 58.1908 42.1922 60.8147 42.2972 63.4503C42.4634 67.395 42.6383 71.3222 42.9882 75.2668C43.2681 78.3019 43.6879 81.2582 44.2302 84.1883C44.3701 84.8355 44.4838 85.4652 44.6325 86.095C44.8862 87.2845 45.0698 88.0455 45.1486 88.5703C45.1775 88.7967 45.1775 89.026 45.1486 89.2525C45.1394 89.428 45.107 89.6015 45.0523 89.7685C45.0161 89.9375 44.9694 90.104 44.9124 90.2671C44.8074 90.4857 44.5713 90.4333 44.1777 90.0397C43.9613 89.7959 43.7816 89.5218 43.6442 89.2262C43.4409 88.8474 43.2768 88.4488 43.1544 88.0367C42.3627 85.3268 41.8125 82.552 41.51 79.745C41.1427 76.9287 40.9153 74.0773 40.7141 71.2085C40.4254 66.9664 40.2593 62.6894 40.1106 58.4386L40.1893 58.4298Z" fill="#4415FF"/>
<path d="M32.4576 64.0889C32.2739 59.7856 32.1602 55.4823 32.0727 51.1791C32.0202 49.6047 31.959 48.0391 31.9503 46.4734C31.9503 40.9398 32.0057 35.4004 32.1164 29.8551L32.2127 22.4993C32.2127 20.9337 32.2564 19.3681 32.3001 17.7937C32.3778 16.2133 32.5502 14.6391 32.8162 13.0793C33.0261 12.0735 33.2447 12.3096 33.4197 13.1493C33.719 14.5122 33.8889 15.9003 33.927 17.2951C33.857 23.6538 33.7783 30.0038 33.6996 36.4237C33.6296 40.2634 33.8308 44.2956 33.9532 48.1877C34.0582 52.5085 34.1894 56.8293 34.373 61.15C34.5042 63.774 34.6267 66.4679 34.7929 69.1181C35.0553 73.1327 35.3351 77.1736 35.7462 81.1445L36.0961 83.9959L36.2885 85.4128L36.3847 86.1125L36.4372 86.4536V86.6198L36.8395 87.0834C37.0232 87.2845 37.2156 87.4857 37.4081 87.6781C37.8012 88.0629 38.2158 88.425 38.6501 88.7627C39.1533 89.1429 39.6823 89.4877 40.2332 89.7948C41.2565 90.3546 41.9825 90.617 42.4548 90.8706C42.8349 91.0371 43.1816 91.2712 43.4781 91.5616C43.5949 91.6633 43.7031 91.7745 43.8017 91.894C43.9155 92.0689 43.7055 92.1913 43.207 92.2701C42.4408 92.3598 41.6645 92.2943 40.9242 92.0776C39.6976 91.6997 38.5399 91.1268 37.4955 90.3808C36.9642 90.0071 36.4587 89.598 35.9824 89.1563C35.7375 88.9289 35.5013 88.7015 35.2739 88.4566L34.9416 88.0805C34.7579 87.8706 34.583 87.6344 34.3993 87.3983C34.1806 85.649 33.9619 83.8997 33.7345 82.1504C33.5071 80.4011 33.3934 78.8092 33.2272 77.1299C33.0086 74.9695 32.8774 72.8004 32.7374 70.6312C32.5975 68.4621 32.4925 66.258 32.3788 64.1151L32.4576 64.0889Z" fill="#4415FF"/>
<path d="M83.5981 92.7423C80.4056 93.3983 77.1956 94.0106 73.9769 94.5441C72.7961 94.7453 71.6241 94.9814 70.4783 95.1389C66.293 95.7341 62.0662 95.9886 57.8396 95.8998C55.9679 95.8386 54.0699 95.6986 52.2069 95.4625C49.7712 95.2336 47.411 94.4945 45.2797 93.2934C44.615 92.8998 44.9211 92.5849 45.6733 92.4187C46.1297 92.3424 46.5938 92.3218 47.0552 92.3575C47.6482 92.3469 48.239 92.4326 48.8045 92.6111C53.1778 93.8007 57.9446 93.7394 62.7202 93.7569C65.6548 93.6215 68.5769 93.2883 71.4667 92.7598C74.6766 92.2613 77.8779 91.6665 81.0878 91.0105C83.047 90.6082 85.015 90.1884 86.9742 89.7423L95.8956 87.7393C98.1959 87.2145 100.435 86.6023 102.788 86.2175C103.313 86.13 103.829 86.0513 104.362 85.99C104.896 85.9288 105.237 85.99 105.63 85.99C105.927 86.0067 106.221 86.0595 106.505 86.1475C106.877 86.2857 107.187 86.5525 107.38 86.8997C107.454 87.0196 107.518 87.1453 107.572 87.2758C107.625 87.4682 107.432 87.6081 107.091 87.7481C106.618 87.9412 106.115 88.0536 105.604 88.0805C103.671 88.2991 101.633 88.7364 99.5604 89.1825L93.2279 90.6257L83.6068 92.7948L83.5981 92.7423Z" fill="#4415FF"/>
<path d="M105.788 39.896C105.639 43.3946 105.569 46.8932 105.543 50.4443L105.622 54.2928C105.674 58.8147 105.744 63.3454 106.024 67.8673C106.129 69.8703 106.339 71.882 106.549 73.8587L107.03 77.6721C107.22 78.9416 107.339 80.2205 107.389 81.5031C107.389 82.299 106.986 82.2553 106.514 81.643C105.762 80.7036 105.283 79.5746 105.132 78.3806C104.401 73.1433 104.015 67.8636 103.977 62.5757C103.977 59.4007 103.741 56.112 103.715 52.8671C103.663 49.2985 103.715 45.7299 103.82 42.1701C103.884 39.9777 103.969 37.7852 104.074 35.5928C104.24 32.2691 104.459 28.9367 104.712 25.648L104.966 21.8345C105.036 20.5663 105.123 19.3068 105.254 18.0386L105.394 16.368C105.683 14.2951 105.937 13.6566 106.505 13.298C106.627 13.2086 106.755 13.1296 106.89 13.0618C107.31 12.9394 107.511 13.8227 107.406 15.3359C107.083 19.8403 106.741 24.5459 106.4 29.2778C106.173 32.7764 105.98 36.3537 105.884 39.896H105.788Z" fill="#4415FF"/>
<path d="M74.4755 6.94803C71.0731 7.04425 67.6794 7.00926 64.2945 6.94803C63.0525 6.94803 61.8543 6.94803 60.5773 6.89556C56.204 6.58068 51.9445 6.10837 47.6412 6.20458C45.7504 6.23296 43.8657 6.42611 42.0085 6.78185C39.6874 7.19358 37.4631 8.0329 35.4486 9.25711C34.8364 9.62446 34.6265 9.30084 34.9151 8.60112C35.4465 7.49664 36.3879 6.64309 37.539 6.22208C39.9816 5.28051 42.5535 4.71717 45.166 4.5515C47.7165 4.36346 50.2774 4.36346 52.8279 4.5515C55.8629 4.73517 59.0379 4.9101 62.0467 4.95383C65.4316 4.95383 68.8165 5.00631 72.1926 4.9101C74.2743 4.84888 76.3472 4.76141 78.4114 4.58648C81.5317 4.34864 84.6322 3.89861 87.6914 3.23952C90.0112 2.67333 92.2951 1.96945 94.5312 1.13162C95.021 0.947943 95.4933 0.738027 96.0006 0.58059C97.8548 -0.0404105 98.4758 -0.154115 99.0793 0.195744C99.2166 0.260541 99.3482 0.336604 99.4729 0.423153C99.7965 0.720534 99.1668 1.2978 97.8548 2.03251C93.7504 4.07472 89.3391 5.43089 84.7963 6.04715C81.3803 6.56899 77.9374 6.89606 74.4842 7.02675L74.4755 6.94803Z" fill="#4415FF"/>
<path d="M65.2919 18.3972C68.6768 18.266 72.0704 17.9599 75.4465 17.575C76.6798 17.4176 77.9043 17.2252 79.1288 17.0415C83.5021 16.438 87.7878 15.6945 92.0649 14.7062C93.9541 14.2688 95.8434 13.7353 97.6801 13.1493C100.015 12.3534 102.394 11.5837 104.616 10.6391C105.272 10.3154 105.325 10.4816 104.878 11.0414C104.123 11.9344 103.183 12.6534 102.123 13.1493C99.7701 14.1699 97.3434 15.012 94.8637 15.6683C92.3856 16.3797 89.8812 16.9628 87.3505 17.4176C84.3155 17.9861 81.1755 18.6771 78.053 19.1669C74.6244 19.6975 71.1753 20.0794 67.7059 20.3127C65.5717 20.4439 63.4376 20.5488 61.2947 20.5751C58.0546 20.6176 54.8143 20.4979 51.5861 20.2165C49.0849 20.0571 46.596 19.7416 44.1341 19.2718C43.5831 19.1756 43.0583 19.0707 42.516 18.922C41.9737 18.7733 41.6414 18.6596 41.2653 18.5371C40.9849 18.4324 40.7154 18.3005 40.4606 18.1435C40.2876 18.0533 40.1342 17.9294 40.0096 17.7793C39.885 17.6291 39.7915 17.4556 39.7346 17.2689C39.676 17.122 39.632 16.9696 39.6034 16.8141C39.6034 16.3593 40.4781 16.298 41.8688 16.6566C43.9592 17.1027 46.1108 17.4613 48.3237 17.7499C50.5365 18.0386 52.7931 18.1873 55.0672 18.301C58.4674 18.4759 61.8742 18.4759 65.2744 18.301L65.2919 18.3972Z" fill="#4415FF"/>
<path d="M34.6702 85.9288C34.6702 85.9288 24.3756 86.8035 24.4194 90.7482C24.4631 94.6928 43.8715 101.777 70.2685 94.6141C70.2685 94.6141 55.3207 94.4129 45.0348 91.6928C41.7636 90.8269 34.6702 85.9288 34.6702 85.9288Z" fill="#4415FF"/>
<path d="M83.9569 12.3884C82.8899 12.572 81.8228 12.747 80.747 12.8956C79.6711 13.0443 78.6041 13.193 77.537 13.3155C76.7498 13.4117 75.9714 13.5604 75.1842 13.6216C72.4203 13.8753 69.6302 13.9715 66.8575 14.0065H65.0033C64.3823 14.0065 63.77 14.0065 63.1578 14.0065C61.5699 14.0037 59.9878 13.8158 58.4434 13.4467C57.9624 13.3242 58.0848 13.1056 58.5309 12.9219C59.2039 12.699 59.914 12.6099 60.6213 12.6595C63.735 12.8082 66.875 12.7032 70.0675 12.6595C71.0209 12.6595 71.9917 12.537 72.9626 12.4321C73.9334 12.3271 74.9131 12.1609 75.8839 12.0647L79.1201 11.5749L82.3126 11.0676C83.6158 10.8315 84.9365 10.6216 86.2135 10.3329C87.2019 10.1318 88.1815 9.9131 89.1523 9.66819C90.1232 9.42329 91.1028 9.19588 92.0562 8.916C92.7996 8.71483 93.5256 8.45243 94.2428 8.19004C94.96 7.92764 95.6597 7.6565 96.3682 7.36787C96.6743 7.23667 96.9804 7.12297 97.3041 7.01801C98.4586 6.58068 98.8697 6.5282 99.2545 6.73812C99.3462 6.77299 99.4341 6.81694 99.5169 6.86932C99.7356 7.05299 99.342 7.45533 98.5198 7.94514C97.2814 8.65739 95.9745 9.24343 94.6189 9.69443C93.2544 10.2105 91.8375 10.6128 90.4293 11.0239C88.3039 11.5574 86.161 12.0035 84.0094 12.3971L83.9569 12.3884Z" fill="#4415FF"/>
<path d="M78.9099 69.6954L75.525 70.0015C75.1052 70.0015 74.7028 70.1414 74.2918 70.1764L69.9185 70.57C69.245 70.57 68.5978 70.6662 67.9768 70.7537C67.1721 70.8762 66.4112 71.0423 65.6852 71.1648C65.4666 71.1648 65.3179 70.8849 65.3966 70.4826C65.4465 70.2404 65.5605 70.0161 65.7267 69.8331C65.8928 69.65 66.105 69.5149 66.3412 69.4417C67.2015 69.2354 68.0808 69.1181 68.9651 69.0919L71.4492 68.9344C72.4637 68.8907 73.4958 68.637 74.5279 68.4971L77.9303 68.051L80.0295 67.7799C81.079 67.6312 82.1461 67.5087 83.1869 67.3076C83.9916 67.1589 84.7701 66.8965 85.5572 66.6691C85.7322 66.6691 85.8983 66.5554 86.0733 66.5204C86.7293 66.3717 86.9479 66.4679 87.1753 66.9577C87.2322 67.0681 87.2819 67.182 87.324 67.2988C87.3512 67.4 87.3575 67.5057 87.3425 67.6094C87.3274 67.713 87.2913 67.8126 87.2365 67.9018C87.1816 67.9911 87.1091 68.0682 87.0234 68.1284C86.9377 68.1887 86.8406 68.2308 86.738 68.2522C85.3277 68.7782 83.8595 69.1335 82.3648 69.3105C81.2365 69.4767 80.0907 69.5904 78.9536 69.7391L78.9099 69.6954Z" fill="#4415FF"/>
<path d="M81.5426 76.815C80.7204 76.9025 79.8983 76.955 79.0849 77.0074C78.7875 77.0074 78.4988 77.1124 78.2102 77.1211C77.1606 77.1824 76.1111 77.2086 75.0702 77.2873C74.613 77.3268 74.1596 77.4029 73.7145 77.5147C73.2041 77.711 72.6679 77.8318 72.1227 77.8733C71.9969 77.7765 71.8951 77.6519 71.8254 77.5093C71.7556 77.3667 71.7196 77.2099 71.7203 77.0512C71.7099 76.83 71.7628 76.6105 71.8728 76.4184C71.9828 76.2263 72.1453 76.0696 72.3413 75.9666C73.5346 75.6392 74.769 75.486 76.0061 75.5118C76.7607 75.4611 77.5097 75.347 78.2452 75.1707L80.668 74.882C81.1665 74.8208 81.6651 74.7683 82.1549 74.6896C82.9003 74.5944 83.6393 74.4542 84.3677 74.2698C84.9275 74.0949 85.4436 73.85 85.9596 73.6313L86.292 73.4739C86.7118 73.3164 86.8955 73.4039 87.1666 73.8325C87.2278 73.9287 87.2978 74.0249 87.3503 74.1211C87.441 74.2767 87.4706 74.4604 87.4334 74.6365C87.3962 74.8127 87.2949 74.9688 87.1491 75.0745C86.6935 75.4247 86.1972 75.7184 85.671 75.9491C85.147 76.166 84.6018 76.3273 84.0441 76.4302C83.2307 76.6138 82.3998 76.7188 81.5776 76.8413L81.5426 76.815Z" fill="#4415FF"/>
<path d="M75.8748 46.9545C76.0831 47.1051 76.3131 47.2231 76.557 47.3044C76.6707 47.3421 76.7879 47.3685 76.9069 47.3831C76.9943 47.3831 77.1255 47.3831 77.1867 47.3831C77.2911 47.3553 77.3814 47.2898 77.4404 47.1994C77.6352 46.9438 77.7617 46.6428 77.8077 46.3247C77.8852 45.9116 77.9349 45.4938 77.9564 45.074C77.9564 44.6892 77.9564 44.2868 77.9564 43.8845C77.8741 43.2955 78.0213 42.6974 78.3675 42.2139C78.525 42.0477 78.7436 42.3189 78.971 42.5987C79.1984 42.8786 79.4433 43.0711 79.4084 43.2547C79.2772 44.0069 79.3384 45.0915 79.0847 46.1586C79.006 46.4909 78.9535 46.832 78.8573 47.1994C78.7575 47.5955 78.5448 47.954 78.2451 48.2315C78.0472 48.4003 77.8141 48.5228 77.5628 48.5901C77.3382 48.6333 77.1093 48.6509 76.8806 48.6426C76.4419 48.6229 76.0124 48.5096 75.6211 48.3102C75.2023 48.0951 74.8165 47.8212 74.4753 47.4968C73.9931 47.0306 73.5513 46.5245 73.1546 45.9836C72.8485 45.5813 72.4986 45.2052 72.1925 44.7941C72.1313 44.6979 72.0526 44.6192 71.9913 44.523C71.7814 44.1556 71.7989 43.9894 72.0788 43.762C72.1391 43.7077 72.2034 43.658 72.2712 43.6133C72.3873 43.537 72.5288 43.5098 72.6649 43.5377C72.801 43.5655 72.9205 43.6462 72.9972 43.762C73.5832 44.3918 74.073 45.1002 74.6153 45.7387C74.9759 46.2073 75.4066 46.6173 75.8923 46.9545H75.8748Z" fill="#4415FF"/>
<path d="M73.9595 42.0127C73.8417 42.1187 73.7031 42.1991 73.5525 42.2488C73.4019 42.2985 73.2427 42.3164 73.0849 42.3014C72.9624 42.3014 72.7525 42.1527 72.7875 42.039C72.856 41.8077 72.9561 41.5869 73.0849 41.383C73.4052 41.0302 73.7994 40.7524 74.2394 40.5696C74.7805 40.3597 75.344 40.213 75.9188 40.1322C76.566 40.0185 77.1433 39.9573 77.6156 39.8261C77.762 39.7991 77.8992 39.7351 78.014 39.6402C78.1288 39.5453 78.2174 39.4226 78.2716 39.2838C78.2716 39.1964 78.2716 39.1701 78.2716 39.1614C78.2265 39.1142 78.1731 39.0756 78.1141 39.0477L77.6681 38.8902C77.3446 38.8054 77.003 38.8207 76.6884 38.934C76.3879 39.0196 76.1198 39.1932 75.9188 39.4325C75.8538 39.5117 75.8169 39.6101 75.8138 39.7124C75.7675 39.8815 75.712 40.0479 75.6476 40.211C75.5778 40.3898 75.499 40.5649 75.4115 40.7358C75.3394 40.882 75.2514 41.0199 75.1491 41.1468C75.046 41.2947 74.9256 41.4298 74.7905 41.5492C74.5439 41.7732 74.2401 41.9245 73.9128 41.9863C73.5855 42.048 73.2474 42.0178 72.9362 41.899C72.7111 41.811 72.4945 41.7026 72.289 41.5754L72.1228 41.4617L71.8691 41.243H71.8167C71.8059 41.2202 71.7884 41.2012 71.7665 41.1887C71.7446 41.1761 71.7193 41.1707 71.6942 41.1731C71.649 41.1721 71.6042 41.1829 71.5644 41.2044C71.5245 41.2258 71.4909 41.2572 71.4668 41.2955C71.4668 41.2955 71.4668 41.3655 71.4056 41.4005C71.3443 41.4355 71.3531 41.7066 71.4056 41.8378C71.5281 42.0398 71.7077 42.2011 71.9216 42.3014C72.0324 42.3878 72.1565 42.4557 72.289 42.5025C72.3152 42.5141 72.3386 42.5313 72.3573 42.5531C72.376 42.5748 72.3897 42.6004 72.3972 42.6281C72.4047 42.6557 72.406 42.6848 72.4009 42.713C72.3958 42.7412 72.3844 42.7679 72.3677 42.7912C72.2102 42.8874 72.3677 42.9661 72.3677 43.0536C72.3735 43.0674 72.3764 43.0823 72.3764 43.0973C72.3764 43.1123 72.3735 43.1272 72.3677 43.141C72.2353 43.2236 72.0856 43.2744 71.9304 43.2897C71.5689 43.3408 71.2006 43.2732 70.8808 43.0973C70.5319 42.9182 70.2318 42.6571 70.0061 42.3364C69.8715 42.1304 69.7738 41.9024 69.7175 41.6629C69.6769 41.4138 69.6769 41.1598 69.7175 40.9107C69.7891 40.5755 69.94 40.2623 70.1576 39.9975C70.3753 39.7327 70.6532 39.5239 70.9682 39.3888C71.277 39.2365 71.6239 39.1787 71.9653 39.2226C72.1491 39.2523 72.3284 39.3052 72.4989 39.38C72.5894 39.4105 72.6772 39.4485 72.7613 39.4938L72.9187 39.5812L73.3735 39.8436H73.4435C73.4435 39.8436 73.4435 39.8436 73.496 39.8961C73.5485 39.9486 73.496 39.8961 73.496 39.8961C73.496 39.8961 73.496 39.8961 73.496 39.8524C73.496 39.8086 73.496 39.8524 73.496 39.8524L73.5572 39.7124C73.6447 39.485 73.7496 39.1614 73.8721 38.8815C73.9498 38.6931 74.0435 38.5117 74.152 38.3392C74.278 38.1673 74.4185 38.0063 74.5718 37.8582C74.7052 37.7394 74.8454 37.6284 74.9916 37.5258C75.2738 37.3344 75.5924 37.2034 75.9275 37.1409C76.0587 37.1409 76.1812 37.0622 76.3123 37.0272C76.8764 36.8415 77.4783 36.8024 78.0616 36.9135C78.7349 37.0096 79.3535 37.3374 79.8109 37.8407C80.0676 38.1393 80.2389 38.5018 80.3066 38.8898C80.3744 39.2777 80.3361 39.6768 80.1958 40.0448C80.1509 40.1683 80.0859 40.2836 80.0034 40.3859C79.9142 40.5109 79.8178 40.6306 79.7147 40.7445C79.2355 41.2982 78.5692 41.6562 77.843 41.7503C77.2307 41.8466 76.671 41.8553 76.1462 41.9165C76.0237 41.9165 75.6913 41.9165 75.3677 41.9165C75.1234 41.9122 74.8795 41.9387 74.6418 41.9952C74.5193 42.0127 74.047 41.9428 73.9595 42.0127Z" fill="#4415FF"/>
<path d="M39.2011 60.2491C39.0728 56.7097 38.9708 53.1703 38.895 49.6309C38.895 48.3364 38.7813 47.0507 38.7638 45.7649C38.6938 41.208 38.6938 36.6598 38.6763 32.1117C38.6763 30.1 38.6151 28.0708 38.5539 26.0678C38.4839 23.4964 38.3265 20.9162 38.5539 18.3359C38.6676 16.7353 40.3731 18.7645 40.4169 21.7121C40.5043 26.96 40.5218 32.2079 40.4169 37.4558C40.3469 40.622 40.5218 43.9107 40.6006 47.1469C40.688 50.6979 40.7755 54.2578 40.9067 57.8176C40.9883 60.0042 41.0874 62.1908 41.2041 64.3775C41.379 67.6836 41.5802 71.0073 41.9388 74.2697C42.2197 76.773 42.6284 79.2602 43.1633 81.7218C43.2682 82.264 43.4169 82.7713 43.5394 83.3136C43.793 84.2845 43.9505 84.923 44.0292 85.3603C44.1045 85.6999 44.0864 86.0535 43.9767 86.3836C43.9422 86.5292 43.8984 86.6723 43.8455 86.8122C43.7493 87.0046 43.5306 86.9696 43.207 86.646C43.1131 86.559 43.0254 86.4655 42.9446 86.3661C42.8659 86.2524 42.7959 86.13 42.7172 85.99C42.5318 85.6772 42.3793 85.346 42.2624 85.0017C41.5103 82.7619 40.9657 80.4577 40.6355 78.1182C40.2769 75.7654 40.032 73.3689 39.8309 70.9723C39.5247 67.4125 39.3411 63.8264 39.1661 60.2579L39.2011 60.2491Z" fill="#4415FF"/>
<path d="M65.7289 49.3947C65.1175 46.8537 64.8034 44.2502 64.793 41.6366C64.7756 40.6785 64.8194 39.7203 64.9242 38.7677C65.0258 37.9116 65.2014 37.0658 65.449 36.24L65.7202 35.514L65.7989 35.2691C65.8127 35.2297 65.8303 35.1916 65.8513 35.1554L65.9651 35.0942L66.4111 34.8493C66.8135 34.6219 67.1808 34.4645 67.5657 34.2808C69.0893 33.601 70.6697 33.0566 72.2888 32.6539C73.7234 32.2798 75.1859 32.0224 76.662 31.8842C77.619 31.7924 78.5826 31.7924 79.5396 31.8842C80.5173 31.9933 81.4647 32.2903 82.3297 32.7589C82.8808 33.0563 82.6009 33.3362 82.0236 33.4761C81.674 33.5408 81.3204 33.5817 80.9653 33.5986C80.7557 33.6158 80.5451 33.6158 80.3355 33.5986C80.1011 33.6069 79.8664 33.5893 79.6358 33.5461C77.8859 33.3417 76.1147 33.4155 74.3879 33.7647C72.6007 34.1074 70.8453 34.5989 69.14 35.2342C68.6065 35.4239 68.0839 35.6429 67.5744 35.8901C66.8659 36.31 67.1633 35.8901 66.8834 36.6686C66.6072 37.7417 66.4459 38.8412 66.4024 39.9485C66.2817 42.4424 66.4638 44.9417 66.9447 47.3918C67.1021 48.144 67.2683 48.8962 67.4869 49.6309C67.5919 49.9982 67.7144 50.3568 67.8455 50.7154L67.9418 50.9866L68.003 51.144C68.0555 51.2315 68.073 51.3977 68.1604 51.4327L68.7727 51.5376C69.0613 51.5901 69.3499 51.6163 69.6473 51.6426C70.2246 51.7125 70.8019 51.7213 71.3966 51.7388C72.5688 51.7404 73.7391 51.6439 74.8952 51.4501C76.6882 51.1615 78.3938 50.5755 80.2306 50.2431C80.6329 50.1644 81.044 50.0944 81.4726 50.0507C83.0732 49.937 83.6417 50.2781 83.8516 50.7679C83.9129 50.8772 83.9571 50.9952 83.9828 51.1178C83.9828 51.3015 83.8429 51.4327 83.5805 51.5114C83.203 51.5889 82.8198 51.6357 82.4347 51.6513C79.5309 51.9924 76.1722 53.2607 72.5424 53.4006C71.1886 53.4721 69.831 53.3988 68.4928 53.1819L67.7493 53.0595L67.2858 52.9808L67.0496 52.937C66.9621 52.937 66.9796 52.8233 66.9359 52.7709L66.5773 51.9749L66.3761 51.6338L66.2887 51.3889C66.0574 50.7552 65.8588 50.1101 65.6939 49.4559L65.7289 49.3947Z" fill="#4415FF"/>
<path d="M82.3386 45.59C82.3386 44.8466 82.3386 44.1031 82.3386 43.3597C82.3386 43.0885 82.3386 42.8174 82.3386 42.5463C82.3795 41.5827 82.473 40.6221 82.6185 39.6687L82.7672 38.3917C82.7957 37.8273 82.9448 37.2755 83.2045 36.7736C83.292 36.6249 83.5719 36.7736 83.8168 36.9835C84.0617 37.1934 84.2716 37.5258 84.2104 37.7882C84.0005 38.759 83.8868 39.7911 83.6856 40.8407C83.6287 41.4955 83.6287 42.1539 83.6856 42.8087C83.6856 43.5259 83.6856 44.2606 83.7381 44.9865C83.7381 45.4326 83.7381 45.8612 83.8168 46.3335C83.878 47.0157 83.9218 47.6979 84.0355 48.3627C84.136 48.8766 84.2645 49.3846 84.4203 49.8846C84.4604 49.9929 84.4925 50.104 84.5165 50.2169C84.6127 50.6455 84.5165 50.7942 84.1579 50.9429C84.0704 50.9429 83.983 51.0216 83.8955 51.0479C83.7551 51.0884 83.6045 51.075 83.4734 51.0103C83.3424 50.9456 83.2402 50.8342 83.187 50.698C82.8043 49.7865 82.5624 48.8221 82.4698 47.8379C82.3824 47.0944 82.3474 46.351 82.3036 45.5988L82.3386 45.59Z" fill="#4415FF"/>
<path d="M76.8458 53.1907L74.3093 53.7418C74.0032 53.803 73.697 53.8992 73.3822 53.9517C72.2478 54.1518 71.0917 54.1989 69.9448 54.0916C69.4179 54.0343 68.8988 53.9199 68.3967 53.7505C67.7227 53.5455 67.1452 53.1046 66.7698 52.5085C66.6561 52.3161 66.901 52.1936 67.2071 52.1412C67.505 52.0801 67.8149 52.1266 68.0818 52.2724C69.0247 52.8478 70.1183 53.1281 71.2218 53.077C71.9816 53.0554 72.7361 52.9439 73.4696 52.7447C74.2918 52.5697 75.1315 52.3686 75.9624 52.1674L77.5193 51.7826C78.3064 51.5901 79.1111 51.4327 79.9245 51.2928C80.5682 51.1519 81.2249 51.0786 81.8838 51.0741H82.3473C82.9333 51.214 83.082 51.424 83.0208 51.7651C83.0249 51.8437 83.0249 51.9226 83.0208 52.0012C82.9595 52.117 82.8627 52.21 82.7446 52.2667C82.6266 52.3234 82.4934 52.3407 82.3648 52.3161C81.3536 52.3064 80.3445 52.4091 79.356 52.6222C78.5513 52.7797 77.7204 52.9633 76.8895 53.1733L76.8458 53.1907Z" fill="#4415FF"/>
<path d="M4.116 141.328H11.676V143.113H4.116V141.328ZM4.305 147.859H12.873V149.686H2.205V134.986H12.579V136.813H4.305V147.859ZM16.2734 149.686V134.986H22.4684C24.0364 134.986 25.4154 135.294 26.6054 135.91C27.8094 136.526 28.7404 137.387 29.3984 138.493C30.0704 139.599 30.4064 140.88 30.4064 142.336C30.4064 143.792 30.0704 145.073 29.3984 146.179C28.7404 147.285 27.8094 148.146 26.6054 148.762C25.4154 149.378 24.0364 149.686 22.4684 149.686H16.2734ZM18.3734 147.859H22.3424C23.5604 147.859 24.6104 147.628 25.4924 147.166C26.3884 146.704 27.0814 146.06 27.5714 145.234C28.0614 144.394 28.3064 143.428 28.3064 142.336C28.3064 141.23 28.0614 140.264 27.5714 139.438C27.0814 138.612 26.3884 137.968 25.4924 137.506C24.6104 137.044 23.5604 136.813 22.3424 136.813H18.3734V147.859ZM39.713 149.854C37.781 149.854 36.262 149.301 35.156 148.195C34.05 147.089 33.497 145.472 33.497 143.344V134.986H35.597V143.26C35.597 144.898 35.954 146.095 36.668 146.851C37.396 147.607 38.418 147.985 39.734 147.985C41.064 147.985 42.086 147.607 42.8 146.851C43.528 146.095 43.892 144.898 43.892 143.26V134.986H45.929V143.344C45.929 145.472 45.376 147.089 44.27 148.195C43.178 149.301 41.659 149.854 39.713 149.854ZM56.8073 149.854C55.6873 149.854 54.6513 149.672 53.6993 149.308C52.7613 148.93 51.9423 148.405 51.2423 147.733C50.5563 147.047 50.0173 146.249 49.6253 145.339C49.2333 144.429 49.0373 143.428 49.0373 142.336C49.0373 141.244 49.2333 140.243 49.6253 139.333C50.0173 138.423 50.5633 137.632 51.2633 136.96C51.9633 136.274 52.7823 135.749 53.7203 135.385C54.6723 135.007 55.7083 134.818 56.8283 134.818C57.9623 134.818 59.0053 135.014 59.9573 135.406C60.9233 135.784 61.7423 136.351 62.4143 137.107L61.0493 138.43C60.4893 137.842 59.8593 137.408 59.1593 137.128C58.4593 136.834 57.7103 136.687 56.9123 136.687C56.0863 136.687 55.3163 136.827 54.6023 137.107C53.9023 137.387 53.2933 137.779 52.7753 138.283C52.2573 138.787 51.8513 139.389 51.5573 140.089C51.2773 140.775 51.1373 141.524 51.1373 142.336C51.1373 143.148 51.2773 143.904 51.5573 144.604C51.8513 145.29 52.2573 145.885 52.7753 146.389C53.2933 146.893 53.9023 147.285 54.6023 147.565C55.3163 147.845 56.0863 147.985 56.9123 147.985C57.7103 147.985 58.4593 147.845 59.1593 147.565C59.8593 147.271 60.4893 146.823 61.0493 146.221L62.4143 147.544C61.7423 148.3 60.9233 148.874 59.9573 149.266C59.0053 149.658 57.9553 149.854 56.8073 149.854ZM62.8354 149.686L69.4924 134.986H71.5714L78.2494 149.686H76.0444L70.1014 136.162H70.9414L64.9984 149.686H62.8354ZM65.6704 146.011L66.2374 144.331H74.5114L75.1204 146.011H65.6704ZM82.623 149.686V136.813H77.583V134.986H89.742V136.813H84.702V149.686H82.623ZM92.0292 149.686V134.986H94.1292V149.686H92.0292ZM105.166 149.854C104.046 149.854 103.003 149.665 102.037 149.287C101.085 148.909 100.259 148.384 99.5592 147.712C98.8592 147.026 98.3132 146.228 97.9212 145.318C97.5292 144.408 97.3332 143.414 97.3332 142.336C97.3332 141.258 97.5292 140.264 97.9212 139.354C98.3132 138.444 98.8592 137.653 99.5592 136.981C100.259 136.295 101.085 135.763 102.037 135.385C102.989 135.007 104.032 134.818 105.166 134.818C106.286 134.818 107.315 135.007 108.253 135.385C109.205 135.749 110.031 136.274 110.731 136.96C111.445 137.632 111.991 138.423 112.369 139.333C112.761 140.243 112.957 141.244 112.957 142.336C112.957 143.428 112.761 144.429 112.369 145.339C111.991 146.249 111.445 147.047 110.731 147.733C110.031 148.405 109.205 148.93 108.253 149.308C107.315 149.672 106.286 149.854 105.166 149.854ZM105.166 147.985C105.978 147.985 106.727 147.845 107.413 147.565C108.113 147.285 108.715 146.893 109.219 146.389C109.737 145.871 110.136 145.269 110.416 144.583C110.71 143.897 110.857 143.148 110.857 142.336C110.857 141.524 110.71 140.775 110.416 140.089C110.136 139.403 109.737 138.808 109.219 138.304C108.715 137.786 108.113 137.387 107.413 137.107C106.727 136.827 105.978 136.687 105.166 136.687C104.34 136.687 103.577 136.827 102.877 137.107C102.191 137.387 101.589 137.786 101.071 138.304C100.553 138.808 100.147 139.403 99.8532 140.089C99.5732 140.775 99.4332 141.524 99.4332 142.336C99.4332 143.148 99.5732 143.897 99.8532 144.583C100.147 145.269 100.553 145.871 101.071 146.389C101.589 146.893 102.191 147.285 102.877 147.565C103.577 147.845 104.34 147.985 105.166 147.985ZM116.167 149.686V134.986H117.889L127.612 147.061H126.709V134.986H128.809V149.686H127.087L117.364 137.611H118.267V149.686H116.167Z" fill="#4415FF"/>
</svg>
