<svg width="34" height="34" viewBox="0 0 34 34" fill="none" xmlns="http://www.w3.org/2000/svg">
<path d="M29.03 8.28863C29.0356 8.2413 29.0505 8.19553 29.0739 8.15398C29.0972 8.11243 29.1286 8.07591 29.1661 8.04653C29.2036 8.01715 29.2466 7.99548 29.2925 7.98278C29.3385 7.97008 29.3865 7.9666 29.4338 7.97254C30.4219 8.10004 28.8999 9.32457 29.03 8.28863Z" fill="#4415FF" stroke="white" stroke-width="0.265625" stroke-miterlimit="10"/>
<path d="M22.5331 7.2845C22.539 7.23705 22.5542 7.19123 22.5778 7.14966C22.6014 7.10809 22.633 7.07159 22.6708 7.04223C22.7085 7.01288 22.7517 6.99125 22.7978 6.97858C22.8439 6.96591 22.892 6.96245 22.9395 6.96841C23.9276 7.09059 22.4056 8.32044 22.5331 7.2845Z" fill="#4415FF"/>
<path d="M20.036 2.32001C20.0422 2.27168 20.058 2.22507 20.0824 2.18291C20.1068 2.14074 20.1393 2.10386 20.1782 2.07443C20.217 2.045 20.2613 2.02361 20.3085 2.0115C20.3557 1.99939 20.4048 1.99681 20.453 2.00392C21.4305 2.1261 19.9218 3.35595 20.036 2.32001Z" fill="#4415FF" stroke="white" stroke-width="0.265625" stroke-miterlimit="10"/>
<path d="M18.1875 31.6104C17.0692 31.6795 15.9483 31.7326 14.8247 31.7406C14.413 31.7406 14.0012 31.7406 13.5922 31.7406C12.1631 31.6848 10.7208 31.6529 9.28375 31.5493C8.64625 31.5015 8.00609 31.4563 7.37391 31.3767C6.9675 31.3262 6.56109 31.2651 6.15734 31.1801C5.95527 31.134 5.75577 31.0773 5.55969 31.0101C5.36348 30.9388 5.17412 30.8499 4.99391 30.7445C4.77078 30.609 4.82922 30.5904 5.04969 30.6276C5.27016 30.6648 5.66062 30.6834 6.09891 30.7923C6.89862 30.958 7.70901 31.0671 8.52406 31.119C9.34484 31.1828 10.1736 31.2226 11.005 31.2624C12.0011 31.3103 13.0477 31.2863 14.065 31.3049C15.1806 31.3049 16.3016 31.2651 17.4225 31.196C18.1131 31.1509 18.8011 31.1031 19.4891 31.042C20.533 30.9543 21.5822 30.8587 22.6155 30.7392C23.4123 30.6462 24.2092 30.5213 25.0061 30.4098L25.5373 30.3354C26.1908 30.2531 26.4033 30.269 26.56 30.3938C26.5963 30.4188 26.6301 30.4473 26.6609 30.4788C26.7353 30.5824 26.4777 30.6967 26.0022 30.779C24.5917 31.0207 23.0803 31.1987 21.5875 31.3501C20.4666 31.4643 19.3377 31.5573 18.2114 31.6396L18.1875 31.6104Z" fill="#4415FF"/>
<path d="M18.5938 22.6482C18.0093 22.2412 17.3745 21.9117 16.7052 21.668C16.0575 21.4593 15.3571 21.4847 14.7263 21.7398C14.2471 21.9326 13.7924 22.1813 13.3716 22.4809C12.9864 22.7465 12.6146 23.0121 12.24 23.3149C11.8655 23.6177 11.4803 23.8887 11.1191 24.1862C10.3913 24.7812 9.69534 25.4213 9.018 26.0801C8.41503 26.6671 7.82534 27.278 7.25159 27.8837C6.52112 28.6805 5.82253 29.4774 5.10003 30.2743C4.87956 30.5213 4.8344 30.4257 4.91144 30.1309C5.06979 29.6665 5.31497 29.2366 5.63393 28.8638C6.35909 28.0298 7.13206 27.2355 7.90769 26.4732C8.68331 25.7109 9.4855 24.922 10.3435 24.2074C10.8561 23.7771 11.406 23.3548 11.9372 22.9351C12.4691 22.4938 13.0309 22.09 13.6186 21.7265C13.9569 21.5311 14.3126 21.3675 14.6811 21.2377C15.0585 21.1123 15.4523 21.0433 15.8499 21.0332C16.2487 21.0371 16.6439 21.109 17.0186 21.2457C17.3758 21.381 17.7229 21.5417 18.0572 21.7265C18.8676 22.1812 19.6311 22.7151 20.3363 23.3202C21.3988 24.226 22.3922 25.2088 23.3857 26.1624C24.1586 26.9062 24.9289 27.618 25.7046 28.3379L26.2146 28.808C26.8441 29.4057 27.0114 29.6049 27.0619 29.8493C27.0763 29.9004 27.0852 29.953 27.0885 30.006C27.0885 30.1415 26.7485 29.9715 26.2597 29.5571C24.8147 28.3193 23.4096 26.9009 21.9646 25.5276C20.8702 24.4863 19.8024 23.4584 18.5938 22.6588V22.6482Z" fill="#4415FF"/>
<path d="M3.96061 25.3125C3.96061 24.659 3.96061 24.0109 3.97389 23.3548C3.97389 23.1157 3.97389 22.8767 3.98982 22.6403C4.04029 21.7982 4.15186 20.9695 4.23154 20.1434C4.26607 19.7742 4.28467 19.405 4.29529 19.0411C4.29529 18.5709 4.29529 18.1034 4.34311 17.6359C4.35904 17.4898 4.45201 17.5058 4.55029 17.6359C4.68854 17.8149 4.76914 18.0316 4.78139 18.2575C4.79806 19.2298 4.73319 20.2019 4.58748 21.1634C4.51045 21.7372 4.49717 22.3375 4.47061 22.9245C4.44404 23.57 4.44404 24.2207 4.4467 24.8715C4.4467 25.2726 4.4467 25.6684 4.47061 26.0748C4.49186 26.6804 4.52107 27.2887 4.58748 27.8864C4.63795 28.3512 4.72561 28.8028 4.81326 29.2543C4.83186 29.3526 4.85311 29.4509 4.87436 29.5518C4.94076 29.9237 4.92748 30.0486 4.81326 30.1522C4.79116 30.1779 4.76621 30.2011 4.73889 30.2212C4.65389 30.2743 4.53701 30.1362 4.45998 29.8626C4.24362 29.0183 4.10579 28.1558 4.04826 27.2861C3.99514 26.63 3.97123 25.9579 3.95264 25.3125H3.96061Z" fill="#4415FF"/>
<path d="M27.1256 25.0708C27.1123 24.4652 27.0858 23.8543 27.0512 23.2433C27.0512 23.0229 27.0061 22.7997 26.9928 22.5766C26.945 21.7797 26.9291 20.9829 26.9423 20.186C26.9423 19.8327 26.9423 19.4794 26.9423 19.1235C26.9423 18.9004 26.9423 18.6746 26.9423 18.4514C26.9423 18.2283 26.9822 18.0052 27.0194 17.7821C27.0433 17.6439 27.123 17.6652 27.2106 17.7821C27.3322 17.9591 27.4079 18.1636 27.4311 18.3771C27.4656 19.2855 27.4683 20.1833 27.4311 21.0944C27.4352 21.6511 27.4707 22.2072 27.5373 22.7599C27.5851 23.3761 27.6241 23.9959 27.6542 24.6193C27.6728 24.9991 27.6808 25.3816 27.6887 25.7641C27.6887 26.3432 27.6887 26.9275 27.6622 27.5039C27.6436 27.9529 27.6436 28.3964 27.5931 28.848C27.5931 28.9463 27.5692 29.0446 27.5533 29.1455C27.5379 29.2229 27.5174 29.2992 27.4922 29.3739C27.4702 29.4261 27.4416 29.4752 27.4072 29.52C27.3618 29.5846 27.2933 29.6293 27.2159 29.6449C27.184 29.6555 27.1511 29.6626 27.1176 29.6661C27.0167 29.6661 26.9689 29.4988 26.9769 29.2411C27.0406 28.4894 27.1017 27.6952 27.115 26.8824C27.115 26.2768 27.115 25.6658 27.0937 25.0549L27.1256 25.0708Z" fill="#4415FF"/>
<path d="M23.011 18.4806C23.5423 18.1539 24.0416 17.8245 24.5437 17.4792C24.7296 17.3517 24.8996 17.2136 25.0749 17.0834C25.3937 16.8577 25.7098 16.6292 26.0073 16.3848C26.156 16.2627 26.2994 16.1378 26.4296 16.0077C26.4857 15.9509 26.538 15.8905 26.5863 15.827C26.6102 15.7925 26.6368 15.742 26.6102 15.6995L26.573 15.6491L26.504 15.5375C26.4482 15.4684 26.4004 15.3967 26.3473 15.3277L26.0312 14.9212L25.2024 13.8587C25.0298 13.6409 25.468 13.7259 25.8319 14.0925C26.164 14.4112 26.488 14.738 26.7988 15.0806C26.836 15.1231 26.8759 15.1656 26.9104 15.2134L27.0432 15.3861C27.1114 15.4668 27.1547 15.5655 27.168 15.6703C27.171 15.7812 27.1454 15.891 27.0937 15.9891C27.0724 16.0369 27.0405 16.082 27.0166 16.1272C26.9927 16.1723 26.9715 16.1856 26.9502 16.2148C26.929 16.2441 26.8626 16.3184 26.8201 16.3636C26.7365 16.4569 26.6478 16.5456 26.5544 16.6292C26.1082 16.9878 25.6673 17.3597 25.2051 17.6917C24.703 18.0423 24.1718 18.3877 23.6644 18.725L22.7002 19.3466C22.2168 19.66 21.7201 19.9628 21.2446 20.2816C20.8727 20.5286 20.5274 20.7969 20.1821 21.0545C20.1051 21.113 20.0307 21.1714 19.9484 21.2272C19.6509 21.4317 19.526 21.453 19.3799 21.3653C19.346 21.3489 19.3131 21.3302 19.2816 21.3095C19.1966 21.2378 19.263 21.0652 19.4676 20.8925C20.1049 20.3841 20.77 19.9114 21.4598 19.4767L23.003 18.4594L23.011 18.4806Z" fill="#4415FF"/>
<path d="M8.17051 19.4128C7.57374 19.0587 6.98317 18.6859 6.39879 18.2946C6.18629 18.1538 5.96582 18.0289 5.75598 17.8749C5.37896 17.6125 5.02364 17.3203 4.69348 17.001C4.65098 16.9558 4.60848 16.9107 4.56863 16.8602C4.51241 16.7945 4.46425 16.7222 4.4252 16.645C4.38671 16.5695 4.36841 16.4853 4.37207 16.4007C4.38585 16.317 4.42264 16.2388 4.47832 16.1749C4.56642 16.0721 4.66043 15.9745 4.75988 15.8827L5.00692 15.6543L5.88348 14.8574C6.25004 14.5121 6.62457 14.1721 6.9752 13.8214C7.08145 13.7152 7.12395 13.7657 7.09207 13.9144C7.02536 14.1407 6.90923 14.3494 6.75207 14.5253C6.41738 14.9264 6.07207 15.3222 5.72145 15.6888C5.54613 15.8774 5.35223 16.0474 5.17426 16.22C4.94848 16.4591 4.92988 16.4007 4.94582 16.4857C4.94925 16.4998 4.95662 16.5127 4.96707 16.5228C4.98687 16.5497 5.00815 16.5754 5.03082 16.5999C5.07948 16.6539 5.13091 16.7053 5.18488 16.7539C5.29379 16.8522 5.41598 16.9478 5.53817 17.0408C5.78785 17.2268 6.05082 17.4021 6.31113 17.5721C6.88488 17.9572 7.47192 18.3291 8.06692 18.6903C8.43348 18.9135 8.8027 19.1322 9.17457 19.3464C9.7377 19.6678 10.3035 19.9946 10.8772 20.2894C11.3235 20.5178 11.7777 20.7118 12.2293 20.9136C12.3302 20.9588 12.4285 20.9986 12.5268 21.0464C12.8986 21.2191 12.9916 21.3121 13.0022 21.4953C13.0061 21.5333 13.0061 21.5716 13.0022 21.6096C13.0022 21.7238 12.7924 21.7477 12.5082 21.6441C11.6454 21.3081 10.8067 20.9131 9.99801 20.4621C9.3791 20.1327 8.76551 19.7874 8.16254 19.4261L8.17051 19.4128Z" fill="#4415FF"/>
<path d="M9.21186 10.2436C10.4444 10.0762 11.6875 9.95937 12.9067 9.86108C13.3556 9.8239 13.8045 9.77343 14.2534 9.74421C15.8472 9.6353 17.425 9.58483 19.0134 9.55827C19.7173 9.55827 20.4265 9.52905 21.1384 9.52905C21.59 9.52905 22.0415 9.52905 22.4958 9.56624C22.7215 9.58483 22.9473 9.60874 23.1758 9.64858C23.4097 9.68286 23.6383 9.74714 23.8558 9.83983C24.0019 9.9089 24.0497 10.0045 24.0178 10.0178C23.9859 10.0311 23.9036 10.0178 23.7867 10.0178C23.5503 10.0178 23.128 10.0656 22.6233 10.0576C20.8276 10.0072 19.0001 10.0576 17.1647 10.1081C16.0623 10.1373 14.9228 10.2383 13.7992 10.3286C12.5667 10.4242 11.3315 10.5331 10.1044 10.6845C9.35314 10.7665 8.60663 10.8871 7.8678 11.0458C7.79873 11.0644 7.72967 11.0803 7.66592 11.1016L7.5703 11.1308L7.49326 11.1573C7.45694 11.1684 7.42402 11.1885 7.39764 11.2158C7.38548 11.2526 7.38008 11.2913 7.3817 11.33C7.3817 11.5956 7.3817 11.8984 7.3817 12.1826C7.39764 12.7591 7.41889 13.3381 7.4428 13.9092C7.48264 14.8017 7.55701 15.673 7.60483 16.5655C7.60483 16.7594 7.62608 16.9506 7.6367 17.1472C7.66061 17.875 7.62076 18.1141 7.4667 18.2681C7.4363 18.305 7.40151 18.338 7.36311 18.3664C7.24623 18.4222 7.17451 18.138 7.13733 17.612C7.02311 16.0475 6.90092 14.39 6.83717 12.7192L6.81061 11.7816V11.2662C6.81455 11.1924 6.82702 11.1194 6.8478 11.0484C6.86262 10.9775 6.89557 10.9116 6.94342 10.8572C7.04468 10.7479 7.17295 10.6673 7.3153 10.6234C7.6316 10.5212 7.95469 10.4414 8.28217 10.3844C8.59561 10.3259 8.90639 10.2781 9.21717 10.2303L9.21186 10.2436Z" fill="#4415FF"/>
<path d="M24.3896 13.0033L24.4055 13.9437C24.4055 14.0579 24.4268 14.1694 24.4294 14.2837C24.4294 14.6901 24.4294 15.0805 24.4666 15.4976C24.4776 15.6756 24.498 15.8529 24.5277 16.0288C24.5817 16.2521 24.6014 16.4823 24.5861 16.7115C24.5861 16.7858 24.4826 16.7885 24.3763 16.7433C24.3163 16.7194 24.2618 16.6835 24.2161 16.6379C24.1705 16.5922 24.1346 16.5377 24.1107 16.4777C24.0216 16.0146 23.9762 15.5442 23.9752 15.0726C23.9752 14.7883 23.9194 14.4988 23.8929 14.2119C23.8663 13.9251 23.8477 13.5771 23.8371 13.2583L23.8185 12.6687C23.8185 12.3712 23.7999 12.0737 23.7893 11.7788C23.7893 11.5504 23.7308 11.3246 23.7308 11.0962C23.7308 11.0483 23.7308 10.9979 23.7308 10.9474C23.7308 10.7588 23.7786 10.7004 23.8902 10.6632C23.9142 10.6528 23.9391 10.6448 23.9646 10.6393C24.0469 10.6233 24.116 10.7004 24.1558 10.8332C24.2168 11.0317 24.2647 11.234 24.2993 11.4388C24.3285 11.646 24.3497 11.8532 24.3657 12.063L24.4055 13.0033H24.3896Z" fill="#4415FF"/>
<path d="M16.3838 6.3496C16.1199 6.39232 15.867 6.48713 15.6401 6.6285C15.3652 6.77771 15.0991 6.94267 14.8432 7.12257C14.6519 7.25272 14.4766 7.40413 14.288 7.5396C13.624 8.01949 12.967 8.51975 12.3171 9.04038C12.0302 9.27147 11.7513 9.51319 11.4724 9.75225C11.2918 9.901 11.1112 10.0551 10.9199 10.1985C10.7244 10.3531 10.5068 10.4776 10.2744 10.5677C10.1841 10.5943 10.1284 10.5677 10.131 10.5358C10.1426 10.4789 10.1633 10.4242 10.1921 10.3738C10.2779 10.1812 10.4027 10.0084 10.5587 9.86647C11.2466 9.23429 11.9824 8.61538 12.758 8.03366C13.2255 7.691 13.6665 7.27663 14.1473 6.92069C14.6766 6.50705 15.2535 6.15837 15.8659 5.8821C15.9752 5.84018 16.0881 5.80818 16.2032 5.78647C16.2655 5.77556 16.3286 5.77023 16.3918 5.77054C16.4572 5.76997 16.5224 5.77801 16.5857 5.79444C16.7996 5.85433 17.0023 5.94852 17.186 6.07335C17.6972 6.42229 18.1755 6.81705 18.6151 7.25272C18.9604 7.57413 19.311 7.8796 19.643 8.21163C19.7174 8.28335 19.7918 8.34975 19.8609 8.42944C20.1105 8.72429 20.153 8.84913 20.084 9.0085C20.0709 9.04643 20.054 9.08292 20.0335 9.11741C19.9618 9.221 19.7891 9.16257 19.5819 8.97929C18.9657 8.44804 18.384 7.81585 17.7518 7.25538C17.5234 7.04945 17.284 6.85614 17.0346 6.67632C16.9175 6.59388 16.795 6.51934 16.668 6.45319C16.6139 6.42716 16.558 6.40497 16.5007 6.38679L16.429 6.36554C16.4158 6.36818 16.4023 6.36818 16.3891 6.36554L16.3838 6.3496Z" fill="#4415FF"/>
<path d="M17.4037 13.6169L15.8817 13.678L15.3266 13.7099C14.6731 13.7364 14.017 13.7338 13.3636 13.7444L12.4844 13.755C12.107 13.7846 11.7274 13.764 11.3555 13.6939C11.2333 13.6567 11.2784 13.6142 11.3847 13.5797C11.5389 13.527 11.6999 13.4966 11.8628 13.4894C12.6039 13.4602 13.3556 13.3885 14.1127 13.3699C14.5669 13.3539 15.037 13.3061 15.4992 13.2742L17.0319 13.1813L17.9748 13.1282C18.4503 13.0963 18.9284 13.0777 19.4012 13.0432C19.7705 13.0166 20.1264 12.9582 20.493 12.9236C20.5727 12.9236 20.6523 12.9024 20.732 12.8971C21.0375 12.8838 21.1331 12.9157 21.1969 13.0485C21.2185 13.079 21.2363 13.112 21.25 13.1467C21.2792 13.2503 21.157 13.338 20.9419 13.3699C20.3044 13.4708 19.6137 13.5213 18.9417 13.5638C18.4317 13.5957 17.9191 13.6089 17.4091 13.6355L17.4037 13.6169Z" fill="#4415FF"/>
<path d="M16.9493 15.6835H16.3703C16.2986 15.6835 16.2295 15.6968 16.1578 15.6835C15.9081 15.6835 15.6558 15.657 15.4061 15.6437C15.2945 15.6437 15.1856 15.6437 15.074 15.6437C14.9332 15.6601 14.7906 15.6538 14.6517 15.6251C14.564 15.6012 14.6862 15.301 14.8429 15.2931C15.1246 15.2794 15.4069 15.2856 15.6876 15.3117C15.8651 15.3187 16.0428 15.3107 16.2189 15.2877L16.79 15.2718H17.1486C17.3292 15.2718 17.5125 15.2718 17.6798 15.2532C17.8472 15.2346 17.9454 15.2054 18.0995 15.1841C18.1314 15.1841 18.1606 15.1709 18.1925 15.1682C18.3067 15.1682 18.3439 15.1921 18.3651 15.317C18.3651 15.3435 18.3651 15.3727 18.3651 15.3993C18.3711 15.4415 18.3622 15.4846 18.3399 15.5209C18.3176 15.5573 18.2833 15.5847 18.2429 15.5985C17.9994 15.6629 17.7484 15.6942 17.4965 15.6915L16.9228 15.7048L16.9493 15.6835Z" fill="#4415FF"/>
<path d="M18.5328 31.8177C17.6164 31.8734 16.7 31.9186 15.7809 31.9478C15.4435 31.9478 15.1089 31.977 14.7742 31.9797C13.5868 31.9797 12.4101 31.9239 11.2334 31.8761L9.6662 31.8177C8.99627 31.8209 8.32752 31.7613 7.66871 31.6397C7.46417 31.5945 7.49605 31.5467 7.66871 31.4883C7.75902 31.4564 7.88652 31.4245 8.03792 31.3873C8.11932 31.3675 8.2018 31.3524 8.28495 31.3422C8.37261 31.3422 8.46558 31.3422 8.55058 31.3422L12.62 31.483C13.4407 31.5202 14.2854 31.483 15.1168 31.4458C16.0332 31.4059 16.9523 31.3661 17.8714 31.305C18.4345 31.2652 19.0003 31.2253 19.566 31.1775C20.4187 31.1058 21.2793 31.0314 22.124 30.9119C22.7801 30.8295 23.4203 30.71 24.0657 30.5984C24.2065 30.5745 24.3314 30.5453 24.4881 30.5241C25.0193 30.4417 25.1946 30.4577 25.3328 30.6064C25.3663 30.6358 25.3966 30.6688 25.4231 30.7047C25.4921 30.8242 25.2876 30.9703 24.8918 31.0447C23.6983 31.2928 22.4911 31.4702 21.2767 31.5759C20.3576 31.6716 19.4332 31.7433 18.5089 31.8123L18.5328 31.8177Z" fill="#4415FF"/>
<path d="M9.16944 19.8035L8.006 19.081C7.86522 18.9907 7.71647 18.9163 7.57569 18.8154C7.08428 18.4913 6.59819 18.1593 6.12803 17.8034C5.91553 17.6546 5.711 17.4846 5.50381 17.3279C5.37631 17.219 5.23819 17.1234 5.11866 17.0012L4.93538 16.8259C4.87694 16.7621 4.82381 16.6931 4.77069 16.624C4.71756 16.5549 4.77069 16.5098 4.87694 16.5284C5.02613 16.5573 5.16796 16.6161 5.29397 16.701C5.5596 16.879 5.85975 17.0384 6.14663 17.2057C6.4335 17.3731 6.69647 17.5802 6.96741 17.7821C7.30239 18.0273 7.65091 18.2534 8.01131 18.4595C8.39913 18.7003 8.78782 18.9385 9.17741 19.174L9.90256 19.6043C10.2744 19.8142 10.641 20.032 11.0182 20.2232C11.313 20.3693 11.6158 20.4888 11.916 20.611L12.1126 20.6934C12.3569 20.8023 12.4101 20.8846 12.3941 21.0413C12.3969 21.0758 12.3969 21.1105 12.3941 21.1449C12.3702 21.2512 12.2241 21.2963 12.0355 21.2379C11.4548 21.043 10.8936 20.794 10.3594 20.4942C9.95303 20.279 9.56256 20.0452 9.15616 19.8168L9.16944 19.8035Z" fill="#4415FF"/>
<path d="M22.4745 18.5974C22.8464 18.3663 23.2183 18.1299 23.5848 17.8882C23.7176 17.7979 23.8504 17.6969 23.9753 17.6226C24.4428 17.3091 24.9103 16.993 25.3645 16.661C25.5584 16.5069 25.7576 16.3555 25.9383 16.1908C26.0539 16.0871 26.1639 15.9772 26.2676 15.8615C26.3615 15.7709 26.4317 15.6587 26.4722 15.5347C26.4722 15.5055 26.5093 15.4205 26.6129 15.5055C26.6382 15.5394 26.6563 15.5781 26.6664 15.6191C26.6764 15.6602 26.6781 15.7029 26.6714 15.7446C26.6601 15.8434 26.6275 15.9386 26.5758 16.0235C26.3922 16.319 26.1767 16.5934 25.9329 16.8416C25.6857 17.0682 25.419 17.2726 25.1361 17.4526C24.7961 17.6651 24.48 17.9307 24.1453 18.1618C23.8106 18.3929 23.4042 18.6612 23.0297 18.9029L22.3337 19.3358C21.9858 19.5616 21.6298 19.7768 21.2898 20.0105C21.0242 20.1912 20.7851 20.3957 20.5328 20.5896C20.477 20.6321 20.4239 20.6772 20.3654 20.7171C20.1529 20.8685 20.0573 20.8712 19.9325 20.7782C19.9036 20.7598 19.8761 20.7393 19.8501 20.7171C19.7731 20.6401 19.805 20.494 19.9458 20.3638C20.3866 19.9735 20.8573 19.6182 21.3536 19.3013L22.4665 18.5762L22.4745 18.5974Z" fill="#4415FF"/>
<path d="M9.97683 24.6245L9.27027 25.2142L8.57964 25.8278L8.0962 26.2953C7.52245 26.8265 6.94605 27.387 6.40417 27.9661C6.16511 28.2317 5.93136 28.4973 5.71089 28.7629C5.43777 29.1198 5.14607 29.462 4.83699 29.7882C4.7387 29.8865 4.68558 29.8228 4.68824 29.6767C4.70222 29.4604 4.77678 29.2523 4.90339 29.0764C5.48056 28.3488 6.10809 27.6627 6.78136 27.0231C7.18511 26.6406 7.57824 26.2103 7.99527 25.8251C8.22105 25.6073 8.4548 25.3975 8.69121 25.1929C8.92761 24.9884 9.16402 24.7786 9.40308 24.5687C9.69527 24.3031 10.0034 24.08 10.3035 23.8382C10.7631 23.4796 11.2385 23.1343 11.714 22.8023C12.0753 22.5367 12.4418 22.2843 12.8084 22.0267L13.0581 21.87C13.3768 21.684 13.4937 21.6495 13.6159 21.7132C13.644 21.7242 13.6708 21.7385 13.6956 21.7557C13.7673 21.8142 13.6717 21.9523 13.4565 22.1037C12.8057 22.542 12.1284 23.0148 11.4537 23.4929L10.7126 24.0454L9.9848 24.6245H9.97683Z" fill="#4415FF"/>
<path d="M6.79456 16.6001C6.79456 16.3982 6.79456 16.1963 6.79456 15.9971C6.79456 15.9227 6.79456 15.851 6.79456 15.7767C6.79456 15.511 6.81847 15.264 6.82113 15.0063C6.82113 14.8921 6.82113 14.7779 6.80519 14.6663C6.78216 14.5232 6.77504 14.378 6.78394 14.2334C6.78394 14.1404 7.04956 14.2334 7.0655 14.4007C7.11332 14.6957 7.132 14.9946 7.12128 15.2932C7.12128 15.4738 7.14253 15.6598 7.14785 15.8404L7.17175 16.4354C7.17175 16.5576 7.17175 16.6824 7.17175 16.8046C7.17175 16.9906 7.19035 17.1792 7.21425 17.3624C7.23816 17.5032 7.278 17.6281 7.30988 17.7768C7.30988 17.8087 7.32316 17.8379 7.32847 17.8698C7.32847 17.984 7.31519 18.0265 7.22753 18.0637C7.20912 18.0747 7.18952 18.0836 7.1691 18.0902C7.13252 18.0989 7.09405 18.0936 7.06116 18.0754C7.02827 18.0573 7.00331 18.0275 6.99113 17.992C6.86362 17.7457 6.79712 17.4724 6.79722 17.1951C6.78128 16.9906 6.78128 16.786 6.77597 16.5842L6.79456 16.6001Z" fill="#4415FF"/>
</svg>
