<svg width="46" height="45" viewBox="0 0 46 45" fill="none" xmlns="http://www.w3.org/2000/svg">
<path d="M31.6 4.83761C31.6161 4.78406 31.6426 4.73424 31.6781 4.69104C31.7135 4.64784 31.7572 4.61212 31.8066 4.58595C31.856 4.55978 31.9101 4.54369 31.9658 4.53861C32.0214 4.53353 32.0776 4.53956 32.1309 4.55636C33.2418 4.90089 31.2379 6.00479 31.6 4.83761Z" fill="#4415FF" stroke="#4415FF" stroke-width="0.351562" stroke-miterlimit="10"/>
<path d="M42.7093 12.1219C42.7257 12.0686 42.7525 12.0192 42.7881 11.9764C42.8238 11.9336 42.8675 11.8982 42.9169 11.8724C42.9662 11.8466 43.0202 11.8308 43.0757 11.8259C43.1312 11.8211 43.1871 11.8273 43.2402 11.8441C44.3511 12.1852 42.3472 13.2891 42.7093 12.1219Z" fill="#4415FF" stroke="#4415FF" stroke-width="0.351562" stroke-miterlimit="10"/>
<path d="M21.38 10.0407C21.414 9.93371 21.4888 9.84451 21.5882 9.79249C21.6877 9.74047 21.8036 9.72984 21.9109 9.76293C23.0218 10.1039 21.0109 11.2078 21.38 10.0407Z" fill="#4415FF" stroke="#4415FF" stroke-width="0.351562" stroke-miterlimit="10"/>
<path d="M10.2111 30.5438C10.2111 29.768 10.2111 28.9887 10.2111 28.2059C10.2111 27.9212 10.1724 27.6364 10.1724 27.3516C10.1724 26.3462 10.1724 25.3384 10.1724 24.3282C10.1724 23.8817 10.1548 23.4317 10.1337 22.9887L10.0845 22.1485C10.0892 21.8611 10.115 21.5743 10.1618 21.2907C10.19 21.1114 10.3411 21.136 10.5134 21.2907C10.7257 21.4875 10.8656 21.75 10.9107 22.036C10.9704 23.1856 11.0021 24.3387 10.9599 25.5094C10.9283 26.2126 11.0091 26.9157 11.0337 27.6469L11.097 30.013C11.097 30.4981 11.097 30.9833 11.097 31.4684C11.097 32.2032 11.097 32.945 11.097 33.6762L11.1497 35.3637C11.1561 35.4808 11.1561 35.5982 11.1497 35.7153C11.1111 36.1794 11.0513 36.3235 10.8861 36.4184C10.8508 36.4414 10.8145 36.4625 10.7771 36.4817C10.654 36.5204 10.5556 36.327 10.4993 35.9895C10.3513 34.9657 10.2679 33.9336 10.2497 32.8993C10.2251 32.1188 10.197 31.3348 10.1724 30.5509L10.2111 30.5438Z" fill="#4415FF"/>
<path d="M16.4794 37.2868C17.2036 37.5329 17.9348 37.7672 18.6731 37.9899C18.9403 38.0707 19.218 38.12 19.4852 38.2008C20.4344 38.4926 21.3836 38.8055 22.3364 39.1114L23.6126 39.4946C23.8868 39.586 24.161 39.6493 24.4317 39.7688C24.5688 39.825 24.7024 39.8813 24.8325 39.9481C24.955 40.0286 25.0725 40.1166 25.184 40.2118C25.3352 40.3313 25.2157 40.4438 25.0012 40.5176C24.8814 40.5564 24.7576 40.5811 24.6321 40.5914C24.4892 40.6096 24.344 40.5964 24.2067 40.5528C23.1872 40.2012 22.0692 39.9586 20.9794 39.593C20.3254 39.3715 19.6118 39.2696 18.9262 39.0868C18.1704 38.8934 17.418 38.6825 16.6692 38.4645L15.284 38.0426C14.5809 37.8211 13.8954 37.575 13.2063 37.3395C12.9391 37.2446 12.6719 37.1637 12.3977 37.0864C12.1235 37.009 11.8598 36.9071 11.5891 36.8157C11.4688 36.7799 11.3513 36.7352 11.2376 36.6821C10.8157 36.4606 10.7348 36.2918 10.7876 36.0106C10.7975 35.9453 10.8116 35.8807 10.8297 35.8172C10.9001 35.6168 11.1532 35.5465 11.4801 35.6098C11.9407 35.7364 12.4118 35.8805 12.8864 36.0422C13.361 36.2039 13.8286 36.3622 14.3137 36.5274C15.0169 36.7805 15.7481 37.0336 16.4829 37.2622L16.4794 37.2868Z" fill="#4415FF"/>
<path d="M32.6124 38.3695C34.5284 37.8106 36.4269 37.1602 38.3218 36.4957C39.0249 36.2531 39.6929 35.9824 40.3819 35.7328L42.203 35.0684L42.3437 35.0156C42.3648 35.0156 42.3964 35.0156 42.4105 34.984C42.4122 34.9594 42.4122 34.9347 42.4105 34.9102V34.7344L42.4597 33.7676L42.653 29.9004C42.7093 28.7543 42.7444 27.6012 42.7761 26.4621C42.8148 24.9996 42.8429 23.5301 42.9484 22.0676C42.98 21.6141 43.089 21.6773 43.1944 22.0676C43.3432 22.7048 43.4152 23.3574 43.4089 24.0117C43.4089 27.0035 43.3737 29.9883 43.2191 33.0012C43.198 33.4547 43.1769 33.9082 43.1628 34.3652L43.1593 35.1563C43.1518 35.2439 43.1329 35.3302 43.103 35.4129V35.4762C43.103 35.4762 43.0116 35.4164 43.0538 35.4445V35.4656L42.9694 35.557L42.9273 35.6063L42.8605 35.6344L42.7304 35.6906L42.5335 35.775C41.6757 36.1266 40.8109 36.4781 39.9495 36.8016C38.0511 37.5281 36.1339 38.2066 34.198 38.8371C33.0027 39.2168 31.8073 39.5895 30.5593 39.8566L30.1163 39.9375C29.9429 39.9651 29.768 39.9816 29.5925 39.9867C29.3913 40.0035 29.1894 39.9645 29.0089 39.8742C28.9659 39.8526 28.9279 39.8225 28.897 39.7856C28.8662 39.7487 28.8432 39.7059 28.8296 39.6598C28.8047 39.5654 28.7894 39.4689 28.7839 39.3715V37.2973C28.7839 36.6434 28.7839 35.9895 28.7839 35.3391C28.7839 33.8801 28.7558 32.4457 28.7839 31.0043C28.7839 30.6844 28.7839 30.375 28.805 30.0516C28.8894 28.8668 28.9913 28.4941 29.1566 28.2445C29.1905 28.1874 29.2293 28.1332 29.2726 28.0828C29.3921 27.9738 29.4905 28.466 29.5433 29.3344C29.5925 29.9813 29.6066 30.6316 29.6206 31.2891C29.6347 31.9465 29.6628 32.6145 29.6628 33.2824C29.6628 34.6184 29.6874 35.9754 29.7015 37.3359C29.7015 37.8984 29.7015 38.4609 29.7015 39.027C30.021 38.9918 30.3381 38.9366 30.6507 38.8617C31.3046 38.7176 31.9655 38.5313 32.623 38.3344L32.6124 38.3695Z" fill="#4415FF"/>
<path d="M16.9572 22.4015C17.8643 22.7039 18.776 22.991 19.6924 23.2629C20.044 23.3613 20.3674 23.4316 20.7014 23.5371C21.8791 23.8886 23.0569 24.2402 24.2486 24.5918C24.7725 24.7429 25.3033 24.8695 25.8377 24.9925L26.8572 25.2246C27.2088 25.3125 27.5287 25.4215 27.8627 25.5375C28.0772 25.6218 28.0174 25.6957 27.817 25.759C27.503 25.8544 27.1739 25.8902 26.8467 25.8644C25.4255 25.6868 24.0207 25.3964 22.6455 24.9961C21.8194 24.7465 20.9369 24.5918 20.0826 24.3773C19.144 24.1312 18.2123 23.864 17.2701 23.5863L15.558 23.066C14.6932 22.7988 13.8354 22.4929 12.9811 22.2047C12.3131 21.9797 11.6451 21.8004 10.9912 21.5015C10.8471 21.4312 10.6994 21.3855 10.5553 21.2976C10.0139 21.0164 9.97873 20.6613 10.0104 20.4679C10.0146 20.4213 10.024 20.3753 10.0385 20.3308C10.0666 20.2711 10.1404 20.264 10.2565 20.2746C10.4142 20.2808 10.5709 20.3032 10.724 20.3414C11.2514 20.5277 11.8315 20.7175 12.4256 20.8898L14.2221 21.4875C15.1291 21.7758 16.0326 22.0992 16.9537 22.3769L16.9572 22.4015Z" fill="#4415FF"/>
<path d="M41.6088 20.2747C39.6963 19.5188 37.7416 18.8262 35.7728 18.1407L33.6178 17.4165L29.8279 16.1227L27.9295 15.4899L27.6342 15.395C27.5111 15.3528 27.381 15.3176 27.2826 15.2719L27.3178 14.5688C27.3178 14.2383 27.3459 13.9079 27.3529 13.5774C27.3615 12.4024 27.2946 11.2282 27.1525 10.0618C26.9365 8.56076 26.8016 7.04919 26.7482 5.53365C26.7482 5.05905 26.8853 5.1153 27.0541 5.50553C27.3081 6.13247 27.468 6.79352 27.5287 7.46725C27.6904 8.99303 27.9119 10.5258 27.9857 12.0973C28.0244 12.8813 28.0209 13.6688 27.9857 14.4528L27.9681 14.7446V14.7868C27.9681 14.8079 27.9857 14.8044 27.9963 14.8114H28.0279L28.165 14.8571L29.2724 15.2297C31.0303 15.838 32.89 16.3969 34.6971 16.9876C36.6834 17.6485 38.6662 18.327 40.642 19.0407C41.1166 19.213 41.5877 19.3922 42.0482 19.5751C42.3827 19.6828 42.7 19.8379 42.9904 20.0356C43.0818 20.12 43.1908 20.2184 43.117 20.3344L42.8674 20.6403C42.5404 20.8829 42.1361 21.1149 41.9357 21.2344C40.2044 22.1543 38.4227 22.9759 36.599 23.6954C35.1928 24.2719 33.8392 24.852 32.433 25.3688C32.1236 25.4848 31.8213 25.6008 31.5013 25.7028C30.3131 26.0719 29.8806 26.0895 29.5678 25.8715C29.4994 25.8324 29.4376 25.7825 29.3849 25.7239C29.29 25.5376 29.6908 25.3723 30.524 25.0911C31.7545 24.6692 33.0271 24.184 34.3068 23.6848C35.5865 23.1856 36.8838 22.6653 38.174 22.1133C38.5256 21.9622 38.8771 21.811 39.2287 21.6493C39.5803 21.4876 39.9318 21.3329 40.2623 21.1641C40.5928 20.9954 40.9373 20.8126 41.2713 20.6508C41.4435 20.5665 41.5982 20.468 41.7599 20.3766H41.7916C41.7916 20.3766 41.8197 20.3766 41.7916 20.3766L41.6228 20.3098L41.6088 20.2747Z" fill="#4415FF"/>
<path d="M12.7386 20.0391C12.3272 20.1762 11.9159 20.3133 11.4905 20.4363L11.3288 20.482L11.1143 20.5383C10.9322 20.5893 10.7445 20.6177 10.5554 20.6227C10.3943 20.6273 10.237 20.5736 10.1124 20.4715C10.0491 20.4223 10.0491 20.3344 10.021 20.2641L9.9577 20.0391C9.9577 19.3359 9.97528 19.0336 9.98583 18.6328L10.0104 17.2266C10.0632 15.6129 10.0983 14.0062 10.0104 12.3996C9.97177 11.6965 9.89442 10.9723 9.80302 10.2691C9.67645 9.36562 9.5077 8.46914 9.38466 7.56562C9.35302 7.28437 9.47606 7.29492 9.64833 7.50586C9.90111 7.84496 10.0742 8.23671 10.1546 8.65195C10.355 9.581 10.5076 10.5197 10.6116 11.4645C10.7071 12.4082 10.7517 13.3565 10.7452 14.3051C10.7452 15.4406 10.7839 16.6184 10.7733 17.775L10.7417 19.6523V19.7402C10.7394 19.7473 10.7389 19.7548 10.7401 19.7621C10.7414 19.7694 10.7444 19.7762 10.7489 19.7821C10.7533 19.788 10.7592 19.7927 10.7659 19.7958C10.7726 19.7989 10.78 19.8004 10.7874 19.8C10.8457 19.8085 10.9049 19.8085 10.9632 19.8C10.9913 19.8 11.16 19.7473 11.2936 19.7086L11.705 19.5785C12.4397 19.3359 13.178 19.0758 13.9163 18.8227C15.0343 18.4359 16.1733 18.0738 17.2983 17.7258C18.1737 17.4516 19.0315 17.1703 19.9175 16.9594C20.1143 16.9102 20.3042 16.8609 20.5046 16.8187C20.7677 16.7613 21.038 16.7447 21.3061 16.7695C21.4418 16.7768 21.5725 16.8232 21.6823 16.9031C21.7241 16.931 21.764 16.9615 21.8018 16.9945C21.8862 17.0965 21.6015 17.2406 21.0987 17.434C20.3358 17.6836 19.5518 17.8945 18.7643 18.1371C17.9768 18.3797 17.1436 18.5977 16.3386 18.8578C15.1432 19.2375 13.9479 19.6453 12.7456 20.0672L12.7386 20.0391Z" fill="#4415FF"/>
<path d="M13.8636 5.78325C14.4507 5.67427 15.0414 5.56528 15.6214 5.43169C15.8359 5.38599 16.0433 5.31919 16.2578 5.277L18.55 4.8481C18.9015 4.7813 19.2214 4.69341 19.5519 4.60903C19.9739 4.47498 20.4108 4.39351 20.8527 4.36646C20.9933 4.36646 20.9968 4.48599 20.9089 4.64067C20.7958 4.832 20.6192 4.97757 20.4097 5.052C19.5608 5.31824 18.6952 5.52845 17.8187 5.6813C17.2843 5.7727 16.764 5.95552 16.2156 6.07856C15.625 6.21567 15.0308 6.34224 14.4367 6.4688L13.3328 6.67974C12.7773 6.79224 12.2148 6.88716 11.6664 7.01021C11.2339 7.09458 10.8226 7.22114 10.3902 7.30903C10.3002 7.34237 10.2072 7.36709 10.1125 7.38286C9.7609 7.38286 9.62731 7.33716 9.5359 7.18247C9.51335 7.14887 9.49337 7.11362 9.47614 7.077C9.43395 6.96099 9.56754 6.83794 9.81012 6.72544C10.1708 6.57306 10.5451 6.45535 10.9281 6.37388C11.3078 6.27544 11.698 6.19106 12.0953 6.11724L13.8531 5.76567L13.8636 5.78325Z" fill="#4415FF"/>
<path d="M10.6259 32.8922C10.4079 32.9449 5.07468 32.5406 2.89148 34.8399C0.497335 37.3887 16.5497 39.6949 24.3368 40.0395L10.8157 35.8594L10.6259 32.8922Z" fill="#4415FF"/>
<path d="M35.9768 14.9133C35.6674 15.5496 35.3686 16.1965 35.0979 16.8539C34.9924 17.0929 34.9221 17.3425 34.8272 17.5851C34.4756 18.4324 34.1522 19.2937 33.8569 20.1656C33.7303 20.5523 33.6284 20.9496 33.5405 21.3398C33.435 21.8425 33.3542 22.3734 33.2452 22.8269C33.21 22.964 33.0448 22.9711 32.8936 22.8269C32.7999 22.735 32.7278 22.6233 32.6827 22.5C32.6332 22.3579 32.6175 22.2062 32.637 22.057C32.8057 20.9736 33.0946 19.9124 33.4983 18.8929C33.7444 18.2883 33.9202 17.6379 34.1522 17.0121C34.4077 16.33 34.6854 15.6539 34.9854 14.9836C35.1647 14.5722 35.3651 14.1679 35.5514 13.7601L36.019 12.8461C36.1842 12.5472 36.3495 12.2484 36.5077 11.9461C36.7749 11.489 36.9823 11.0074 37.2846 10.5398C37.3424 10.4353 37.4082 10.3353 37.4815 10.241C37.7838 9.88942 37.935 9.8402 38.1635 9.94919C38.2171 9.97069 38.2689 9.99656 38.3182 10.0265C38.4729 10.1355 38.4659 10.3781 38.3182 10.6242C37.8999 11.3871 37.3971 12.1465 36.9612 12.9937C36.6096 13.609 36.2967 14.2418 35.9979 14.8886L35.9768 14.9133Z" fill="#4415FF"/>
<path d="M39.2499 8.65545C39.2467 8.63801 39.2381 8.62202 39.2253 8.60975H39.1972C39.1972 8.60975 39.1726 8.60975 39.1198 8.60975C38.896 8.66675 38.6791 8.7481 38.473 8.85233C38.3148 8.92967 38.1741 9.04217 38.0194 9.13358C37.4618 9.49132 36.934 9.8934 36.4409 10.3359C36.2124 10.5293 35.9874 10.7437 35.773 10.9512C35.4952 11.2148 35.2597 11.489 34.9855 11.7281C34.9011 11.8019 34.7745 11.707 34.7042 11.5277C34.665 11.4241 34.6521 11.3123 34.6668 11.2024C34.6816 11.0925 34.7234 10.9881 34.7886 10.8984C35.0492 10.5941 35.3261 10.3042 35.6183 10.0301C35.9044 9.7518 36.2111 9.4956 36.5358 9.26365C36.9296 8.97889 37.2882 8.61326 37.7241 8.33201C37.9666 8.17699 38.2218 8.04292 38.487 7.93123C38.6237 7.87143 38.7647 7.82207 38.9089 7.78358C39.1039 7.72595 39.3115 7.72595 39.5066 7.78358C39.7399 7.8715 39.9309 8.04497 40.0409 8.26873C40.1279 8.45231 40.1815 8.64994 40.1991 8.85233C40.2147 9.11342 40.2147 9.37522 40.1991 9.63631C40.1991 9.75936 40.1991 9.8824 40.1991 9.98787C40.1991 10.0933 40.1991 10.234 40.2237 10.3394C40.2621 10.6991 40.3424 11.0531 40.4628 11.3941C40.4874 11.468 40.5226 11.5347 40.5437 11.6051C40.6351 11.8652 40.5858 11.9566 40.3679 12.1183C40.3151 12.1535 40.2694 12.1957 40.2167 12.2273C40.1697 12.2521 40.1182 12.2669 40.0652 12.2709C40.0123 12.2749 39.9591 12.2679 39.909 12.2504C39.8589 12.2329 39.8129 12.2053 39.7739 12.1693C39.7349 12.1333 39.7037 12.0896 39.6823 12.041C39.4986 11.6976 39.3794 11.3235 39.3308 10.9371C39.3062 10.7508 39.2886 10.568 39.278 10.3851V10.118C39.278 10.0406 39.278 9.91053 39.278 9.81912C39.278 9.53436 39.3026 9.29178 39.278 9.06678C39.2831 8.92515 39.2641 8.78368 39.2218 8.64842L39.2499 8.65545Z" fill="#4415FF"/>
<path d="M26.2139 18.6328C26.3439 19.0863 26.4564 19.5434 26.5654 20.0004C26.6041 20.1656 26.6603 20.3274 26.6955 20.4961C26.815 21.0867 26.8959 21.6879 26.9627 22.2856C26.9908 22.5527 27.033 22.8164 27.0717 23.0801C27.1432 23.4174 27.1586 23.7643 27.1174 24.1067C27.0998 24.2156 26.9521 24.1981 26.8045 24.1067C26.7229 24.0648 26.6515 24.0057 26.595 23.9334C26.5385 23.8612 26.4985 23.7775 26.4775 23.6883C26.4002 23.0379 26.2842 22.384 26.2209 21.7055C26.1583 21.2986 26.0619 20.8976 25.9326 20.5067C25.8236 20.0637 25.7006 19.6207 25.581 19.1813C25.5002 18.9106 25.4123 18.6434 25.3209 18.3762C25.1819 17.971 25.0223 17.5733 24.8428 17.1844C24.6889 16.8934 24.5163 16.6127 24.326 16.3442C24.2873 16.2844 24.2451 16.2246 24.2099 16.1613C24.0834 15.9258 24.0974 15.8098 24.2627 15.6727C24.2984 15.6368 24.336 15.6028 24.3752 15.5707C24.4469 15.5249 24.5336 15.5087 24.617 15.5258C24.7003 15.5429 24.7738 15.5918 24.8217 15.6621C25.0349 15.8899 25.2148 16.1468 25.356 16.425C25.5077 16.7039 25.6427 16.9915 25.7603 17.2863C25.9396 17.7258 26.0873 18.1793 26.2314 18.6293L26.2139 18.6328Z" fill="#4415FF"/>
<path d="M23.0148 13.6617C23.0687 13.3963 23.1981 13.1522 23.3875 12.9586C23.4641 12.8933 23.5523 12.8432 23.6476 12.8109C23.744 12.7826 23.8465 12.7826 23.9429 12.8109C24.1526 12.8786 24.3374 13.0071 24.4738 13.1801C24.5617 13.282 24.6672 13.4051 24.734 13.4894C24.8008 13.5738 24.8394 13.623 24.8851 13.6898C25.198 14.175 25.4793 14.6566 25.8027 15.0961C25.9456 15.3045 26.1068 15.4998 26.2843 15.6797C26.5058 15.8941 26.7449 16.0699 26.9593 16.2738C27.0226 16.3371 26.9593 16.4601 26.8082 16.5375C26.7252 16.5867 26.6304 16.6126 26.534 16.6126C26.4375 16.6126 26.3427 16.5867 26.2597 16.5375C25.6865 16.1362 25.2137 15.608 24.8781 14.9941C24.6647 14.656 24.4299 14.3319 24.175 14.0238L24.1363 13.9676V13.9465L24.1082 13.9043L24.0414 13.8129C24.0155 13.7816 23.9831 13.7564 23.9465 13.739C23.9043 13.739 23.8726 13.7566 23.848 13.7847C23.83 13.8043 23.8157 13.8269 23.8058 13.8515C23.7808 13.9079 23.762 13.9669 23.7496 14.0273C23.731 14.1437 23.7192 14.2611 23.7144 14.3789C23.7144 14.5758 23.7144 14.7902 23.6687 15.0152C23.623 15.2402 23.623 15.423 23.6054 15.6304C23.5773 15.9504 23.6054 16.2808 23.5457 16.6219C23.5391 16.6976 23.5274 16.7727 23.5105 16.8469C23.4437 17.1316 23.3207 17.1984 23.0922 17.1422C23.0394 17.1422 22.9832 17.1422 22.934 17.1105C22.8553 17.0825 22.7875 17.0303 22.7402 16.9615C22.6928 16.8928 22.6684 16.8108 22.6703 16.7273C22.6984 16.2246 22.7547 15.6972 22.825 15.1066L22.8672 14.8043L22.8918 14.4949L22.9199 14.1433L22.941 13.957C22.941 13.8515 22.9797 13.7461 22.9937 13.6441L23.0148 13.6617Z" fill="#4415FF"/>
<path d="M17.1087 19.1778C16.5884 19.3079 16.0716 19.4485 15.5548 19.5927L14.9923 19.7579C14.3278 19.9407 13.6599 20.1094 12.9989 20.3169L12.12 20.5911C11.7468 20.7326 11.3588 20.8317 10.9634 20.8864C10.8227 20.8864 10.8509 20.8091 10.9388 20.7177C11.0612 20.5858 11.2129 20.4846 11.3817 20.4223L12.4997 20.0391C12.8794 19.9126 13.2661 19.8036 13.6563 19.6876C14.1204 19.5645 14.5915 19.3852 15.0626 19.2411C15.5337 19.0969 16.1173 18.9352 16.6235 18.7876L17.5903 18.5239C18.0755 18.3903 18.5677 18.2708 19.0493 18.1302C19.4255 18.0212 19.7841 17.8876 20.1567 17.7786C20.2376 17.754 20.3185 17.7259 20.4028 17.7048C20.7122 17.638 20.8247 17.6802 20.9161 17.7575L20.9724 17.8137C21.0181 17.877 20.9091 17.9755 20.7017 18.095C20.3792 18.2376 20.0494 18.3632 19.7138 18.4712C19.3622 18.5731 19.0106 18.668 18.6591 18.7665L17.0981 19.1848L17.1087 19.1778Z" fill="#4415FF"/>
<path d="M35.7767 23.8676C36.3884 23.6813 37.0001 23.4914 37.6083 23.284L38.2658 23.0379C39.0427 22.7672 39.8162 22.4824 40.5685 22.152C40.9017 22.0068 41.2268 21.8436 41.5423 21.6633C41.9396 21.4278 42.3228 21.1676 42.6919 20.9215C42.8115 20.8477 42.8748 20.9215 42.8537 21.0973C42.8342 21.2006 42.7986 21.3003 42.7482 21.3926C42.6813 21.5061 42.5901 21.6034 42.481 21.6774C41.6669 22.2195 40.7882 22.6577 39.8654 22.9817C39.3169 23.1785 38.7685 23.4352 38.2166 23.6496C37.6083 23.8782 36.9931 24.0961 36.3779 24.3035L35.2318 24.6797L33.5021 25.2352C33.0626 25.3864 32.6373 25.5657 32.2048 25.7344C32.1064 25.7696 32.015 25.8117 31.9165 25.8434C31.565 25.9629 31.4244 25.9489 31.2978 25.7907C31.2645 25.7577 31.2351 25.7212 31.2099 25.6817C31.1361 25.5551 31.2521 25.3969 31.5052 25.2774C32.2898 24.9438 33.094 24.6585 33.9134 24.4231L35.7767 23.8535V23.8676Z" fill="#4415FF"/>
<path d="M13.8037 6.28606C14.2678 6.20168 14.7318 6.11028 15.2099 6.01184L15.7162 5.89231L17.5056 5.54075C17.7693 5.4845 18.033 5.41418 18.2931 5.34387C18.6229 5.24123 18.9603 5.16482 19.3021 5.11536C19.4111 5.11536 19.4146 5.18567 19.3478 5.28762C19.251 5.42509 19.1132 5.52844 18.9541 5.58293C18.2815 5.80077 17.5957 5.97573 16.901 6.10676C16.4861 6.18411 16.0642 6.3177 15.6388 6.41614C15.2135 6.51458 14.7037 6.62356 14.2326 6.722L13.3678 6.90129L12.0564 7.16145C11.7049 7.22825 11.392 7.32317 11.0545 7.39348C10.9821 7.41347 10.9079 7.42642 10.833 7.43215C10.5517 7.45325 10.4568 7.43215 10.383 7.3302C10.3666 7.30877 10.3513 7.28647 10.3373 7.2634C10.3021 7.19309 10.4041 7.10872 10.5974 7.03137C10.886 6.91861 11.1835 6.83041 11.4869 6.7677C11.7916 6.69036 12.101 6.62356 12.415 6.56731L13.8213 6.28957L13.8037 6.28606Z" fill="#4415FF"/>
</svg>
