<svg width="75" height="64" viewBox="0 0 75 64" fill="none" xmlns="http://www.w3.org/2000/svg">
<path d="M12.189 43.5929C12.1883 43.6141 12.1863 43.6351 12.183 43.6559C12.167 43.9787 12.1583 44.1757 12.154 44.2906C12.1693 44.218 12.1407 44.6451 12.154 44.2906C12.1518 44.3009 12.1487 44.3214 12.1445 44.3556H11.6043C11.202 44.3807 10.8024 44.4381 10.4093 44.5273C9.57668 44.6989 8.71226 44.9785 7.76521 45.2073C7.38385 45.29 6.97706 45.4552 6.41773 45.5824C6.10116 45.6551 5.77594 45.6829 5.45162 45.665C5.00597 45.6401 4.5812 45.468 4.24397 45.1756C4.1677 45.0993 4.08507 45.0167 4.01516 44.934C3.92194 44.8053 3.84308 44.6668 3.77998 44.5209C3.71183 44.3361 3.68367 44.139 3.69735 43.9425C3.70902 43.7633 3.75657 43.5882 3.83719 43.4277C4.03493 43.0733 4.32483 42.779 4.67618 42.576C5.12097 42.3243 5.5867 42.1117 6.06815 41.9403L7.22495 41.4827C7.40637 41.4253 7.56889 41.3199 7.69529 41.1776C7.72058 41.1436 7.73423 41.1024 7.73423 41.06C7.73423 41.0177 7.72058 40.9764 7.69529 40.9425C7.64181 40.8984 7.57386 40.8757 7.50461 40.8789C7.16935 40.921 6.83785 40.989 6.51307 41.0823L6.15078 41.1522C5.82928 41.2051 5.50413 41.2327 5.17831 41.2348C4.79024 41.2425 4.40487 41.1688 4.04694 41.0187C3.63363 40.8374 3.29805 40.5153 3.09989 40.1098C2.96758 39.8582 2.92072 39.5704 2.96641 39.2899C3.02188 39.0211 3.15698 38.7753 3.35413 38.5844C3.62763 38.3126 3.95147 38.0967 4.30753 37.9488C4.88632 37.7355 5.48151 37.5697 6.08722 37.453L9.16989 36.8174L9.55761 36.6903L9.77372 36.6267C9.89043 36.5863 10.0032 36.5352 10.1106 36.4742C10.2123 36.4233 10.3203 36.3026 10.2504 36.1818C10.2302 36.1241 10.1984 36.0712 10.1568 36.0263C10.1152 35.9815 10.0649 35.9457 10.0089 35.9212C9.86793 35.8515 9.71454 35.8104 9.55761 35.8004C9.25797 35.7673 8.95642 35.7546 8.65506 35.7623C8.00444 35.7818 7.35526 35.8348 6.71011 35.9212C5.4071 36.0145 4.11181 36.195 2.83294 36.4615C2.04479 36.5949 2.03843 36.3407 2.62319 35.8259C3.62722 35.0653 4.83585 34.6226 6.09358 34.5547C6.72918 34.4974 7.44741 34.4021 8.17835 34.3767C8.55091 34.3546 8.92445 34.3546 9.29701 34.3767H9.58939H9.75465C9.83811 34.3832 9.92098 34.3959 10.0025 34.4148C10.3179 34.4798 10.6249 34.58 10.9178 34.7136C11.1717 34.8119 11.3994 34.9675 11.5835 35.1681C11.7676 35.3687 11.903 35.609 11.9793 35.8703L12.0682 36.2517C12.0682 36.3788 12.0682 36.5123 12.0237 36.6394C11.9515 36.8783 11.8229 37.0963 11.6487 37.275C11.1699 37.6579 10.6218 37.9449 10.0343 38.1204C9.68473 38.2348 9.34151 38.3301 8.99828 38.4191C7.64445 38.7242 6.2779 38.9403 5.14653 39.328C4.96898 39.3815 4.79717 39.4521 4.63352 39.5388C4.63541 39.5407 4.63732 39.5425 4.63925 39.5444C4.67881 39.5817 4.72615 39.6099 4.77788 39.6268C5.0016 39.6973 5.23698 39.7232 5.47069 39.703H5.73128C5.84229 39.6921 5.95263 39.6751 6.0618 39.6522C6.38429 39.5707 6.70249 39.4732 7.0152 39.3598C7.72072 39.1628 8.45802 38.9276 9.06184 38.7941C9.51454 38.6909 9.97683 38.6355 10.4411 38.6289C10.7453 38.626 11.0487 38.6623 11.3437 38.7369C11.5249 38.7817 11.694 38.8659 11.839 38.9834C11.984 39.101 12.1013 39.249 12.1826 39.417C12.2694 39.6169 12.3002 39.8366 12.2716 40.0526C12.2412 40.2228 12.1763 40.385 12.081 40.5293C11.6049 41.2072 10.952 41.7415 10.1932 42.0738C9.6021 42.3535 8.92201 42.6395 8.20378 42.9192L7.13596 43.326L6.46858 43.5929C6.18787 43.6981 5.91842 43.8306 5.66409 43.9885C5.88368 43.9968 6.10353 43.9598 6.30968 43.8789L6.94528 43.6883L7.6508 43.4785C8.52158 43.2561 9.42413 42.9637 10.3902 42.7921C11.0175 42.6661 11.6586 42.6233 12.2971 42.6649C12.5755 42.7056 12.8326 42.8375 13.028 43.0399C13.1974 43.2014 13.3316 43.3962 13.4221 43.612C13.5198 43.8584 13.5419 44.1284 13.4856 44.3874C13.4259 44.6246 13.308 44.843 13.1424 45.023C12.6307 45.4909 11.9992 45.8077 11.3182 45.9383C11.0195 46.0273 10.7208 46.0718 10.4284 46.129C10.1691 46.1692 9.91228 46.2244 9.65931 46.2942C8.89954 46.4984 8.17967 46.8293 7.53004 47.2731C7.24057 47.4666 6.99394 47.7176 6.80545 48.0104C6.73636 48.1355 6.68705 48.2706 6.65926 48.4108C6.65544 48.4359 6.65344 48.4612 6.65326 48.4865C6.6744 48.4861 6.69553 48.4841 6.71647 48.4807C6.88733 48.4671 7.05592 48.433 7.21859 48.379C7.60706 48.263 7.98718 48.1207 8.35632 47.9531C9.13811 47.6226 9.8627 47.2222 10.7525 46.8981C11.4036 46.692 12.0657 46.5222 12.7356 46.3896C13.0965 46.3183 13.4617 46.2716 13.8289 46.2497C14.042 46.2433 14.2551 46.2603 14.4645 46.3006C14.7831 46.352 15.0734 46.514 15.2844 46.7582C15.3625 46.8555 15.4346 46.9574 15.5005 47.0633C15.5622 47.18 15.6153 47.3011 15.6594 47.4256C15.7547 47.7319 15.7547 48.06 15.6594 48.3663C15.4638 48.8235 15.1276 49.2064 14.6996 49.4595C14.0941 49.8272 13.4558 50.1379 12.7928 50.3875L11.2229 51.0231C9.31608 51.8557 8.9665 52.0782 8.29276 52.0846C8.14022 52.0846 7.98132 52.1354 7.84784 52.1291C7.71436 52.1227 7.56817 51.8748 7.76521 51.4235C8.09314 50.7965 8.59095 50.2745 9.20167 49.9172C10.2694 49.3075 11.378 48.7723 12.5195 48.3154C12.9712 48.1373 13.3984 47.9023 13.7907 47.6163C13.8289 47.6163 13.8225 47.5781 13.8416 47.5591C13.8988 47.6092 13.9605 47.6538 14.0259 47.6926C14.0336 47.699 14.0414 47.7052 14.0492 47.7111C14.2026 47.8272 14.3702 47.8381 14.2674 47.826C14.2003 47.8296 14.134 47.8425 14.0704 47.8642C14.0704 47.8642 13.9369 47.8642 13.8797 47.9214C13.8348 47.9371 13.7921 47.9584 13.7526 47.9849C13.745 47.981 13.7383 47.9756 13.7328 47.9691C13.7274 47.9625 13.7233 47.955 13.7208 47.9468C13.8503 47.8539 13.9587 47.7761 14.0492 47.7111C14.0414 47.7052 14.0336 47.699 14.0259 47.6926C13.9605 47.6538 13.8988 47.6092 13.8416 47.5591C13.8225 47.5781 13.8289 47.6163 13.7907 47.6163C13.3984 47.9023 12.9712 48.1373 12.5195 48.3154C11.378 48.7723 10.2694 49.3075 9.20167 49.9172C8.59095 50.2745 8.09314 50.7965 7.76521 51.4235C7.56817 51.8748 7.71436 52.1227 7.84784 52.1291C7.98132 52.1354 8.14022 52.0846 8.29276 52.0846C8.9665 52.0782 9.31608 51.8557 11.2229 51.0231L12.7928 50.3875C13.4558 50.1379 14.0941 49.8272 14.6996 49.4595C15.1276 49.2064 15.4638 48.8235 15.6594 48.3663C15.7547 48.06 15.7547 47.7319 15.6594 47.4256C15.6153 47.3011 15.5622 47.18 15.5005 47.0633C15.4346 46.9574 15.3625 46.8555 15.2844 46.7582C15.0734 46.514 14.7831 46.352 14.4645 46.3006C14.2551 46.2603 14.042 46.2433 13.8289 46.2497C13.4617 46.2716 13.0965 46.3183 12.7356 46.3896C12.0657 46.5222 11.4036 46.692 10.7525 46.8981C9.8627 47.2222 9.13811 47.6226 8.35632 47.9531C7.98718 48.1207 7.60706 48.263 7.21859 48.379C7.05592 48.433 6.88733 48.4671 6.71647 48.4807C6.69553 48.4841 6.6744 48.4861 6.65326 48.4865C6.65306 48.5143 6.65507 48.5421 6.65926 48.5697H6.60841C6.52579 48.6078 6.51943 48.6078 6.49401 48.6332C6.46858 48.6587 6.49401 48.6332 6.53214 48.5697C6.54835 48.5416 6.56115 48.5118 6.57028 48.4807C6.59775 48.4852 6.62552 48.4872 6.65326 48.4865C6.65344 48.4612 6.65544 48.4359 6.65926 48.4108C6.68705 48.2706 6.73636 48.1355 6.80545 48.0104C6.99394 47.7176 7.24057 47.4666 7.53004 47.2731C8.17967 46.8293 8.89954 46.4984 9.65931 46.2942C9.91228 46.2244 10.1691 46.1692 10.4284 46.129C10.7208 46.0718 11.0195 46.0273 11.3182 45.9383C11.9992 45.8077 12.6307 45.4909 13.1424 45.023C13.308 44.843 13.4259 44.6246 13.4856 44.3874C13.5419 44.1284 13.5198 43.8584 13.4221 43.612C13.3316 43.3962 13.1974 43.2014 13.028 43.0399C12.8326 42.8375 12.5755 42.7056 12.2971 42.6649C11.6586 42.6233 11.0175 42.6661 10.3902 42.7921C9.42413 42.9637 8.52158 43.2561 7.6508 43.4785L6.94528 43.6883L6.30968 43.8789C6.10353 43.9598 5.88368 43.9968 5.66409 43.9885C5.58983 44.0346 5.51685 44.0828 5.44526 44.1332C5.44526 44.1332 5.38806 44.1713 5.38806 44.1777C5.38806 44.184 5.38806 44.2222 5.28636 44.1332C5.24081 44.1037 5.19169 44.0802 5.14017 44.0633H5.07661C5.4834 43.809 5.34357 43.9552 5.42619 43.9616C5.50502 43.9765 5.58454 43.9855 5.66409 43.9885C5.91842 43.8306 6.18787 43.6981 6.46858 43.5929L7.13596 43.326L8.20378 42.9192C8.92201 42.6395 9.6021 42.3535 10.1932 42.0738C10.952 41.7415 11.6049 41.2072 12.081 40.5293C12.1763 40.385 12.2412 40.2228 12.2716 40.0526C12.3002 39.8366 12.2694 39.6169 12.1826 39.417C12.1013 39.249 11.984 39.101 11.839 38.9834C11.694 38.8659 11.5249 38.7817 11.3437 38.7369C11.0487 38.6623 10.7453 38.626 10.4411 38.6289C9.97683 38.6355 9.51454 38.6909 9.06184 38.7941C8.45802 38.9276 7.72072 39.1628 7.0152 39.3598C6.70249 39.4732 6.38429 39.5707 6.0618 39.6522C5.95263 39.6751 5.84229 39.6921 5.73128 39.703H5.47069C5.23698 39.7232 5.0016 39.6973 4.77788 39.6268C4.72615 39.6099 4.67881 39.5817 4.63925 39.5444C4.63732 39.5425 4.63541 39.5407 4.63352 39.5388C4.59212 39.5608 4.55124 39.5837 4.51093 39.6077H4.47915C4.43112 39.5683 4.37759 39.5362 4.32025 39.5123L4.24397 39.4742H4.30753C4.37109 39.4742 4.58084 39.3598 4.54906 39.4107C4.56792 39.4589 4.59671 39.5025 4.63352 39.5388C4.79717 39.4521 4.96898 39.3815 5.14653 39.328C6.2779 38.9403 7.64445 38.7242 8.99828 38.4191C9.34151 38.3301 9.68473 38.2348 10.0343 38.1204C10.6218 37.9449 11.1699 37.6579 11.6487 37.275C11.8229 37.0963 11.9515 36.8783 12.0237 36.6394C12.0682 36.5123 12.0682 36.3788 12.0682 36.2517L11.9793 35.8703C11.903 35.609 11.7676 35.3687 11.5835 35.1681C11.3994 34.9675 11.1717 34.8119 10.9178 34.7136C10.6249 34.58 10.3179 34.4798 10.0025 34.4148C9.92098 34.3959 9.83811 34.3832 9.75465 34.3767H9.58939H9.29701C8.92445 34.3546 8.55091 34.3546 8.17835 34.3767C7.44741 34.4021 6.72918 34.4974 6.09358 34.5547C4.83585 34.6226 3.62722 35.0653 2.62319 35.8259C2.03843 36.3407 2.04479 36.5949 2.83294 36.4615C4.11181 36.195 5.4071 36.0145 6.71011 35.9212C7.35526 35.8348 8.00444 35.7818 8.65506 35.7623C8.95642 35.7546 9.25797 35.7673 9.55761 35.8004C9.71454 35.8104 9.86793 35.8515 10.0089 35.9212C10.0649 35.9457 10.1152 35.9815 10.1568 36.0263C10.1984 36.0712 10.2302 36.1241 10.2504 36.1818C10.3203 36.3026 10.2123 36.4233 10.1106 36.4742C10.0032 36.5352 9.89043 36.5863 9.77372 36.6267L9.55761 36.6903L9.16989 36.8174L6.08722 37.453C5.48151 37.5697 4.88632 37.7355 4.30753 37.9488C3.95147 38.0967 3.62763 38.3126 3.35413 38.5844C3.15698 38.7753 3.02188 39.0211 2.96641 39.2899C2.92072 39.5704 2.96758 39.8582 3.09989 40.1098C3.29805 40.5153 3.63363 40.8374 4.04694 41.0187C4.40487 41.1688 4.79024 41.2425 5.17831 41.2348C5.50413 41.2327 5.82928 41.2051 6.15078 41.1522L6.51307 41.0823C6.83785 40.989 7.16935 40.921 7.50461 40.8789C7.57386 40.8757 7.64181 40.8984 7.69529 40.9425C7.72058 40.9764 7.73423 41.0177 7.73423 41.06C7.73423 41.1024 7.72058 41.1436 7.69529 41.1776C7.56889 41.3199 7.40637 41.4253 7.22495 41.4827L6.06815 41.9403C5.5867 42.1117 5.12097 42.3243 4.67618 42.576C4.32483 42.779 4.03493 43.0733 3.83719 43.4277C3.75657 43.5882 3.70902 43.7633 3.69735 43.9425C3.68367 44.139 3.71183 44.3361 3.77998 44.5209C3.84308 44.6668 3.92194 44.8053 4.01516 44.934C4.08507 45.0167 4.1677 45.0993 4.24397 45.1756C4.5812 45.468 5.00597 45.6401 5.45162 45.665C5.77594 45.6829 6.10116 45.6551 6.41773 45.5824C6.97706 45.4552 7.38385 45.29 7.76521 45.2073C8.71226 44.9785 9.57668 44.6989 10.4093 44.5273C10.8024 44.4381 11.202 44.3807 11.6043 44.3556H12.1445C12.1487 44.3214 12.1518 44.3009 12.154 44.2906C12.1583 44.1757 12.167 43.9787 12.183 43.6559C12.1849 43.6176 12.1869 43.5776 12.189 43.5357V43.5929Z" fill="#4415FF"/>
<path d="M70.0026 7.87838C70.0486 7.84644 70.0876 7.80532 70.117 7.75762C70.1246 7.74643 70.1293 7.73356 70.1307 7.72012C70.1322 7.70669 70.1303 7.6931 70.1253 7.68055C70.1203 7.66801 70.1123 7.65688 70.1019 7.64816C70.0916 7.63943 70.0793 7.63336 70.0661 7.6305C70.0088 7.60847 69.9454 7.60847 69.8882 7.6305L69.8055 7.66228L69.5894 7.7894C69.4288 7.89551 69.2739 8.01008 69.1254 8.13262C68.4883 8.67058 67.9089 9.27341 67.3966 9.93138C66.8374 10.7026 66.2145 11.4255 65.5343 12.0924C65.225 12.3951 64.8659 12.6424 64.4728 12.8234C64.328 12.8757 64.1792 12.9161 64.0279 12.9441C63.8342 12.9754 63.6368 12.9754 63.4431 12.9441C63.2424 12.8784 63.0552 12.7772 62.8902 12.6454C62.6919 12.4734 62.539 12.2554 62.4448 12.0105C62.3506 11.7655 62.318 11.5012 62.3499 11.2407C62.38 10.9895 62.4441 10.7436 62.5406 10.5098C62.7149 10.1467 62.928 9.80363 63.1762 9.48646C63.6313 8.91805 64.1216 8.37884 64.6444 7.87202C64.8923 7.61778 65.1211 7.41439 65.3309 7.17922C65.5406 6.94405 65.7822 6.67709 65.9665 6.42285C66.3943 5.93722 66.7832 5.41866 67.1296 4.87198C67.2839 4.63319 67.4097 4.37722 67.5046 4.10926C67.5315 4.02029 67.5486 3.92864 67.5555 3.83595C67.5555 3.76603 67.5555 3.77874 67.5555 3.76603H67.8161C67.8161 3.76603 67.8161 3.76603 67.8161 3.81688C67.8097 3.85048 67.8097 3.88498 67.8161 3.91858H67.7716H67.6826C67.5122 3.99331 67.352 4.08942 67.2059 4.2046C66.8567 4.47495 66.5294 4.77249 66.2271 5.09444C65.5915 5.73004 64.9559 6.46099 64.3203 7.17286L63.297 8.35508C62.9015 8.81608 62.4768 9.2513 62.0258 9.65807C61.7699 9.90893 61.4677 10.1075 61.1359 10.2428C60.9895 10.298 60.8347 10.3281 60.6783 10.3318C60.5129 10.3082 60.3508 10.2655 60.1952 10.2047C59.8807 10.089 59.6187 9.86315 59.4579 9.56908C59.3172 9.26781 59.2707 8.9311 59.3244 8.60297C59.401 8.13727 59.5512 7.68671 59.7694 7.2682C59.9537 6.8932 60.0999 6.6326 60.2842 6.32751C60.6338 5.74276 61.0088 5.18978 61.3774 4.64952C61.7461 4.10926 62.1147 3.569 62.4516 3.04145C62.6105 2.77449 62.7821 2.51389 62.9219 2.25965C63.0529 2.04129 63.1534 1.80606 63.2207 1.56049C63.3033 1.36981 63.2525 1.2554 63.3605 1.16642C63.4686 1.07743 63.7546 1.08379 63.9961 1.52871C64.1905 2.09316 64.2039 2.70423 64.0343 3.27662C63.8421 3.97907 63.535 4.64486 63.1253 5.24699L62.0258 6.90591L61.5236 7.70677C61.3329 8.03728 61.3266 8.05635 61.3266 8.04999C61.3266 8.04364 61.3266 8.04999 61.3266 8.04999C61.3266 8.04999 61.3266 8.04999 61.4156 7.97372C62.2927 7.06481 63.1571 6.00971 64.0787 4.9991C64.5492 4.47247 65.0478 3.97173 65.5724 3.49908C65.8582 3.23983 66.1642 3.0039 66.4877 2.79356C66.6871 2.66267 66.9002 2.55397 67.1233 2.4694C67.4377 2.34284 67.782 2.30973 68.1148 2.37406C68.2429 2.41447 68.3682 2.4633 68.4898 2.52025L68.6106 2.58381L68.7059 2.69822C68.96 3.0118 69.0911 3.40726 69.0746 3.81052C69.0632 4.09971 69.0053 4.38516 68.903 4.65588C68.7363 5.08867 68.5232 5.50211 68.2674 5.88895C67.7999 6.60201 67.2861 7.28357 66.7292 7.92923C66.475 8.23432 66.1381 8.60297 65.8648 8.87628C65.5915 9.14959 65.2991 9.44832 65.0385 9.7407C64.7828 10.0154 64.545 10.3062 64.3266 10.6115C64.1603 10.8297 64.0373 11.0779 63.9643 11.3424C63.9643 11.3742 63.9643 11.3742 63.9643 11.3869C63.9643 11.3996 64.0597 11.2916 63.9643 11.3869C63.9643 11.3869 63.8881 11.495 63.8944 11.4822C63.8944 11.4822 63.8944 11.5458 63.8944 11.4822C63.9011 11.4295 63.9011 11.3761 63.8944 11.3233C64.1996 11.1783 64.4737 10.9754 64.7016 10.7259C65.3063 10.0774 65.8749 9.39629 66.4051 8.6856C67.0085 7.92785 67.7046 7.24881 68.4771 6.66438C68.6797 6.51103 68.8921 6.37091 69.1127 6.24488C69.4102 6.07186 69.7314 5.94337 70.0661 5.86352C70.3757 5.78034 70.6991 5.76168 71.0161 5.8087C71.3332 5.85571 71.6373 5.9674 71.9094 6.13683C72.0629 6.24285 72.1886 6.38424 72.276 6.54906C72.3634 6.71389 72.4099 6.89732 72.4115 7.08388C72.4058 7.46715 72.2935 7.84128 72.0873 8.1644C71.9789 8.34284 71.86 8.51475 71.7314 8.67924L71.5344 8.93348L71.3628 9.11781C71.1466 9.36569 70.956 9.55637 70.7271 9.75341C69.8945 10.5543 69.0237 11.2789 68.1847 12.0098C67.554 12.4985 66.9767 13.0524 66.4623 13.6624C66.3616 13.8044 66.2744 13.9555 66.2017 14.1136C66.1754 14.1688 66.1541 14.2263 66.1381 14.2853C66.1 14.3234 66.2207 14.2853 66.0173 14.2853C65.9601 14.2853 65.9474 14.2853 65.9029 14.2853C65.8584 14.2853 65.833 14.3234 65.8457 14.2853C65.8738 14.2599 65.8938 14.2267 65.9029 14.1899C65.9029 14.1899 65.9029 14.1327 65.9411 14.0437C65.9792 13.9547 65.9411 14.0437 65.9411 14.0119C65.9961 14.0164 66.0513 14.0164 66.1063 14.0119C66.1901 13.9928 66.2728 13.9695 66.3542 13.942L66.5767 13.8658C66.722 13.7771 66.8601 13.6772 66.9898 13.567L67.4665 13.1666L68.4263 12.334C69.0619 11.7746 69.6975 11.2217 70.4221 10.7005C70.6982 10.4902 70.9868 10.2971 71.2865 10.1221C71.615 9.90792 71.9786 9.75303 72.3606 9.66442C72.6609 9.59715 72.9756 9.64959 73.2378 9.81061C73.4942 9.99121 73.6699 10.2649 73.7272 10.5733C73.7577 10.681 73.7748 10.792 73.778 10.9038C73.7848 10.963 73.7848 11.0227 73.778 11.0818C73.7846 11.1664 73.7846 11.2514 73.778 11.3361C73.7123 11.5601 73.6161 11.7739 73.492 11.9717C73.1124 12.5372 72.6873 13.0707 72.2208 13.567C71.7695 14.0501 71.3119 14.5141 70.8606 14.9781L69.6975 16.1984C69.2112 16.7309 68.6978 17.2379 68.1593 17.7175C67.9123 17.9503 67.6172 18.126 67.2949 18.2323C67.1745 18.2909 67.0615 18.3635 66.958 18.4485C66.8754 18.4993 66.8118 18.4929 66.7483 18.3785C66.6715 18.2004 66.6494 18.0035 66.6847 17.8128C66.8155 17.1503 67.1155 16.5328 67.5555 16.0204C68.3119 15.067 69.1381 14.2153 69.9517 13.3573L71.1594 12.0861C71.3585 11.8784 71.5428 11.6666 71.7123 11.4505C71.8589 11.2812 71.9887 11.0981 72.1001 10.9038V10.8721L72.1954 10.9166C72.3098 10.9738 72.5068 10.9992 72.5768 11.031L72.7166 11.0627H72.081C72.0778 11.0353 72.0778 11.0076 72.081 10.9801C72.176 10.9566 72.2695 10.9269 72.3606 10.8911C72.653 10.8403 72.7929 10.6051 72.7229 10.7259C72.7061 10.7625 72.6934 10.8009 72.6848 10.8403C72.6848 10.8848 72.6848 10.9293 72.6848 11.031C72.672 11.1152 72.672 11.2009 72.6848 11.2852C72.6848 11.2852 72.6848 11.4378 72.6848 11.4187C72.5178 11.4767 72.3578 11.5535 72.2081 11.6475C72.0047 11.7683 71.7759 11.9335 71.5725 12.0924C70.6763 12.728 69.7865 13.567 68.8585 14.387L68.3309 14.8446L68.0386 15.0861L67.8733 15.2132L67.7843 15.2832L67.6445 15.3721C67.4711 15.4806 67.2855 15.568 67.0915 15.6327C66.9417 15.6861 66.7889 15.7307 66.6339 15.7662C66.4257 15.8173 66.2125 15.845 65.9983 15.8488C65.8247 15.8435 65.6521 15.8201 65.4834 15.7789C65.3545 15.7384 65.2308 15.683 65.1148 15.6137C64.9806 15.5422 64.8618 15.445 64.7652 15.3276C64.5685 15.1055 64.4385 14.8323 64.3902 14.5395C64.3812 14.4444 64.3812 14.3486 64.3902 14.2535C64.3824 14.171 64.3824 14.088 64.3902 14.0056C64.4194 13.7864 64.4793 13.5725 64.5682 13.37C64.6916 13.0814 64.845 12.8066 65.0258 12.5501C65.193 12.3062 65.3801 12.0766 65.5851 11.8636C65.7758 11.6666 65.9538 11.5013 66.1317 11.3361C66.85 10.7005 67.5428 10.1221 68.2165 9.53095C68.5534 9.23857 68.8521 8.93984 69.1953 8.6411L69.653 8.19618L69.8691 7.96737L70.0343 7.78304L70.0026 7.87838Z" fill="#4415FF"/>
<path d="M31.6573 27.4168C32.4391 25.777 33.2781 24.1498 34.1997 22.5672C34.4413 22.1604 34.6319 21.8044 34.9307 21.3595C35.2306 20.9353 35.5853 20.5528 35.9858 20.2218C36.7177 19.6145 37.5026 19.0742 38.3311 18.6074C39.5006 17.9273 40.6765 17.3044 41.8778 16.745C44.0007 15.7535 46.1427 14.8382 48.2656 13.9357C49.3207 13.4717 50.3695 12.995 51.3928 12.4865C52.4129 11.9948 53.389 11.4164 54.3102 10.7577C55.8489 9.45283 57.2521 7.99631 58.4988 6.41015C59.3251 5.39954 60.1132 4.35716 60.9205 3.31477C61.3336 2.79993 61.7277 2.27238 62.1917 1.78296C62.6557 1.29355 63.0879 0.810493 63.5646 0.346503C64.1557 -0.231896 64.2002 -0.0475707 63.8951 0.613456C63.7489 0.937613 63.5328 1.39525 63.2595 1.93551C63.1196 2.20246 62.9798 2.49484 62.8018 2.78722C62.6239 3.07959 62.4141 3.37833 62.1662 3.68342C60.6107 5.90779 58.8942 8.01516 57.0306 9.98859C56.5475 10.478 56.0454 10.9484 55.5242 11.406C54.9808 11.884 54.3934 12.3096 53.7699 12.6772C52.5793 13.3709 51.3483 13.9928 50.0834 14.5395C47.1152 15.8743 44.0389 17.2281 41.1087 18.6836C39.5118 19.4159 38.0163 20.3516 36.6595 21.4676C36.3592 21.7353 36.1001 22.0459 35.8904 22.3892L35.2358 23.5269C34.7845 24.3024 34.3586 25.0969 33.9646 25.8977C32.9412 27.8744 32.0196 29.9084 31.1043 31.9423C30.3991 33.4582 29.8188 35.0291 29.3691 36.6394C29.1721 37.4403 28.9242 38.3047 29.3183 38.7178C29.7124 39.131 30.4878 39.1628 31.1806 38.8132C32.2711 38.2073 33.2389 37.4032 34.0345 36.4424C34.8683 35.5041 35.5991 34.4791 36.2146 33.3851C36.4879 32.9084 36.7231 32.419 36.9582 31.9169C37.3904 30.9889 37.5938 30.3533 37.8099 29.9211C37.9503 29.5999 38.1509 29.3086 38.4011 29.063C38.4833 28.9734 38.5726 28.8905 38.668 28.8151C38.8078 28.7325 38.8778 28.9168 38.8968 29.33C38.892 29.9503 38.789 30.566 38.5917 31.1542C37.8181 33.513 36.5505 35.6798 34.8735 37.5102C34.002 38.5103 32.9632 39.3512 31.8035 39.9954C31.4573 40.1696 31.0897 40.2978 30.7103 40.3767C30.5014 40.4211 30.2881 40.4403 30.0747 40.434H29.7251C29.6046 40.4068 29.4858 40.3728 29.3691 40.3323C29.1378 40.2613 28.9221 40.147 28.7335 39.9954C28.5183 39.8547 28.3327 39.6733 28.1869 39.4615C27.9051 39.0441 27.7648 38.5472 27.7865 38.0441C27.7952 37.5022 27.8634 36.963 27.9899 36.436C28.1043 35.972 28.2314 35.5144 28.3776 35.0631C28.6636 34.1669 29.0132 33.2898 29.3564 32.4317C30.081 30.7219 30.8247 29.0821 31.6001 27.4041L31.6573 27.4168Z" fill="#4415FF"/>
<path d="M59.9991 26.902C61.0606 25.3447 62.1729 23.832 63.3043 22.3447C63.7174 21.7981 64.0988 21.2324 64.5183 20.6985C65.2556 19.7578 65.9992 18.7917 66.7874 17.8828C67.5755 16.9739 68.3764 16.0713 69.1963 15.1878C69.9209 14.406 70.6518 13.6115 71.3891 12.8424C72.2978 11.7793 73.3972 10.8955 74.6307 10.2365C75.0438 10.0458 75.0756 10.2937 74.8977 10.6877C74.6375 11.2371 74.2825 11.7363 73.8489 12.1623C71.9103 13.9929 70.1052 16.0649 68.2429 18.1116C67.1179 19.3192 66.1454 20.743 65.1094 22.1032C63.978 23.5905 62.8594 25.0905 61.7979 26.6223C61.1623 27.563 60.5267 28.5291 59.8911 29.4952C58.9822 30.9762 58.0542 32.4635 57.2533 33.9953C56.6177 35.1839 56.1474 36.4042 55.658 37.6246C55.5563 37.8915 55.4609 38.1585 55.3592 38.4318C54.9715 39.436 54.7618 39.703 54.3868 39.8428C54.3109 39.8787 54.2322 39.9085 54.1516 39.9318C53.9482 39.9827 53.8211 39.4615 54.0118 38.6606C54.3128 37.4479 54.7234 36.2651 55.2385 35.1267C55.7597 33.9762 56.3571 32.8448 56.9864 31.7389C57.9271 30.099 58.8932 28.4846 59.961 26.8893L59.9991 26.902Z" fill="#4415FF"/>
<path d="M18.322 32.8322C16.8093 33.1627 15.2945 33.4784 13.7775 33.7792C13.2182 33.8873 12.6715 34.0271 12.1186 34.1288C10.1609 34.4784 8.1969 34.7644 6.23288 35.1013C5.36211 35.2348 4.49133 35.3937 3.62691 35.5398C3.07394 35.6415 2.51461 35.7242 1.95528 35.8004C1.38792 35.8322 0.819225 35.8322 0.251864 35.8004C-0.0977178 35.8004 -0.0595818 35.686 0.220083 35.5271C0.35356 35.4382 0.563309 35.3746 0.798482 35.2157L1.17984 34.9805C1.2434 34.936 1.31968 34.9106 1.38959 34.8534L1.61841 34.8026C3.84937 34.3958 6.09941 34.0653 8.37486 33.7347C9.74141 33.5504 11.1334 33.2008 12.5063 32.9085C14.019 32.5822 15.5275 32.239 17.0318 31.8788L19.8094 31.186C21.2077 30.8237 22.6187 30.4805 24.0107 30.0991C25.0912 29.8067 26.1336 29.4635 27.2268 29.1775C27.4684 29.1139 27.7035 29.044 27.9578 28.9995C28.8858 28.8279 29.3307 28.9995 29.4705 29.4063C29.5091 29.4789 29.5308 29.5593 29.5341 29.6415C29.5341 29.7432 29.4197 29.7876 29.2925 29.9021C29.1086 30.0456 28.8887 30.1358 28.6569 30.1627C27.7735 30.366 26.8073 30.6711 25.8349 30.9381L22.8666 31.7326C21.3729 32.1267 19.8475 32.4699 18.3284 32.8385L18.322 32.8322Z" fill="#4415FF"/>
<path d="M55.8485 46.0019C55.8485 45.932 55.893 45.8493 55.9184 45.7731C55.9438 45.6968 55.9184 45.5824 55.9184 45.576C55.9184 45.5697 55.9184 45.576 55.8739 45.4235C55.8057 45.2835 55.7293 45.1477 55.6451 45.0167C55.4671 44.737 55.2573 44.4447 55.0095 44.165C54.5709 43.5866 54.0942 43.0273 53.6048 42.4743C53.1154 41.9213 52.7404 41.5717 52.3336 41.1077C50.8717 39.4742 49.3272 37.8916 47.6937 36.3534C46.9754 35.6543 46.2636 34.9678 45.5263 34.3449C44.5873 33.5769 43.5907 32.882 42.5453 32.2665C42.2275 32.0504 42.2847 31.9424 42.6851 31.8343C42.994 31.7472 43.3175 31.7243 43.6356 31.7669C43.9537 31.8096 44.2597 31.9169 44.5347 32.0822C45.6893 32.7736 46.7563 33.6016 47.7127 34.5483L49.1111 35.864C49.5941 36.3089 50.0454 36.7793 50.4903 37.2623C51.5581 38.4128 52.7658 39.4997 53.8654 40.6692C54.501 41.3048 55.0603 41.9404 55.6324 42.6459C55.9184 42.9891 56.198 43.3387 56.465 43.701C56.7604 44.0806 57.0159 44.4895 57.2277 44.9214C57.3177 45.1213 57.3653 45.3377 57.3675 45.557C57.3416 46.1063 57.1935 46.6429 56.934 47.1278C56.6745 47.6127 56.3102 48.0336 55.8675 48.36C55.5203 48.64 55.1404 48.8769 54.7362 49.0655C54.3211 49.2779 53.871 49.4135 53.4077 49.4659C53.1628 49.4945 52.9154 49.4945 52.6704 49.4659C52.4547 49.4133 52.2425 49.3475 52.0348 49.2689C51.6244 49.0973 51.2326 48.8843 50.8653 48.6333C50.3147 48.2855 49.7881 47.9012 49.289 47.4828C48.7946 47.0843 48.3215 46.6599 47.8716 46.2116C47.681 46.0082 47.4903 45.8112 47.3123 45.576C46.6195 44.8069 46.6259 44.3747 46.6767 44.0506C46.6816 43.9753 46.6944 43.9007 46.7148 43.8281C46.7148 43.7328 46.861 43.7391 47.0581 43.8281C47.3482 43.926 47.6207 44.0697 47.8653 44.254L49.1365 45.3027C49.556 45.665 49.9691 46.0337 50.4077 46.3705C50.8463 46.7074 51.2594 47.0379 51.6789 47.3112C52.048 47.5751 52.4613 47.771 52.8993 47.8896C52.9692 47.9214 53.02 47.8896 53.0836 47.8896C53.1472 47.8896 53.2044 47.8896 53.2488 47.8896C53.2974 47.8831 53.3465 47.8831 53.395 47.8896C53.4705 47.8735 53.5449 47.8523 53.6175 47.8261C53.9495 47.718 54.2674 47.5708 54.5645 47.3875C55.1379 47.0863 55.5877 46.5938 55.8357 45.9955L55.8485 46.0019Z" fill="#4415FF"/>
<path d="M46.2947 50.5019C46.8802 50.9543 47.521 51.3303 48.2016 51.6206C48.4355 51.7 48.6758 51.7596 48.9198 51.7985C49.281 51.9003 49.6668 51.8687 50.0067 51.7096C50.4495 51.4742 50.8744 51.2065 51.2779 50.9087C51.6259 50.6499 51.9343 50.3415 52.1931 49.9934C52.489 49.5487 52.7606 49.0882 53.0067 48.6142C53.0893 48.468 53.2991 48.5252 53.4834 48.7413C53.5968 48.8768 53.6752 49.0381 53.7117 49.2109C53.7483 49.3838 53.7419 49.563 53.6932 49.7328C53.4429 50.3785 53.0521 50.9604 52.5491 51.4362C52.087 51.8935 51.5575 52.2772 50.9791 52.574C50.5886 52.8224 50.1588 53.003 49.7079 53.1079C49.2675 53.1974 48.8136 53.1974 48.3732 53.1079C47.5272 52.8957 46.7219 52.5457 45.9897 52.0718C45.5447 51.7985 45.1252 51.4998 44.7184 51.1947C44.0828 50.7307 43.5108 50.2159 42.9197 49.7265C42.4621 49.3451 41.9663 49.0082 41.5087 48.6078C41.401 48.5281 41.2991 48.4411 41.2036 48.3472C40.854 47.9849 40.8413 47.7752 41.1209 47.4383C41.1845 47.362 41.2481 47.2794 41.318 47.2095C41.4277 47.1003 41.5734 47.0349 41.7279 47.0256C41.8823 47.0162 42.0349 47.0635 42.157 47.1586C42.9887 47.7409 43.7807 48.3779 44.5278 49.0654C45.0978 49.5776 45.6962 50.0572 46.3202 50.5019H46.2947Z" fill="#4415FF"/>
<path d="M41.0319 54.2456C41.6485 54.7223 42.3131 55.1334 43.015 55.4723C43.2572 55.5711 43.5056 55.6539 43.7586 55.7202C43.9482 55.7797 44.1448 55.8138 44.3434 55.8219C44.4195 55.829 44.4961 55.829 44.5722 55.8219C44.6675 55.8219 44.801 55.7329 44.9091 55.6948C45.3777 55.5199 45.8237 55.2894 46.2375 55.0084C46.5906 54.7571 46.8962 54.445 47.14 54.0867C47.4165 53.6309 47.6445 53.1473 47.8201 52.6439C47.871 52.5104 48.1252 52.4914 48.3731 52.6884C48.523 52.8104 48.6345 52.973 48.6942 53.1568C48.754 53.3405 48.7594 53.5376 48.71 53.7244C48.4887 54.4264 48.0773 55.0534 47.5214 55.5359C47.0154 56.0027 46.427 56.3713 45.7862 56.6228L45.2269 56.8516L45.0807 56.9152L44.8836 56.9851C44.7502 57.0296 44.623 57.0359 44.4896 57.0677C44.0285 57.1044 43.5646 57.0526 43.123 56.9152C42.2818 56.6224 41.4875 56.2092 40.7649 55.6884C40.3264 55.3961 39.9005 55.0528 39.4937 54.7541C38.8581 54.2647 38.2797 53.7244 37.6823 53.2096C37.2246 52.8028 36.7225 52.4596 36.2839 52.0147C36.1822 51.9193 36.0805 51.824 35.9916 51.7223C35.661 51.3219 35.642 51.0867 35.8581 50.8388C35.9038 50.7733 35.9548 50.7117 36.0106 50.6545C36.2077 50.4892 36.481 50.5337 36.7479 50.7371C37.5679 51.3282 38.356 52.0464 39.1823 52.7393C39.8179 53.2541 40.4154 53.7689 41.0891 54.2202L41.0319 54.2456Z" fill="#4415FF"/>
<path d="M30.6139 52.7775C31.4148 53.5085 32.2283 54.2394 33.0864 54.9005C33.3915 55.1547 33.722 55.3454 34.0525 55.5869C34.6025 55.9952 35.1732 56.375 35.7623 56.7246C36.3398 57.053 36.9632 57.293 37.6119 57.4365C38.1837 57.577 38.7773 57.6051 39.3598 57.5191C40.0421 57.3949 40.6525 57.0182 41.0696 56.464C41.2158 56.2924 41.4001 56.3878 41.4891 56.6929C41.5443 56.9228 41.5343 57.1636 41.4602 57.3881C41.3861 57.6127 41.2508 57.8122 41.0696 57.9641C40.6691 58.29 40.1922 58.5087 39.684 58.5997C39.2156 58.6938 38.736 58.7195 38.2602 58.6759C37.8158 58.6422 37.3753 58.5677 36.9445 58.4535C36.7272 58.4011 36.5146 58.331 36.3089 58.2437C36.0876 58.1655 35.8747 58.0655 35.6733 57.945C34.7507 57.4501 33.8572 56.9026 32.9974 56.3051C32.0758 55.6695 31.205 54.9259 30.3597 54.1886C29.8321 53.7373 29.33 53.2606 28.8215 52.7966C28.0588 52.0784 27.3215 51.3284 26.5969 50.5847C26.0249 50.0063 25.4401 49.466 24.8871 48.8622C24.7664 48.7224 24.6456 48.5953 24.5312 48.4491C24.1117 47.9088 24.0926 47.6292 24.3087 47.3622C24.3529 47.2935 24.404 47.2297 24.4613 47.1715C24.6583 46.9999 24.9825 47.1207 25.2621 47.4512C26.1965 48.4173 27.2134 49.4533 28.2558 50.4767C29.0312 51.2394 29.8258 51.9957 30.6393 52.7267L30.6139 52.7775Z" fill="#4415FF"/>
<path d="M14.0569 49.5931L16.9489 48.5888C17.3048 48.4681 17.6417 48.3092 18.004 48.1948C19.2752 47.7816 20.5464 47.4384 21.8176 47.1333C22.396 47.0062 22.9744 46.8473 23.5591 46.7329C23.9433 46.6444 24.3348 46.5912 24.7287 46.574C25.1488 46.5779 25.5631 46.6733 25.9427 46.8536C26.1842 46.9808 26.0507 47.1524 25.8092 47.3367C25.5364 47.5634 25.2268 47.7418 24.8939 47.8642C23.5909 48.0295 22.1418 48.3982 20.6735 48.716C19.7907 48.9576 18.9227 49.2504 18.0739 49.5931L15.1819 50.6164L13.3959 51.252L10.6882 52.2308C9.98903 52.4914 9.32165 52.8219 8.5907 53.0508C8.4283 53.1036 8.26271 53.146 8.09493 53.1779C7.45933 53.2923 7.17967 53.1779 7.06526 52.8474C7.03139 52.777 7.00784 52.702 6.99534 52.6249C6.99056 52.5633 7.00012 52.5013 7.02327 52.444C7.04643 52.3866 7.08256 52.3354 7.12882 52.2944C7.25117 52.1901 7.39105 52.1083 7.54196 52.0529C8.62884 51.5571 9.90005 51.1185 11.1713 50.6228L14.0378 49.555L14.0569 49.5931Z" fill="#4415FF"/>
<path d="M12.8177 44.1394C12.3905 43.2542 12.0293 42.3385 11.7371 41.4C11.6227 41.0631 11.4956 40.7262 11.413 40.3767C11.1129 39.1292 11.0099 37.8424 11.1079 36.5631C11.146 36.0037 11.216 35.438 11.3049 34.8851C11.3641 34.5256 11.4491 34.1709 11.5592 33.8236C11.6834 33.4772 11.8661 33.1548 12.0994 32.8702C12.2393 32.6859 12.4554 32.8702 12.6333 33.1308C12.8365 33.4364 12.9327 33.8008 12.9067 34.1668C12.5515 35.3939 12.3718 36.6649 12.3727 37.9423C12.3975 38.7627 12.5454 39.5747 12.8113 40.3512C13.0554 41.2343 13.3678 42.0971 13.7456 42.9318C13.9808 43.453 14.2414 43.9615 14.5211 44.4572C14.9418 45.215 15.4289 45.9339 15.9766 46.6056C16.4056 47.1009 16.8849 47.5503 17.4067 47.9467L17.7372 48.1819C18.1313 48.487 18.1504 48.6204 18.1186 48.9509C18.1186 49.0272 18.1186 49.1098 18.1186 49.1798C18.1567 49.4276 17.7245 49.5675 17.2669 49.3704C16.6568 49.0728 16.1022 48.673 15.627 48.1882C15.1584 47.7235 14.7329 47.2171 14.3558 46.6755C13.7781 45.8678 13.2619 45.018 12.8113 44.1331L12.8177 44.1394Z" fill="#4415FF"/>
<path d="M64.0603 14.9527C63.9047 14.596 63.7219 14.2518 63.5137 13.923L63.2023 13.4209L62.8273 12.9569C62.6326 12.7285 62.4201 12.5159 62.1917 12.3213L61.6514 11.7619L61.0539 11.2535C60.6564 10.9003 60.2313 10.5793 59.7827 10.2937C59.3775 10.0466 58.9523 9.83399 58.5115 9.6581C57.9331 9.45833 57.3737 9.20733 56.8399 8.90809C56.6746 8.80639 56.7573 8.603 56.9861 8.43138C57.1284 8.32834 57.2906 8.25594 57.4624 8.21874C57.6341 8.18154 57.8117 8.18037 57.984 8.21528C58.312 8.27207 58.6335 8.36149 58.9437 8.48223C59.2488 8.60935 59.5793 8.74283 59.859 8.88266C60.1654 9.01932 60.4589 9.18311 60.7361 9.37208C61.0241 9.5487 61.3001 9.74404 61.5624 9.95683C61.8739 10.2238 62.198 10.4717 62.5349 10.7132C62.8718 10.9547 63.1705 11.2598 63.4692 11.5395C63.768 11.8191 64.1048 12.2259 64.3654 12.5819C64.626 12.9378 64.8993 13.3255 65.1091 13.7323C65.2362 13.9802 65.376 14.2281 65.4968 14.476L65.821 15.2514C66.117 16.0472 66.33 16.8715 66.4566 17.7112C66.5842 18.3562 66.6544 19.0114 66.6663 19.6688C66.6663 19.8214 66.6663 19.9676 66.6663 20.1138C66.6472 20.2313 66.6152 20.3464 66.571 20.457C66.5236 20.5362 66.4635 20.6071 66.393 20.6667C66.2744 20.7621 66.1256 20.8117 65.9735 20.8066C65.9016 20.8127 65.8293 20.8127 65.7574 20.8066C65.5349 20.8066 65.3697 20.5142 65.2553 20.171C65.1282 19.1604 64.9947 18.1815 64.804 17.1709C64.6499 16.4172 64.4044 15.6851 64.0731 14.9908L64.0603 14.9527Z" fill="#4415FF"/>
<path d="M63.4749 52.0019C63.386 52.0019 63.386 51.8875 63.4749 51.665C63.5174 51.5688 63.573 51.479 63.6402 51.3981C63.6997 51.3664 63.7613 51.3388 63.8245 51.3154C63.8563 51.3154 64.2313 51.3853 64.3648 51.3917C64.4854 51.4061 64.6032 51.4382 64.7144 51.487C64.9432 51.576 65.1784 51.6459 65.4135 51.7222C65.4674 51.7395 65.5172 51.7676 65.5597 51.8048C65.7124 51.9251 65.8946 52.0019 66.0873 52.0273C66.1031 52.0351 66.1205 52.0392 66.1381 52.0392C66.1558 52.0392 66.1732 52.0351 66.189 52.0273C66.4098 52.0216 66.6284 52.0719 66.8246 52.1735C66.9616 52.2926 67.1059 52.403 67.2568 52.504C67.2568 52.504 67.3076 52.504 67.314 52.5676C67.3203 52.6311 67.3903 52.682 67.4411 52.7074C67.5103 52.7432 67.5745 52.7881 67.6318 52.8409C67.6599 52.8894 67.6833 52.9405 67.7017 52.9934C67.7059 53.0657 67.6857 53.1373 67.6445 53.1968C67.6 53.2349 67.6064 53.3112 67.5936 53.3748V53.4383C67.4199 53.5292 67.2335 53.5934 67.0407 53.629L66.7102 53.5845L66.3224 53.5464C66.2843 53.5464 66.2525 53.5464 66.2207 53.4892L65.6805 53.3875C65.5851 53.3366 65.4707 53.3366 65.4008 53.2095C65.4008 53.2095 65.369 53.2095 65.3436 53.2095C65.1694 53.1463 65.003 53.0631 64.8478 52.9616C64.7652 52.9172 64.6762 52.8854 64.5872 52.8472C64.4983 52.8091 64.5872 52.8472 64.5491 52.8091C64.511 52.771 64.5491 52.771 64.4983 52.7646C64.2885 52.682 64.1105 52.5421 63.8627 52.4722C63.8118 52.4722 63.6402 52.2434 63.583 52.2243C63.5258 52.2053 63.5131 51.9955 63.4749 52.0019Z" fill="#4415FF"/>
<path d="M55.4796 59.4004C55.4033 59.3368 55.5432 59.2796 55.8038 59.2224C55.9302 59.2032 56.0587 59.2032 56.1851 59.2224C56.251 59.2543 56.3147 59.2904 56.3758 59.3304C56.4586 59.5039 56.5308 59.6822 56.5919 59.8644C56.6356 59.9843 56.655 60.1118 56.6491 60.2394C56.6491 60.4936 56.6491 60.7478 56.6491 60.9957C56.6464 61.0534 56.6312 61.1097 56.6046 61.161C56.5189 61.3343 56.4816 61.5275 56.4966 61.7203C56.4888 61.735 56.4847 61.7514 56.4847 61.768C56.4847 61.7846 56.4888 61.801 56.4966 61.8156C56.5527 62.0238 56.5527 62.2431 56.4966 62.4513C56.4032 62.601 56.3183 62.7559 56.2423 62.9152C56.2423 62.9152 56.2423 62.9597 56.1915 62.9724C56.1406 62.9852 56.0834 63.0614 56.0707 63.1123C56.0522 63.1836 56.0198 63.2506 55.9754 63.3093C55.9754 63.3093 55.8864 63.3665 55.8292 63.3983C55.7497 63.4161 55.6672 63.4161 55.5877 63.3983C55.5305 63.3602 55.4478 63.3983 55.3779 63.3983H55.3207C55.1929 63.2553 55.0898 63.0921 55.0156 62.9152V62.6038C55.0156 62.4513 55.0156 62.286 55.0156 62.2542C55.0156 62.2224 55.0156 62.1843 55.0601 62.1525C55.1046 62.1207 55.0156 61.6695 55.022 61.6567C55.0283 61.644 55.022 61.4661 55.1237 61.3834C55.1277 61.3744 55.1298 61.3647 55.1298 61.3548C55.1298 61.345 55.1277 61.3352 55.1237 61.3262C55.1311 61.164 55.1611 61.0035 55.2127 60.8495C55.219 60.767 55.219 60.6842 55.2127 60.6016V60.5635C55.2175 60.5448 55.2175 60.5251 55.2127 60.5063C55.235 60.3142 55.235 60.1201 55.2127 59.9279C55.2127 59.8834 55.3271 59.6737 55.3144 59.6228C55.3016 59.572 55.5114 59.4258 55.4796 59.4004Z" fill="#4415FF"/>
<path d="M17.0064 13.3956C16.9174 13.3956 16.9301 13.2875 17.0064 13.0905C17.0406 13.0006 17.0924 12.9185 17.1589 12.849C17.213 12.8187 17.2707 12.7952 17.3306 12.7791C17.3306 12.7791 17.7119 12.868 17.839 12.8935C17.9543 12.9145 18.0643 12.9577 18.1632 13.0206L18.7988 13.3575C18.8448 13.3839 18.8857 13.4183 18.9196 13.4591C19.0382 13.5987 19.1886 13.7076 19.3581 13.7769C19.3581 13.7769 19.409 13.7769 19.4471 13.7769C19.6427 13.8335 19.823 13.9334 19.9747 14.0693C20.07 14.2092 20.1781 14.3299 20.2861 14.4634C20.2861 14.4634 20.3242 14.4634 20.3242 14.527C20.3242 14.5905 20.3624 14.6477 20.4005 14.6859C20.4534 14.7305 20.5004 14.7818 20.5403 14.8384C20.5482 14.8911 20.5482 14.9446 20.5403 14.9973C20.5266 15.0661 20.4909 15.1285 20.4387 15.1753C20.3878 15.1753 20.3751 15.2706 20.3433 15.3278V15.385C20.1708 15.4138 19.9947 15.4138 19.8221 15.385L19.5488 15.2643L19.2247 15.1371C19.1929 15.1371 19.1738 15.0863 19.1547 15.0609C19.1357 15.0354 18.7162 14.8829 18.7035 14.8638C18.6907 14.8448 18.5318 14.7876 18.5001 14.6604C18.5001 14.6604 18.5001 14.6604 18.4619 14.6159C18.3242 14.5307 18.1963 14.4305 18.0806 14.3172C18.0147 14.2648 17.9445 14.218 17.8708 14.1774C17.8708 14.1774 17.8708 14.1774 17.8708 14.1392C17.8618 14.1198 17.8488 14.1025 17.8327 14.0884C17.6769 13.9715 17.5134 13.8653 17.3433 13.7706C17.3051 13.7706 17.1717 13.5545 17.1208 13.5354C17.07 13.5164 17.0382 13.3892 17.0064 13.3956Z" fill="#4415FF"/>
<path d="M28.5812 3.76614C28.524 3.65173 28.6893 3.59452 28.9816 3.5691C29.1194 3.56853 29.2558 3.59667 29.3821 3.65173C29.4469 3.71732 29.5045 3.78978 29.5537 3.86783C29.5537 3.90597 29.6045 4.50344 29.6236 4.71318C29.6383 4.90712 29.6233 5.10218 29.5791 5.29158L29.3948 6.43567C29.3827 6.52067 29.3547 6.60262 29.3121 6.6772C29.1866 6.94187 29.1173 7.22972 29.1088 7.52255C29.0983 7.54661 29.0928 7.57257 29.0928 7.59882C29.0928 7.62507 29.0983 7.65103 29.1088 7.67509C29.1272 7.99383 29.0951 8.31348 29.0134 8.62214C28.8952 8.85503 28.7911 9.09488 28.702 9.34037C28.702 9.37851 28.702 9.41664 28.6511 9.44207C28.6003 9.46749 28.5367 9.58826 28.5176 9.66453C28.4977 9.77295 28.4679 9.87932 28.4287 9.98233C28.3881 10.0443 28.3364 10.0982 28.2761 10.1412C28.1987 10.173 28.112 10.173 28.0346 10.1412C27.9774 10.0904 27.8948 10.1412 27.8248 10.1412C27.7974 10.1444 27.7697 10.1444 27.7422 10.1412C27.5971 9.90811 27.4859 9.65559 27.4117 9.39122L27.3545 8.28527C27.3581 8.22599 27.3778 8.16882 27.4117 8.12001C27.4117 8.08823 27.4117 7.31916 27.4117 7.28738C27.4498 7.13483 27.4117 6.96957 27.5706 6.8361C27.583 6.80552 27.583 6.77133 27.5706 6.74076C27.6167 6.47499 27.6847 6.2135 27.774 5.95897C27.8082 5.82696 27.8358 5.69332 27.8566 5.55854C27.8655 5.53525 27.8784 5.51373 27.8948 5.49498C27.9121 5.46665 27.927 5.43688 27.9392 5.40599C28.0196 5.09643 28.0811 4.78229 28.1236 4.4653C28.1236 4.38903 28.327 4.07123 28.327 3.9886C28.327 3.90597 28.6257 3.82334 28.5812 3.76614Z" fill="#4415FF"/>
<path d="M37.3462 34.7455C37.0411 35.2032 36.7106 35.6481 36.3673 36.0739C36.2466 36.2328 36.1195 36.3854 35.986 36.5379C35.5114 37.0572 35.004 37.5455 34.4669 37.9998L33.755 38.6354C33.4487 38.8859 33.1212 39.1092 32.7762 39.3028C32.6681 39.36 32.6491 39.3028 32.6999 39.2011C32.779 39.0374 32.8891 38.8906 33.0241 38.7689C33.3101 38.4829 33.6088 38.2286 33.9076 37.9744C34.2063 37.7202 34.505 37.4532 34.7974 37.1799C35.1474 36.8434 35.4704 36.48 35.7635 36.093C36.1024 35.6855 36.4206 35.2613 36.7169 34.8218C36.9012 34.5485 37.0792 34.2625 37.2445 33.9765C37.4963 33.5426 37.7234 33.0949 37.9246 32.6353C38.0708 32.273 38.1852 31.9107 38.3059 31.5485L38.3822 31.3069C38.4966 31.0145 38.5729 30.9383 38.7064 30.9065H38.7953C38.8843 30.9065 38.9161 31.0527 38.8843 31.2942C38.8238 31.6519 38.7367 32.0046 38.6237 32.3493C38.4988 32.6971 38.3523 33.0367 38.1852 33.3663C37.9384 33.8672 37.6625 34.3532 37.3589 34.8218L37.3462 34.7455Z" fill="#4415FF"/>
</svg>
