<svg width="34" height="41" viewBox="0 0 34 41" fill="none" xmlns="http://www.w3.org/2000/svg">
<path d="M22.1973 40.1001C30.1973 40.1001 34.4973 30.4001 28.9973 24.7001L28.8973 24.6001L16.8973 12.6001L4.8973 24.6001L4.7973 24.7001C-0.802704 30.4001 3.59731 40.1001 11.5973 40.1001H22.1973Z" fill="#4415FF"/>
<path d="M6.40045 14.3614C3.26152 11.0729 2.17244 7.14471 2.58272 3.37015L2.58985 3.30456L2.59351 3.23868C2.60264 3.07439 2.67356 2.91403 2.84294 2.76789C3.0239 2.61178 3.29347 2.5 3.59736 2.5H30.2973C30.8529 2.5 31.2456 2.8682 31.3099 3.35402C31.6292 7.14105 30.4373 11.1643 27.3941 14.3612L18.6651 5.63223L16.8973 3.86446L15.1296 5.63223L6.40045 14.3614Z" fill="white" stroke="#4415FF" stroke-width="5"/>
</svg>
