<svg width="21" height="26" viewBox="0 0 21 26" fill="none" xmlns="http://www.w3.org/2000/svg">
<path d="M10.9584 14.2122C11.7324 15.9895 13.0284 17.4034 14.3787 18.5569C15.424 19.4498 16.5417 20.2175 17.4983 20.8747C17.7697 21.0611 18.0282 21.2387 18.2684 21.4077C18.8252 21.7995 19.2746 22.138 19.5988 22.4455C19.9377 22.767 20.0497 22.9722 20.0743 23.0794C20.0746 23.0807 20.0749 23.0821 20.0752 23.0835C20.0831 23.1153 20.1021 23.1924 19.9255 23.3745C19.7105 23.5962 19.2811 23.8815 18.507 24.2186C12.4709 26.8475 5.38238 23.9972 2.68928 17.8136C-0.00382924 11.6301 2.73741 4.49864 8.77346 1.86978C9.54756 1.53264 10.049 1.41255 10.3577 1.40617C10.6113 1.40093 10.6548 1.46734 10.6728 1.49469C10.6736 1.49595 10.6743 1.49713 10.6751 1.49821C10.7368 1.58921 10.8109 1.81101 10.8154 2.27806C10.8197 2.72494 10.7615 3.28451 10.6691 3.95908C10.6292 4.25003 10.5832 4.56022 10.5348 4.88597C10.3644 6.03397 10.1652 7.3752 10.107 8.74871C10.0318 10.5231 10.1843 12.435 10.9584 14.2122Z" stroke="white" stroke-width="1.46259"/>
</svg>
