<svg width="1440" height="109" viewBox="0 0 1440 109" fill="none" xmlns="http://www.w3.org/2000/svg">
<path opacity="0.2" d="M-420.117 109H-420.617V109.5H-420.117V109ZM-420.117 0.593323V0.0933228H-420.617V0.593323H-420.117ZM-345.96 0.593323H-345.46V0.0933228H-345.96V0.593323ZM-345.96 21.0178V21.5178H-345.46V21.0178H-345.96ZM-397.493 21.0178V20.5178H-397.993V21.0178H-397.493ZM-397.493 43.0133H-397.993V43.5133H-397.493V43.0133ZM-350.674 43.0133H-350.174V42.5133H-350.674V43.0133ZM-350.674 63.4378V63.9378H-350.174V63.4378H-350.674ZM-397.493 63.4378V62.9378H-397.993V63.4378H-397.493ZM-397.493 88.5756H-397.993V89.0756H-397.493V88.5756ZM-345.96 88.5756H-345.46V88.0756H-345.96V88.5756ZM-345.96 109V109.5H-345.46V109H-345.96ZM-419.617 109V0.593323H-420.617V109H-419.617ZM-420.117 1.09332H-345.96V0.0933228H-420.117V1.09332ZM-346.46 0.593323V21.0178H-345.46V0.593323H-346.46ZM-345.96 20.5178H-397.493V21.5178H-345.96V20.5178ZM-397.993 21.0178V43.0133H-396.993V21.0178H-397.993ZM-397.493 43.5133H-350.674V42.5133H-397.493V43.5133ZM-351.174 43.0133V63.4378H-350.174V43.0133H-351.174ZM-350.674 62.9378H-397.493V63.9378H-350.674V62.9378ZM-397.993 63.4378V88.5756H-396.993V63.4378H-397.993ZM-397.493 89.0756H-345.96V88.0756H-397.493V89.0756ZM-346.46 88.5756V109H-345.46V88.5756H-346.46ZM-345.96 108.5H-420.117V109.5H-345.96V108.5ZM-325.298 109H-325.798V109.5H-325.298V109ZM-325.298 0.593323V0.0933228H-325.798V0.593323H-325.298ZM-298.275 0.593323L-297.822 0.381161L-297.957 0.0933228H-298.275V0.593323ZM-267.795 65.6373L-268.248 65.8495L-267.795 66.8157L-267.342 65.8495L-267.795 65.6373ZM-237.316 0.593323V0.0933228H-237.634L-237.768 0.381161L-237.316 0.593323ZM-210.293 0.593323H-209.793V0.0933228H-210.293V0.593323ZM-210.293 109V109.5H-209.793V109H-210.293ZM-232.917 109H-233.417V109.5H-232.917V109ZM-232.917 40.4995H-232.417L-233.369 40.2875L-232.917 40.4995ZM-258.369 94.86V95.36H-258.051L-257.916 95.072L-258.369 94.86ZM-277.222 94.86L-277.675 95.072L-277.54 95.36H-277.222V94.86ZM-302.674 40.4995L-302.221 40.2875L-303.174 40.4995H-302.674ZM-302.674 109V109.5H-302.174V109H-302.674ZM-324.798 109V0.593323H-325.798V109H-324.798ZM-325.298 1.09332H-298.275V0.0933228H-325.298V1.09332ZM-298.728 0.805485L-268.248 65.8495L-267.342 65.4252L-297.822 0.381161L-298.728 0.805485ZM-267.342 65.8495L-236.863 0.805485L-237.768 0.381161L-268.248 65.4252L-267.342 65.8495ZM-237.316 1.09332H-210.293V0.0933228H-237.316V1.09332ZM-210.793 0.593323V109H-209.793V0.593323H-210.793ZM-210.293 108.5H-232.917V109.5H-210.293V108.5ZM-232.417 109V40.4995H-233.417V109H-232.417ZM-233.369 40.2875L-258.821 94.648L-257.916 95.072L-232.464 40.7116L-233.369 40.2875ZM-258.369 94.36H-277.222V95.36H-258.369V94.36ZM-276.769 94.648L-302.221 40.2875L-303.127 40.7116L-277.675 95.072L-276.769 94.648ZM-303.174 40.4995V109H-302.174V40.4995H-303.174ZM-302.674 108.5H-325.298V109.5H-302.674V108.5ZM-184.45 109H-184.95V109.5H-184.45V109ZM-184.45 0.593323V0.0933228H-184.95V0.593323H-184.45ZM-157.427 0.593323L-156.974 0.381161L-157.109 0.0933228H-157.427V0.593323ZM-126.948 65.6373L-127.4 65.8495L-126.948 66.8157L-126.495 65.8495L-126.948 65.6373ZM-96.468 0.593323V0.0933228H-96.7859L-96.9207 0.381161L-96.468 0.593323ZM-69.4449 0.593323H-68.9449V0.0933228H-69.4449V0.593323ZM-69.4449 109V109.5H-68.9449V109H-69.4449ZM-92.0689 109H-92.5689V109.5H-92.0689V109ZM-92.0689 40.4995H-91.5689L-92.5217 40.2875L-92.0689 40.4995ZM-117.521 94.86V95.36H-117.203L-117.068 95.072L-117.521 94.86ZM-136.374 94.86L-136.827 95.072L-136.692 95.36H-136.374V94.86ZM-161.826 40.4995L-161.373 40.2875L-162.326 40.4995H-161.826ZM-161.826 109V109.5H-161.326V109H-161.826ZM-183.95 109V0.593323H-184.95V109H-183.95ZM-184.45 1.09332H-157.427V0.0933228H-184.45V1.09332ZM-157.88 0.805485L-127.4 65.8495L-126.495 65.4252L-156.974 0.381161L-157.88 0.805485ZM-126.495 65.8495L-96.0152 0.805485L-96.9207 0.381161L-127.4 65.4252L-126.495 65.8495ZM-96.468 1.09332H-69.4449V0.0933228H-96.468V1.09332ZM-69.9449 0.593323V109H-68.9449V0.593323H-69.9449ZM-69.4449 108.5H-92.0689V109.5H-69.4449V108.5ZM-91.5689 109V40.4995H-92.5689V109H-91.5689ZM-92.5217 40.2875L-117.974 94.648L-117.068 95.072L-91.6161 40.7116L-92.5217 40.2875ZM-117.521 94.36H-136.374V95.36H-117.521V94.36ZM-135.921 94.648L-161.373 40.2875L-162.279 40.7116L-136.827 95.072L-135.921 94.648ZM-162.326 40.4995V109H-161.326V40.4995H-162.326ZM-161.826 108.5H-184.45V109.5H-161.826V108.5ZM-53.6577 104.758L-54.1353 104.61L-54.2056 104.837L-54.0737 105.035L-53.6577 104.758ZM-21.4499 0.593323V0.0933228H-21.8186L-21.9276 0.445621L-21.4499 0.593323ZM13.1146 0.593323L13.5923 0.445621L13.4833 0.0933228H13.1146V0.593323ZM45.3224 104.758L45.7384 105.035L45.8703 104.837L45.8 104.61L45.3224 104.758ZM42.4944 109V109.5H42.7619L42.9104 109.277L42.4944 109ZM23.641 109L23.1621 109.144L23.269 109.5H23.641V109ZM17.0424 87.0044L17.5213 86.8608L17.4144 86.5044H17.0424V87.0044ZM-25.3777 87.0044V86.5044H-25.7497L-25.8566 86.8608L-25.3777 87.0044ZM-31.9763 109V109.5H-31.6043L-31.4974 109.144L-31.9763 109ZM-50.8297 109L-51.2457 109.277L-51.0973 109.5H-50.8297V109ZM-19.2503 66.58L-19.7288 66.4348L-19.9246 67.08H-19.2503V66.58ZM10.915 66.58V67.08H11.5893L11.3935 66.4348L10.915 66.58ZM-2.91077 21.0178L-2.43231 20.8726L-2.53998 20.5178H-2.91077V21.0178ZM-5.42453 21.0178V20.5178H-5.79532L-5.90298 20.8726L-5.42453 21.0178ZM-53.18 104.906L-20.9722 0.741024L-21.9276 0.445621L-54.1353 104.61L-53.18 104.906ZM-21.4499 1.09332H13.1146V0.0933228H-21.4499V1.09332ZM12.6369 0.741024L44.8447 104.906L45.8 104.61L13.5923 0.445621L12.6369 0.741024ZM44.9063 104.481L42.0783 108.723L42.9104 109.277L45.7384 105.035L44.9063 104.481ZM42.4944 108.5H23.641V109.5H42.4944V108.5ZM24.1199 108.856L17.5213 86.8608L16.5634 87.1481L23.1621 109.144L24.1199 108.856ZM17.0424 86.5044H-25.3777V87.5044H17.0424V86.5044ZM-25.8566 86.8608L-32.4552 108.856L-31.4974 109.144L-24.8987 87.1481L-25.8566 86.8608ZM-31.9763 108.5H-50.8297V109.5H-31.9763V108.5ZM-50.4136 108.723L-53.2416 104.481L-54.0737 105.035L-51.2457 109.277L-50.4136 108.723ZM-19.2503 67.08H10.915V66.08H-19.2503V67.08ZM11.3935 66.4348L-2.43231 20.8726L-3.38922 21.163L10.4366 66.7252L11.3935 66.4348ZM-2.91077 20.5178H-5.42453V21.5178H-2.91077V20.5178ZM-5.90298 20.8726L-19.7288 66.4348L-18.7719 66.7252L-4.94608 21.163L-5.90298 20.8726ZM61.0359 109H60.5359V109.5H61.0359V109ZM61.0359 0.593323V0.0933228H60.5359V0.593323H61.0359ZM85.5452 0.593323L85.973 0.334549L85.8271 0.0933228H85.5452V0.593323ZM128.594 71.7647L128.166 72.0234L129.094 73.5574V71.7647H128.594ZM128.594 0.593323V0.0933228H128.094V0.593323H128.594ZM151.218 0.593323H151.718V0.0933228H151.218V0.593323ZM151.218 109V109.5H151.718V109H151.218ZM126.708 109L126.281 109.259L126.426 109.5H126.708V109ZM83.6599 37.8287L84.0877 37.5699L83.1599 36.0359V37.8287H83.6599ZM83.6599 109V109.5H84.1599V109H83.6599ZM61.5359 109V0.593323H60.5359V109H61.5359ZM61.0359 1.09332H85.5452V0.0933228H61.0359V1.09332ZM85.1174 0.852097L128.166 72.0234L129.021 71.5059L85.973 0.334549L85.1174 0.852097ZM129.094 71.7647V0.593323H128.094V71.7647H129.094ZM128.594 1.09332H151.218V0.0933228H128.594V1.09332ZM150.718 0.593323V109H151.718V0.593323H150.718ZM151.218 108.5H126.708V109.5H151.218V108.5ZM127.136 108.741L84.0877 37.5699L83.2321 38.0874L126.281 109.259L127.136 108.741ZM83.1599 37.8287V109H84.1599V37.8287H83.1599ZM83.6599 108.5H61.0359V109.5H83.6599V108.5ZM176.085 0.593323V0.0933228H175.585V0.593323H176.085ZM198.709 0.593323H199.209V0.0933228H198.709V0.593323ZM238.93 0.593323V0.0933228H238.43V0.593323H238.93ZM261.554 0.593323H262.054V0.0933228H261.554V0.593323ZM176.585 82.6053V0.593323H175.585V82.6053H176.585ZM176.085 1.09332H198.709V0.0933228H176.085V1.09332ZM198.209 0.593323V83.8622H199.209V0.593323H198.209ZM198.209 83.8622C198.209 85.5104 198.622 86.8384 199.534 87.7508C200.447 88.6632 201.775 89.0756 203.423 89.0756V88.0756C201.929 88.0756 200.9 87.7024 200.241 87.0437C199.583 86.3849 199.209 85.3563 199.209 83.8622H198.209ZM203.423 89.0756H234.216V88.0756H203.423V89.0756ZM234.216 89.0756C235.865 89.0756 237.193 88.6632 238.105 87.7508C239.017 86.8384 239.43 85.5104 239.43 83.8622H238.43C238.43 85.3563 238.057 86.3849 237.398 87.0437C236.739 87.7024 235.711 88.0756 234.216 88.0756V89.0756ZM239.43 83.8622V0.593323H238.43V83.8622H239.43ZM238.93 1.09332H261.554V0.0933228H238.93V1.09332ZM261.054 0.593323V82.6053H262.054V0.593323H261.054ZM261.054 82.6053C261.054 91.3265 258.874 97.7755 254.602 102.048C250.329 106.32 243.88 108.5 235.159 108.5V109.5C244.034 109.5 250.783 107.281 255.309 102.755C259.835 98.2289 262.054 91.4806 262.054 82.6053H261.054ZM235.159 108.5H202.48V109.5H235.159V108.5ZM202.48 108.5C193.759 108.5 187.31 106.32 183.038 102.048C178.765 97.7755 176.585 91.3265 176.585 82.6053H175.585C175.585 91.4806 177.805 98.2289 182.331 102.755C186.856 107.281 193.605 109.5 202.48 109.5V108.5ZM286.423 109H285.923V109.5H286.423V109ZM286.423 0.593323V0.0933228H285.923V0.593323H286.423ZM360.579 0.593323H361.079V0.0933228H360.579V0.593323ZM360.579 21.0178V21.5178H361.079V21.0178H360.579ZM309.047 21.0178V20.5178H308.547V21.0178H309.047ZM309.047 43.0133H308.547V43.5133H309.047V43.0133ZM355.866 43.0133H356.366V42.5133H355.866V43.0133ZM355.866 63.4378V63.9378H356.366V63.4378H355.866ZM309.047 63.4378V62.9378H308.547V63.4378H309.047ZM309.047 88.5756H308.547V89.0756H309.047V88.5756ZM360.579 88.5756H361.079V88.0756H360.579V88.5756ZM360.579 109V109.5H361.079V109H360.579ZM286.923 109V0.593323H285.923V109H286.923ZM286.423 1.09332H360.579V0.0933228H286.423V1.09332ZM360.079 0.593323V21.0178H361.079V0.593323H360.079ZM360.579 20.5178H309.047V21.5178H360.579V20.5178ZM308.547 21.0178V43.0133H309.547V21.0178H308.547ZM309.047 43.5133H355.866V42.5133H309.047V43.5133ZM355.366 43.0133V63.4378H356.366V43.0133H355.366ZM355.866 62.9378H309.047V63.9378H355.866V62.9378ZM308.547 63.4378V88.5756H309.547V63.4378H308.547ZM309.047 89.0756H360.579V88.0756H309.047V89.0756ZM360.079 88.5756V109H361.079V88.5756H360.079ZM360.579 108.5H286.423V109.5H360.579V108.5ZM381.242 109H380.742V109.5H381.242V109ZM381.242 0.593323V0.0933228H380.742V0.593323H381.242ZM403.866 0.593323H404.366V0.0933228H403.866V0.593323ZM403.866 88.5756H403.366V89.0756H403.866V88.5756ZM450.685 88.5756H451.185V88.0756H450.685V88.5756ZM450.685 109V109.5H451.185V109H450.685ZM381.742 109V0.593323H380.742V109H381.742ZM381.242 1.09332H403.866V0.0933228H381.242V1.09332ZM403.366 0.593323V88.5756H404.366V0.593323H403.366ZM403.866 89.0756H450.685V88.0756H403.866V89.0756ZM450.185 88.5756V109H451.185V88.5756H450.185ZM450.685 108.5H381.242V109.5H450.685V108.5ZM464.645 109H464.145V109.5H464.645V109ZM464.645 86.5331V86.0331H464.145V86.5331H464.645ZM488.054 86.5331H488.554V86.0331H488.054V86.5331ZM488.054 109V109.5H488.554V109H488.054ZM465.145 109V86.5331H464.145V109H465.145ZM464.645 87.0331H488.054V86.0331H464.645V87.0331ZM487.554 86.5331V109H488.554V86.5331H487.554ZM488.054 108.5H464.645V109.5H488.054V108.5ZM509.972 82.6053V26.988H508.972V82.6053H509.972ZM509.972 26.988C509.972 18.2668 512.151 11.8178 516.424 7.54554C520.696 3.27327 527.145 1.09332 535.866 1.09332V0.0933228C526.991 0.0933228 520.243 2.31248 515.717 6.83844C511.191 11.3644 508.972 18.1127 508.972 26.988H509.972ZM535.866 1.09332H571.688V0.0933228H535.866V1.09332ZM571.688 1.09332C580.409 1.09332 586.858 3.27327 591.13 7.54554C595.402 11.8178 597.582 18.2668 597.582 26.988H598.582C598.582 18.1127 596.363 11.3644 591.837 6.83844C587.311 2.31248 580.563 0.0933228 571.688 0.0933228V1.09332ZM597.582 26.988V82.6053H598.582V26.988H597.582ZM597.582 82.6053C597.582 91.3265 595.402 97.7755 591.13 102.048C586.858 106.32 580.409 108.5 571.688 108.5V109.5C580.563 109.5 587.311 107.281 591.837 102.755C596.363 98.2289 598.582 91.4806 598.582 82.6053H597.582ZM571.688 108.5H535.866V109.5H571.688V108.5ZM535.866 108.5C527.145 108.5 520.696 106.32 516.424 102.048C512.151 97.7755 509.972 91.3265 509.972 82.6053H508.972C508.972 91.4806 511.191 98.2289 515.717 102.755C520.243 107.281 526.991 109.5 535.866 109.5V108.5ZM531.596 83.8622C531.596 85.5104 532.008 86.8384 532.92 87.7508C533.833 88.6632 535.161 89.0756 536.809 89.0756V88.0756C535.315 88.0756 534.286 87.7024 533.627 87.0437C532.969 86.3849 532.596 85.3563 532.596 83.8622H531.596ZM536.809 89.0756H570.745V88.0756H536.809V89.0756ZM570.745 89.0756C572.393 89.0756 573.721 88.6632 574.633 87.7508C575.546 86.8384 575.958 85.5104 575.958 83.8622H574.958C574.958 85.3563 574.585 86.3849 573.926 87.0437C573.268 87.7024 572.239 88.0756 570.745 88.0756V89.0756ZM575.958 83.8622V25.7311H574.958V83.8622H575.958ZM575.958 25.7311C575.958 24.0829 575.546 22.7549 574.633 21.8426C573.721 20.9302 572.393 20.5178 570.745 20.5178V21.5178C572.239 21.5178 573.268 21.8909 573.926 22.5497C574.585 23.2084 574.958 24.2371 574.958 25.7311H575.958ZM570.745 20.5178H536.809V21.5178H570.745V20.5178ZM536.809 20.5178C535.161 20.5178 533.833 20.9302 532.92 21.8426C532.008 22.7549 531.596 24.0829 531.596 25.7311H532.596C532.596 24.2371 532.969 23.2084 533.627 22.5497C534.286 21.8909 535.315 21.5178 536.809 21.5178V20.5178ZM531.596 25.7311V83.8622H532.596V25.7311H531.596ZM622.278 109H621.778V109.5H622.278V109ZM622.278 0.593323V0.0933228H621.778V0.593323H622.278ZM644.902 0.593323H645.402V0.0933228H644.902V0.593323ZM644.902 43.4847H644.402V44.7944L645.275 43.8179L644.902 43.4847ZM683.238 0.593323V0.0933228H683.014L682.865 0.260124L683.238 0.593323ZM704.448 0.593323L704.898 0.375946L704.761 0.0933228H704.448V0.593323ZM706.647 5.14955L707.019 5.48363L707.243 5.23415L707.097 4.93218L706.647 5.14955ZM670.669 45.2129L670.297 44.8788L670.036 45.1689L670.254 45.4923L670.669 45.2129ZM710.575 104.444L711.031 104.648L711.145 104.395L710.99 104.164L710.575 104.444ZM708.532 109V109.5H708.856L708.989 109.205L708.532 109ZM687.637 109L687.22 109.277L687.369 109.5H687.637V109ZM656.057 61.5524L656.474 61.2754L656.121 60.7458L655.69 61.2135L656.057 61.5524ZM644.902 73.65L644.535 73.3111L644.402 73.4547V73.65H644.902ZM644.902 109V109.5H645.402V109H644.902ZM622.778 109V0.593323H621.778V109H622.778ZM622.278 1.09332H644.902V0.0933228H622.278V1.09332ZM644.402 0.593323V43.4847H645.402V0.593323H644.402ZM645.275 43.8179L683.61 0.926521L682.865 0.260124L644.53 43.1515L645.275 43.8179ZM683.238 1.09332H704.448V0.0933228H683.238V1.09332ZM703.997 0.810696L706.197 5.36692L707.097 4.93218L704.898 0.375946L703.997 0.810696ZM706.275 4.81547L670.297 44.8788L671.041 45.547L707.019 5.48363L706.275 4.81547ZM670.254 45.4923L710.16 104.723L710.99 104.164L671.083 44.9335L670.254 45.4923ZM710.119 104.239L708.076 108.795L708.989 109.205L711.031 104.648L710.119 104.239ZM708.532 108.5H687.637V109.5H708.532V108.5ZM688.053 108.723L656.474 61.2754L655.641 61.8295L687.22 109.277L688.053 108.723ZM655.69 61.2135L644.535 73.3111L645.27 73.9889L656.425 61.8914L655.69 61.2135ZM644.402 73.65V109H645.402V73.65H644.402ZM644.902 108.5H622.278V109.5H644.902V108.5ZM727.838 109H727.338V109.5H727.838V109ZM727.838 0.593323V0.0933228H727.338V0.593323H727.838ZM801.994 0.593323H802.494V0.0933228H801.994V0.593323ZM801.994 21.0178V21.5178H802.494V21.0178H801.994ZM750.462 21.0178V20.5178H749.962V21.0178H750.462ZM750.462 43.0133H749.962V43.5133H750.462V43.0133ZM797.281 43.0133H797.781V42.5133H797.281V43.0133ZM797.281 63.4378V63.9378H797.781V63.4378H797.281ZM750.462 63.4378V62.9378H749.962V63.4378H750.462ZM750.462 88.5756H749.962V89.0756H750.462V88.5756ZM801.994 88.5756H802.494V88.0756H801.994V88.5756ZM801.994 109V109.5H802.494V109H801.994ZM728.338 109V0.593323H727.338V109H728.338ZM727.838 1.09332H801.994V0.0933228H727.838V1.09332ZM801.494 0.593323V21.0178H802.494V0.593323H801.494ZM801.994 20.5178H750.462V21.5178H801.994V20.5178ZM749.962 21.0178V43.0133H750.962V21.0178H749.962ZM750.462 43.5133H797.281V42.5133H750.462V43.5133ZM796.781 43.0133V63.4378H797.781V43.0133H796.781ZM797.281 62.9378H750.462V63.9378H797.281V62.9378ZM749.962 63.4378V88.5756H750.962V63.4378H749.962ZM750.462 89.0756H801.994V88.0756H750.462V89.0756ZM801.494 88.5756V109H802.494V88.5756H801.494ZM801.994 108.5H727.838V109.5H801.994V108.5ZM822.656 109H822.156V109.5H822.656V109ZM822.656 0.593323V0.0933228H822.156V0.593323H822.656ZM845.281 0.593323H845.781V0.0933228H845.281V0.593323ZM845.281 109V109.5H845.781V109H845.281ZM823.156 109V0.593323H822.156V109H823.156ZM822.656 1.09332H845.281V0.0933228H822.656V1.09332ZM844.781 0.593323V109H845.781V0.593323H844.781ZM845.281 108.5H822.656V109.5H845.281V108.5ZM870.987 109H870.487V109.5H870.987V109ZM870.987 0.593323V0.0933228H870.487V0.593323H870.987ZM945.457 45.5271L945.841 45.8472L945.457 45.5271ZM939.958 52.1258L939.574 51.8057L939.254 52.1898L939.638 52.5099L939.958 52.1258ZM946.557 57.6247L946.237 58.0088L946.24 58.0116L946.557 57.6247ZM893.611 88.5756H893.111V89.0756H893.611V88.5756ZM893.611 63.4378V62.9378H893.111V63.4378H893.611ZM893.611 43.0133H893.111V43.5133H893.611V43.0133ZM893.611 21.0178V20.5178H893.111V21.0178H893.611ZM871.487 109V0.593323H870.487V109H871.487ZM870.987 1.09332H922.205V0.0933228H870.987V1.09332ZM922.205 1.09332C930.926 1.09332 937.375 3.27327 941.647 7.54554C945.92 11.8178 948.099 18.2668 948.099 26.988H949.099C949.099 18.1127 946.88 11.3644 942.354 6.83844C937.828 2.31248 931.08 0.0933228 922.205 0.0933228V1.09332ZM948.099 26.988V36.4147H949.099V26.988H948.099ZM948.099 36.4147C948.099 39.87 947.086 42.7913 945.073 45.207L945.841 45.8472C948.018 43.2354 949.099 40.0817 949.099 36.4147H948.099ZM945.073 45.207L939.574 51.8057L940.343 52.4459L945.841 45.8472L945.073 45.207ZM939.638 52.5099L946.237 58.0088L946.877 57.2406L940.278 51.7417L939.638 52.5099ZM946.24 58.0116C949.553 60.722 951.242 64.7524 951.242 70.1936H952.242C952.242 64.5322 950.474 60.1833 946.874 57.2377L946.24 58.0116ZM951.242 70.1936V82.6053H952.242V70.1936H951.242ZM951.242 82.6053C951.242 91.3265 949.062 97.7755 944.79 102.048C940.517 106.32 934.068 108.5 925.347 108.5V109.5C934.222 109.5 940.971 107.281 945.497 102.755C950.023 98.2289 952.242 91.4806 952.242 82.6053H951.242ZM925.347 108.5H870.987V109.5H925.347V108.5ZM893.611 89.0756H924.404V88.0756H893.611V89.0756ZM924.404 89.0756C926.053 89.0756 927.381 88.6632 928.293 87.7508C929.205 86.8384 929.618 85.5104 929.618 83.8622H928.618C928.618 85.3563 928.245 86.3849 927.586 87.0437C926.927 87.7024 925.898 88.0756 924.404 88.0756V89.0756ZM929.618 83.8622V68.1511H928.618V83.8622H929.618ZM929.618 68.1511C929.618 66.5029 929.205 65.1749 928.293 64.2626C927.381 63.3502 926.053 62.9378 924.404 62.9378V63.9378C925.898 63.9378 926.927 64.3109 927.586 64.9697C928.245 65.6284 928.618 66.6571 928.618 68.1511H929.618ZM924.404 62.9378H893.611V63.9378H924.404V62.9378ZM893.111 63.4378V88.5756H894.111V63.4378H893.111ZM893.611 43.5133H921.262V42.5133H893.611V43.5133ZM921.262 43.5133C922.91 43.5133 924.238 43.1009 925.151 42.1886C926.063 41.2762 926.475 39.9482 926.475 38.3H925.475C925.475 39.794 925.102 40.8227 924.444 41.4814C923.785 42.1402 922.756 42.5133 921.262 42.5133V43.5133ZM926.475 38.3V25.7311H925.475V38.3H926.475ZM926.475 25.7311C926.475 24.0829 926.063 22.7549 925.151 21.8426C924.238 20.9302 922.91 20.5178 921.262 20.5178V21.5178C922.756 21.5178 923.785 21.8909 924.444 22.5497C925.102 23.2084 925.475 24.2371 925.475 25.7311H926.475ZM921.262 20.5178H893.611V21.5178H921.262V20.5178ZM893.111 21.0178V43.0133H894.111V21.0178H893.111ZM972.534 0.593323V0.0933228H972.034V0.593323H972.534ZM995.158 0.593323H995.658V0.0933228H995.158V0.593323ZM1035.38 0.593323V0.0933228H1034.88V0.593323H1035.38ZM1058 0.593323H1058.5V0.0933228H1058V0.593323ZM973.034 82.6053V0.593323H972.034V82.6053H973.034ZM972.534 1.09332H995.158V0.0933228H972.534V1.09332ZM994.658 0.593323V83.8622H995.658V0.593323H994.658ZM994.658 83.8622C994.658 85.5104 995.071 86.8384 995.983 87.7508C996.896 88.6632 998.224 89.0756 999.872 89.0756V88.0756C998.378 88.0756 997.349 87.7024 996.69 87.0437C996.032 86.3849 995.658 85.3563 995.658 83.8622H994.658ZM999.872 89.0756H1030.67V88.0756H999.872V89.0756ZM1030.67 89.0756C1032.31 89.0756 1033.64 88.6632 1034.55 87.7508C1035.47 86.8384 1035.88 85.5104 1035.88 83.8622H1034.88C1034.88 85.3563 1034.51 86.3849 1033.85 87.0437C1033.19 87.7024 1032.16 88.0756 1030.67 88.0756V89.0756ZM1035.88 83.8622V0.593323H1034.88V83.8622H1035.88ZM1035.38 1.09332H1058V0.0933228H1035.38V1.09332ZM1057.5 0.593323V82.6053H1058.5V0.593323H1057.5ZM1057.5 82.6053C1057.5 91.3265 1055.32 97.7755 1051.05 102.048C1046.78 106.32 1040.33 108.5 1031.61 108.5V109.5C1040.48 109.5 1047.23 107.281 1051.76 102.755C1056.28 98.2289 1058.5 91.4806 1058.5 82.6053H1057.5ZM1031.61 108.5H998.929V109.5H1031.61V108.5ZM998.929 108.5C990.208 108.5 983.759 106.32 979.487 102.048C975.214 97.7755 973.034 91.3265 973.034 82.6053H972.034C972.034 91.4806 974.254 98.2289 978.78 102.755C983.306 107.281 990.054 109.5 998.929 109.5V108.5ZM1082.87 109H1082.37V109.5H1082.87V109ZM1082.87 0.593323V0.0933228H1082.37V0.593323H1082.87ZM1107.38 0.593323L1107.81 0.334549L1107.66 0.0933228H1107.38V0.593323ZM1150.43 71.7647L1150 72.0234L1150.93 73.5574V71.7647H1150.43ZM1150.43 0.593323V0.0933228H1149.93V0.593323H1150.43ZM1173.05 0.593323H1173.55V0.0933228H1173.05V0.593323ZM1173.05 109V109.5H1173.55V109H1173.05ZM1148.54 109L1148.12 109.259L1148.26 109.5H1148.54V109ZM1105.5 37.8287L1105.92 37.5699L1105 36.0359V37.8287H1105.5ZM1105.5 109V109.5H1106V109H1105.5ZM1083.37 109V0.593323H1082.37V109H1083.37ZM1082.87 1.09332H1107.38V0.0933228H1082.87V1.09332ZM1106.95 0.852097L1150 72.0234L1150.86 71.5059L1107.81 0.334549L1106.95 0.852097ZM1150.93 71.7647V0.593323H1149.93V71.7647H1150.93ZM1150.43 1.09332H1173.05V0.0933228H1150.43V1.09332ZM1172.55 0.593323V109H1173.55V0.593323H1172.55ZM1173.05 108.5H1148.54V109.5H1173.05V108.5ZM1148.97 108.741L1105.92 37.5699L1105.07 38.0874L1148.12 109.259L1148.97 108.741ZM1105 37.8287V109H1106V37.8287H1105ZM1105.5 108.5H1082.87V109.5H1105.5V108.5ZM1197.79 82.6053V26.988H1196.79V82.6053H1197.79ZM1197.79 26.988C1197.79 18.2668 1199.97 11.8178 1204.25 7.54554C1208.52 3.27327 1214.97 1.09332 1223.69 1.09332V0.0933228C1214.81 0.0933228 1208.06 2.31248 1203.54 6.83844C1199.01 11.3644 1196.79 18.1127 1196.79 26.988H1197.79ZM1223.69 1.09332H1259.51V0.0933228H1223.69V1.09332ZM1259.51 1.09332C1268.23 1.09332 1274.68 3.27327 1278.95 7.54554C1283.22 11.8178 1285.4 18.2668 1285.4 26.988H1286.4C1286.4 18.1127 1284.18 11.3644 1279.66 6.83844C1275.13 2.31248 1268.38 0.0933228 1259.51 0.0933228V1.09332ZM1285.4 26.988V82.6053H1286.4V26.988H1285.4ZM1285.4 82.6053C1285.4 91.3265 1283.22 97.7755 1278.95 102.048C1274.68 106.32 1268.23 108.5 1259.51 108.5V109.5C1268.38 109.5 1275.13 107.281 1279.66 102.755C1284.18 98.2289 1286.4 91.4806 1286.4 82.6053H1285.4ZM1259.51 108.5H1223.69V109.5H1259.51V108.5ZM1223.69 108.5C1214.97 108.5 1208.52 106.32 1204.25 102.048C1199.97 97.7755 1197.79 91.3265 1197.79 82.6053H1196.79C1196.79 91.4806 1199.01 98.2289 1203.54 102.755C1208.06 107.281 1214.81 109.5 1223.69 109.5V108.5ZM1219.42 83.8622C1219.42 85.5104 1219.83 86.8384 1220.74 87.7508C1221.65 88.6632 1222.98 89.0756 1224.63 89.0756V88.0756C1223.14 88.0756 1222.11 87.7024 1221.45 87.0437C1220.79 86.3849 1220.42 85.3563 1220.42 83.8622H1219.42ZM1224.63 89.0756H1258.57V88.0756H1224.63V89.0756ZM1258.57 89.0756C1260.21 89.0756 1261.54 88.6632 1262.45 87.7508C1263.37 86.8384 1263.78 85.5104 1263.78 83.8622H1262.78C1262.78 85.3563 1262.41 86.3849 1261.75 87.0437C1261.09 87.7024 1260.06 88.0756 1258.57 88.0756V89.0756ZM1263.78 83.8622V25.7311H1262.78V83.8622H1263.78ZM1263.78 25.7311C1263.78 24.0829 1263.37 22.7549 1262.45 21.8426C1261.54 20.9302 1260.21 20.5178 1258.57 20.5178V21.5178C1260.06 21.5178 1261.09 21.8909 1261.75 22.5497C1262.41 23.2084 1262.78 24.2371 1262.78 25.7311H1263.78ZM1258.57 20.5178H1224.63V21.5178H1258.57V20.5178ZM1224.63 20.5178C1222.98 20.5178 1221.65 20.9302 1220.74 21.8426C1219.83 22.7549 1219.42 24.0829 1219.42 25.7311H1220.42C1220.42 24.2371 1220.79 23.2084 1221.45 22.5497C1222.11 21.8909 1223.14 21.5178 1224.63 21.5178V20.5178ZM1219.42 25.7311V83.8622H1220.42V25.7311H1219.42ZM1310.1 109H1309.6V109.5H1310.1V109ZM1310.1 0.593323V0.0933228H1309.6V0.593323H1310.1ZM1374.67 69.408L1374.51 68.9337L1373.96 69.1173L1374.23 69.6348L1374.67 69.408ZM1392.43 104.287L1392.86 104.533L1392.99 104.299L1392.87 104.06L1392.43 104.287ZM1389.76 109V109.5H1390.05L1390.19 109.247L1389.76 109ZM1370.27 109L1369.83 109.227L1369.97 109.5H1370.27V109ZM1351.11 71.2933L1351.55 71.0668L1351.41 70.7933H1351.11V71.2933ZM1332.72 71.2933V70.7933H1332.22V71.2933H1332.72ZM1332.72 109V109.5H1333.22V109H1332.72ZM1332.72 50.8689H1332.22V51.3689H1332.72V50.8689ZM1332.72 21.0178V20.5178H1332.22V21.0178H1332.72ZM1310.6 109V0.593323H1309.6V109H1310.6ZM1310.1 1.09332H1362.89V0.0933228H1310.1V1.09332ZM1362.89 1.09332C1371.61 1.09332 1378.06 3.27327 1382.33 7.54554C1386.6 11.8178 1388.78 18.2668 1388.78 26.988H1389.78C1389.78 18.1127 1387.56 11.3644 1383.04 6.83844C1378.51 2.31248 1371.76 0.0933228 1362.89 0.0933228V1.09332ZM1388.78 26.988V44.8987H1389.78V26.988H1388.78ZM1388.78 44.8987C1388.78 51.3874 1387.58 56.6058 1385.2 60.5894C1382.83 64.5628 1379.28 67.3448 1374.51 68.9337L1374.83 69.8823C1379.81 68.2242 1383.56 65.2978 1386.06 61.1015C1388.56 56.9153 1389.78 51.5026 1389.78 44.8987H1388.78ZM1374.23 69.6348L1391.98 104.513L1392.87 104.06L1375.12 69.1812L1374.23 69.6348ZM1391.99 104.04L1389.32 108.753L1390.19 109.247L1392.86 104.533L1391.99 104.04ZM1389.76 108.5H1370.27V109.5H1389.76V108.5ZM1370.72 108.773L1351.55 71.0668L1350.66 71.5199L1369.83 109.227L1370.72 108.773ZM1351.11 70.7933H1332.72V71.7933H1351.11V70.7933ZM1332.22 71.2933V109H1333.22V71.2933H1332.22ZM1332.72 108.5H1310.1V109.5H1332.72V108.5ZM1332.72 51.3689H1361.95V50.3689H1332.72V51.3689ZM1361.95 51.3689C1363.59 51.3689 1364.92 50.9565 1365.84 50.0441C1366.75 49.1317 1367.16 47.8037 1367.16 46.1556H1366.16C1366.16 47.6496 1365.79 48.6783 1365.13 49.337C1364.47 49.9957 1363.44 50.3689 1361.95 50.3689V51.3689ZM1367.16 46.1556V25.7311H1366.16V46.1556H1367.16ZM1367.16 25.7311C1367.16 24.0829 1366.75 22.7549 1365.84 21.8426C1364.92 20.9302 1363.59 20.5178 1361.95 20.5178V21.5178C1363.44 21.5178 1364.47 21.8909 1365.13 22.5497C1365.79 23.2084 1366.16 24.2371 1366.16 25.7311H1367.16ZM1361.95 20.5178H1332.72V21.5178H1361.95V20.5178ZM1332.22 21.0178V50.8689H1333.22V21.0178H1332.22ZM1409.31 109H1408.81V109.5H1409.31V109ZM1409.31 86.5331V86.0331H1408.81V86.5331H1409.31ZM1432.72 86.5331H1433.22V86.0331H1432.72V86.5331ZM1432.72 109V109.5H1433.22V109H1432.72ZM1409.81 109V86.5331H1408.81V109H1409.81ZM1409.31 87.0331H1432.72V86.0331H1409.31V87.0331ZM1432.22 86.5331V109H1433.22V86.5331H1432.22ZM1432.72 108.5H1409.31V109.5H1432.72V108.5ZM1455.7 109H1455.2V109.5H1455.7V109ZM1455.7 0.593323V0.0933228H1455.2V0.593323H1455.7ZM1529.86 0.593323H1530.36V0.0933228H1529.86V0.593323ZM1529.86 21.0178V21.5178H1530.36V21.0178H1529.86ZM1478.33 21.0178V20.5178H1477.83V21.0178H1478.33ZM1478.33 47.7267H1477.83V48.2267H1478.33V47.7267ZM1525.15 47.7267H1525.65V47.2267H1525.15V47.7267ZM1525.15 68.1511V68.6511H1525.65V68.1511H1525.15ZM1478.33 68.1511V67.6511H1477.83V68.1511H1478.33ZM1478.33 109V109.5H1478.83V109H1478.33ZM1456.2 109V0.593323H1455.2V109H1456.2ZM1455.7 1.09332H1529.86V0.0933228H1455.7V1.09332ZM1529.36 0.593323V21.0178H1530.36V0.593323H1529.36ZM1529.86 20.5178H1478.33V21.5178H1529.86V20.5178ZM1477.83 21.0178V47.7267H1478.83V21.0178H1477.83ZM1478.33 48.2267H1525.15V47.2267H1478.33V48.2267ZM1524.65 47.7267V68.1511H1525.65V47.7267H1524.65ZM1525.15 67.6511H1478.33V68.6511H1525.15V67.6511ZM1477.83 68.1511V109H1478.83V68.1511H1477.83ZM1478.33 108.5H1455.7V109.5H1478.33V108.5ZM1546.51 0.593323V0.0933228H1546.01V0.593323H1546.51ZM1569.14 0.593323H1569.64V0.0933228H1569.14V0.593323ZM1609.36 0.593323V0.0933228H1608.86V0.593323H1609.36ZM1631.98 0.593323H1632.48V0.0933228H1631.98V0.593323ZM1547.01 82.6053V0.593323H1546.01V82.6053H1547.01ZM1546.51 1.09332H1569.14V0.0933228H1546.51V1.09332ZM1568.64 0.593323V83.8622H1569.64V0.593323H1568.64ZM1568.64 83.8622C1568.64 85.5104 1569.05 86.8384 1569.96 87.7508C1570.87 88.6632 1572.2 89.0756 1573.85 89.0756V88.0756C1572.35 88.0756 1571.33 87.7024 1570.67 87.0437C1570.01 86.3849 1569.64 85.3563 1569.64 83.8622H1568.64ZM1573.85 89.0756H1604.64V88.0756H1573.85V89.0756ZM1604.64 89.0756C1606.29 89.0756 1607.62 88.6632 1608.53 87.7508C1609.44 86.8384 1609.86 85.5104 1609.86 83.8622H1608.86C1608.86 85.3563 1608.48 86.3849 1607.82 87.0437C1607.17 87.7024 1606.14 88.0756 1604.64 88.0756V89.0756ZM1609.86 83.8622V0.593323H1608.86V83.8622H1609.86ZM1609.36 1.09332H1631.98V0.0933228H1609.36V1.09332ZM1631.48 0.593323V82.6053H1632.48V0.593323H1631.48ZM1631.48 82.6053C1631.48 91.3265 1629.3 97.7755 1625.03 102.048C1620.76 106.32 1614.31 108.5 1605.59 108.5V109.5C1614.46 109.5 1621.21 107.281 1625.73 102.755C1630.26 98.2289 1632.48 91.4806 1632.48 82.6053H1631.48ZM1605.59 108.5H1572.91V109.5H1605.59V108.5ZM1572.91 108.5C1564.19 108.5 1557.74 106.32 1553.46 102.048C1549.19 97.7755 1547.01 91.3265 1547.01 82.6053H1546.01C1546.01 91.4806 1548.23 98.2289 1552.76 102.755C1557.28 107.281 1564.03 109.5 1572.91 109.5V108.5ZM1656.85 109H1656.35V109.5H1656.85V109ZM1656.85 0.593323V0.0933228H1656.35V0.593323H1656.85ZM1679.47 0.593323H1679.97V0.0933228H1679.47V0.593323ZM1679.47 88.5756H1678.97V89.0756H1679.47V88.5756ZM1726.29 88.5756H1726.79V88.0756H1726.29V88.5756ZM1726.29 109V109.5H1726.79V109H1726.29ZM1657.35 109V0.593323H1656.35V109H1657.35ZM1656.85 1.09332H1679.47V0.0933228H1656.85V1.09332ZM1678.97 0.593323V88.5756H1679.97V0.593323H1678.97ZM1679.47 89.0756H1726.29V88.0756H1679.47V89.0756ZM1725.79 88.5756V109H1726.79V88.5756H1725.79ZM1726.29 108.5H1656.85V109.5H1726.29V108.5ZM1742.92 109H1742.42V109.5H1742.92V109ZM1742.92 0.593323V0.0933228H1742.42V0.593323H1742.92ZM1765.55 0.593323H1766.05V0.0933228H1765.55V0.593323ZM1765.55 88.5756H1765.05V89.0756H1765.55V88.5756ZM1812.37 88.5756H1812.87V88.0756H1812.37V88.5756ZM1812.37 109V109.5H1812.87V109H1812.37ZM1743.42 109V0.593323H1742.42V109H1743.42ZM1742.92 1.09332H1765.55V0.0933228H1742.92V1.09332ZM1765.05 0.593323V88.5756H1766.05V0.593323H1765.05ZM1765.55 89.0756H1812.37V88.0756H1765.55V89.0756ZM1811.87 88.5756V109H1812.87V88.5756H1811.87ZM1812.37 108.5H1742.92V109.5H1812.37V108.5ZM1862.03 100.83H1861.53V101.075L1861.72 101.225L1862.03 100.83ZM1862.03 88.5756V88.0756H1861.53V88.5756H1862.03ZM1911.52 67.3656L1911.42 67.8554L1911.43 67.8575L1911.44 67.8593L1911.52 67.3656ZM1880.88 61.0811L1880.98 60.5913L1880.98 60.5908L1880.88 61.0811ZM1924.4 0.593323L1924.71 0.19833L1924.57 0.0933228H1924.4V0.593323ZM1934.93 8.76311H1935.43V8.51825L1935.23 8.36811L1934.93 8.76311ZM1934.93 21.0178V21.5178H1935.43V21.0178H1934.93ZM1888.58 41.128L1888.68 40.6377L1888.58 41.128ZM1919.21 47.2553L1919.12 47.7456L1919.21 47.2553ZM1872.55 109L1872.25 109.395L1872.38 109.5H1872.55V109ZM1862.53 100.83V88.5756H1861.53V100.83H1862.53ZM1862.03 89.0756H1910.73V88.0756H1862.03V89.0756ZM1910.73 89.0756C1912.38 89.0756 1913.71 88.6632 1914.62 87.7508C1915.53 86.8384 1915.94 85.5104 1915.94 83.8622H1914.94C1914.94 85.3563 1914.57 86.3849 1913.91 87.0437C1913.25 87.7024 1912.22 88.0756 1910.73 88.0756V89.0756ZM1915.94 83.8622V72.5502H1914.94V83.8622H1915.94ZM1915.94 72.5502C1915.94 70.9652 1915.6 69.6538 1914.86 68.674C1914.11 67.6853 1913 67.0969 1911.6 66.8718L1911.44 67.8593C1912.65 68.0532 1913.5 68.5384 1914.06 69.2779C1914.63 70.0263 1914.94 71.0978 1914.94 72.5502H1915.94ZM1911.62 66.8757L1880.98 60.5913L1880.78 61.5709L1911.42 67.8554L1911.62 66.8757ZM1880.98 60.5908C1874.79 59.3526 1870.19 56.6694 1867.14 52.5732C1864.08 48.4703 1862.53 42.8919 1862.53 35.7862H1861.53C1861.53 43.03 1863.11 48.8422 1866.34 53.1709C1869.57 57.5063 1874.4 60.2958 1880.78 61.5714L1880.98 60.5908ZM1862.53 35.7862V26.988H1861.53V35.7862H1862.53ZM1862.53 26.988C1862.53 18.2668 1864.71 11.8178 1868.98 7.54554C1873.25 3.27327 1879.7 1.09332 1888.42 1.09332V0.0933228C1879.55 0.0933228 1872.8 2.31248 1868.27 6.83844C1863.75 11.3644 1861.53 18.1127 1861.53 26.988H1862.53ZM1888.42 1.09332H1924.4V0.0933228H1888.42V1.09332ZM1924.09 0.988316L1934.62 9.1581L1935.23 8.36811L1924.71 0.19833L1924.09 0.988316ZM1934.43 8.76311V21.0178H1935.43V8.76311H1934.43ZM1934.93 20.5178H1889.36V21.5178H1934.93V20.5178ZM1889.36 20.5178C1887.72 20.5178 1886.39 20.9302 1885.48 21.8426C1884.56 22.7549 1884.15 24.0829 1884.15 25.7311H1885.15C1885.15 24.2371 1885.52 23.2084 1886.18 22.5497C1886.84 21.8909 1887.87 21.5178 1889.36 21.5178V20.5178ZM1884.15 25.7311V35.9433H1885.15V25.7311H1884.15ZM1884.15 35.9433C1884.15 37.4807 1884.49 38.7639 1885.23 39.741C1885.98 40.7237 1887.08 41.3383 1888.48 41.6183L1888.68 40.6377C1887.46 40.394 1886.6 39.8826 1886.03 39.1371C1885.46 38.386 1885.15 37.3387 1885.15 35.9433H1884.15ZM1888.48 41.6183L1919.12 47.7456L1919.31 46.765L1888.68 40.6377L1888.48 41.6183ZM1919.12 47.7456C1925.31 48.9838 1929.9 51.667 1932.95 55.7632C1936.01 59.8661 1937.57 65.4445 1937.57 72.5502H1938.57C1938.57 65.3064 1936.98 59.4943 1933.76 55.1656C1930.52 50.8301 1925.69 48.0406 1919.31 46.765L1919.12 47.7456ZM1937.57 72.5502V82.6053H1938.57V72.5502H1937.57ZM1937.57 82.6053C1937.57 91.3265 1935.39 97.7755 1931.12 102.048C1926.84 106.32 1920.39 108.5 1911.67 108.5V109.5C1920.55 109.5 1927.3 107.281 1931.82 102.755C1936.35 98.2289 1938.57 91.4806 1938.57 82.6053H1937.57ZM1911.67 108.5H1872.55V109.5H1911.67V108.5ZM1872.86 108.605L1862.33 100.435L1861.72 101.225L1872.25 109.395L1872.86 108.605ZM1949.99 21.0178H1949.49V21.5178H1949.99V21.0178ZM1949.99 0.593323V0.0933228H1949.49V0.593323H1949.99ZM2038.6 0.593323H2039.1V0.0933228H2038.6V0.593323ZM2038.6 21.0178V21.5178H2039.1V21.0178H2038.6ZM2005.61 21.0178V20.5178H2005.11V21.0178H2005.61ZM2005.61 109V109.5H2006.11V109H2005.61ZM1982.98 109H1982.48V109.5H1982.98V109ZM1982.98 21.0178H1983.48V20.5178H1982.98V21.0178ZM1950.49 21.0178V0.593323H1949.49V21.0178H1950.49ZM1949.99 1.09332H2038.6V0.0933228H1949.99V1.09332ZM2038.1 0.593323V21.0178H2039.1V0.593323H2038.1ZM2038.6 20.5178H2005.61V21.5178H2038.6V20.5178ZM2005.11 21.0178V109H2006.11V21.0178H2005.11ZM2005.61 108.5H1982.98V109.5H2005.61V108.5ZM1983.48 109V21.0178H1982.48V109H1983.48ZM1982.98 20.5178H1949.99V21.5178H1982.98V20.5178ZM2037.42 104.758L2036.95 104.61L2036.88 104.837L2037.01 105.035L2037.42 104.758ZM2069.63 0.593323V0.0933228H2069.26L2069.15 0.445621L2069.63 0.593323ZM2104.2 0.593323L2104.67 0.445621L2104.56 0.0933228H2104.2V0.593323ZM2136.4 104.758L2136.82 105.035L2136.95 104.837L2136.88 104.61L2136.4 104.758ZM2133.58 109V109.5H2133.84L2133.99 109.277L2133.58 109ZM2114.72 109L2114.24 109.144L2114.35 109.5H2114.72V109ZM2108.12 87.0044L2108.6 86.8608L2108.5 86.5044H2108.12V87.0044ZM2065.7 87.0044V86.5044H2065.33L2065.22 86.8608L2065.7 87.0044ZM2059.1 109V109.5H2059.48L2059.58 109.144L2059.1 109ZM2040.25 109L2039.84 109.277L2039.98 109.5H2040.25V109ZM2071.83 66.58L2071.35 66.4348L2071.16 67.08H2071.83V66.58ZM2102 66.58V67.08H2102.67L2102.47 66.4348L2102 66.58ZM2088.17 21.0178L2088.65 20.8726L2088.54 20.5178H2088.17V21.0178ZM2085.66 21.0178V20.5178H2085.29L2085.18 20.8726L2085.66 21.0178ZM2037.9 104.906L2070.11 0.741024L2069.15 0.445621L2036.95 104.61L2037.9 104.906ZM2069.63 1.09332H2104.2V0.0933228H2069.63V1.09332ZM2103.72 0.741024L2135.93 104.906L2136.88 104.61L2104.67 0.445621L2103.72 0.741024ZM2135.99 104.481L2133.16 108.723L2133.99 109.277L2136.82 105.035L2135.99 104.481ZM2133.58 108.5H2114.72V109.5H2133.58V108.5ZM2115.2 108.856L2108.6 86.8608L2107.64 87.1481L2114.24 109.144L2115.2 108.856ZM2108.12 86.5044H2065.7V87.5044H2108.12V86.5044ZM2065.22 86.8608L2058.63 108.856L2059.58 109.144L2066.18 87.1481L2065.22 86.8608ZM2059.1 108.5H2040.25V109.5H2059.1V108.5ZM2040.67 108.723L2037.84 104.481L2037.01 105.035L2039.84 109.277L2040.67 108.723ZM2071.83 67.08H2102V66.08H2071.83V67.08ZM2102.47 66.4348L2088.65 20.8726L2087.69 21.163L2101.52 66.7252L2102.47 66.4348ZM2088.17 20.5178H2085.66V21.5178H2088.17V20.5178ZM2085.18 20.8726L2071.35 66.4348L2072.31 66.7252L2086.14 21.163L2085.18 20.8726ZM2218.89 0.593323L2219.2 0.19833L2219.06 0.0933228H2218.89V0.593323ZM2229.42 8.76311H2229.92V8.51825L2229.72 8.36811L2229.42 8.76311ZM2229.42 21.0178V21.5178H2229.92V21.0178H2229.42ZM2229.42 88.5756H2229.92V88.0756H2229.42V88.5756ZM2229.42 100.83L2229.72 101.225L2229.92 101.075V100.83H2229.42ZM2218.89 109V109.5H2219.06L2219.2 109.395L2218.89 109ZM2151.05 82.6053V26.988H2150.05V82.6053H2151.05ZM2151.05 26.988C2151.05 18.2668 2153.23 11.8178 2157.5 7.54554C2161.77 3.27327 2168.22 1.09332 2176.94 1.09332V0.0933228C2168.07 0.0933228 2161.32 2.31248 2156.79 6.83844C2152.27 11.3644 2150.05 18.1127 2150.05 26.988H2151.05ZM2176.94 1.09332H2218.89V0.0933228H2176.94V1.09332ZM2218.58 0.988316L2229.11 9.1581L2229.72 8.36811L2219.2 0.19833L2218.58 0.988316ZM2228.92 8.76311V21.0178H2229.92V8.76311H2228.92ZM2229.42 20.5178H2177.88V21.5178H2229.42V20.5178ZM2177.88 20.5178C2176.24 20.5178 2174.91 20.9302 2173.99 21.8426C2173.08 22.7549 2172.67 24.0829 2172.67 25.7311H2173.67C2173.67 24.2371 2174.04 23.2084 2174.7 22.5497C2175.36 21.8909 2176.39 21.5178 2177.88 21.5178V20.5178ZM2172.67 25.7311V83.8622H2173.67V25.7311H2172.67ZM2172.67 83.8622C2172.67 85.5104 2173.08 86.8384 2173.99 87.7508C2174.91 88.6632 2176.24 89.0756 2177.88 89.0756V88.0756C2176.39 88.0756 2175.36 87.7024 2174.7 87.0437C2174.04 86.3849 2173.67 85.3563 2173.67 83.8622H2172.67ZM2177.88 89.0756H2229.42V88.0756H2177.88V89.0756ZM2228.92 88.5756V100.83H2229.92V88.5756H2228.92ZM2229.11 100.435L2218.58 108.605L2219.2 109.395L2229.72 101.225L2229.11 100.435ZM2218.89 108.5H2176.94V109.5H2218.89V108.5ZM2176.94 108.5C2168.22 108.5 2161.77 106.32 2157.5 102.048C2153.23 97.7755 2151.05 91.3265 2151.05 82.6053H2150.05C2150.05 91.4806 2152.27 98.2289 2156.79 102.755C2161.32 107.281 2168.07 109.5 2176.94 109.5V108.5ZM2250.16 109H2249.66V109.5H2250.16V109ZM2250.16 0.593323V0.0933228H2249.66V0.593323H2250.16ZM2272.78 0.593323H2273.28V0.0933228H2272.78V0.593323ZM2272.78 43.4847H2272.28V44.7944L2273.16 43.8179L2272.78 43.4847ZM2311.12 0.593323V0.0933228H2310.89L2310.74 0.260124L2311.12 0.593323ZM2332.33 0.593323L2332.78 0.375946L2332.64 0.0933228H2332.33V0.593323ZM2334.53 5.14955L2334.9 5.48363L2335.12 5.23415L2334.98 4.93218L2334.53 5.14955ZM2298.55 45.2129L2298.18 44.8788L2297.92 45.1689L2298.13 45.4923L2298.55 45.2129ZM2338.45 104.444L2338.91 104.648L2339.02 104.395L2338.87 104.164L2338.45 104.444ZM2336.41 109V109.5H2336.74L2336.87 109.205L2336.41 109ZM2315.52 109L2315.1 109.277L2315.25 109.5H2315.52V109ZM2283.94 61.5524L2284.35 61.2754L2284 60.7458L2283.57 61.2135L2283.94 61.5524ZM2272.78 73.65L2272.41 73.3111L2272.28 73.4547V73.65H2272.78ZM2272.78 109V109.5H2273.28V109H2272.78ZM2250.66 109V0.593323H2249.66V109H2250.66ZM2250.16 1.09332H2272.78V0.0933228H2250.16V1.09332ZM2272.28 0.593323V43.4847H2273.28V0.593323H2272.28ZM2273.16 43.8179L2311.49 0.926521L2310.74 0.260124L2272.41 43.1515L2273.16 43.8179ZM2311.12 1.09332H2332.33V0.0933228H2311.12V1.09332ZM2331.88 0.810696L2334.08 5.36692L2334.98 4.93218L2332.78 0.375946L2331.88 0.810696ZM2334.16 4.81547L2298.18 44.8788L2298.92 45.547L2334.9 5.48363L2334.16 4.81547ZM2298.13 45.4923L2338.04 104.723L2338.87 104.164L2298.96 44.9335L2298.13 45.4923ZM2338 104.239L2335.96 108.795L2336.87 109.205L2338.91 104.648L2338 104.239ZM2336.41 108.5H2315.52V109.5H2336.41V108.5ZM2315.93 108.723L2284.35 61.2754L2283.52 61.8295L2315.1 109.277L2315.93 108.723ZM2283.57 61.2135L2272.41 73.3111L2273.15 73.9889L2284.3 61.8914L2283.57 61.2135ZM2272.28 73.65V109H2273.28V73.65H2272.28ZM2272.78 108.5H2250.16V109.5H2272.78V108.5ZM2393.46 109H2392.96V109.5H2393.46V109ZM2393.46 0.593323V0.0933228H2392.96V0.593323H2393.46ZM2416.08 88.5756H2415.58V89.0756H2416.08V88.5756ZM2416.08 21.0178V20.5178H2415.58V21.0178H2416.08ZM2393.96 109V0.593323H2392.96V109H2393.96ZM2393.46 1.09332H2434.62V0.0933228H2393.46V1.09332ZM2434.62 1.09332C2449.32 1.09332 2460.24 4.76583 2467.5 12.0232C2474.76 19.2806 2478.43 30.2073 2478.43 44.8987H2479.43C2479.43 30.0531 2475.72 18.8272 2468.21 11.3161C2460.7 3.80504 2449.47 0.0933228 2434.62 0.0933228V1.09332ZM2478.43 44.8987V64.6947H2479.43V44.8987H2478.43ZM2478.43 64.6947C2478.43 79.386 2474.76 90.3127 2467.5 97.5701C2460.24 104.827 2449.32 108.5 2434.62 108.5V109.5C2449.47 109.5 2460.7 105.788 2468.21 98.2772C2475.72 90.7662 2479.43 79.5402 2479.43 64.6947H2478.43ZM2434.62 108.5H2393.46V109.5H2434.62V108.5ZM2416.08 89.0756H2435.88V88.0756H2416.08V89.0756ZM2435.88 89.0756C2442.77 89.0756 2448.02 87.3539 2451.55 83.823C2455.08 80.2921 2456.81 75.0363 2456.81 68.1511H2455.81C2455.81 74.8822 2454.12 79.8387 2450.85 83.1159C2447.57 86.3931 2442.61 88.0756 2435.88 88.0756V89.0756ZM2456.81 68.1511V41.4422H2455.81V68.1511H2456.81ZM2456.81 41.4422C2456.81 34.557 2455.08 29.3012 2451.55 25.7703C2448.02 22.2394 2442.77 20.5178 2435.88 20.5178V21.5178C2442.61 21.5178 2447.57 23.2002 2450.85 26.4774C2454.12 29.7547 2455.81 34.7111 2455.81 41.4422H2456.81ZM2435.88 20.5178H2416.08V21.5178H2435.88V20.5178ZM2415.58 21.0178V88.5756H2416.58V21.0178H2415.58ZM2501.63 109H2501.13V109.5H2501.63V109ZM2501.63 0.593323V0.0933228H2501.13V0.593323H2501.63ZM2575.78 0.593323H2576.28V0.0933228H2575.78V0.593323ZM2575.78 21.0178V21.5178H2576.28V21.0178H2575.78ZM2524.25 21.0178V20.5178H2523.75V21.0178H2524.25ZM2524.25 43.0133H2523.75V43.5133H2524.25V43.0133ZM2571.07 43.0133H2571.57V42.5133H2571.07V43.0133ZM2571.07 63.4378V63.9378H2571.57V63.4378H2571.07ZM2524.25 63.4378V62.9378H2523.75V63.4378H2524.25ZM2524.25 88.5756H2523.75V89.0756H2524.25V88.5756ZM2575.78 88.5756H2576.28V88.0756H2575.78V88.5756ZM2575.78 109V109.5H2576.28V109H2575.78ZM2502.13 109V0.593323H2501.13V109H2502.13ZM2501.63 1.09332H2575.78V0.0933228H2501.63V1.09332ZM2575.28 0.593323V21.0178H2576.28V0.593323H2575.28ZM2575.78 20.5178H2524.25V21.5178H2575.78V20.5178ZM2523.75 21.0178V43.0133H2524.75V21.0178H2523.75ZM2524.25 43.5133H2571.07V42.5133H2524.25V43.5133ZM2570.57 43.0133V63.4378H2571.57V43.0133H2570.57ZM2571.07 62.9378H2524.25V63.9378H2571.07V62.9378ZM2523.75 63.4378V88.5756H2524.75V63.4378H2523.75ZM2524.25 89.0756H2575.78V88.0756H2524.25V89.0756ZM2575.28 88.5756V109H2576.28V88.5756H2575.28ZM2575.78 108.5H2501.63V109.5H2575.78V108.5ZM2586.39 4.83532L2585.98 4.55797L2585.85 4.75267L2585.91 4.97707L2586.39 4.83532ZM2589.22 0.593323V0.0933228H2588.95L2588.8 0.315971L2589.22 0.593323ZM2609.17 0.593323L2609.65 0.458347L2609.55 0.0933228H2609.17V0.593323ZM2633.84 88.5756L2633.36 88.7105L2633.46 89.0756H2633.84V88.5756ZM2636.35 88.5756V89.0756H2636.73L2636.83 88.7113L2636.35 88.5756ZM2661.18 0.593323V0.0933228H2660.8L2660.7 0.45755L2661.18 0.593323ZM2680.97 0.593323L2681.39 0.315971L2681.24 0.0933228H2680.97V0.593323ZM2683.8 4.83532L2684.28 4.97707L2684.35 4.75267L2684.22 4.55797L2683.8 4.83532ZM2653.01 109V109.5H2653.38L2653.49 109.142L2653.01 109ZM2617.19 109L2616.71 109.142L2616.81 109.5H2617.19V109ZM2586.81 5.11267L2589.64 0.87067L2588.8 0.315971L2585.98 4.55797L2586.81 5.11267ZM2589.22 1.09332H2609.17V0.0933228H2589.22V1.09332ZM2608.69 0.728298L2633.36 88.7105L2634.32 88.4406L2609.65 0.458347L2608.69 0.728298ZM2633.84 89.0756H2636.35V88.0756H2633.84V89.0756ZM2636.83 88.7113L2661.66 0.729092L2660.7 0.45755L2635.87 88.4398L2636.83 88.7113ZM2661.18 1.09332H2680.97V0.0933228H2661.18V1.09332ZM2680.56 0.87067L2683.38 5.11267L2684.22 4.55797L2681.39 0.315971L2680.56 0.87067ZM2683.32 4.69358L2652.53 108.858L2653.49 109.142L2684.28 4.97707L2683.32 4.69358ZM2653.01 108.5H2617.19V109.5H2653.01V108.5ZM2617.67 108.858L2586.87 4.69358L2585.91 4.97707L2616.71 109.142L2617.67 108.858ZM2699.55 109H2699.05V109.5H2699.55V109ZM2699.55 0.593323V0.0933228H2699.05V0.593323H2699.55ZM2773.71 0.593323H2774.21V0.0933228H2773.71V0.593323ZM2773.71 21.0178V21.5178H2774.21V21.0178H2773.71ZM2722.18 21.0178V20.5178H2721.68V21.0178H2722.18ZM2722.18 43.0133H2721.68V43.5133H2722.18V43.0133ZM2768.99 43.0133H2769.49V42.5133H2768.99V43.0133ZM2768.99 63.4378V63.9378H2769.49V63.4378H2768.99ZM2722.18 63.4378V62.9378H2721.68V63.4378H2722.18ZM2722.18 88.5756H2721.68V89.0756H2722.18V88.5756ZM2773.71 88.5756H2774.21V88.0756H2773.71V88.5756ZM2773.71 109V109.5H2774.21V109H2773.71ZM2700.05 109V0.593323H2699.05V109H2700.05ZM2699.55 1.09332H2773.71V0.0933228H2699.55V1.09332ZM2773.21 0.593323V21.0178H2774.21V0.593323H2773.21ZM2773.71 20.5178H2722.18V21.5178H2773.71V20.5178ZM2721.68 21.0178V43.0133H2722.68V21.0178H2721.68ZM2722.18 43.5133H2768.99V42.5133H2722.18V43.5133ZM2768.49 43.0133V63.4378H2769.49V43.0133H2768.49ZM2768.99 62.9378H2722.18V63.9378H2768.99V62.9378ZM2721.68 63.4378V88.5756H2722.68V63.4378H2721.68ZM2722.18 89.0756H2773.71V88.0756H2722.18V89.0756ZM2773.21 88.5756V109H2774.21V88.5756H2773.21ZM2773.71 108.5H2699.55V109.5H2773.71V108.5ZM2794.37 109H2793.87V109.5H2794.37V109ZM2794.37 0.593323V0.0933228H2793.87V0.593323H2794.37ZM2816.99 0.593323H2817.49V0.0933228H2816.99V0.593323ZM2816.99 88.5756H2816.49V89.0756H2816.99V88.5756ZM2863.81 88.5756H2864.31V88.0756H2863.81V88.5756ZM2863.81 109V109.5H2864.31V109H2863.81ZM2794.87 109V0.593323H2793.87V109H2794.87ZM2794.37 1.09332H2816.99V0.0933228H2794.37V1.09332ZM2816.49 0.593323V88.5756H2817.49V0.593323H2816.49ZM2816.99 89.0756H2863.81V88.0756H2816.99V89.0756ZM2863.31 88.5756V109H2864.31V88.5756H2863.31ZM2863.81 108.5H2794.37V109.5H2863.81V108.5ZM2879.37 82.6053V26.988H2878.37V82.6053H2879.37ZM2879.37 26.988C2879.37 18.2668 2881.55 11.8178 2885.82 7.54554C2890.1 3.27327 2896.55 1.09332 2905.27 1.09332V0.0933228C2896.39 0.0933228 2889.64 2.31248 2885.12 6.83844C2880.59 11.3644 2878.37 18.1127 2878.37 26.988H2879.37ZM2905.27 1.09332H2941.09V0.0933228H2905.27V1.09332ZM2941.09 1.09332C2949.81 1.09332 2956.26 3.27327 2960.53 7.54554C2964.8 11.8178 2966.98 18.2668 2966.98 26.988H2967.98C2967.98 18.1127 2965.76 11.3644 2961.24 6.83844C2956.71 2.31248 2949.96 0.0933228 2941.09 0.0933228V1.09332ZM2966.98 26.988V82.6053H2967.98V26.988H2966.98ZM2966.98 82.6053C2966.98 91.3265 2964.8 97.7755 2960.53 102.048C2956.26 106.32 2949.81 108.5 2941.09 108.5V109.5C2949.96 109.5 2956.71 107.281 2961.24 102.755C2965.76 98.2289 2967.98 91.4806 2967.98 82.6053H2966.98ZM2941.09 108.5H2905.27V109.5H2941.09V108.5ZM2905.27 108.5C2896.55 108.5 2890.1 106.32 2885.82 102.048C2881.55 97.7755 2879.37 91.3265 2879.37 82.6053H2878.37C2878.37 91.4806 2880.59 98.2289 2885.12 102.755C2889.64 107.281 2896.39 109.5 2905.27 109.5V108.5ZM2901 83.8622C2901 85.5104 2901.41 86.8384 2902.32 87.7508C2903.23 88.6632 2904.56 89.0756 2906.21 89.0756V88.0756C2904.72 88.0756 2903.69 87.7024 2903.03 87.0437C2902.37 86.3849 2902 85.3563 2902 83.8622H2901ZM2906.21 89.0756H2940.15V88.0756H2906.21V89.0756ZM2940.15 89.0756C2941.79 89.0756 2943.12 88.6632 2944.03 87.7508C2944.95 86.8384 2945.36 85.5104 2945.36 83.8622H2944.36C2944.36 85.3563 2943.99 86.3849 2943.33 87.0437C2942.67 87.7024 2941.64 88.0756 2940.15 88.0756V89.0756ZM2945.36 83.8622V25.7311H2944.36V83.8622H2945.36ZM2945.36 25.7311C2945.36 24.0829 2944.95 22.7549 2944.03 21.8426C2943.12 20.9302 2941.79 20.5178 2940.15 20.5178V21.5178C2941.64 21.5178 2942.67 21.8909 2943.33 22.5497C2943.99 23.2084 2944.36 24.2371 2944.36 25.7311H2945.36ZM2940.15 20.5178H2906.21V21.5178H2940.15V20.5178ZM2906.21 20.5178C2904.56 20.5178 2903.23 20.9302 2902.32 21.8426C2901.41 22.7549 2901 24.0829 2901 25.7311H2902C2902 24.2371 2902.37 23.2084 2903.03 22.5497C2903.69 21.8909 2904.72 21.5178 2906.21 21.5178V20.5178ZM2901 25.7311V83.8622H2902V25.7311H2901ZM2991.68 109H2991.18V109.5H2991.68V109ZM2991.68 0.593323V0.0933228H2991.18V0.593323H2991.68ZM3014.3 74.4356V73.9356H3013.8V74.4356H3014.3ZM3014.3 109V109.5H3014.8V109H3014.3ZM3014.3 54.0111H3013.8V54.5111H3014.3V54.0111ZM3014.3 21.0178V20.5178H3013.8V21.0178H3014.3ZM2992.18 109V0.593323H2991.18V109H2992.18ZM2991.68 1.09332H3044.47V0.0933228H2991.68V1.09332ZM3044.47 1.09332C3053.19 1.09332 3059.64 3.27327 3063.91 7.54554C3068.18 11.8178 3070.36 18.2668 3070.36 26.988H3071.36C3071.36 18.1127 3069.14 11.3644 3064.62 6.83844C3060.09 2.31248 3053.34 0.0933228 3044.47 0.0933228V1.09332ZM3070.36 26.988V48.0409H3071.36V26.988H3070.36ZM3070.36 48.0409C3070.36 56.762 3068.18 63.2111 3063.91 67.4833C3059.64 71.7556 3053.19 73.9356 3044.47 73.9356V74.9356C3053.34 74.9356 3060.09 72.7164 3064.62 68.1904C3069.14 63.6645 3071.36 56.9162 3071.36 48.0409H3070.36ZM3044.47 73.9356H3014.3V74.9356H3044.47V73.9356ZM3013.8 74.4356V109H3014.8V74.4356H3013.8ZM3014.3 108.5H2991.68V109.5H3014.3V108.5ZM3014.3 54.5111H3043.53V53.5111H3014.3V54.5111ZM3043.53 54.5111C3045.17 54.5111 3046.5 54.0987 3047.42 53.1863C3048.33 52.2739 3048.74 50.946 3048.74 49.2978H3047.74C3047.74 50.7918 3047.37 51.8205 3046.71 52.4792C3046.05 53.1379 3045.02 53.5111 3043.53 53.5111V54.5111ZM3048.74 49.2978V25.7311H3047.74V49.2978H3048.74ZM3048.74 25.7311C3048.74 24.0829 3048.33 22.7549 3047.42 21.8426C3046.5 20.9302 3045.17 20.5178 3043.53 20.5178V21.5178C3045.02 21.5178 3046.05 21.8909 3046.71 22.5497C3047.37 23.2084 3047.74 24.2371 3047.74 25.7311H3048.74ZM3043.53 20.5178H3014.3V21.5178H3043.53V20.5178ZM3013.8 21.0178V54.0111H3014.8V21.0178H3013.8ZM3091.87 109H3091.37V109.5H3091.87V109ZM3091.87 0.593323V0.0933228H3091.37V0.593323H3091.87ZM3166.03 0.593323H3166.53V0.0933228H3166.03V0.593323ZM3166.03 21.0178V21.5178H3166.53V21.0178H3166.03ZM3114.49 21.0178V20.5178H3113.99V21.0178H3114.49ZM3114.49 43.0133H3113.99V43.5133H3114.49V43.0133ZM3161.31 43.0133H3161.81V42.5133H3161.31V43.0133ZM3161.31 63.4378V63.9378H3161.81V63.4378H3161.31ZM3114.49 63.4378V62.9378H3113.99V63.4378H3114.49ZM3114.49 88.5756H3113.99V89.0756H3114.49V88.5756ZM3166.03 88.5756H3166.53V88.0756H3166.03V88.5756ZM3166.03 109V109.5H3166.53V109H3166.03ZM3092.37 109V0.593323H3091.37V109H3092.37ZM3091.87 1.09332H3166.03V0.0933228H3091.87V1.09332ZM3165.53 0.593323V21.0178H3166.53V0.593323H3165.53ZM3166.03 20.5178H3114.49V21.5178H3166.03V20.5178ZM3113.99 21.0178V43.0133H3114.99V21.0178H3113.99ZM3114.49 43.5133H3161.31V42.5133H3114.49V43.5133ZM3160.81 43.0133V63.4378H3161.81V43.0133H3160.81ZM3161.31 62.9378H3114.49V63.9378H3161.31V62.9378ZM3113.99 63.4378V88.5756H3114.99V63.4378H3113.99ZM3114.49 89.0756H3166.03V88.0756H3114.49V89.0756ZM3165.53 88.5756V109H3166.53V88.5756H3165.53ZM3166.03 108.5H3091.87V109.5H3166.03V108.5ZM3186.69 109H3186.19V109.5H3186.69V109ZM3186.69 0.593323V0.0933228H3186.19V0.593323H3186.69ZM3251.26 69.408L3251.1 68.9337L3250.55 69.1173L3250.81 69.6348L3251.26 69.408ZM3269.01 104.287L3269.45 104.533L3269.58 104.299L3269.46 104.06L3269.01 104.287ZM3266.34 109V109.5H3266.63L3266.78 109.247L3266.34 109ZM3246.86 109L3246.42 109.227L3246.55 109.5H3246.86V109ZM3227.69 71.2933L3228.14 71.0668L3228 70.7933H3227.69V71.2933ZM3209.31 71.2933V70.7933H3208.81V71.2933H3209.31ZM3209.31 109V109.5H3209.81V109H3209.31ZM3209.31 50.8689H3208.81V51.3689H3209.31V50.8689ZM3209.31 21.0178V20.5178H3208.81V21.0178H3209.31ZM3187.19 109V0.593323H3186.19V109H3187.19ZM3186.69 1.09332H3239.48V0.0933228H3186.69V1.09332ZM3239.48 1.09332C3248.2 1.09332 3254.65 3.27327 3258.92 7.54554C3263.19 11.8178 3265.37 18.2668 3265.37 26.988H3266.37C3266.37 18.1127 3264.15 11.3644 3259.63 6.83844C3255.1 2.31248 3248.35 0.0933228 3239.48 0.0933228V1.09332ZM3265.37 26.988V44.8987H3266.37V26.988H3265.37ZM3265.37 44.8987C3265.37 51.3874 3264.16 56.6058 3261.79 60.5894C3259.42 64.5628 3255.87 67.3448 3251.1 68.9337L3251.42 69.8823C3256.39 68.2242 3260.15 65.2978 3262.65 61.1015C3265.14 56.9153 3266.37 51.5026 3266.37 44.8987H3265.37ZM3250.81 69.6348L3268.57 104.513L3269.46 104.06L3251.71 69.1812L3250.81 69.6348ZM3268.58 104.04L3265.91 108.753L3266.78 109.247L3269.45 104.533L3268.58 104.04ZM3266.34 108.5H3246.86V109.5H3266.34V108.5ZM3247.31 108.773L3228.14 71.0668L3227.25 71.5199L3246.42 109.227L3247.31 108.773ZM3227.69 70.7933H3209.31V71.7933H3227.69V70.7933ZM3208.81 71.2933V109H3209.81V71.2933H3208.81ZM3209.31 108.5H3186.69V109.5H3209.31V108.5ZM3209.31 51.3689H3238.53V50.3689H3209.31V51.3689ZM3238.53 51.3689C3240.18 51.3689 3241.51 50.9565 3242.42 50.0441C3243.34 49.1317 3243.75 47.8037 3243.75 46.1556H3242.75C3242.75 47.6496 3242.37 48.6783 3241.72 49.337C3241.06 49.9957 3240.03 50.3689 3238.53 50.3689V51.3689ZM3243.75 46.1556V25.7311H3242.75V46.1556H3243.75ZM3243.75 25.7311C3243.75 24.0829 3243.34 22.7549 3242.42 21.8426C3241.51 20.9302 3240.18 20.5178 3238.53 20.5178V21.5178C3240.03 21.5178 3241.06 21.8909 3241.72 22.5497C3242.37 23.2084 3242.75 24.2371 3242.75 25.7311H3243.75ZM3238.53 20.5178H3209.31V21.5178H3238.53V20.5178ZM3208.81 21.0178V50.8689H3209.81V21.0178H3208.81Z" fill="black"/>
</svg>
