<svg width="1440" height="109" viewBox="0 0 1440 109" fill="none" xmlns="http://www.w3.org/2000/svg">
<path opacity="0.2" d="M-420.117 109H-420.417V109.3H-420.117V109ZM-420.117 0.593323V0.293324H-420.417V0.593323H-420.117ZM-345.96 0.593323H-345.66V0.293324H-345.96V0.593323ZM-345.96 21.0178V21.3178H-345.66V21.0178H-345.96ZM-397.493 21.0178V20.7178H-397.793V21.0178H-397.493ZM-397.493 43.0133H-397.793V43.3133H-397.493V43.0133ZM-350.674 43.0133H-350.374V42.7133H-350.674V43.0133ZM-350.674 63.4378V63.7378H-350.374V63.4378H-350.674ZM-397.493 63.4378V63.1378H-397.793V63.4378H-397.493ZM-397.493 88.5756H-397.793V88.8756H-397.493V88.5756ZM-345.96 88.5756H-345.66V88.2756H-345.96V88.5756ZM-345.96 109V109.3H-345.66V109H-345.96ZM-419.817 109V0.593323H-420.417V109H-419.817ZM-420.117 0.893322H-345.96V0.293324H-420.117V0.893322ZM-346.26 0.593323V21.0178H-345.66V0.593323H-346.26ZM-345.96 20.7178H-397.493V21.3178H-345.96V20.7178ZM-397.793 21.0178V43.0133H-397.193V21.0178H-397.793ZM-397.493 43.3133H-350.674V42.7133H-397.493V43.3133ZM-350.974 43.0133V63.4378H-350.374V43.0133H-350.974ZM-350.674 63.1378H-397.493V63.7378H-350.674V63.1378ZM-397.793 63.4378V88.5756H-397.193V63.4378H-397.793ZM-397.493 88.8756H-345.96V88.2756H-397.493V88.8756ZM-346.26 88.5756V109H-345.66V88.5756H-346.26ZM-345.96 108.7H-420.117V109.3H-345.96V108.7ZM-325.298 109H-325.598V109.3H-325.298V109ZM-325.298 0.593323V0.293324H-325.598V0.593323H-325.298ZM-298.275 0.593323L-298.003 0.466026L-298.084 0.293324H-298.275V0.593323ZM-267.795 65.6373L-268.067 65.7646L-267.795 66.3443L-267.524 65.7646L-267.795 65.6373ZM-237.316 0.593323V0.293324H-237.506L-237.587 0.466026L-237.316 0.593323ZM-210.293 0.593323H-209.993V0.293324H-210.293V0.593323ZM-210.293 109V109.3H-209.993V109H-210.293ZM-232.917 109H-233.217V109.3H-232.917V109ZM-232.917 40.4995H-232.617L-233.188 40.3723L-232.917 40.4995ZM-258.369 94.86V95.16H-258.178L-258.097 94.9872L-258.369 94.86ZM-277.222 94.86L-277.494 94.9872L-277.413 95.16H-277.222V94.86ZM-302.674 40.4995L-302.402 40.3723L-302.974 40.4995H-302.674ZM-302.674 109V109.3H-302.374V109H-302.674ZM-324.998 109V0.593323H-325.598V109H-324.998ZM-325.298 0.893322H-298.275V0.293324H-325.298V0.893322ZM-298.546 0.720619L-268.067 65.7646L-267.524 65.51L-298.003 0.466026L-298.546 0.720619ZM-267.524 65.7646L-237.044 0.720619L-237.587 0.466026L-268.067 65.51L-267.524 65.7646ZM-237.316 0.893322H-210.293V0.293324H-237.316V0.893322ZM-210.593 0.593323V109H-209.993V0.593323H-210.593ZM-210.293 108.7H-232.917V109.3H-210.293V108.7ZM-232.617 109V40.4995H-233.217V109H-232.617ZM-233.188 40.3723L-258.64 94.7328L-258.097 94.9872L-232.645 40.6268L-233.188 40.3723ZM-258.369 94.56H-277.222V95.16H-258.369V94.56ZM-276.95 94.7328L-302.402 40.3723L-302.946 40.6268L-277.494 94.9872L-276.95 94.7328ZM-302.974 40.4995V109H-302.374V40.4995H-302.974ZM-302.674 108.7H-325.298V109.3H-302.674V108.7ZM-184.45 109H-184.75V109.3H-184.45V109ZM-184.45 0.593323V0.293324H-184.75V0.593323H-184.45ZM-157.427 0.593323L-157.155 0.466026L-157.236 0.293324H-157.427V0.593323ZM-126.948 65.6373L-127.219 65.7646L-126.948 66.3443L-126.676 65.7646L-126.948 65.6373ZM-96.468 0.593323V0.293324H-96.6587L-96.7397 0.466026L-96.468 0.593323ZM-69.4449 0.593323H-69.1449V0.293324H-69.4449V0.593323ZM-69.4449 109V109.3H-69.1449V109H-69.4449ZM-92.0689 109H-92.3689V109.3H-92.0689V109ZM-92.0689 40.4995H-91.7689L-92.3406 40.3723L-92.0689 40.4995ZM-117.521 94.86V95.16H-117.33L-117.249 94.9872L-117.521 94.86ZM-136.374 94.86L-136.646 94.9872L-136.565 95.16H-136.374V94.86ZM-161.826 40.4995L-161.555 40.3723L-162.126 40.4995H-161.826ZM-161.826 109V109.3H-161.526V109H-161.826ZM-184.15 109V0.593323H-184.75V109H-184.15ZM-184.45 0.893322H-157.427V0.293324H-184.45V0.893322ZM-157.699 0.720619L-127.219 65.7646L-126.676 65.51L-157.155 0.466026L-157.699 0.720619ZM-126.676 65.7646L-96.1964 0.720619L-96.7397 0.466026L-127.219 65.51L-126.676 65.7646ZM-96.468 0.893322H-69.4449V0.293324H-96.468V0.893322ZM-69.7449 0.593323V109H-69.1449V0.593323H-69.7449ZM-69.4449 108.7H-92.0689V109.3H-69.4449V108.7ZM-91.7689 109V40.4995H-92.3689V109H-91.7689ZM-92.3406 40.3723L-117.793 94.7328L-117.249 94.9872L-91.7972 40.6268L-92.3406 40.3723ZM-117.521 94.56H-136.374V95.16H-117.521V94.56ZM-136.103 94.7328L-161.555 40.3723L-162.098 40.6268L-136.646 94.9872L-136.103 94.7328ZM-162.126 40.4995V109H-161.526V40.4995H-162.126ZM-161.826 108.7H-184.45V109.3H-161.826V108.7ZM-53.6577 104.758L-53.9443 104.669L-53.9864 104.806L-53.9073 104.924L-53.6577 104.758ZM-21.4499 0.593323V0.293324H-21.6711L-21.7365 0.5047L-21.4499 0.593323ZM13.1146 0.593323L13.4012 0.5047L13.3358 0.293324H13.1146V0.593323ZM45.3224 104.758L45.572 104.924L45.6511 104.806L45.6089 104.669L45.3224 104.758ZM42.4944 109V109.3H42.6549L42.744 109.166L42.4944 109ZM23.641 109L23.3537 109.086L23.4178 109.3H23.641V109ZM17.0424 87.0044L17.3297 86.9182L17.2656 86.7044H17.0424V87.0044ZM-25.3777 87.0044V86.7044H-25.6009L-25.665 86.9182L-25.3777 87.0044ZM-31.9763 109V109.3H-31.7531L-31.689 109.086L-31.9763 109ZM-50.8297 109L-51.0793 109.166L-50.9902 109.3H-50.8297V109ZM-19.2503 66.58L-19.5374 66.4929L-19.6549 66.88H-19.2503V66.58ZM10.915 66.58V66.88H11.3195L11.2021 66.4929L10.915 66.58ZM-2.91077 21.0178L-2.62369 20.9307L-2.68829 20.7178H-2.91077V21.0178ZM-5.42453 21.0178V20.7178H-5.647L-5.71161 20.9307L-5.42453 21.0178ZM-53.371 104.847L-21.1633 0.681942L-21.7365 0.5047L-53.9443 104.669L-53.371 104.847ZM-21.4499 0.893322H13.1146V0.293324H-21.4499V0.893322ZM12.828 0.681942L45.0357 104.847L45.6089 104.669L13.4012 0.5047L12.828 0.681942ZM45.0727 104.592L42.2448 108.834L42.744 109.166L45.572 104.924L45.0727 104.592ZM42.4944 108.7H23.641V109.3H42.4944V108.7ZM23.9284 108.914L17.3297 86.9182L16.755 87.0906L23.3537 109.086L23.9284 108.914ZM17.0424 86.7044H-25.3777V87.3044H17.0424V86.7044ZM-25.665 86.9182L-32.2637 108.914L-31.689 109.086L-25.0903 87.0906L-25.665 86.9182ZM-31.9763 108.7H-50.8297V109.3H-31.9763V108.7ZM-50.58 108.834L-53.4081 104.592L-53.9073 104.924L-51.0793 109.166L-50.58 108.834ZM-19.2503 66.88H10.915V66.28H-19.2503V66.88ZM11.2021 66.4929L-2.62369 20.9307L-3.19785 21.1049L10.6279 66.6671L11.2021 66.4929ZM-2.91077 20.7178H-5.42453V21.3178H-2.91077V20.7178ZM-5.71161 20.9307L-19.5374 66.4929L-18.9633 66.6671L-5.13748 21.1049L-5.71161 20.9307ZM61.0359 109H60.7359V109.3H61.0359V109ZM61.0359 0.593323V0.293324H60.7359V0.593323H61.0359ZM85.5452 0.593323L85.8019 0.438057L85.7144 0.293324H85.5452V0.593323ZM128.594 71.7647L128.337 71.9199L128.894 72.8403V71.7647H128.594ZM128.594 0.593323V0.293324H128.294V0.593323H128.594ZM151.218 0.593323H151.518V0.293324H151.218V0.593323ZM151.218 109V109.3H151.518V109H151.218ZM126.708 109L126.452 109.155L126.539 109.3H126.708V109ZM83.6599 37.8287L83.9166 37.6734L83.3599 36.753V37.8287H83.6599ZM83.6599 109V109.3H83.9599V109H83.6599ZM61.3359 109V0.593323H60.7359V109H61.3359ZM61.0359 0.893322H85.5452V0.293324H61.0359V0.893322ZM85.2885 0.748585L128.337 71.9199L128.85 71.6094L85.8019 0.438057L85.2885 0.748585ZM128.894 71.7647V0.593323H128.294V71.7647H128.894ZM128.594 0.893322H151.218V0.293324H128.594V0.893322ZM150.918 0.593323V109H151.518V0.593323H150.918ZM151.218 108.7H126.708V109.3H151.218V108.7ZM126.965 108.845L83.9166 37.6734L83.4032 37.9839L126.452 109.155L126.965 108.845ZM83.3599 37.8287V109H83.9599V37.8287H83.3599ZM83.6599 108.7H61.0359V109.3H83.6599V108.7ZM176.085 0.593323V0.293324H175.785V0.593323H176.085ZM198.709 0.593323H199.009V0.293324H198.709V0.593323ZM238.93 0.593323V0.293324H238.63V0.593323H238.93ZM261.554 0.593323H261.854V0.293324H261.554V0.593323ZM176.385 82.6053V0.593323H175.785V82.6053H176.385ZM176.085 0.893322H198.709V0.293324H176.085V0.893322ZM198.409 0.593323V83.8622H199.009V0.593323H198.409ZM198.409 83.8622C198.409 85.4796 198.814 86.7477 199.676 87.6094C200.537 88.471 201.805 88.8756 203.423 88.8756V88.2756C201.898 88.2756 200.809 87.8945 200.1 87.1851C199.39 86.4756 199.009 85.3871 199.009 83.8622H198.409ZM203.423 88.8756H234.216V88.2756H203.423V88.8756ZM234.216 88.8756C235.834 88.8756 237.102 88.471 237.964 87.6094C238.825 86.7477 239.23 85.4796 239.23 83.8622H238.63C238.63 85.3871 238.249 86.4756 237.539 87.1851C236.83 87.8945 235.741 88.2756 234.216 88.2756V88.8756ZM239.23 83.8622V0.593323H238.63V83.8622H239.23ZM238.93 0.893322H261.554V0.293324H238.93V0.893322ZM261.254 0.593323V82.6053H261.854V0.593323H261.254ZM261.254 82.6053C261.254 91.3573 259.066 97.8662 254.743 102.189C250.42 106.512 243.911 108.7 235.159 108.7V109.3C244.004 109.3 250.692 107.089 255.167 102.613C259.643 98.1382 261.854 91.4498 261.854 82.6053H261.254ZM235.159 108.7H202.48V109.3H235.159V108.7ZM202.48 108.7C193.728 108.7 187.219 106.512 182.896 102.189C178.573 97.8662 176.385 91.3573 176.385 82.6053H175.785C175.785 91.4498 177.997 98.1382 182.472 102.613C186.947 107.089 193.636 109.3 202.48 109.3V108.7ZM286.423 109H286.123V109.3H286.423V109ZM286.423 0.593323V0.293324H286.123V0.593323H286.423ZM360.579 0.593323H360.879V0.293324H360.579V0.593323ZM360.579 21.0178V21.3178H360.879V21.0178H360.579ZM309.047 21.0178V20.7178H308.747V21.0178H309.047ZM309.047 43.0133H308.747V43.3133H309.047V43.0133ZM355.866 43.0133H356.166V42.7133H355.866V43.0133ZM355.866 63.4378V63.7378H356.166V63.4378H355.866ZM309.047 63.4378V63.1378H308.747V63.4378H309.047ZM309.047 88.5756H308.747V88.8756H309.047V88.5756ZM360.579 88.5756H360.879V88.2756H360.579V88.5756ZM360.579 109V109.3H360.879V109H360.579ZM286.723 109V0.593323H286.123V109H286.723ZM286.423 0.893322H360.579V0.293324H286.423V0.893322ZM360.279 0.593323V21.0178H360.879V0.593323H360.279ZM360.579 20.7178H309.047V21.3178H360.579V20.7178ZM308.747 21.0178V43.0133H309.347V21.0178H308.747ZM309.047 43.3133H355.866V42.7133H309.047V43.3133ZM355.566 43.0133V63.4378H356.166V43.0133H355.566ZM355.866 63.1378H309.047V63.7378H355.866V63.1378ZM308.747 63.4378V88.5756H309.347V63.4378H308.747ZM309.047 88.8756H360.579V88.2756H309.047V88.8756ZM360.279 88.5756V109H360.879V88.5756H360.279ZM360.579 108.7H286.423V109.3H360.579V108.7ZM381.242 109H380.942V109.3H381.242V109ZM381.242 0.593323V0.293324H380.942V0.593323H381.242ZM403.866 0.593323H404.166V0.293324H403.866V0.593323ZM403.866 88.5756H403.566V88.8756H403.866V88.5756ZM450.685 88.5756H450.985V88.2756H450.685V88.5756ZM450.685 109V109.3H450.985V109H450.685ZM381.542 109V0.593323H380.942V109H381.542ZM381.242 0.893322H403.866V0.293324H381.242V0.893322ZM403.566 0.593323V88.5756H404.166V0.593323H403.566ZM403.866 88.8756H450.685V88.2756H403.866V88.8756ZM450.385 88.5756V109H450.985V88.5756H450.385ZM450.685 108.7H381.242V109.3H450.685V108.7ZM464.645 109H464.345V109.3H464.645V109ZM464.645 86.5331V86.2331H464.345V86.5331H464.645ZM488.054 86.5331H488.354V86.2331H488.054V86.5331ZM488.054 109V109.3H488.354V109H488.054ZM464.945 109V86.5331H464.345V109H464.945ZM464.645 86.8331H488.054V86.2331H464.645V86.8331ZM487.754 86.5331V109H488.354V86.5331H487.754ZM488.054 108.7H464.645V109.3H488.054V108.7ZM509.772 82.6053V26.988H509.172V82.6053H509.772ZM509.772 26.988C509.772 18.236 511.959 11.7271 516.282 7.40412C520.605 3.08112 527.114 0.893322 535.866 0.893322V0.293324C527.022 0.293324 520.333 2.50464 515.858 6.97986C511.383 11.4551 509.172 18.1435 509.172 26.988H509.772ZM535.866 0.893322H571.688V0.293324H535.866V0.893322ZM571.688 0.893322C580.44 0.893322 586.948 3.08112 591.271 7.40412C595.594 11.7271 597.782 18.236 597.782 26.988H598.382C598.382 18.1435 596.171 11.4551 591.696 6.97986C587.22 2.50464 580.532 0.293324 571.688 0.293324V0.893322ZM597.782 26.988V82.6053H598.382V26.988H597.782ZM597.782 82.6053C597.782 91.3573 595.594 97.8662 591.271 102.189C586.948 106.512 580.44 108.7 571.688 108.7V109.3C580.532 109.3 587.22 107.089 591.696 102.613C596.171 98.1382 598.382 91.4498 598.382 82.6053H597.782ZM571.688 108.7H535.866V109.3H571.688V108.7ZM535.866 108.7C527.114 108.7 520.605 106.512 516.282 102.189C511.959 97.8662 509.772 91.3573 509.772 82.6053H509.172C509.172 91.4498 511.383 98.1382 515.858 102.613C520.333 107.089 527.022 109.3 535.866 109.3V108.7ZM531.796 83.8622C531.796 85.4796 532.2 86.7477 533.062 87.6094C533.923 88.471 535.192 88.8756 536.809 88.8756V88.2756C535.284 88.2756 534.195 87.8945 533.486 87.1851C532.777 86.4756 532.396 85.3871 532.396 83.8622H531.796ZM536.809 88.8756H570.745V88.2756H536.809V88.8756ZM570.745 88.8756C572.362 88.8756 573.63 88.471 574.492 87.6094C575.354 86.7477 575.758 85.4796 575.758 83.8622H575.158C575.158 85.3871 574.777 86.4756 574.068 87.1851C573.358 87.8945 572.27 88.2756 570.745 88.2756V88.8756ZM575.758 83.8622V25.7311H575.158V83.8622H575.758ZM575.758 25.7311C575.758 24.1138 575.354 22.8456 574.492 21.984C573.63 21.1223 572.362 20.7178 570.745 20.7178V21.3178C572.27 21.3178 573.358 21.6988 574.068 22.4082C574.777 23.1177 575.158 24.2062 575.158 25.7311H575.758ZM570.745 20.7178H536.809V21.3178H570.745V20.7178ZM536.809 20.7178C535.192 20.7178 533.923 21.1223 533.062 21.984C532.2 22.8456 531.796 24.1138 531.796 25.7311H532.396C532.396 24.2062 532.777 23.1177 533.486 22.4082C534.195 21.6988 535.284 21.3178 536.809 21.3178V20.7178ZM531.796 25.7311V83.8622H532.396V25.7311H531.796ZM622.278 109H621.979V109.3H622.278V109ZM622.278 0.593323V0.293324H621.979V0.593323H622.278ZM644.902 0.593323H645.203V0.293324H644.902V0.593323ZM644.902 43.4847H644.603V44.2705L645.126 43.6846L644.902 43.4847ZM683.238 0.593323V0.293324H683.103L683.014 0.393402L683.238 0.593323ZM704.448 0.593323L704.718 0.462898L704.636 0.293324H704.448V0.593323ZM706.647 5.14955L706.87 5.35L707.005 5.20031L706.917 5.01913L706.647 5.14955ZM670.669 45.2129L670.446 45.0124L670.289 45.1865L670.42 45.3805L670.669 45.2129ZM710.575 104.444L710.849 104.566L710.917 104.414L710.824 104.276L710.575 104.444ZM708.532 109V109.3H708.727L708.806 109.123L708.532 109ZM687.637 109L687.387 109.166L687.476 109.3H687.637V109ZM656.057 61.5524L656.307 61.3862L656.096 61.0684L655.837 61.3491L656.057 61.5524ZM644.902 73.65L644.682 73.4466L644.603 73.5328V73.65H644.902ZM644.902 109V109.3H645.203V109H644.902ZM622.578 109V0.593323H621.979V109H622.578ZM622.278 0.893322H644.902V0.293324H622.278V0.893322ZM644.603 0.593323V43.4847H645.203V0.593323H644.603ZM645.126 43.6846L683.461 0.79324L683.014 0.393402L644.679 43.2847L645.126 43.6846ZM683.238 0.893322H704.448V0.293324H683.238V0.893322ZM704.177 0.723747L706.377 5.27998L706.917 5.01913L704.718 0.462898L704.177 0.723747ZM706.424 4.9491L670.446 45.0124L670.892 45.4133L706.87 5.35L706.424 4.9491ZM670.42 45.3805L710.326 104.611L710.824 104.276L670.917 45.0453L670.42 45.3805ZM710.301 104.321L708.259 108.877L708.806 109.123L710.849 104.566L710.301 104.321ZM708.532 108.7H687.637V109.3H708.532V108.7ZM687.886 108.834L656.307 61.3862L655.808 61.7187L687.387 109.166L687.886 108.834ZM655.837 61.3491L644.682 73.4466L645.123 73.8534L656.278 61.7558L655.837 61.3491ZM644.603 73.65V109H645.203V73.65H644.603ZM644.902 108.7H622.278V109.3H644.902V108.7ZM727.838 109H727.538V109.3H727.838V109ZM727.838 0.593323V0.293324H727.538V0.593323H727.838ZM801.994 0.593323H802.294V0.293324H801.994V0.593323ZM801.994 21.0178V21.3178H802.294V21.0178H801.994ZM750.462 21.0178V20.7178H750.162V21.0178H750.462ZM750.462 43.0133H750.162V43.3133H750.462V43.0133ZM797.281 43.0133H797.581V42.7133H797.281V43.0133ZM797.281 63.4378V63.7378H797.581V63.4378H797.281ZM750.462 63.4378V63.1378H750.162V63.4378H750.462ZM750.462 88.5756H750.162V88.8756H750.462V88.5756ZM801.994 88.5756H802.294V88.2756H801.994V88.5756ZM801.994 109V109.3H802.294V109H801.994ZM728.138 109V0.593323H727.538V109H728.138ZM727.838 0.893322H801.994V0.293324H727.838V0.893322ZM801.694 0.593323V21.0178H802.294V0.593323H801.694ZM801.994 20.7178H750.462V21.3178H801.994V20.7178ZM750.162 21.0178V43.0133H750.762V21.0178H750.162ZM750.462 43.3133H797.281V42.7133H750.462V43.3133ZM796.981 43.0133V63.4378H797.581V43.0133H796.981ZM797.281 63.1378H750.462V63.7378H797.281V63.1378ZM750.162 63.4378V88.5756H750.762V63.4378H750.162ZM750.462 88.8756H801.994V88.2756H750.462V88.8756ZM801.694 88.5756V109H802.294V88.5756H801.694ZM801.994 108.7H727.838V109.3H801.994V108.7ZM822.656 109H822.357V109.3H822.656V109ZM822.656 0.593323V0.293324H822.357V0.593323H822.656ZM845.281 0.593323H845.581V0.293324H845.281V0.593323ZM845.281 109V109.3H845.581V109H845.281ZM822.957 109V0.593323H822.357V109H822.957ZM822.656 0.893322H845.281V0.293324H822.656V0.893322ZM844.981 0.593323V109H845.581V0.593323H844.981ZM845.281 108.7H822.656V109.3H845.281V108.7ZM870.987 109H870.687V109.3H870.987V109ZM870.987 0.593323V0.293324H870.687V0.593323H870.987ZM945.457 45.5271L945.688 45.7192L945.457 45.5271ZM939.958 52.1258L939.728 51.9337L939.536 52.1642L939.766 52.3562L939.958 52.1258ZM946.557 57.6247L946.365 57.8551L946.367 57.8568L946.557 57.6247ZM893.611 88.5756H893.311V88.8756H893.611V88.5756ZM893.611 63.4378V63.1378H893.311V63.4378H893.611ZM893.611 43.0133H893.311V43.3133H893.611V43.0133ZM893.611 21.0178V20.7178H893.311V21.0178H893.611ZM871.287 109V0.593323H870.687V109H871.287ZM870.987 0.893322H922.205V0.293324H870.987V0.893322ZM922.205 0.893322C930.957 0.893322 937.466 3.08112 941.789 7.40412C946.112 11.7271 948.3 18.236 948.3 26.988H948.9C948.9 18.1435 946.688 11.4551 942.213 6.97986C937.738 2.50464 931.049 0.293324 922.205 0.293324V0.893322ZM948.3 26.988V36.4147H948.9V26.988H948.3ZM948.3 36.4147C948.3 39.9123 947.273 42.8801 945.227 45.3351L945.688 45.7192C947.832 43.1466 948.9 40.0394 948.9 36.4147H948.3ZM945.227 45.3351L939.728 51.9337L940.189 52.3178L945.688 45.7192L945.227 45.3351ZM939.766 52.3562L946.365 57.8551L946.749 57.3942L940.151 51.8953L939.766 52.3562ZM946.367 57.8568C949.737 60.6143 951.442 64.7084 951.442 70.1936H952.042C952.042 64.5762 950.29 60.291 946.747 57.3925L946.367 57.8568ZM951.442 70.1936V82.6053H952.042V70.1936H951.442ZM951.442 82.6053C951.442 91.3573 949.254 97.8662 944.931 102.189C940.608 106.512 934.099 108.7 925.347 108.7V109.3C934.192 109.3 940.88 107.089 945.355 102.613C949.83 98.1382 952.042 91.4498 952.042 82.6053H951.442ZM925.347 108.7H870.987V109.3H925.347V108.7ZM893.611 88.8756H924.404V88.2756H893.611V88.8756ZM924.404 88.8756C926.022 88.8756 927.29 88.471 928.151 87.6094C929.013 86.7477 929.418 85.4796 929.418 83.8622H928.818C928.818 85.3871 928.437 86.4756 927.727 87.1851C927.018 87.8945 925.929 88.2756 924.404 88.2756V88.8756ZM929.418 83.8622V68.1511H928.818V83.8622H929.418ZM929.418 68.1511C929.418 66.5338 929.013 65.2656 928.151 64.404C927.29 63.5423 926.022 63.1378 924.404 63.1378V63.7378C925.929 63.7378 927.018 64.1188 927.727 64.8282C928.437 65.5377 928.818 66.6262 928.818 68.1511H929.418ZM924.404 63.1378H893.611V63.7378H924.404V63.1378ZM893.311 63.4378V88.5756H893.911V63.4378H893.311ZM893.611 43.3133H921.262V42.7133H893.611V43.3133ZM921.262 43.3133C922.88 43.3133 924.148 42.9088 925.009 42.0471C925.871 41.1855 926.276 39.9174 926.276 38.3H925.676C925.676 39.8249 925.295 40.9134 924.585 41.6229C923.876 42.3323 922.787 42.7133 921.262 42.7133V43.3133ZM926.276 38.3V25.7311H925.676V38.3H926.276ZM926.276 25.7311C926.276 24.1138 925.871 22.8456 925.009 21.984C924.148 21.1223 922.88 20.7178 921.262 20.7178V21.3178C922.787 21.3178 923.876 21.6988 924.585 22.4082C925.295 23.1177 925.676 24.2062 925.676 25.7311H926.276ZM921.262 20.7178H893.611V21.3178H921.262V20.7178ZM893.311 21.0178V43.0133H893.911V21.0178H893.311ZM972.534 0.593323V0.293324H972.234V0.593323H972.534ZM995.158 0.593323H995.458V0.293324H995.158V0.593323ZM1035.38 0.593323V0.293324H1035.08V0.593323H1035.38ZM1058 0.593323H1058.3V0.293324H1058V0.593323ZM972.834 82.6053V0.593323H972.234V82.6053H972.834ZM972.534 0.893322H995.158V0.293324H972.534V0.893322ZM994.858 0.593323V83.8622H995.458V0.593323H994.858ZM994.858 83.8622C994.858 85.4796 995.263 86.7477 996.125 87.6094C996.986 88.471 998.254 88.8756 999.872 88.8756V88.2756C998.347 88.2756 997.258 87.8945 996.549 87.1851C995.839 86.4756 995.458 85.3871 995.458 83.8622H994.858ZM999.872 88.8756H1030.67V88.2756H999.872V88.8756ZM1030.67 88.8756C1032.28 88.8756 1033.55 88.471 1034.41 87.6094C1035.27 86.7477 1035.68 85.4796 1035.68 83.8622H1035.08C1035.08 85.3871 1034.7 86.4756 1033.99 87.1851C1033.28 87.8945 1032.19 88.2756 1030.67 88.2756V88.8756ZM1035.68 83.8622V0.593323H1035.08V83.8622H1035.68ZM1035.38 0.893322H1058V0.293324H1035.38V0.893322ZM1057.7 0.593323V82.6053H1058.3V0.593323H1057.7ZM1057.7 82.6053C1057.7 91.3573 1055.52 97.8662 1051.19 102.189C1046.87 106.512 1040.36 108.7 1031.61 108.7V109.3C1040.45 109.3 1047.14 107.089 1051.62 102.613C1056.09 98.1382 1058.3 91.4498 1058.3 82.6053H1057.7ZM1031.61 108.7H998.929V109.3H1031.61V108.7ZM998.929 108.7C990.177 108.7 983.668 106.512 979.345 102.189C975.022 97.8662 972.834 91.3573 972.834 82.6053H972.234C972.234 91.4498 974.446 98.1382 978.921 102.613C983.396 107.089 990.085 109.3 998.929 109.3V108.7ZM1082.87 109H1082.57V109.3H1082.87V109ZM1082.87 0.593323V0.293324H1082.57V0.593323H1082.87ZM1107.38 0.593323L1107.64 0.438057L1107.55 0.293324H1107.38V0.593323ZM1150.43 71.7647L1150.17 71.9199L1150.73 72.8403V71.7647H1150.43ZM1150.43 0.593323V0.293324H1150.13V0.593323H1150.43ZM1173.05 0.593323H1173.35V0.293324H1173.05V0.593323ZM1173.05 109V109.3H1173.35V109H1173.05ZM1148.54 109L1148.29 109.155L1148.38 109.3H1148.54V109ZM1105.5 37.8287L1105.75 37.6734L1105.2 36.753V37.8287H1105.5ZM1105.5 109V109.3H1105.8V109H1105.5ZM1083.17 109V0.593323H1082.57V109H1083.17ZM1082.87 0.893322H1107.38V0.293324H1082.87V0.893322ZM1107.12 0.748585L1150.17 71.9199L1150.69 71.6094L1107.64 0.438057L1107.12 0.748585ZM1150.73 71.7647V0.593323H1150.13V71.7647H1150.73ZM1150.43 0.893322H1173.05V0.293324H1150.43V0.893322ZM1172.75 0.593323V109H1173.35V0.593323H1172.75ZM1173.05 108.7H1148.54V109.3H1173.05V108.7ZM1148.8 108.845L1105.75 37.6734L1105.24 37.9839L1148.29 109.155L1148.8 108.845ZM1105.2 37.8287V109H1105.8V37.8287H1105.2ZM1105.5 108.7H1082.87V109.3H1105.5V108.7ZM1197.59 82.6053V26.988H1196.99V82.6053H1197.59ZM1197.59 26.988C1197.59 18.236 1199.78 11.7271 1204.1 7.40412C1208.43 3.08112 1214.94 0.893322 1223.69 0.893322V0.293324C1214.84 0.293324 1208.15 2.50464 1203.68 6.97986C1199.2 11.4551 1196.99 18.1435 1196.99 26.988H1197.59ZM1223.69 0.893322H1259.51V0.293324H1223.69V0.893322ZM1259.51 0.893322C1268.26 0.893322 1274.77 3.08112 1279.09 7.40412C1283.42 11.7271 1285.6 18.236 1285.6 26.988H1286.2C1286.2 18.1435 1283.99 11.4551 1279.52 6.97986C1275.04 2.50464 1268.35 0.293324 1259.51 0.293324V0.893322ZM1285.6 26.988V82.6053H1286.2V26.988H1285.6ZM1285.6 82.6053C1285.6 91.3573 1283.42 97.8662 1279.09 102.189C1274.77 106.512 1268.26 108.7 1259.51 108.7V109.3C1268.35 109.3 1275.04 107.089 1279.52 102.613C1283.99 98.1382 1286.2 91.4498 1286.2 82.6053H1285.6ZM1259.51 108.7H1223.69V109.3H1259.51V108.7ZM1223.69 108.7C1214.94 108.7 1208.43 106.512 1204.1 102.189C1199.78 97.8662 1197.59 91.3573 1197.59 82.6053H1196.99C1196.99 91.4498 1199.2 98.1382 1203.68 102.613C1208.15 107.089 1214.84 109.3 1223.69 109.3V108.7ZM1219.62 83.8622C1219.62 85.4796 1220.02 86.7477 1220.88 87.6094C1221.74 88.471 1223.01 88.8756 1224.63 88.8756V88.2756C1223.11 88.2756 1222.02 87.8945 1221.31 87.1851C1220.6 86.4756 1220.22 85.3871 1220.22 83.8622H1219.62ZM1224.63 88.8756H1258.57V88.2756H1224.63V88.8756ZM1258.57 88.8756C1260.18 88.8756 1261.45 88.471 1262.31 87.6094C1263.18 86.7477 1263.58 85.4796 1263.58 83.8622H1262.98C1262.98 85.3871 1262.6 86.4756 1261.89 87.1851C1261.18 87.8945 1260.09 88.2756 1258.57 88.2756V88.8756ZM1263.58 83.8622V25.7311H1262.98V83.8622H1263.58ZM1263.58 25.7311C1263.58 24.1138 1263.18 22.8456 1262.31 21.984C1261.45 21.1223 1260.18 20.7178 1258.57 20.7178V21.3178C1260.09 21.3178 1261.18 21.6988 1261.89 22.4082C1262.6 23.1177 1262.98 24.2062 1262.98 25.7311H1263.58ZM1258.57 20.7178H1224.63V21.3178H1258.57V20.7178ZM1224.63 20.7178C1223.01 20.7178 1221.74 21.1223 1220.88 21.984C1220.02 22.8456 1219.62 24.1138 1219.62 25.7311H1220.22C1220.22 24.2062 1220.6 23.1177 1221.31 22.4082C1222.02 21.6988 1223.11 21.3178 1224.63 21.3178V20.7178ZM1219.62 25.7311V83.8622H1220.22V25.7311H1219.62ZM1310.1 109H1309.8V109.3H1310.1V109ZM1310.1 0.593323V0.293324H1309.8V0.593323H1310.1ZM1374.67 69.408L1374.58 69.1234L1374.25 69.2336L1374.41 69.5441L1374.67 69.408ZM1392.43 104.287L1392.69 104.435L1392.77 104.294L1392.69 104.151L1392.43 104.287ZM1389.76 109V109.3H1389.93L1390.02 109.148L1389.76 109ZM1370.27 109L1370.01 109.136L1370.09 109.3H1370.27V109ZM1351.11 71.2933L1351.37 71.1574L1351.29 70.9933H1351.11V71.2933ZM1332.72 71.2933V70.9933H1332.42V71.2933H1332.72ZM1332.72 109V109.3H1333.02V109H1332.72ZM1332.72 50.8689H1332.42V51.1689H1332.72V50.8689ZM1332.72 21.0178V20.7178H1332.42V21.0178H1332.72ZM1310.4 109V0.593323H1309.8V109H1310.4ZM1310.1 0.893322H1362.89V0.293324H1310.1V0.893322ZM1362.89 0.893322C1371.64 0.893322 1378.15 3.08112 1382.47 7.40412C1386.8 11.7271 1388.98 18.236 1388.98 26.988H1389.58C1389.58 18.1435 1387.37 11.4551 1382.9 6.97986C1378.42 2.50464 1371.73 0.293324 1362.89 0.293324V0.893322ZM1388.98 26.988V44.8987H1389.58V26.988H1388.98ZM1388.98 44.8987C1388.98 51.4104 1387.77 56.6677 1385.37 60.6918C1382.98 64.7098 1379.39 67.5207 1374.58 69.1234L1374.77 69.6926C1379.7 68.0483 1383.41 65.1508 1385.89 60.9991C1388.36 56.8534 1389.58 51.4795 1389.58 44.8987H1388.98ZM1374.41 69.5441L1392.16 104.423L1392.69 104.151L1374.94 69.2719L1374.41 69.5441ZM1392.17 104.139L1389.49 108.852L1390.02 109.148L1392.69 104.435L1392.17 104.139ZM1389.76 108.7H1370.27V109.3H1389.76V108.7ZM1370.54 108.864L1351.37 71.1574L1350.84 71.4293L1370.01 109.136L1370.54 108.864ZM1351.11 70.9933H1332.72V71.5933H1351.11V70.9933ZM1332.42 71.2933V109H1333.02V71.2933H1332.42ZM1332.72 108.7H1310.1V109.3H1332.72V108.7ZM1332.72 51.1689H1361.95V50.5689H1332.72V51.1689ZM1361.95 51.1689C1363.56 51.1689 1364.83 50.7643 1365.69 49.9027C1366.56 49.041 1366.96 47.7729 1366.96 46.1556H1366.36C1366.36 47.6804 1365.98 48.769 1365.27 49.4784C1364.56 50.1879 1363.47 50.5689 1361.95 50.5689V51.1689ZM1366.96 46.1556V25.7311H1366.36V46.1556H1366.96ZM1366.96 25.7311C1366.96 24.1138 1366.56 22.8456 1365.69 21.984C1364.83 21.1223 1363.56 20.7178 1361.95 20.7178V21.3178C1363.47 21.3178 1364.56 21.6988 1365.27 22.4082C1365.98 23.1177 1366.36 24.2062 1366.36 25.7311H1366.96ZM1361.95 20.7178H1332.72V21.3178H1361.95V20.7178ZM1332.42 21.0178V50.8689H1333.02V21.0178H1332.42ZM1409.31 109H1409.01V109.3H1409.31V109ZM1409.31 86.5331V86.2331H1409.01V86.5331H1409.31ZM1432.72 86.5331H1433.02V86.2331H1432.72V86.5331ZM1432.72 109V109.3H1433.02V109H1432.72ZM1409.61 109V86.5331H1409.01V109H1409.61ZM1409.31 86.8331H1432.72V86.2331H1409.31V86.8331ZM1432.42 86.5331V109H1433.02V86.5331H1432.42ZM1432.72 108.7H1409.31V109.3H1432.72V108.7ZM1455.7 109H1455.4V109.3H1455.7V109ZM1455.7 0.593323V0.293324H1455.4V0.593323H1455.7ZM1529.86 0.593323H1530.16V0.293324H1529.86V0.593323ZM1529.86 21.0178V21.3178H1530.16V21.0178H1529.86ZM1478.33 21.0178V20.7178H1478.03V21.0178H1478.33ZM1478.33 47.7267H1478.03V48.0267H1478.33V47.7267ZM1525.15 47.7267H1525.45V47.4267H1525.15V47.7267ZM1525.15 68.1511V68.4511H1525.45V68.1511H1525.15ZM1478.33 68.1511V67.8511H1478.03V68.1511H1478.33ZM1478.33 109V109.3H1478.63V109H1478.33ZM1456 109V0.593323H1455.4V109H1456ZM1455.7 0.893322H1529.86V0.293324H1455.7V0.893322ZM1529.56 0.593323V21.0178H1530.16V0.593323H1529.56ZM1529.86 20.7178H1478.33V21.3178H1529.86V20.7178ZM1478.03 21.0178V47.7267H1478.63V21.0178H1478.03ZM1478.33 48.0267H1525.15V47.4267H1478.33V48.0267ZM1524.85 47.7267V68.1511H1525.45V47.7267H1524.85ZM1525.15 67.8511H1478.33V68.4511H1525.15V67.8511ZM1478.03 68.1511V109H1478.63V68.1511H1478.03ZM1478.33 108.7H1455.7V109.3H1478.33V108.7ZM1546.51 0.593323V0.293324H1546.21V0.593323H1546.51ZM1569.14 0.593323H1569.44V0.293324H1569.14V0.593323ZM1609.36 0.593323V0.293324H1609.06V0.593323H1609.36ZM1631.98 0.593323H1632.28V0.293324H1631.98V0.593323ZM1546.81 82.6053V0.593323H1546.21V82.6053H1546.81ZM1546.51 0.893322H1569.14V0.293324H1546.51V0.893322ZM1568.84 0.593323V83.8622H1569.44V0.593323H1568.84ZM1568.84 83.8622C1568.84 85.4796 1569.24 86.7477 1570.1 87.6094C1570.96 88.471 1572.23 88.8756 1573.85 88.8756V88.2756C1572.32 88.2756 1571.24 87.8945 1570.53 87.1851C1569.82 86.4756 1569.44 85.3871 1569.44 83.8622H1568.84ZM1573.85 88.8756H1604.64V88.2756H1573.85V88.8756ZM1604.64 88.8756C1606.26 88.8756 1607.53 88.471 1608.39 87.6094C1609.25 86.7477 1609.66 85.4796 1609.66 83.8622H1609.06C1609.06 85.3871 1608.68 86.4756 1607.97 87.1851C1607.26 87.8945 1606.17 88.2756 1604.64 88.2756V88.8756ZM1609.66 83.8622V0.593323H1609.06V83.8622H1609.66ZM1609.36 0.893322H1631.98V0.293324H1609.36V0.893322ZM1631.68 0.593323V82.6053H1632.28V0.593323H1631.68ZM1631.68 82.6053C1631.68 91.3573 1629.49 97.8662 1625.17 102.189C1620.85 106.512 1614.34 108.7 1605.59 108.7V109.3C1614.43 109.3 1621.12 107.089 1625.59 102.613C1630.07 98.1382 1632.28 91.4498 1632.28 82.6053H1631.68ZM1605.59 108.7H1572.91V109.3H1605.59V108.7ZM1572.91 108.7C1564.15 108.7 1557.65 106.512 1553.32 102.189C1549 97.8662 1546.81 91.3573 1546.81 82.6053H1546.21C1546.21 91.4498 1548.42 98.1382 1552.9 102.613C1557.37 107.089 1564.06 109.3 1572.91 109.3V108.7ZM1656.85 109H1656.55V109.3H1656.85V109ZM1656.85 0.593323V0.293324H1656.55V0.593323H1656.85ZM1679.47 0.593323H1679.77V0.293324H1679.47V0.593323ZM1679.47 88.5756H1679.17V88.8756H1679.47V88.5756ZM1726.29 88.5756H1726.59V88.2756H1726.29V88.5756ZM1726.29 109V109.3H1726.59V109H1726.29ZM1657.15 109V0.593323H1656.55V109H1657.15ZM1656.85 0.893322H1679.47V0.293324H1656.85V0.893322ZM1679.17 0.593323V88.5756H1679.77V0.593323H1679.17ZM1679.47 88.8756H1726.29V88.2756H1679.47V88.8756ZM1725.99 88.5756V109H1726.59V88.5756H1725.99ZM1726.29 108.7H1656.85V109.3H1726.29V108.7ZM1742.92 109H1742.62V109.3H1742.92V109ZM1742.92 0.593323V0.293324H1742.62V0.593323H1742.92ZM1765.55 0.593323H1765.85V0.293324H1765.55V0.593323ZM1765.55 88.5756H1765.25V88.8756H1765.55V88.5756ZM1812.37 88.5756H1812.67V88.2756H1812.37V88.5756ZM1812.37 109V109.3H1812.67V109H1812.37ZM1743.22 109V0.593323H1742.62V109H1743.22ZM1742.92 0.893322H1765.55V0.293324H1742.92V0.893322ZM1765.25 0.593323V88.5756H1765.85V0.593323H1765.25ZM1765.55 88.8756H1812.37V88.2756H1765.55V88.8756ZM1812.07 88.5756V109H1812.67V88.5756H1812.07ZM1812.37 108.7H1742.92V109.3H1812.37V108.7ZM1862.03 100.83H1861.73V100.977L1861.84 101.067L1862.03 100.83ZM1862.03 88.5756V88.2756H1861.73V88.5756H1862.03ZM1911.52 67.3656L1911.46 67.6597L1911.47 67.6618L1911.52 67.3656ZM1880.88 61.0811L1880.94 60.7872L1880.94 60.7869L1880.88 61.0811ZM1924.4 0.593323L1924.58 0.356327L1924.5 0.293324H1924.4V0.593323ZM1934.93 8.76311H1935.23V8.61619L1935.11 8.52611L1934.93 8.76311ZM1934.93 21.0178V21.3178H1935.23V21.0178H1934.93ZM1888.58 41.128L1888.64 40.8338L1888.58 41.128ZM1919.21 47.2553L1919.16 47.5495L1919.21 47.2553ZM1872.55 109L1872.37 109.237L1872.45 109.3H1872.55V109ZM1862.33 100.83V88.5756H1861.73V100.83H1862.33ZM1862.03 88.8756H1910.73V88.2756H1862.03V88.8756ZM1910.73 88.8756C1912.35 88.8756 1913.62 88.471 1914.48 87.6094C1915.34 86.7477 1915.74 85.4796 1915.74 83.8622H1915.14C1915.14 85.3871 1914.76 86.4756 1914.05 87.1851C1913.34 87.8945 1912.26 88.2756 1910.73 88.2756V88.8756ZM1915.74 83.8622V72.5502H1915.14V83.8622H1915.74ZM1915.74 72.5502C1915.74 70.9917 1915.41 69.7283 1914.7 68.7948C1913.99 67.8559 1912.93 67.2881 1911.56 67.0693L1911.47 67.6618C1912.72 67.8619 1913.63 68.3678 1914.22 69.1571C1914.83 69.9518 1915.14 71.0713 1915.14 72.5502H1915.74ZM1911.58 67.0717L1880.94 60.7872L1880.82 61.375L1911.46 67.6594L1911.58 67.0717ZM1880.94 60.7869C1874.71 59.5412 1870.07 56.8368 1866.98 52.6928C1863.89 48.5447 1862.33 42.9195 1862.33 35.7862H1861.73C1861.73 43.0024 1863.31 48.7678 1866.5 53.0513C1869.7 57.3389 1874.48 60.1072 1880.82 61.3753L1880.94 60.7869ZM1862.33 35.7862V26.988H1861.73V35.7862H1862.33ZM1862.33 26.988C1862.33 18.236 1864.51 11.7271 1868.84 7.40412C1873.16 3.08112 1879.67 0.893322 1888.42 0.893322V0.293324C1879.58 0.293324 1872.89 2.50464 1868.41 6.97986C1863.94 11.4551 1861.73 18.1435 1861.73 26.988H1862.33ZM1888.42 0.893322H1924.4V0.293324H1888.42V0.893322ZM1924.22 0.830318L1934.74 9.0001L1935.11 8.52611L1924.58 0.356327L1924.22 0.830318ZM1934.63 8.76311V21.0178H1935.23V8.76311H1934.63ZM1934.93 20.7178H1889.36V21.3178H1934.93V20.7178ZM1889.36 20.7178C1887.75 20.7178 1886.48 21.1223 1885.62 21.984C1884.76 22.8456 1884.35 24.1138 1884.35 25.7311H1884.95C1884.95 24.2062 1885.33 23.1177 1886.04 22.4082C1886.75 21.6988 1887.84 21.3178 1889.36 21.3178V20.7178ZM1884.35 25.7311V35.9433H1884.95V25.7311H1884.35ZM1884.35 35.9433C1884.35 37.4523 1884.69 38.6883 1885.39 39.6202C1886.1 40.5555 1887.16 41.1494 1888.52 41.4222L1888.64 40.8338C1887.38 40.5829 1886.47 40.0508 1885.87 39.2579C1885.27 38.4616 1884.95 37.3671 1884.95 35.9433H1884.35ZM1888.52 41.4222L1919.16 47.5495L1919.27 46.9612L1888.64 40.8338L1888.52 41.4222ZM1919.16 47.5495C1925.38 48.7952 1930.03 51.4996 1933.11 55.6437C1936.21 59.7918 1937.77 65.4169 1937.77 72.5502H1938.37C1938.37 65.3341 1936.79 59.5686 1933.6 55.2851C1930.4 50.9975 1925.61 48.2292 1919.27 46.9612L1919.16 47.5495ZM1937.77 72.5502V82.6053H1938.37V72.5502H1937.77ZM1937.77 82.6053C1937.77 91.3573 1935.58 97.8662 1931.26 102.189C1926.93 106.512 1920.43 108.7 1911.67 108.7V109.3C1920.52 109.3 1927.21 107.089 1931.68 102.613C1936.16 98.1382 1938.37 91.4498 1938.37 82.6053H1937.77ZM1911.67 108.7H1872.55V109.3H1911.67V108.7ZM1872.74 108.763L1862.21 100.593L1861.84 101.067L1872.37 109.237L1872.74 108.763ZM1949.99 21.0178H1949.69V21.3178H1949.99V21.0178ZM1949.99 0.593323V0.293324H1949.69V0.593323H1949.99ZM2038.6 0.593323H2038.9V0.293324H2038.6V0.593323ZM2038.6 21.0178V21.3178H2038.9V21.0178H2038.6ZM2005.61 21.0178V20.7178H2005.31V21.0178H2005.61ZM2005.61 109V109.3H2005.91V109H2005.61ZM1982.98 109H1982.68V109.3H1982.98V109ZM1982.98 21.0178H1983.28V20.7178H1982.98V21.0178ZM1950.29 21.0178V0.593323H1949.69V21.0178H1950.29ZM1949.99 0.893322H2038.6V0.293324H1949.99V0.893322ZM2038.3 0.593323V21.0178H2038.9V0.593323H2038.3ZM2038.6 20.7178H2005.61V21.3178H2038.6V20.7178ZM2005.31 21.0178V109H2005.91V21.0178H2005.31ZM2005.61 108.7H1982.98V109.3H2005.61V108.7ZM1983.28 109V21.0178H1982.68V109H1983.28ZM1982.98 20.7178H1949.99V21.3178H1982.98V20.7178ZM2037.42 104.758L2037.14 104.669L2037.09 104.806L2037.17 104.924L2037.42 104.758ZM2069.63 0.593323V0.293324H2069.41L2069.34 0.5047L2069.63 0.593323ZM2104.2 0.593323L2104.48 0.5047L2104.42 0.293324H2104.2V0.593323ZM2136.4 104.758L2136.65 104.924L2136.73 104.806L2136.69 104.669L2136.4 104.758ZM2133.58 109V109.3H2133.74L2133.83 109.166L2133.58 109ZM2114.72 109L2114.44 109.086L2114.5 109.3H2114.72V109ZM2108.12 87.0044L2108.41 86.9182L2108.35 86.7044H2108.12V87.0044ZM2065.7 87.0044V86.7044H2065.48L2065.42 86.9182L2065.7 87.0044ZM2059.1 109V109.3H2059.33L2059.39 109.086L2059.1 109ZM2040.25 109L2040 109.166L2040.09 109.3H2040.25V109ZM2071.83 66.58L2071.54 66.4929L2071.43 66.88H2071.83V66.58ZM2102 66.58V66.88H2102.4L2102.28 66.4929L2102 66.58ZM2088.17 21.0178L2088.46 20.9307L2088.39 20.7178H2088.17V21.0178ZM2085.66 21.0178V20.7178H2085.43L2085.37 20.9307L2085.66 21.0178ZM2037.71 104.847L2069.92 0.681942L2069.34 0.5047L2037.14 104.669L2037.71 104.847ZM2069.63 0.893322H2104.2V0.293324H2069.63V0.893322ZM2103.91 0.681942L2136.12 104.847L2136.69 104.669L2104.48 0.5047L2103.91 0.681942ZM2136.15 104.592L2133.33 108.834L2133.83 109.166L2136.65 104.924L2136.15 104.592ZM2133.58 108.7H2114.72V109.3H2133.58V108.7ZM2115.01 108.914L2108.41 86.9182L2107.84 87.0906L2114.44 109.086L2115.01 108.914ZM2108.12 86.7044H2065.7V87.3044H2108.12V86.7044ZM2065.42 86.9182L2058.82 108.914L2059.39 109.086L2065.99 87.0906L2065.42 86.9182ZM2059.1 108.7H2040.25V109.3H2059.1V108.7ZM2040.5 108.834L2037.67 104.592L2037.17 104.924L2040 109.166L2040.5 108.834ZM2071.83 66.88H2102V66.28H2071.83V66.88ZM2102.28 66.4929L2088.46 20.9307L2087.88 21.1049L2101.71 66.6671L2102.28 66.4929ZM2088.17 20.7178H2085.66V21.3178H2088.17V20.7178ZM2085.37 20.9307L2071.54 66.4929L2072.12 66.6671L2085.94 21.1049L2085.37 20.9307ZM2218.89 0.593323L2219.07 0.356327L2218.99 0.293324H2218.89V0.593323ZM2229.42 8.76311H2229.72V8.61619L2229.6 8.52611L2229.42 8.76311ZM2229.42 21.0178V21.3178H2229.72V21.0178H2229.42ZM2229.42 88.5756H2229.72V88.2756H2229.42V88.5756ZM2229.42 100.83L2229.6 101.067L2229.72 100.977V100.83H2229.42ZM2218.89 109V109.3H2218.99L2219.07 109.237L2218.89 109ZM2150.85 82.6053V26.988H2150.25V82.6053H2150.85ZM2150.85 26.988C2150.85 18.236 2153.03 11.7271 2157.36 7.40412C2161.68 3.08112 2168.19 0.893322 2176.94 0.893322V0.293324C2168.1 0.293324 2161.41 2.50464 2156.93 6.97986C2152.46 11.4551 2150.25 18.1435 2150.25 26.988H2150.85ZM2176.94 0.893322H2218.89V0.293324H2176.94V0.893322ZM2218.71 0.830318L2229.23 9.0001L2229.6 8.52611L2219.07 0.356327L2218.71 0.830318ZM2229.12 8.76311V21.0178H2229.72V8.76311H2229.12ZM2229.42 20.7178H2177.88V21.3178H2229.42V20.7178ZM2177.88 20.7178C2176.27 20.7178 2175 21.1223 2174.14 21.984C2173.27 22.8456 2172.87 24.1138 2172.87 25.7311H2173.47C2173.47 24.2062 2173.85 23.1177 2174.56 22.4082C2175.27 21.6988 2176.36 21.3178 2177.88 21.3178V20.7178ZM2172.87 25.7311V83.8622H2173.47V25.7311H2172.87ZM2172.87 83.8622C2172.87 85.4796 2173.27 86.7477 2174.14 87.6094C2175 88.471 2176.27 88.8756 2177.88 88.8756V88.2756C2176.36 88.2756 2175.27 87.8945 2174.56 87.1851C2173.85 86.4756 2173.47 85.3871 2173.47 83.8622H2172.87ZM2177.88 88.8756H2229.42V88.2756H2177.88V88.8756ZM2229.12 88.5756V100.83H2229.72V88.5756H2229.12ZM2229.23 100.593L2218.71 108.763L2219.07 109.237L2229.6 101.067L2229.23 100.593ZM2218.89 108.7H2176.94V109.3H2218.89V108.7ZM2176.94 108.7C2168.19 108.7 2161.68 106.512 2157.36 102.189C2153.03 97.8662 2150.85 91.3573 2150.85 82.6053H2150.25C2150.25 91.4498 2152.46 98.1382 2156.93 102.613C2161.41 107.089 2168.1 109.3 2176.94 109.3V108.7ZM2250.16 109H2249.86V109.3H2250.16V109ZM2250.16 0.593323V0.293324H2249.86V0.593323H2250.16ZM2272.78 0.593323H2273.08V0.293324H2272.78V0.593323ZM2272.78 43.4847H2272.48V44.2705L2273.01 43.6846L2272.78 43.4847ZM2311.12 0.593323V0.293324H2310.98L2310.89 0.393402L2311.12 0.593323ZM2332.33 0.593323L2332.6 0.462898L2332.52 0.293324H2332.33V0.593323ZM2334.53 5.14955L2334.75 5.35L2334.88 5.20031L2334.8 5.01913L2334.53 5.14955ZM2298.55 45.2129L2298.33 45.0124L2298.17 45.1865L2298.3 45.3805L2298.55 45.2129ZM2338.45 104.444L2338.73 104.566L2338.8 104.414L2338.7 104.276L2338.45 104.444ZM2336.41 109V109.3H2336.61L2336.69 109.123L2336.41 109ZM2315.52 109L2315.27 109.166L2315.36 109.3H2315.52V109ZM2283.94 61.5524L2284.19 61.3862L2283.98 61.0684L2283.72 61.3491L2283.94 61.5524ZM2272.78 73.65L2272.56 73.4466L2272.48 73.5328V73.65H2272.78ZM2272.78 109V109.3H2273.08V109H2272.78ZM2250.46 109V0.593323H2249.86V109H2250.46ZM2250.16 0.893322H2272.78V0.293324H2250.16V0.893322ZM2272.48 0.593323V43.4847H2273.08V0.593323H2272.48ZM2273.01 43.6846L2311.34 0.79324L2310.89 0.393402L2272.56 43.2847L2273.01 43.6846ZM2311.12 0.893322H2332.33V0.293324H2311.12V0.893322ZM2332.06 0.723747L2334.26 5.27998L2334.8 5.01913L2332.6 0.462898L2332.06 0.723747ZM2334.3 4.9491L2298.33 45.0124L2298.77 45.4133L2334.75 5.35L2334.3 4.9491ZM2298.3 45.3805L2338.21 104.611L2338.7 104.276L2298.8 45.0453L2298.3 45.3805ZM2338.18 104.321L2336.14 108.877L2336.69 109.123L2338.73 104.566L2338.18 104.321ZM2336.41 108.7H2315.52V109.3H2336.41V108.7ZM2315.77 108.834L2284.19 61.3862L2283.69 61.7187L2315.27 109.166L2315.77 108.834ZM2283.72 61.3491L2272.56 73.4466L2273 73.8534L2284.16 61.7558L2283.72 61.3491ZM2272.48 73.65V109H2273.08V73.65H2272.48ZM2272.78 108.7H2250.16V109.3H2272.78V108.7ZM2393.46 109H2393.16V109.3H2393.46V109ZM2393.46 0.593323V0.293324H2393.16V0.593323H2393.46ZM2416.08 88.5756H2415.78V88.8756H2416.08V88.5756ZM2416.08 21.0178V20.7178H2415.78V21.0178H2416.08ZM2393.76 109V0.593323H2393.16V109H2393.76ZM2393.46 0.893322H2434.62V0.293324H2393.46V0.893322ZM2434.62 0.893322C2449.35 0.893322 2460.33 4.57367 2467.64 11.8818C2474.95 19.1899 2478.63 30.1765 2478.63 44.8987H2479.23C2479.23 30.084 2475.53 18.9179 2468.06 11.4575C2460.6 3.9972 2449.44 0.293324 2434.62 0.293324V0.893322ZM2478.63 44.8987V64.6947H2479.23V44.8987H2478.63ZM2478.63 64.6947C2478.63 79.4169 2474.95 90.4034 2467.64 97.7115C2460.33 105.02 2449.35 108.7 2434.62 108.7V109.3C2449.44 109.3 2460.6 105.596 2468.06 98.1358C2475.53 90.6755 2479.23 79.5094 2479.23 64.6947H2478.63ZM2434.62 108.7H2393.46V109.3H2434.62V108.7ZM2416.08 88.8756H2435.88V88.2756H2416.08V88.8756ZM2435.88 88.8756C2442.74 88.8756 2447.93 87.1618 2451.41 83.6816C2454.89 80.2014 2456.61 75.0055 2456.61 68.1511H2456.01C2456.01 74.913 2454.31 79.9293 2450.99 83.2573C2447.66 86.5853 2442.64 88.2756 2435.88 88.2756V88.8756ZM2456.61 68.1511V41.4422H2456.01V68.1511H2456.61ZM2456.61 41.4422C2456.61 34.5878 2454.89 29.3919 2451.41 25.9118C2447.93 22.4316 2442.74 20.7178 2435.88 20.7178V21.3178C2442.64 21.3178 2447.66 23.008 2450.99 26.336C2454.31 29.664 2456.01 34.6803 2456.01 41.4422H2456.61ZM2435.88 20.7178H2416.08V21.3178H2435.88V20.7178ZM2415.78 21.0178V88.5756H2416.38V21.0178H2415.78ZM2501.63 109H2501.33V109.3H2501.63V109ZM2501.63 0.593323V0.293324H2501.33V0.593323H2501.63ZM2575.78 0.593323H2576.08V0.293324H2575.78V0.593323ZM2575.78 21.0178V21.3178H2576.08V21.0178H2575.78ZM2524.25 21.0178V20.7178H2523.95V21.0178H2524.25ZM2524.25 43.0133H2523.95V43.3133H2524.25V43.0133ZM2571.07 43.0133H2571.37V42.7133H2571.07V43.0133ZM2571.07 63.4378V63.7378H2571.37V63.4378H2571.07ZM2524.25 63.4378V63.1378H2523.95V63.4378H2524.25ZM2524.25 88.5756H2523.95V88.8756H2524.25V88.5756ZM2575.78 88.5756H2576.08V88.2756H2575.78V88.5756ZM2575.78 109V109.3H2576.08V109H2575.78ZM2501.93 109V0.593323H2501.33V109H2501.93ZM2501.63 0.893322H2575.78V0.293324H2501.63V0.893322ZM2575.48 0.593323V21.0178H2576.08V0.593323H2575.48ZM2575.78 20.7178H2524.25V21.3178H2575.78V20.7178ZM2523.95 21.0178V43.0133H2524.55V21.0178H2523.95ZM2524.25 43.3133H2571.07V42.7133H2524.25V43.3133ZM2570.77 43.0133V63.4378H2571.37V43.0133H2570.77ZM2571.07 63.1378H2524.25V63.7378H2571.07V63.1378ZM2523.95 63.4378V88.5756H2524.55V63.4378H2523.95ZM2524.25 88.8756H2575.78V88.2756H2524.25V88.8756ZM2575.48 88.5756V109H2576.08V88.5756H2575.48ZM2575.78 108.7H2501.63V109.3H2575.78V108.7ZM2586.39 4.83532L2586.14 4.66891L2586.06 4.78573L2586.1 4.92037L2586.39 4.83532ZM2589.22 0.593323V0.293324H2589.06L2588.97 0.42691L2589.22 0.593323ZM2609.17 0.593323L2609.46 0.512337L2609.4 0.293324H2609.17V0.593323ZM2633.84 88.5756L2633.55 88.6565L2633.61 88.8756H2633.84V88.5756ZM2636.35 88.5756V88.8756H2636.58L2636.64 88.657L2636.35 88.5756ZM2661.18 0.593323V0.293324H2660.95L2660.89 0.51186L2661.18 0.593323ZM2680.97 0.593323L2681.22 0.42691L2681.13 0.293324H2680.97V0.593323ZM2683.8 4.83532L2684.09 4.92037L2684.13 4.78573L2684.05 4.66891L2683.8 4.83532ZM2653.01 109V109.3H2653.23L2653.29 109.085L2653.01 109ZM2617.19 109L2616.9 109.085L2616.96 109.3H2617.19V109ZM2586.64 5.00173L2589.47 0.759731L2588.97 0.42691L2586.14 4.66891L2586.64 5.00173ZM2589.22 0.893322H2609.17V0.293324H2589.22V0.893322ZM2608.88 0.674305L2633.55 88.6565L2634.13 88.4946L2609.46 0.512337L2608.88 0.674305ZM2633.84 88.8756H2636.35V88.2756H2633.84V88.8756ZM2636.64 88.657L2661.47 0.674786L2660.89 0.51186L2636.06 88.4941L2636.64 88.657ZM2661.18 0.893322H2680.97V0.293324H2661.18V0.893322ZM2680.72 0.759731L2683.55 5.00173L2684.05 4.66891L2681.22 0.42691L2680.72 0.759731ZM2683.51 4.75027L2652.72 108.915L2653.29 109.085L2684.09 4.92037L2683.51 4.75027ZM2653.01 108.7H2617.19V109.3H2653.01V108.7ZM2617.47 108.915L2586.68 4.75027L2586.1 4.92037L2616.9 109.085L2617.47 108.915ZM2699.55 109H2699.25V109.3H2699.55V109ZM2699.55 0.593323V0.293324H2699.25V0.593323H2699.55ZM2773.71 0.593323H2774.01V0.293324H2773.71V0.593323ZM2773.71 21.0178V21.3178H2774.01V21.0178H2773.71ZM2722.18 21.0178V20.7178H2721.88V21.0178H2722.18ZM2722.18 43.0133H2721.88V43.3133H2722.18V43.0133ZM2768.99 43.0133H2769.29V42.7133H2768.99V43.0133ZM2768.99 63.4378V63.7378H2769.29V63.4378H2768.99ZM2722.18 63.4378V63.1378H2721.88V63.4378H2722.18ZM2722.18 88.5756H2721.88V88.8756H2722.18V88.5756ZM2773.71 88.5756H2774.01V88.2756H2773.71V88.5756ZM2773.71 109V109.3H2774.01V109H2773.71ZM2699.85 109V0.593323H2699.25V109H2699.85ZM2699.55 0.893322H2773.71V0.293324H2699.55V0.893322ZM2773.41 0.593323V21.0178H2774.01V0.593323H2773.41ZM2773.71 20.7178H2722.18V21.3178H2773.71V20.7178ZM2721.88 21.0178V43.0133H2722.48V21.0178H2721.88ZM2722.18 43.3133H2768.99V42.7133H2722.18V43.3133ZM2768.69 43.0133V63.4378H2769.29V43.0133H2768.69ZM2768.99 63.1378H2722.18V63.7378H2768.99V63.1378ZM2721.88 63.4378V88.5756H2722.48V63.4378H2721.88ZM2722.18 88.8756H2773.71V88.2756H2722.18V88.8756ZM2773.41 88.5756V109H2774.01V88.5756H2773.41ZM2773.71 108.7H2699.55V109.3H2773.71V108.7ZM2794.37 109H2794.07V109.3H2794.37V109ZM2794.37 0.593323V0.293324H2794.07V0.593323H2794.37ZM2816.99 0.593323H2817.29V0.293324H2816.99V0.593323ZM2816.99 88.5756H2816.69V88.8756H2816.99V88.5756ZM2863.81 88.5756H2864.11V88.2756H2863.81V88.5756ZM2863.81 109V109.3H2864.11V109H2863.81ZM2794.67 109V0.593323H2794.07V109H2794.67ZM2794.37 0.893322H2816.99V0.293324H2794.37V0.893322ZM2816.69 0.593323V88.5756H2817.29V0.593323H2816.69ZM2816.99 88.8756H2863.81V88.2756H2816.99V88.8756ZM2863.51 88.5756V109H2864.11V88.5756H2863.51ZM2863.81 108.7H2794.37V109.3H2863.81V108.7ZM2879.17 82.6053V26.988H2878.57V82.6053H2879.17ZM2879.17 26.988C2879.17 18.236 2881.36 11.7271 2885.68 7.40412C2890.01 3.08112 2896.52 0.893322 2905.27 0.893322V0.293324C2896.42 0.293324 2889.73 2.50464 2885.26 6.97986C2880.78 11.4551 2878.57 18.1435 2878.57 26.988H2879.17ZM2905.27 0.893322H2941.09V0.293324H2905.27V0.893322ZM2941.09 0.893322C2949.84 0.893322 2956.35 3.08112 2960.67 7.40412C2965 11.7271 2967.18 18.236 2967.18 26.988H2967.78C2967.78 18.1435 2965.57 11.4551 2961.1 6.97986C2956.62 2.50464 2949.93 0.293324 2941.09 0.293324V0.893322ZM2967.18 26.988V82.6053H2967.78V26.988H2967.18ZM2967.18 82.6053C2967.18 91.3573 2965 97.8662 2960.67 102.189C2956.35 106.512 2949.84 108.7 2941.09 108.7V109.3C2949.93 109.3 2956.62 107.089 2961.1 102.613C2965.57 98.1382 2967.78 91.4498 2967.78 82.6053H2967.18ZM2941.09 108.7H2905.27V109.3H2941.09V108.7ZM2905.27 108.7C2896.52 108.7 2890.01 106.512 2885.68 102.189C2881.36 97.8662 2879.17 91.3573 2879.17 82.6053H2878.57C2878.57 91.4498 2880.78 98.1382 2885.26 102.613C2889.73 107.089 2896.42 109.3 2905.27 109.3V108.7ZM2901.2 83.8622C2901.2 85.4796 2901.6 86.7477 2902.46 87.6094C2903.32 88.471 2904.59 88.8756 2906.21 88.8756V88.2756C2904.69 88.2756 2903.6 87.8945 2902.89 87.1851C2902.18 86.4756 2901.8 85.3871 2901.8 83.8622H2901.2ZM2906.21 88.8756H2940.15V88.2756H2906.21V88.8756ZM2940.15 88.8756C2941.76 88.8756 2943.03 88.471 2943.89 87.6094C2944.75 86.7477 2945.16 85.4796 2945.16 83.8622H2944.56C2944.56 85.3871 2944.18 86.4756 2943.47 87.1851C2942.76 87.8945 2941.67 88.2756 2940.15 88.2756V88.8756ZM2945.16 83.8622V25.7311H2944.56V83.8622H2945.16ZM2945.16 25.7311C2945.16 24.1138 2944.75 22.8456 2943.89 21.984C2943.03 21.1223 2941.76 20.7178 2940.15 20.7178V21.3178C2941.67 21.3178 2942.76 21.6988 2943.47 22.4082C2944.18 23.1177 2944.56 24.2062 2944.56 25.7311H2945.16ZM2940.15 20.7178H2906.21V21.3178H2940.15V20.7178ZM2906.21 20.7178C2904.59 20.7178 2903.32 21.1223 2902.46 21.984C2901.6 22.8456 2901.2 24.1138 2901.2 25.7311H2901.8C2901.8 24.2062 2902.18 23.1177 2902.89 22.4082C2903.6 21.6988 2904.69 21.3178 2906.21 21.3178V20.7178ZM2901.2 25.7311V83.8622H2901.8V25.7311H2901.2ZM2991.68 109H2991.38V109.3H2991.68V109ZM2991.68 0.593323V0.293324H2991.38V0.593323H2991.68ZM3014.3 74.4356V74.1356H3014V74.4356H3014.3ZM3014.3 109V109.3H3014.6V109H3014.3ZM3014.3 54.0111H3014V54.3111H3014.3V54.0111ZM3014.3 21.0178V20.7178H3014V21.0178H3014.3ZM2991.98 109V0.593323H2991.38V109H2991.98ZM2991.68 0.893322H3044.47V0.293324H2991.68V0.893322ZM3044.47 0.893322C3053.22 0.893322 3059.73 3.08112 3064.05 7.40412C3068.38 11.7271 3070.56 18.236 3070.56 26.988H3071.16C3071.16 18.1435 3068.95 11.4551 3064.48 6.97986C3060 2.50464 3053.31 0.293324 3044.47 0.293324V0.893322ZM3070.56 26.988V48.0409H3071.16V26.988H3070.56ZM3070.56 48.0409C3070.56 56.7929 3068.38 63.3018 3064.05 67.6248C3059.73 71.9478 3053.22 74.1356 3044.47 74.1356V74.7355C3053.31 74.7355 3060 72.5242 3064.48 68.049C3068.95 63.5738 3071.16 56.8854 3071.16 48.0409H3070.56ZM3044.47 74.1356H3014.3V74.7355H3044.47V74.1356ZM3014 74.4356V109H3014.6V74.4356H3014ZM3014.3 108.7H2991.68V109.3H3014.3V108.7ZM3014.3 54.3111H3043.53V53.7111H3014.3V54.3111ZM3043.53 54.3111C3045.14 54.3111 3046.41 53.9066 3047.27 53.0449C3048.14 52.1832 3048.54 50.9151 3048.54 49.2978H3047.94C3047.94 50.8226 3047.56 51.9112 3046.85 52.6206C3046.14 53.3301 3045.05 53.7111 3043.53 53.7111V54.3111ZM3048.54 49.2978V25.7311H3047.94V49.2978H3048.54ZM3048.54 25.7311C3048.54 24.1138 3048.14 22.8456 3047.27 21.984C3046.41 21.1223 3045.14 20.7178 3043.53 20.7178V21.3178C3045.05 21.3178 3046.14 21.6988 3046.85 22.4082C3047.56 23.1177 3047.94 24.2062 3047.94 25.7311H3048.54ZM3043.53 20.7178H3014.3V21.3178H3043.53V20.7178ZM3014 21.0178V54.0111H3014.6V21.0178H3014ZM3091.87 109H3091.57V109.3H3091.87V109ZM3091.87 0.593323V0.293324H3091.57V0.593323H3091.87ZM3166.03 0.593323H3166.33V0.293324H3166.03V0.593323ZM3166.03 21.0178V21.3178H3166.33V21.0178H3166.03ZM3114.49 21.0178V20.7178H3114.19V21.0178H3114.49ZM3114.49 43.0133H3114.19V43.3133H3114.49V43.0133ZM3161.31 43.0133H3161.61V42.7133H3161.31V43.0133ZM3161.31 63.4378V63.7378H3161.61V63.4378H3161.31ZM3114.49 63.4378V63.1378H3114.19V63.4378H3114.49ZM3114.49 88.5756H3114.19V88.8756H3114.49V88.5756ZM3166.03 88.5756H3166.33V88.2756H3166.03V88.5756ZM3166.03 109V109.3H3166.33V109H3166.03ZM3092.17 109V0.593323H3091.57V109H3092.17ZM3091.87 0.893322H3166.03V0.293324H3091.87V0.893322ZM3165.73 0.593323V21.0178H3166.33V0.593323H3165.73ZM3166.03 20.7178H3114.49V21.3178H3166.03V20.7178ZM3114.19 21.0178V43.0133H3114.79V21.0178H3114.19ZM3114.49 43.3133H3161.31V42.7133H3114.49V43.3133ZM3161.01 43.0133V63.4378H3161.61V43.0133H3161.01ZM3161.31 63.1378H3114.49V63.7378H3161.31V63.1378ZM3114.19 63.4378V88.5756H3114.79V63.4378H3114.19ZM3114.49 88.8756H3166.03V88.2756H3114.49V88.8756ZM3165.73 88.5756V109H3166.33V88.5756H3165.73ZM3166.03 108.7H3091.87V109.3H3166.03V108.7ZM3186.69 109H3186.39V109.3H3186.69V109ZM3186.69 0.593323V0.293324H3186.39V0.593323H3186.69ZM3251.26 69.408L3251.17 69.1234L3250.83 69.2336L3250.99 69.5441L3251.26 69.408ZM3269.01 104.287L3269.28 104.435L3269.35 104.294L3269.28 104.151L3269.01 104.287ZM3266.34 109V109.3H3266.52L3266.6 109.148L3266.34 109ZM3246.86 109L3246.59 109.136L3246.68 109.3H3246.86V109ZM3227.69 71.2933L3227.96 71.1574L3227.88 70.9933H3227.69V71.2933ZM3209.31 71.2933V70.9933H3209.01V71.2933H3209.31ZM3209.31 109V109.3H3209.61V109H3209.31ZM3209.31 50.8689H3209.01V51.1689H3209.31V50.8689ZM3209.31 21.0178V20.7178H3209.01V21.0178H3209.31ZM3186.99 109V0.593323H3186.39V109H3186.99ZM3186.69 0.893322H3239.48V0.293324H3186.69V0.893322ZM3239.48 0.893322C3248.23 0.893322 3254.74 3.08112 3259.06 7.40412C3263.38 11.7271 3265.57 18.236 3265.57 26.988H3266.17C3266.17 18.1435 3263.96 11.4551 3259.49 6.97986C3255.01 2.50464 3248.32 0.293324 3239.48 0.293324V0.893322ZM3265.57 26.988V44.8987H3266.17V26.988H3265.57ZM3265.57 44.8987C3265.57 51.4104 3264.36 56.6677 3261.96 60.6918C3259.57 64.7098 3255.97 67.5207 3251.17 69.1234L3251.36 69.6926C3256.29 68.0483 3260 65.1508 3262.48 60.9991C3264.95 56.8534 3266.17 51.4795 3266.17 44.8987H3265.57ZM3250.99 69.5441L3268.75 104.423L3269.28 104.151L3251.53 69.2719L3250.99 69.5441ZM3268.75 104.139L3266.08 108.852L3266.6 109.148L3269.28 104.435L3268.75 104.139ZM3266.34 108.7H3246.86V109.3H3266.34V108.7ZM3247.13 108.864L3227.96 71.1574L3227.43 71.4293L3246.59 109.136L3247.13 108.864ZM3227.69 70.9933H3209.31V71.5933H3227.69V70.9933ZM3209.01 71.2933V109H3209.61V71.2933H3209.01ZM3209.31 108.7H3186.69V109.3H3209.31V108.7ZM3209.31 51.1689H3238.53V50.5689H3209.31V51.1689ZM3238.53 51.1689C3240.15 51.1689 3241.42 50.7643 3242.28 49.9027C3243.14 49.041 3243.55 47.7729 3243.55 46.1556H3242.95C3242.95 47.6804 3242.57 48.769 3241.86 49.4784C3241.15 50.1879 3240.06 50.5689 3238.53 50.5689V51.1689ZM3243.55 46.1556V25.7311H3242.95V46.1556H3243.55ZM3243.55 25.7311C3243.55 24.1138 3243.14 22.8456 3242.28 21.984C3241.42 21.1223 3240.15 20.7178 3238.53 20.7178V21.3178C3240.06 21.3178 3241.15 21.6988 3241.86 22.4082C3242.57 23.1177 3242.95 24.2062 3242.95 25.7311H3243.55ZM3238.53 20.7178H3209.31V21.3178H3238.53V20.7178ZM3209.01 21.0178V50.8689H3209.61V21.0178H3209.01Z" fill="white"/>
</svg>
