<svg width="31" height="27" viewBox="0 0 31 27" fill="none" xmlns="http://www.w3.org/2000/svg">
<path d="M11.1614 19.6063C11.38 19.9583 11.6546 20.2723 11.9742 20.536C12.0908 20.6344 12.2152 20.7232 12.3461 20.8016C12.7969 21.1068 13.2963 21.3332 13.823 21.471L14.1789 21.5507C14.2984 21.5746 14.4233 21.5746 14.5428 21.5879C14.8536 21.6357 15.1644 21.6038 15.4805 21.6596C15.5787 21.6596 15.5708 21.726 15.4805 21.7897C15.3568 21.8834 15.2098 21.9412 15.0555 21.9571C14.8875 21.9704 14.7187 21.9704 14.5508 21.9571C14.3844 21.9556 14.2183 21.9414 14.0541 21.9146L13.5573 21.803C13.398 21.7472 13.2359 21.6861 13.0792 21.6224C12.9225 21.5586 12.7073 21.4444 12.5161 21.3568C12.3248 21.2691 12.1522 21.1469 11.9848 21.038C11.6131 20.7685 11.2852 20.4433 11.0127 20.0738L10.8852 19.9038L10.7816 19.7205C10.7058 19.6027 10.6392 19.4793 10.5823 19.3513C10.4918 19.1591 10.4189 18.959 10.3645 18.7536C10.3033 18.5513 10.2589 18.3443 10.2317 18.1347C10.184 17.813 10.1707 17.4871 10.1919 17.1625C10.1905 17.091 10.1985 17.0195 10.2158 16.95C10.2795 16.6844 10.3247 16.61 10.4203 16.5782C10.4412 16.5707 10.4625 16.5645 10.4841 16.5596C10.5505 16.5596 10.5823 16.6711 10.5717 16.8544C10.5302 17.3994 10.5714 17.9474 10.6939 18.48C10.7443 18.6782 10.8109 18.8719 10.8931 19.0591C10.9717 19.2499 11.0678 19.4331 11.18 19.6063H11.1614Z" fill="#4415FF"/>
<path d="M12.803 16.0336C12.8011 16.0574 12.7906 16.0796 12.7735 16.0963C12.7564 16.1129 12.7339 16.1227 12.7101 16.1239H12.7287C12.7287 16.1239 12.7712 15.9725 12.7287 15.9858C12.5188 16.0548 12.6091 16.3895 12.8216 16.3178C12.9358 16.278 13.0447 16.2036 13.0474 16.0708C13.0454 16.0211 13.0307 15.9728 13.0047 15.9304C12.9786 15.8881 12.9421 15.8532 12.8987 15.8291C12.8587 15.7954 12.8103 15.7734 12.7587 15.7652C12.7071 15.7571 12.6543 15.7632 12.6059 15.7829C12.5575 15.8025 12.5154 15.8351 12.4841 15.8769C12.4529 15.9188 12.4336 15.9683 12.4285 16.0203C12.4285 16.1133 12.5162 16.1903 12.6012 16.193C12.6465 16.1916 12.6897 16.173 12.7218 16.1409C12.7539 16.1088 12.7725 16.0657 12.7738 16.0203L12.803 16.0336Z" fill="#4415FF"/>
<path d="M12.4684 18.1532C12.4649 18.1428 12.4649 18.1316 12.4684 18.1213C12.4683 18.1339 12.4641 18.1462 12.4564 18.1563C12.4488 18.1663 12.438 18.1736 12.4259 18.1771C12.4259 18.1771 12.402 18.1771 12.4046 18.1771C12.4073 18.1771 12.4046 18.2249 12.4046 18.2222C12.3915 18.261 12.3686 18.2958 12.3382 18.3232C12.1762 18.4772 12.4206 18.7216 12.5826 18.5675C12.7446 18.4135 12.8482 17.9752 12.5268 17.8583C12.4728 17.8394 12.4146 17.8362 12.3589 17.849C12.3032 17.8618 12.2522 17.8902 12.2119 17.9307C12.1716 17.9713 12.1436 18.0225 12.1312 18.0783C12.1188 18.1341 12.1224 18.1923 12.1417 18.2461C12.2213 18.4507 12.5534 18.363 12.4763 18.1532H12.4684Z" fill="#4415FF"/>
<path d="M14.7447 14.0042C14.6761 13.9971 14.6069 14.0088 14.5445 14.0383C14.4822 14.0677 14.4291 14.1137 14.391 14.1712C14.3529 14.2287 14.3314 14.2956 14.3286 14.3645C14.3259 14.4334 14.3421 14.5017 14.3755 14.5621C14.3959 14.624 14.4306 14.6803 14.4767 14.7265C14.5229 14.7726 14.5792 14.8073 14.6411 14.8277C14.7137 14.8405 14.7884 14.8305 14.855 14.7991C14.9216 14.7677 14.9768 14.7165 15.013 14.6524C15.1166 14.5142 14.8882 14.3867 14.7846 14.5169C14.769 14.5394 14.748 14.5577 14.7235 14.57H14.7076C14.6671 14.545 14.637 14.5064 14.6226 14.4611C14.5774 14.3363 14.6226 14.2725 14.7527 14.2805C14.9254 14.2805 14.9227 14.0149 14.7527 14.0149L14.7447 14.0042Z" fill="#4415FF"/>
<path d="M3.39453 22.8708L3.32281 23.5428V23.564C3.32281 23.564 3.32282 23.564 3.34141 23.5773L3.58313 23.7048L3.90453 23.8722C4.01344 23.9279 4.13297 23.9651 4.24719 24.0129L4.93781 24.2786L5.64969 24.499C5.88875 24.5734 6.12516 24.6531 6.37219 24.7062C6.86094 24.8178 7.34438 24.9533 7.8411 25.0356C8.20235 25.0994 8.5636 25.1711 8.9275 25.2215L10.0166 25.3676C12.6002 25.6895 15.2061 25.7952 17.8073 25.6837C18.9628 25.6386 20.1209 25.519 21.2605 25.3623C22.7161 25.1357 24.162 24.8576 25.5981 24.5283C26.0497 24.4379 26.0178 24.5283 25.6725 24.7514C25.4351 24.8975 25.1904 25.0313 24.9394 25.1525C24.5834 25.3178 24.2113 25.446 23.8291 25.535C23.4572 25.6279 23.0827 25.7183 22.7055 25.7847C22.3283 25.8511 21.9538 25.9308 21.5766 25.9892C20.8169 26.0795 20.0598 26.1937 19.2975 26.2548C17.7693 26.3841 16.2346 26.4178 14.7022 26.3558C12.8251 26.3081 10.9522 26.1556 9.09219 25.8989C8.06662 25.7464 7.04967 25.5408 6.04547 25.2826C5.03298 25.0244 4.05284 24.6528 3.1236 24.175L2.83141 24.0262L2.66938 23.9412C2.66557 23.882 2.66557 23.8225 2.66938 23.7633L2.6986 23.4286L2.7225 23.1895C2.75172 22.8734 2.79156 22.5573 2.83406 22.2412C2.92084 21.6108 3.0262 20.9839 3.15016 20.3606C3.52007 18.4683 4.10007 16.6231 4.87938 14.8595C5.46583 13.4934 6.25768 12.225 7.2275 11.0983C7.44784 10.8531 7.68197 10.6208 7.92875 10.4023C8.25125 10.1043 8.61655 9.85633 9.0125 9.66654C9.18922 9.57067 9.38541 9.51618 9.58625 9.50716C9.65266 9.50716 9.73235 9.48857 9.77219 9.49123C9.90766 9.50451 9.50657 9.80998 8.86375 10.3625C7.87862 11.2002 7.03935 12.1957 6.38016 13.3083C5.69682 14.4621 5.13851 15.6856 4.71469 16.9579C4.06988 18.8766 3.63265 20.8589 3.41047 22.8708H3.39453Z" fill="#4415FF"/>
<path d="M25.5423 17.5264C25.3239 16.7605 25.0577 16.0091 24.7455 15.2765C24.6259 15.0109 24.5091 14.7453 24.3762 14.4797C23.9412 13.5533 23.4068 12.6769 22.7825 11.8659C22.6337 11.6959 22.4797 11.5286 22.3256 11.3612L22.0945 11.1142C22.0122 11.0345 21.9245 10.9654 21.8289 10.8911C21.6084 10.7078 21.3986 10.5086 21.1702 10.3333C20.9299 10.1743 20.7025 9.99668 20.4902 9.802C20.36 9.6745 20.4237 9.6081 20.6123 9.60278C20.8968 9.60305 21.1745 9.68915 21.4092 9.84981C21.4756 9.89231 21.542 9.93216 21.6031 9.97997L21.7837 10.1261L22.1397 10.4262C22.2539 10.5325 22.3761 10.6308 22.485 10.7423L22.7958 11.085C23.2131 11.5444 23.5858 12.0424 23.9087 12.5725C24.0894 12.8965 24.3019 13.2073 24.4905 13.5367C24.6791 13.8661 24.865 14.1954 25.0217 14.5354C25.3694 15.2851 25.6666 16.0571 25.9116 16.8464C26.0709 17.3272 26.1931 17.8186 26.3206 18.3073C26.4109 18.6792 26.4853 19.0564 26.5677 19.4309C26.65 19.8054 26.7084 20.1826 26.7669 20.5572C26.8625 21.1389 26.9687 21.71 27.0325 22.2943C27.0325 22.4218 27.0644 22.5467 27.075 22.6768C27.1095 23.1603 27.0484 23.317 26.913 23.4206C26.8838 23.4471 26.8517 23.4703 26.8173 23.4897C26.7111 23.5348 26.6102 23.3409 26.5517 23.0009C26.4109 21.9889 26.2436 20.929 26.0444 19.8718C25.978 19.4761 25.8797 19.075 25.7973 18.6951C25.715 18.3153 25.6353 17.9301 25.5291 17.5317L25.5423 17.5264Z" fill="#4415FF"/>
<path d="M9.41629 6.42325C9.43488 6.54013 9.47207 6.657 9.49863 6.77653C9.52519 6.89606 9.573 7.00497 9.61285 7.12185C9.65269 7.23872 9.69519 7.27856 9.72707 7.36091C9.85081 7.64692 10.0125 7.91496 10.2078 8.15778C10.299 8.26091 10.4046 8.35037 10.5213 8.42341C10.6621 8.527 10.8188 8.58544 10.9596 8.68903C11.0021 8.72356 10.9596 8.82185 10.8905 8.90685C10.8479 8.95492 10.793 8.99047 10.7317 9.00966C10.6703 9.02885 10.605 9.03095 10.5425 9.01575C10.4381 8.98662 10.3367 8.94748 10.2397 8.89888C10.1436 8.8391 10.0545 8.76871 9.9741 8.68903C9.82033 8.53878 9.69045 8.36589 9.58894 8.17638C9.46941 7.95325 9.32332 7.75403 9.20379 7.52294C9.14225 7.39854 9.08987 7.26981 9.04707 7.13778C9.00901 7.00403 8.97797 6.86838 8.9541 6.73138C8.90894 6.56935 8.88769 6.39935 8.85847 6.23466C8.82718 5.98179 8.81298 5.7271 8.81597 5.47231C8.81597 5.37403 8.81597 5.27575 8.81597 5.17747C8.81597 5.07919 8.81597 4.97825 8.83722 4.87997C8.83995 4.83665 8.84798 4.79383 8.86113 4.75247C8.91425 4.59575 8.98066 4.56122 9.07097 4.55591H9.13472C9.20113 4.55591 9.24363 4.64356 9.27019 4.75778C9.28347 4.92247 9.30207 5.08185 9.30472 5.23856C9.30738 5.39528 9.33129 5.552 9.34457 5.71138C9.35682 5.94914 9.3888 6.18547 9.44019 6.41794L9.41629 6.42325Z" fill="#4415FF"/>
<path d="M19.5791 6.09115C19.5364 6.30388 19.4759 6.51268 19.3985 6.71537C19.3783 6.79273 19.3516 6.86825 19.3188 6.94115C19.1949 7.19612 19.0247 7.42581 18.8168 7.61849C18.7291 7.7088 18.6335 7.79115 18.5511 7.88412C18.4904 7.93657 18.4265 7.98535 18.3599 8.03021C18.2855 8.06234 18.2067 8.08294 18.1261 8.0913C18.073 8.0913 18.0465 8.00365 18.0385 7.89208C18.0305 7.78052 18.0385 7.65302 18.0863 7.60521C18.2818 7.45643 18.4681 7.29587 18.6441 7.12443C18.7474 6.99912 18.825 6.85471 18.8726 6.69943C18.9416 6.52706 18.9967 6.3494 19.0372 6.16818C19.0649 6.05371 19.0844 5.93743 19.0957 5.82021C19.1126 5.64353 19.1126 5.46564 19.0957 5.28896C19.0729 5.15262 19.0418 5.01779 19.0027 4.88521C18.9932 4.85665 18.986 4.82732 18.9815 4.79755C18.9629 4.68599 19.016 4.64083 19.1143 4.59568L19.1807 4.56646C19.2225 4.55568 19.2666 4.55806 19.307 4.57327C19.3474 4.58848 19.3821 4.61579 19.4065 4.65146C19.5668 4.88548 19.6537 5.162 19.6561 5.44568C19.6568 5.66195 19.6391 5.87789 19.603 6.09115H19.5791Z" fill="#4415FF"/>
<path d="M21.6855 7.09265C21.6183 7.29836 21.5385 7.49973 21.4465 7.69562C21.4167 7.77079 21.383 7.84438 21.3455 7.91608C21.202 8.16521 21.0159 8.38726 20.7957 8.57218C20.7505 8.61468 20.6921 8.64655 20.6443 8.6864C20.5953 8.72594 20.5439 8.76232 20.4902 8.7953C20.4185 8.83515 20.3548 8.88296 20.2804 8.91749C20.2055 8.94751 20.1268 8.96717 20.0466 8.97593C19.9962 8.97593 19.9776 8.89358 19.9855 8.7953C19.9935 8.69702 20.0174 8.58546 20.0812 8.54827C20.1897 8.48034 20.2927 8.40396 20.3893 8.31983C20.4398 8.28265 20.4902 8.24546 20.5407 8.20296C20.595 8.16419 20.6465 8.12158 20.6948 8.07546C20.7589 8.02109 20.8114 7.95421 20.8488 7.8789C20.8911 7.80403 20.9293 7.72688 20.963 7.6478C21.0497 7.47679 21.1225 7.29915 21.1809 7.11655C21.218 6.99968 21.2552 6.8828 21.2818 6.76061C21.329 6.57787 21.3654 6.3925 21.3907 6.20546C21.4093 6.05936 21.3907 5.91061 21.3907 5.76186C21.3907 5.72999 21.3907 5.69546 21.3907 5.66358C21.4173 5.5414 21.4571 5.50952 21.5819 5.50952H21.6616C21.7051 5.51371 21.7461 5.5317 21.7786 5.56086C21.8111 5.59001 21.8334 5.6288 21.8423 5.67155C21.9046 5.9398 21.9046 6.21877 21.8423 6.48702C21.8065 6.69197 21.7604 6.89499 21.7041 7.0953L21.6855 7.09265Z" fill="#4415FF"/>
<path d="M4.68017 4.29825C4.53408 4.40185 4.38002 4.49482 4.24455 4.60638L4.03736 4.76575L3.85142 4.9331C3.79298 4.98888 3.76377 5.03138 3.71595 5.0845L3.58845 5.30497C3.50768 5.45427 3.4367 5.60866 3.37595 5.76716C3.1182 6.42596 2.99274 7.12909 3.00673 7.83638C3.01211 8.34696 3.0945 8.85381 3.25111 9.33982C3.31513 9.54401 3.40436 9.73942 3.51673 9.92153L3.59908 10.0358C3.61973 10.0636 3.64487 10.0878 3.67345 10.1075C3.74209 10.1549 3.8185 10.19 3.89923 10.2111C4.32528 10.297 4.76496 10.2889 5.18752 10.1872C6.09002 10.0097 6.937 9.61896 7.65783 9.04763C7.84048 8.89525 8.00774 8.72533 8.1572 8.54029C8.23019 8.45622 8.29763 8.36749 8.35908 8.27466L8.42283 8.102L8.49189 7.96388C8.5065 7.92355 8.5065 7.87937 8.49189 7.83904C8.47105 7.77349 8.44345 7.71029 8.40955 7.65044C8.33027 7.51083 8.24152 7.37682 8.14392 7.24935C8.03236 7.11122 7.91283 6.98372 7.78798 6.84825L7.59673 6.657L7.36033 6.43122C7.30703 6.39076 7.26119 6.34132 7.22486 6.28513C7.20932 6.26206 7.19513 6.23812 7.18236 6.21341C7.17572 6.18367 7.17572 6.15284 7.18236 6.1231C7.21112 5.99386 7.27237 5.87409 7.36033 5.77513C7.40294 5.71996 7.44908 5.66761 7.49845 5.61841C7.53298 5.58122 7.56752 5.54935 7.6047 5.51482C7.64189 5.48029 7.7508 5.38732 7.82783 5.32888C8.14301 5.06846 8.54622 4.93913 8.95408 4.96763C9.15064 4.99685 9.2197 5.06591 9.20377 5.1031C9.18783 5.14029 9.08689 5.17216 8.95408 5.23591C8.58976 5.44263 8.26508 5.71245 7.99517 6.03278L7.96861 6.05935L8.07486 6.15763L8.27142 6.36482C8.40158 6.5056 8.53705 6.64904 8.64861 6.8031C8.77645 6.96354 8.89105 7.1341 8.99127 7.3131C9.05245 7.42311 9.10059 7.53989 9.1347 7.66107C9.15389 7.74827 9.1628 7.83742 9.16127 7.92669C9.15021 8.01644 9.13245 8.10522 9.10814 8.19232L9.03377 8.33841C9.01483 8.37995 8.99262 8.41992 8.96736 8.45794C8.92361 8.53485 8.87573 8.60933 8.82392 8.68107C8.72422 8.82597 8.61319 8.96276 8.49189 9.09013C8.25791 9.3389 7.99686 9.56074 7.71361 9.75153C7.15989 10.1248 6.55013 10.4072 5.90736 10.5883C5.56683 10.6881 5.21852 10.7592 4.86611 10.8008C4.48953 10.8566 4.10588 10.8421 3.73455 10.7583C3.51106 10.707 3.30828 10.5894 3.15283 10.4209C3.0292 10.2712 2.92562 10.106 2.8447 9.9295C2.69046 9.5969 2.58232 9.24479 2.5233 8.88294C2.45314 8.49744 2.42111 8.10597 2.42767 7.71419C2.42847 7.32362 2.46672 6.93402 2.54189 6.55075C2.61567 6.16475 2.73146 5.78797 2.8872 5.42716L3.00939 5.16154C3.0572 5.07388 3.10767 4.98888 3.15548 4.89591L3.22986 4.76841L3.33611 4.63825C3.4028 4.55745 3.47658 4.48278 3.55658 4.41513C3.91374 4.10539 4.29775 3.82804 4.70408 3.58638C4.90418 3.46242 5.10606 3.34555 5.3097 3.23575C5.51423 3.11888 5.72142 3.01263 5.93127 2.91169C7.19374 2.28677 8.51504 1.7885 9.8758 1.42419C10.9125 1.12978 11.9676 0.904391 13.0341 0.749504L13.7353 0.664504C14.0483 0.623876 14.3653 0.623876 14.6783 0.664504C14.8281 0.675782 14.9726 0.725156 15.098 0.807942C15.1434 0.833481 15.1853 0.864724 15.2228 0.90091C15.3078 1.00185 14.9572 1.11075 14.3224 1.19044C14.0886 1.20372 13.8522 1.24091 13.6185 1.27279L12.9092 1.36575C12.4391 1.45872 11.9583 1.51716 11.4828 1.63138C10.52 1.82943 9.57142 2.0912 8.6433 2.41497C7.25788 2.88435 5.935 3.52126 4.70408 4.31153L4.68017 4.29825Z" fill="#4415FF"/>
<path d="M26.156 4.2637C26.4585 4.49964 26.7459 4.75425 27.0167 5.02604L27.2185 5.24917C27.2886 5.33949 27.3525 5.43445 27.4098 5.53339C27.4948 5.71136 27.5877 5.88401 27.6542 6.06464C27.942 6.78688 28.0864 7.55828 28.0792 8.33573C28.0885 8.91063 27.9922 9.48237 27.7949 10.0225C27.6996 10.2732 27.5652 10.5072 27.3965 10.7157C27.3504 10.7736 27.2997 10.8278 27.2451 10.8778C27.1828 10.9347 27.1131 10.9829 27.0379 11.0212C26.9061 11.0866 26.7657 11.1331 26.6209 11.1593C26.1145 11.2302 25.599 11.2004 25.1042 11.0717C24.1487 10.8488 23.2577 10.4079 22.501 9.78339C22.1572 9.49761 21.8667 9.15317 21.6431 8.76604C21.5852 8.66527 21.5347 8.56053 21.4916 8.45261C21.4664 8.41951 21.4483 8.38151 21.4385 8.34104C21.4291 8.30275 21.4238 8.26358 21.4226 8.22417C21.4279 8.14728 21.443 8.07139 21.4677 7.99839C21.5574 7.78179 21.6812 7.58092 21.8343 7.40339C21.9693 7.2358 22.113 7.07533 22.2646 6.92261C22.339 6.84823 22.416 6.77386 22.4957 6.70214L22.6684 6.54542C22.6896 6.52151 22.7215 6.50558 22.7374 6.48167C22.7239 6.45113 22.705 6.42325 22.6817 6.39933L22.6073 6.32229C22.5542 6.26917 22.4984 6.2187 22.4426 6.16823C22.2207 5.97272 21.9721 5.80993 21.7042 5.68479C21.5713 5.62901 21.5102 5.59714 21.5156 5.55198C21.5209 5.50683 21.6032 5.45104 21.7652 5.42448C21.988 5.38947 22.216 5.41328 22.4267 5.49354C22.5648 5.5446 22.6974 5.60957 22.8224 5.68745C22.8904 5.73083 22.956 5.77783 23.019 5.82823C23.0626 5.86111 23.1035 5.89754 23.1412 5.93714C23.1968 5.98873 23.2491 6.04373 23.2979 6.10183C23.414 6.21686 23.4855 6.36933 23.4998 6.53214C23.504 6.56743 23.504 6.6031 23.4998 6.63839C23.4931 6.67053 23.4805 6.70115 23.4626 6.7287C23.4451 6.76232 23.4246 6.79432 23.4015 6.82433L23.2952 6.91198L23.0535 7.12448L22.926 7.24667C22.8384 7.32636 22.7534 7.40604 22.6604 7.49104C22.4994 7.6482 22.3511 7.81785 22.2168 7.99839C22.1653 8.06626 22.1224 8.14033 22.0893 8.21886L22.1052 8.2587C22.1881 8.4543 22.2962 8.63826 22.4267 8.80589C23.0353 9.51118 23.8225 10.0397 24.7057 10.3359C25.0003 10.4424 25.3045 10.5198 25.6142 10.567C25.9122 10.6175 26.2166 10.6175 26.5146 10.567C26.6326 10.5481 26.7446 10.5017 26.8413 10.4315C26.8869 10.3875 26.9295 10.3404 26.9688 10.2907L27.0884 10.1101C27.2347 9.84051 27.3395 9.55037 27.3992 9.24948C27.4693 8.90773 27.5049 8.55977 27.5054 8.21089C27.4994 7.85414 27.4621 7.4986 27.3938 7.14839C27.3204 6.80362 27.2145 6.46655 27.0777 6.14167C27.0459 6.06198 27.0034 5.98495 26.9662 5.90526C26.9333 5.82854 26.8923 5.75553 26.844 5.68745L26.7776 5.59448L26.6899 5.49886C26.6341 5.4328 26.5747 5.36984 26.512 5.31026C25.8558 4.70465 25.1373 4.1704 24.3684 3.71651C23.204 3.01462 21.9646 2.4453 20.6735 2.01917C19.6866 1.69301 18.6722 1.45653 17.6427 1.31261L16.9681 1.23026C16.1234 1.13729 15.8577 1.06026 15.6851 0.900888C15.6431 0.867929 15.604 0.831498 15.5682 0.791982C15.4912 0.68042 15.8498 0.614014 16.4952 0.614014C16.7351 0.619494 16.9746 0.638116 17.2124 0.669795L17.9376 0.752139L18.6601 0.884951C18.9045 0.927451 19.1462 0.97792 19.3879 1.04433L20.1131 1.23026L20.8302 1.4587C21.072 1.53308 21.3084 1.62339 21.5421 1.72433C21.7759 1.82526 22.0176 1.88901 22.2354 1.99261C23.6291 2.58045 24.945 3.33788 26.1534 4.24776L26.156 4.2637Z" fill="#4415FF"/>
<path d="M11.5891 7.44849C11.3356 7.06826 11.1615 6.6408 11.077 6.1917C10.9926 5.74259 10.9996 5.28106 11.0977 4.83474C11.1163 4.75239 11.1349 4.67536 11.1615 4.59302L11.2226 4.40177L11.2358 4.35661C11.2358 4.34068 11.2624 4.33536 11.273 4.32474L11.3527 4.26896L11.5865 4.10161C11.6555 4.05646 11.7299 4.02458 11.8016 3.98474C12.2999 3.74745 12.8266 3.57515 13.3688 3.47208C13.8941 3.36427 14.4269 3.29678 14.9626 3.27021C15.4402 3.24099 15.9192 3.24099 16.3969 3.27021C16.551 3.28614 16.7051 3.2888 16.8591 3.31271C17.0138 3.33666 17.1672 3.36858 17.3186 3.40833C17.4732 3.44986 17.6235 3.50589 17.7676 3.57568L17.9827 3.68724C18.0492 3.73875 18.1122 3.79466 18.1713 3.85458C18.3174 4.00068 18.2244 4.04849 18.0226 4.07505C17.9047 4.09351 17.7858 4.10504 17.6666 4.10958C17.5248 4.11129 17.3832 4.09793 17.2443 4.06974C16.1099 3.85401 14.9478 3.82619 13.8044 3.98739C13.4492 4.03535 13.0996 4.11809 12.7605 4.23443C12.4261 4.34161 12.1066 4.49066 11.8096 4.67802L11.7405 4.72052C11.7246 4.72052 11.7272 4.74974 11.7193 4.76302C11.688 4.84941 11.664 4.93826 11.6476 5.02864C11.6068 5.21174 11.5872 5.3989 11.5891 5.58646C11.5895 5.96702 11.6691 6.34334 11.8229 6.69146C11.9042 6.87903 12.0057 7.05716 12.1257 7.22271C12.1851 7.30477 12.2499 7.38286 12.3196 7.45646L12.4258 7.56536L12.5215 7.64771C12.5348 7.65966 12.5503 7.66887 12.5671 7.6748C12.584 7.68072 12.6019 7.68325 12.6197 7.68224C12.6991 7.67915 12.7781 7.67027 12.8561 7.65568L13.1218 7.59989L13.6876 7.47771C14.0693 7.39749 14.455 7.3372 14.843 7.29708C15.4482 7.22363 16.0606 7.23525 16.6626 7.33161C16.7961 7.35203 16.9282 7.38041 17.0583 7.41661C17.1611 7.4465 17.2622 7.48197 17.3611 7.52286C17.4279 7.55628 17.491 7.59633 17.5497 7.64239C17.6279 7.70027 17.6811 7.78575 17.6985 7.88146C17.7081 7.91889 17.7144 7.95712 17.7171 7.99568C17.7171 8.11255 17.494 8.10458 17.1646 8.03818C16.1706 7.78969 15.1329 7.77243 14.1311 7.98771C13.8655 8.03818 13.5999 8.09927 13.321 8.16036C13.1802 8.19224 13.0394 8.22411 12.8801 8.25068C12.8402 8.25068 12.8004 8.25068 12.7526 8.26661C12.696 8.27061 12.6392 8.27061 12.5826 8.26661C12.5134 8.26401 12.4447 8.25331 12.378 8.23474C12.3453 8.22585 12.314 8.21244 12.2851 8.19489C12.2533 8.18128 12.223 8.16436 12.1947 8.14443L12.0752 8.04614C12.0486 8.02224 12.0168 7.99833 11.9902 7.97177L11.8335 7.81239C11.7382 7.70168 11.6495 7.58549 11.5679 7.46443L11.5891 7.44849Z" fill="#4415FF"/>
<path d="M11.9106 14.4185C11.4444 14.9269 11.1143 15.5448 10.9508 16.2149C10.7873 16.885 10.7959 17.5856 10.9756 18.2515C11.116 18.7412 11.3349 19.205 11.6237 19.6248C12.1231 20.3763 12.8488 20.9494 13.6956 21.261C14.5121 21.5435 15.392 21.5881 16.2329 21.3896C17.0738 21.1912 17.8409 20.7578 18.4449 20.1401C19.1514 19.3877 19.5926 18.4251 19.7013 17.3988C19.7412 17.0827 19.8846 17.1173 20.0068 17.4148C20.1768 17.9127 20.1559 18.456 19.9484 18.9395C19.4927 20.0587 18.642 20.9718 17.5578 21.5054C16.4944 22.0537 15.2721 22.2107 14.1046 21.949C13.4023 21.7885 12.7436 21.4764 12.1746 21.0346C11.6057 20.5927 11.1402 20.0317 10.8109 19.391C10.4503 18.6853 10.2688 17.9017 10.2823 17.1093C10.2911 16.2306 10.5509 15.3728 11.0309 14.6368C11.5109 13.9008 12.1912 13.3173 12.9917 12.9549C13.6455 12.6488 14.3548 12.4791 15.0764 12.4563C15.798 12.4334 16.5167 12.5579 17.1885 12.8221C17.7055 13.0277 18.1849 13.3176 18.607 13.6801C19.0256 14.0481 19.3786 14.4846 19.6509 14.971C19.7721 15.1853 19.8735 15.4102 19.9537 15.643C20.0666 15.9503 20.1259 16.2746 20.129 16.602C20.1306 16.706 20.1107 16.8093 20.0705 16.9053C20.0302 17.0013 19.9706 17.0879 19.8953 17.1598C19.7678 17.2395 19.7173 16.8941 19.5792 16.3045C19.3557 15.4164 18.8572 14.6218 18.1549 14.034C17.4527 13.4463 16.5827 13.0956 15.6692 13.032C14.978 12.9748 14.2826 13.0654 13.6292 13.2976C12.9775 13.5288 12.3915 13.9143 11.9212 14.4212L11.9106 14.4185Z" fill="#4415FF"/>
<path d="M14.952 14.522C14.9508 14.5794 14.9295 14.6346 14.8917 14.6778C14.8539 14.721 14.8021 14.7496 14.7454 14.7585C14.6887 14.7674 14.6306 14.756 14.5815 14.7263C14.5323 14.6967 14.4951 14.6507 14.4765 14.5964C14.3543 14.2643 14.9148 14.1368 14.952 14.522C14.9759 14.7584 15.3477 14.761 15.3238 14.522C15.3218 14.438 15.3031 14.3553 15.269 14.2786C15.2349 14.2018 15.1859 14.1326 15.125 14.0749C15.064 14.0171 14.9922 13.972 14.9138 13.942C14.8353 13.9121 14.7517 13.8979 14.6677 13.9004C14.5817 13.908 14.4981 13.9333 14.4223 13.9748C14.3464 14.0162 14.28 14.0729 14.2271 14.1413C14.1742 14.2096 14.1361 14.2881 14.115 14.3719C14.0939 14.4557 14.0904 14.543 14.1046 14.6282C14.1348 14.7672 14.2105 14.892 14.3197 14.983C14.429 15.074 14.5655 15.1258 14.7076 15.1303C14.7893 15.1347 14.871 15.1222 14.9475 15.0933C15.0241 15.0645 15.0938 15.0201 15.1522 14.9629C15.2107 14.9057 15.2566 14.837 15.2871 14.7611C15.3175 14.6851 15.3319 14.6037 15.3292 14.522C15.3292 14.472 15.3093 14.424 15.2739 14.3886C15.2385 14.3533 15.1906 14.3334 15.1406 14.3334C15.0905 14.3334 15.0426 14.3533 15.0072 14.3886C14.9718 14.424 14.952 14.472 14.952 14.522Z" fill="#4415FF"/>
<path d="M13.05 15.9007C13.0472 15.9575 13.0249 16.0115 12.9869 16.0538C12.9488 16.0961 12.8974 16.1239 12.8412 16.1326C12.785 16.1414 12.7276 16.1305 12.6785 16.1018C12.6294 16.0731 12.5918 16.0283 12.5719 15.975C12.4523 15.643 13.0128 15.5155 13.05 15.9007C13.0712 16.1371 13.4431 16.1397 13.4219 15.9007C13.4205 15.816 13.4023 15.7325 13.3683 15.655C13.3343 15.5775 13.2852 15.5075 13.2239 15.4491C13.1626 15.3908 13.0903 15.3452 13.0111 15.3151C12.932 15.285 12.8477 15.271 12.7631 15.2738C12.6771 15.2811 12.5936 15.3061 12.5178 15.3472C12.442 15.3884 12.3755 15.4448 12.3226 15.5129C12.2697 15.5811 12.2315 15.6594 12.2104 15.7431C12.1893 15.8267 12.1857 15.9139 12.2 15.999C12.2305 16.1379 12.3062 16.2629 12.4153 16.3542C12.5244 16.4456 12.6608 16.4981 12.803 16.5036C12.8843 16.5066 12.9655 16.4928 13.0413 16.4632C13.1172 16.4337 13.1863 16.3889 13.2442 16.3317C13.3022 16.2745 13.3478 16.206 13.3784 16.1305C13.4089 16.0551 13.4237 15.9741 13.4219 15.8927C13.4208 15.8434 13.4002 15.7965 13.3646 15.7624C13.329 15.7283 13.2813 15.7097 13.2319 15.7107C13.1826 15.7118 13.1358 15.7324 13.1016 15.768C13.0675 15.8036 13.0489 15.8514 13.05 15.9007Z" fill="#4415FF"/>
<path d="M12.7792 18.1719C12.778 18.2293 12.7567 18.2845 12.7189 18.3277C12.6811 18.3709 12.6293 18.3995 12.5726 18.4084C12.5159 18.4173 12.4578 18.4059 12.4087 18.3762C12.3595 18.3466 12.3223 18.3006 12.3037 18.2463C12.1815 17.9142 12.742 17.7867 12.7792 18.1719C12.8004 18.4083 13.175 18.4083 13.151 18.1719C13.1486 18.0878 13.1297 18.005 13.0953 17.9283C13.0609 17.8515 13.0117 17.7823 12.9505 17.7246C12.8893 17.6669 12.8173 17.6218 12.7387 17.5919C12.6601 17.562 12.5764 17.5478 12.4923 17.5503C12.4062 17.5579 12.3226 17.5833 12.2468 17.6247C12.171 17.6661 12.1046 17.7228 12.0517 17.7912C11.9988 17.8595 11.9606 17.938 11.9395 18.0218C11.9185 18.1057 11.9149 18.1929 11.9292 18.2781C11.9599 18.4173 12.0361 18.5422 12.1458 18.6332C12.2555 18.7241 12.3924 18.7758 12.5348 18.7802C12.6158 18.7831 12.6966 18.7694 12.7722 18.74C12.8477 18.7105 12.9165 18.666 12.9742 18.609C13.0319 18.552 13.0774 18.4839 13.1078 18.4087C13.1382 18.3336 13.1529 18.253 13.151 18.1719C13.151 18.1226 13.1315 18.0753 13.0966 18.0404C13.0617 18.0055 13.0144 17.986 12.9651 17.986C12.9158 17.986 12.8685 18.0055 12.8336 18.0404C12.7988 18.0753 12.7792 18.1226 12.7792 18.1719Z" fill="#4415FF"/>
<path d="M15.2229 17.7655C15.5192 17.7655 15.7594 17.5253 15.7594 17.2289C15.7594 16.9326 15.5192 16.6924 15.2229 16.6924C14.9265 16.6924 14.6863 16.9326 14.6863 17.2289C14.6863 17.5253 14.9265 17.7655 15.2229 17.7655Z" fill="#4415FF"/>
<path d="M2.91119 21.9597C2.80228 21.981 0.0982196 23.07 0.533845 23.8696C1.27228 25.2296 9.43494 26.393 9.69525 25.7528L2.91119 23.9997V21.9597Z" fill="#4415FF"/>
<path d="M9.3472 25.6067C9.93688 25.6546 10.5239 25.6971 11.1136 25.7316L11.7617 25.7528C12.5179 25.7918 13.2767 25.8263 14.0381 25.8564C14.3755 25.8564 14.7155 25.8564 15.0502 25.8564C15.4818 25.8361 15.9144 25.8503 16.3438 25.8989C16.4766 25.9202 16.4606 25.9786 16.3438 26.0557C16.1756 26.1723 15.9794 26.242 15.7753 26.2575C15.3334 26.29 14.8901 26.2998 14.4472 26.2867C14.0063 26.2867 13.5627 26.2655 13.1191 26.2257C12.5878 26.1805 12.0353 26.1858 11.4934 26.1592C10.8958 26.1327 10.2981 26.0928 9.70048 26.0477L8.60079 25.9574C8.04563 25.9096 7.48516 25.8405 6.93532 25.7555C6.51032 25.6891 6.09063 25.636 5.67095 25.5802L5.40532 25.5403C5.28263 25.5277 5.16259 25.4963 5.04938 25.4474C4.9889 25.4221 4.93718 25.3796 4.90063 25.3252C4.90063 25.3039 4.8661 25.2853 4.85813 25.2694C4.85016 25.2535 4.98032 25.1552 5.24595 25.1472C6.02157 25.1632 6.79985 25.3438 7.58079 25.4314C8.1572 25.5005 8.75751 25.5483 9.3472 25.5908V25.6067Z" fill="#4415FF"/>
<path d="M11.6103 16.6657C11.479 17.3446 11.5559 18.0474 11.8308 18.6818C11.9401 18.9086 12.0718 19.124 12.2239 19.3246C12.7639 20.0529 13.5606 20.5485 14.4525 20.7112C14.8489 20.7772 15.254 20.77 15.6478 20.69C16.1478 20.5844 16.6293 20.4053 17.0769 20.1587C17.2177 20.0843 17.2602 20.1746 17.1911 20.3314C17.0716 20.5626 16.8725 20.7428 16.6306 20.8387C16.0964 21.0633 15.5206 21.1719 14.9412 21.1575C14.3597 21.1394 13.7908 20.9838 13.2811 20.7032C12.6603 20.3716 12.131 19.8916 11.7405 19.306C11.534 18.9777 11.3799 18.6193 11.2836 18.2435C11.0881 17.408 11.1625 16.532 11.4961 15.7414C11.7708 15.0848 12.2246 14.5188 12.8056 14.1078C13.2419 13.7891 13.7392 13.5639 14.2666 13.4464L14.6225 13.3985C14.7805 13.3751 14.9415 13.3796 15.098 13.4118C15.1763 13.4239 15.2479 13.4635 15.2998 13.5234C15.3201 13.5453 15.3379 13.5694 15.353 13.5951C15.3848 13.6748 15.2069 13.7332 14.9067 13.7439C14.4573 13.7768 14.0165 13.8845 13.6025 14.0626C13.1855 14.2532 12.81 14.524 12.4975 14.8595C12.0357 15.3647 11.7279 15.9914 11.6103 16.6657Z" fill="#4415FF"/>
<path d="M23.2209 9.44602C23.4585 9.62645 23.7069 9.79232 23.9646 9.94273C24.0603 9.99586 24.1585 10.0357 24.2568 10.0862C24.5974 10.2582 24.9531 10.3987 25.3193 10.5059C25.4845 10.5514 25.6534 10.5825 25.824 10.5988C26.0418 10.6227 26.257 10.652 26.4774 10.6918C26.5465 10.7077 26.5385 10.7529 26.4774 10.806C26.3917 10.881 26.2852 10.9283 26.172 10.9415C25.9348 10.9659 25.6953 10.9516 25.4628 10.899C25.2276 10.8569 24.9978 10.7892 24.7774 10.6971C24.5118 10.5855 24.2462 10.4926 23.9806 10.3624C23.705 10.2143 23.4389 10.0493 23.1837 9.86836C23.0232 9.75638 22.8689 9.63579 22.7215 9.50711C22.4931 9.31313 22.2912 9.08985 22.1212 8.84305C21.9777 8.65523 21.8697 8.44279 21.8024 8.21617C21.7845 8.16724 21.772 8.11646 21.7653 8.06476C21.7307 7.8682 21.7653 7.79914 21.8476 7.76461C21.8651 7.75361 21.8838 7.7447 21.9034 7.73805C21.9618 7.72211 22.0203 7.79383 22.0548 7.9107C22.1716 8.25537 22.3518 8.57517 22.586 8.85367C22.7779 9.06847 22.9925 9.26174 23.2262 9.43008L23.2209 9.44602Z" fill="#4415FF"/>
<path d="M6.76533 9.52026C6.99469 9.39336 7.21482 9.25045 7.42409 9.0926C7.50377 9.03682 7.56752 8.96776 7.6419 8.90666C7.90432 8.70102 8.13755 8.46064 8.33518 8.19213C8.37935 8.13507 8.41431 8.07143 8.43877 8.00354C8.45449 7.97274 8.46781 7.94077 8.47862 7.90791C8.48299 7.88331 8.48299 7.85814 8.47862 7.83354C8.44754 7.65897 8.40132 7.48743 8.34049 7.32088C8.32455 7.25979 8.3883 7.23588 8.47596 7.24916C8.53068 7.25821 8.58278 7.27905 8.62865 7.31024C8.67452 7.34143 8.71305 7.38222 8.74158 7.42979C8.80564 7.53963 8.84549 7.66189 8.85846 7.78838C8.86597 7.86992 8.85693 7.95214 8.8319 8.0301C8.80799 8.09651 8.78408 8.13901 8.76018 8.19479C8.66094 8.39196 8.52992 8.57144 8.37237 8.72604C8.19174 8.90932 8.01909 9.10588 7.82252 9.27323C7.60595 9.45498 7.37598 9.62014 7.13455 9.76729C6.98846 9.86026 6.83705 9.93994 6.68565 10.0329C6.45455 10.1524 6.21549 10.264 5.97643 10.3623L5.7108 10.4871C5.61885 10.5318 5.52388 10.57 5.42658 10.6014C5.38143 10.6014 5.34158 10.6306 5.29643 10.6412C5.12643 10.6704 5.06799 10.6412 5.0308 10.5429C5.0308 10.519 5.00955 10.4951 5.00158 10.4712C4.98033 10.3915 5.03612 10.3118 5.13705 10.2667C5.43721 10.1179 5.75596 10.0143 6.07205 9.86557C6.3115 9.75932 6.54474 9.63959 6.77065 9.50698L6.76533 9.52026Z" fill="#4415FF"/>
<path d="M0.161924 5.8442C0.145987 5.8867 0.108799 5.8256 0.050362 5.70607C0.026488 5.64806 0.00954779 5.58743 -0.000106812 5.52545C0.0038271 5.49011 0.0118496 5.45534 0.0237995 5.42185C0.0922011 5.36512 0.166051 5.31529 0.244268 5.2731C0.294462 5.24322 0.350759 5.22506 0.408956 5.21998L0.733018 5.18013C0.75649 5.17369 0.781265 5.17369 0.804737 5.18013C0.878815 5.20523 0.959097 5.20523 1.03317 5.18013C1.03317 5.18013 1.05708 5.18013 1.06505 5.15888C1.13415 5.1209 1.21199 5.10166 1.29083 5.1031C1.35458 5.12435 1.41833 5.13498 1.48739 5.15357C1.48739 5.15357 1.48739 5.15357 1.51661 5.15357C1.54583 5.15357 1.56708 5.18279 1.58833 5.18013C1.61749 5.17746 1.64683 5.17746 1.67599 5.18013C1.69789 5.18868 1.71846 5.20031 1.73708 5.21467C1.76114 5.23721 1.77702 5.26711 1.78224 5.29967C1.78224 5.32357 1.80614 5.34748 1.82208 5.37404V5.4006C1.79333 5.48501 1.7492 5.56336 1.69192 5.6317L1.55646 5.71935C1.48739 5.75654 1.41036 5.78842 1.39708 5.79638C1.3838 5.80435 1.36255 5.79638 1.34396 5.79638C1.32536 5.79638 1.12349 5.88138 1.11286 5.87873C1.10224 5.87607 1.02521 5.90529 0.977393 5.86279C0.977393 5.86279 0.961456 5.86279 0.950831 5.86279C0.878614 5.8734 0.805235 5.8734 0.733018 5.86279C0.698542 5.86004 0.663901 5.86004 0.629424 5.86279C0.629424 5.86279 0.616143 5.86279 0.608174 5.86279H0.584268C0.504122 5.86415 0.424555 5.87667 0.347862 5.89998C0.331924 5.89998 0.238956 5.86545 0.220362 5.87873C0.201768 5.89201 0.167237 5.82826 0.161924 5.8442Z" fill="#4415FF"/>
<path d="M1.5803 2.09626C1.54045 2.08298 1.5803 2.03251 1.64936 1.95548C1.68786 1.92298 1.73197 1.89778 1.77951 1.8811C1.81086 1.88254 1.84199 1.88698 1.87248 1.89438C1.94487 1.95632 2.01319 2.02287 2.07701 2.0936C2.12269 2.14025 2.16038 2.19409 2.18858 2.25298C2.24701 2.36985 2.30811 2.48673 2.36123 2.60626C2.37233 2.63344 2.37948 2.66206 2.38248 2.69126C2.39278 2.79048 2.42161 2.88689 2.46748 2.97548C2.46748 2.98876 2.46748 3.00735 2.49936 3.01532C2.55943 3.10859 2.60176 3.21215 2.6242 3.32079C2.6242 3.4111 2.6242 3.4961 2.6242 3.58642C2.6242 3.5997 2.6242 3.61032 2.6242 3.62626C2.61325 3.63769 2.6057 3.65195 2.60242 3.66744C2.59913 3.68293 2.60024 3.69902 2.60561 3.71392C2.60952 3.751 2.60952 3.78839 2.60561 3.82548C2.5984 3.8496 2.58668 3.87213 2.57108 3.89188C2.57108 3.91313 2.49936 3.9211 2.49139 3.91845C2.48342 3.91579 2.44358 3.91845 2.41967 3.93704H2.39311C2.32009 3.88554 2.25246 3.82681 2.19123 3.76173C2.19123 3.76173 2.05576 3.4961 2.03717 3.46157C2.03167 3.44429 2.03167 3.42573 2.03717 3.40845C2.03717 3.40845 1.92295 3.19329 1.9203 3.18532C1.9203 3.13751 1.87514 3.10032 1.89639 3.03923C1.89923 3.0306 1.89923 3.02129 1.89639 3.01267C1.86398 2.93622 1.83821 2.85713 1.81936 2.77626C1.80528 2.73617 1.78842 2.69712 1.76889 2.65938C1.76889 2.65938 1.76889 2.64345 1.76889 2.63548C1.77034 2.62579 1.77034 2.61594 1.76889 2.60626C1.73268 2.51391 1.68823 2.42501 1.63608 2.34063C1.63608 2.32204 1.61217 2.20517 1.59358 2.18392C1.57498 2.16267 1.59889 2.10157 1.5803 2.09626Z" fill="#4415FF"/>
<path d="M28.3447 2.82665C28.3447 2.86915 28.2916 2.84259 28.188 2.77353C28.14 2.73906 28.0963 2.69892 28.0578 2.65399C28.0427 2.62474 28.0294 2.59458 28.018 2.56368C28.018 2.56368 28.0578 2.41228 28.0685 2.36446C28.0805 2.32035 28.1023 2.2795 28.1322 2.24493L28.2996 2.02978C28.3138 2.01301 28.3321 2.0002 28.3527 1.99259C28.4208 1.96353 28.4776 1.91321 28.5147 1.84915C28.5147 1.84915 28.5307 1.83056 28.5147 1.80931C28.4988 1.78806 28.6369 1.62603 28.6661 1.6154C28.6953 1.60478 28.8016 1.56493 28.876 1.54368C28.876 1.54368 28.876 1.54368 28.9105 1.54368C28.9212 1.55302 28.9349 1.55817 28.949 1.55817C28.9632 1.55817 28.9769 1.55302 28.9875 1.54368C29.0156 1.5295 29.0464 1.52136 29.0779 1.51978C29.1006 1.52221 29.1229 1.52757 29.1443 1.53571C29.1667 1.55364 29.1848 1.57633 29.1974 1.60212C29.1974 1.62603 29.2266 1.64196 29.2425 1.66056L29.2585 1.68181C29.2652 1.75514 29.2652 1.82894 29.2585 1.90228C29.2585 1.90228 29.2319 1.95009 29.208 2.00321C29.1841 2.05634 29.1522 2.09884 29.1469 2.11212C29.1416 2.1254 29.1257 2.1254 29.1124 2.13071C29.0991 2.13603 29.0327 2.28478 29.0274 2.29009C29.0221 2.2954 28.9929 2.35384 28.9371 2.35118C28.9329 2.35101 28.9289 2.35222 28.9255 2.35463C28.9221 2.35703 28.9197 2.3605 28.9185 2.36446C28.882 2.41423 28.8381 2.45812 28.7883 2.49462C28.7657 2.51751 28.7453 2.54241 28.7272 2.56899C28.7272 2.56899 28.7272 2.56899 28.7086 2.56899C28.7016 2.56756 28.6944 2.56756 28.6874 2.56899C28.6449 2.63274 28.5785 2.67524 28.5439 2.74962C28.5439 2.76556 28.4404 2.79478 28.4324 2.81603C28.4244 2.83728 28.3447 2.81071 28.3447 2.82665Z" fill="#4415FF"/>
<path d="M29.0513 5.28897C29.0513 5.33147 28.9928 5.28897 28.8972 5.22522C28.8525 5.18917 28.8139 5.14611 28.783 5.09772C28.7793 5.06506 28.7793 5.0321 28.783 4.99944C28.8261 4.91556 28.8777 4.83634 28.9371 4.76303C28.9773 4.7124 29.0269 4.67001 29.0831 4.63819C29.1921 4.57444 29.301 4.51069 29.4125 4.45756C29.437 4.44454 29.4645 4.43813 29.4922 4.43897C29.5851 4.43199 29.6756 4.40575 29.7578 4.36194C29.7578 4.36194 29.787 4.36194 29.7924 4.33006C29.7977 4.29819 30.0341 4.21319 30.058 4.22381C30.143 4.23709 30.2227 4.23975 30.305 4.24506C30.305 4.24506 30.3236 4.24506 30.3396 4.24506C30.3496 4.25648 30.3626 4.2648 30.3772 4.26904C30.3918 4.27327 30.4073 4.27325 30.4219 4.26897H30.5255C30.5472 4.27798 30.5677 4.28958 30.5866 4.3035C30.6052 4.3035 30.6158 4.36991 30.6131 4.37788C30.6105 4.38584 30.6131 4.42038 30.6344 4.44163C30.6355 4.44955 30.6355 4.4576 30.6344 4.46553C30.591 4.54153 30.5421 4.61432 30.4883 4.68334L30.3608 4.75772C30.2997 4.79491 30.2333 4.83475 30.2227 4.84538C30.2121 4.856 30.1908 4.84538 30.1749 4.84538L29.9783 4.95959C29.9358 4.95959 29.9039 5.00209 29.8481 4.97553C29.8481 4.97553 29.8295 4.97553 29.8216 4.97553C29.7562 5.00557 29.6876 5.02786 29.6171 5.04194C29.5799 5.04194 29.5533 5.07647 29.5188 5.08975H29.4975C29.4888 5.08724 29.4796 5.08724 29.471 5.08975C29.4019 5.13491 29.3142 5.1535 29.2585 5.21991C29.2585 5.21991 29.1416 5.24116 29.1283 5.26241C29.115 5.28366 29.0486 5.27038 29.0513 5.28897Z" fill="#4415FF"/>
</svg>
