<svg width="62" height="62" viewBox="0 0 62 62" fill="none" xmlns="http://www.w3.org/2000/svg">
<path d="M19.7189 51.9542C19.7636 51.8123 19.8623 51.6936 19.9937 51.6238C20.1251 51.554 20.2787 51.5387 20.4213 51.5812C21.8841 52.0365 19.2442 53.4848 19.7189 51.9542Z" stroke="white" stroke-width="0.484375" stroke-miterlimit="10"/>
<path d="M16.541 55.1173C16.5626 55.0473 16.5978 54.9822 16.6445 54.9258C16.6912 54.8694 16.7486 54.8227 16.8134 54.7885C16.8782 54.7543 16.9491 54.7332 17.0221 54.7265C17.095 54.7197 17.1686 54.7274 17.2385 54.7492C18.7014 55.219 16.0664 56.6721 16.541 55.1173Z" stroke="white" stroke-width="0.484375" stroke-miterlimit="10"/>
<path d="M10.3361 56.1876C10.3577 56.1176 10.3928 56.0525 10.4395 55.9961C10.4863 55.9397 10.5437 55.893 10.6085 55.8588C10.6733 55.8246 10.7442 55.8036 10.8171 55.7968C10.8901 55.7901 10.9636 55.7978 11.0336 55.8195C12.4964 56.2796 9.86141 57.7327 10.3361 56.1876Z" stroke="white" stroke-width="0.484375" stroke-miterlimit="10"/>
<path d="M5.94819 23.2501C8.1085 22.4315 10.2737 21.7195 12.4388 21.0075L18.944 18.8907C20.523 18.4064 22.0973 17.8493 23.6812 17.3601C29.2708 15.6406 34.8751 13.9017 40.3921 12.0223C42.8527 11.1892 45.3037 10.3076 47.7062 9.38731C49.2513 8.79637 50.7819 8.16668 52.298 7.51762C53.8117 6.87806 55.291 6.16021 56.7301 5.367C57.568 4.8245 57.5487 4.97465 56.919 5.61403C55.7996 6.59538 54.5307 7.39171 53.1602 7.97293C50.0602 9.38731 46.8972 10.5934 43.7149 11.7656C40.5326 12.9378 37.2969 14.047 34.0662 15.0739C30.1912 16.3332 26.1805 17.7234 22.2232 19.0312C17.8638 20.4843 13.5044 21.8406 9.17413 23.347L7.18819 24.059L6.21944 24.4368L5.76897 24.6209C5.68663 24.6548 5.60913 24.6839 5.53163 24.7226L5.29428 24.8292C5.25069 24.9115 5.34757 24.9842 5.396 25.0472C5.45542 25.1105 5.51849 25.1704 5.58491 25.2264L5.69147 25.3136L5.88522 25.4686C6.42772 25.8851 7.00413 26.2726 7.59022 26.6456C8.48147 27.2123 9.40663 27.7112 10.3512 28.2053L13.1702 29.7504L18.7938 32.8068L19.0748 32.9522L19.4526 33.1653C19.4816 33.1653 19.5301 33.1943 19.5349 33.2331L19.564 33.3348L19.6269 33.5479C19.6461 33.6179 19.6607 33.6891 19.6705 33.7611L19.7044 33.9257L19.9273 35.1415L20.3583 37.5634C20.649 39.1618 20.9396 40.7554 21.2254 42.3587L21.6177 44.4609C22.0682 47.0959 22.1699 47.9242 22.1021 48.5297C22.1014 48.6674 22.0917 48.8049 22.073 48.9414C22.0343 49.0915 21.8987 48.9414 21.671 48.457C21.3727 47.7593 21.1266 47.0405 20.9348 46.3064C20.5376 44.892 20.2179 43.4389 19.9176 41.9761C19.6173 40.5132 19.3363 39.0262 19.0796 37.5295L18.6921 35.282L18.4935 34.1679L18.4644 34.0226L18.2804 33.9257L14.2262 31.7461L8.16178 28.4426C7.13008 27.861 6.13669 27.2138 5.18772 26.5051L5.00366 26.3647L4.75663 26.1564C4.54443 25.9858 4.34528 25.7996 4.16085 25.5993C4.00242 25.4297 3.88189 25.2282 3.80725 25.0084C3.77653 24.9097 3.76181 24.8066 3.76366 24.7032C3.76366 24.6064 3.76366 24.4707 3.85085 24.4126L4.33522 23.9961L4.57741 23.7878C4.69405 23.7194 4.81546 23.6595 4.94069 23.6086L5.52194 23.3712L5.92882 23.2065L5.94819 23.2501Z" fill="white"/>
<path d="M33.0923 40.9538C33.8334 41.3558 34.5454 41.7772 35.2914 42.1986C35.5578 42.3536 35.8387 42.4796 36.0906 42.6491L38.7934 44.4461C39.1906 44.7077 39.6023 44.9305 40.0092 45.1921C40.5498 45.4616 41.0611 45.7862 41.535 46.1608C41.6754 46.3013 41.5979 46.3836 41.38 46.4321C41.0855 46.5135 40.7712 46.4824 40.4984 46.3449C39.4037 45.7927 38.3187 45.2163 37.2967 44.5624C36.6476 44.1718 35.9783 43.8161 35.2914 43.4967C34.5551 43.0996 33.8383 42.6927 33.0875 42.31C32.6322 42.0775 32.1768 41.8256 31.7118 41.6271C31.0072 41.2759 30.2845 40.9622 29.5467 40.6874C28.9848 40.4694 28.3987 40.3822 27.8368 40.203C27.7106 40.1765 27.5861 40.1425 27.4639 40.1013C27.0183 39.9172 26.9068 39.7477 26.8681 39.5006C26.8556 39.4449 26.8475 39.3882 26.8439 39.3311C26.8439 39.1616 27.0764 39.0647 27.4687 39.0356C28.6135 39.0736 29.738 39.3473 30.7722 39.8397C31.5665 40.1594 32.3367 40.5469 33.0923 40.9344V40.9538Z" fill="white"/>
<path d="M31.9685 23.8022L37.3644 20.1645L39.3019 18.818L46.2575 14.1728C47.2844 13.485 48.3064 12.773 49.3091 12.0658C50.6024 11.16 51.8763 10.2203 53.2422 9.42595C53.3186 9.37877 53.3998 9.3398 53.4844 9.3097C53.4844 9.33876 53.4311 9.19829 53.6588 9.55188C53.6526 9.55455 53.6461 9.55593 53.6394 9.55593C53.6327 9.55593 53.6261 9.55455 53.62 9.55188C53.6152 9.5361 53.6152 9.51923 53.62 9.50345C53.62 9.53735 53.5522 9.4647 53.5813 9.45016V9.49376C53.5393 9.57252 53.4924 9.64856 53.4408 9.72141C53.0246 10.3 52.5156 10.8057 51.9344 11.2181C49.3139 13.0781 46.6644 14.8897 43.947 16.6722C42.3195 17.7281 40.6872 18.8906 39.0452 20.0338L33.6299 23.7344L30.3022 26.0109C28.6263 27.1686 26.9116 28.3166 25.2938 29.4888C24.015 30.3994 22.7944 31.3439 21.5447 32.2691L20.7309 32.8745C19.6944 33.6253 19.3311 33.8094 18.963 33.7706C18.8813 33.7717 18.7999 33.762 18.7208 33.7416C18.5125 33.6641 18.8467 33.2572 19.5733 32.642C21.7336 30.8838 24.1216 29.1884 26.5338 27.5077L31.9394 23.7877L31.9685 23.8022Z" fill="white"/>
<path d="M35.7855 26.0498L40.0189 22.48L41.5398 21.1528L46.9842 16.5513C47.7834 15.8683 48.5633 15.1514 49.3334 14.4491C50.3022 13.5336 51.2709 12.5842 52.3365 11.7656C52.6805 11.5186 52.724 11.6445 52.5836 12.0127C52.3559 12.5859 52.0092 13.1043 51.5664 13.5336C49.5998 15.4711 47.5461 17.2778 45.4148 19.0458C44.1361 20.0969 42.8719 21.2691 41.5931 22.3734L37.35 26.0111L34.744 28.2441C33.4217 29.3775 32.109 30.5158 30.8351 31.6638C29.8664 32.5647 28.9219 33.4947 27.9725 34.415L27.3573 35.0253C26.5726 35.7713 26.2869 35.965 25.9284 35.9311C25.8469 35.9295 25.7658 35.9197 25.6862 35.902C25.4634 35.8294 25.6862 35.4177 26.1997 34.7928C27.8769 32.9908 29.6558 31.2862 31.5278 29.6875C32.9228 28.462 34.3469 27.2656 35.7612 26.0353L35.7855 26.0498Z" fill="white"/>
<path d="M46.7129 34.1C46.1898 35.8776 45.6861 37.665 45.2598 39.462C45.0322 40.3629 44.8142 41.259 44.635 42.1648L44.4897 42.8381L44.3783 43.5162L44.262 44.1895C44.2305 44.3607 44.2111 44.5339 44.2039 44.7078L44.1506 45.3229L44.1215 45.3762L43.86 45.8606L43.8261 45.9235V45.9526C43.7728 45.846 43.9423 46.1948 43.7098 45.7153H43.6226L43.4095 45.7782C43.2593 45.9284 42.9784 45.6959 42.7362 45.5312L42.0872 45.0953L40.387 43.9667C38.3381 42.6831 36.3279 41.3995 34.2354 40.2031C32.1798 38.992 30.0207 37.966 27.7836 37.137C27.5365 37.0546 27.2992 36.9723 27.0376 36.8996L26.6404 36.8125L26.4128 36.7543C26.3547 36.7543 26.2723 36.7059 26.2384 36.7543L26.1948 36.9432L26.0398 37.6117C25.7944 38.6353 25.5393 39.6606 25.2745 40.6875C24.9257 42.005 24.5673 43.3273 24.1604 44.64C23.7722 45.9717 23.2715 47.268 22.6637 48.515C22.2084 49.2948 22.1115 49.0429 22.252 48.3309C22.4542 47.1486 22.7259 45.9792 23.0657 44.8289C23.8698 42.1939 24.5867 39.5007 25.2309 36.8221L25.4634 35.8534L25.5215 35.6064C25.5215 35.5482 25.5797 35.6064 25.6136 35.6064L25.7395 35.6354L26.2239 35.7371L26.7082 35.8485L27.0182 35.9309L27.5365 36.081C28.2292 36.2942 28.8976 36.5654 29.5564 36.8173C30.8763 37.3532 32.1666 37.9596 33.4217 38.6337C36.3861 40.266 39.3989 42.0582 42.2518 43.9618L42.7847 44.3251L42.9639 44.451C43.0214 44.497 43.083 44.5375 43.1479 44.5721V44.3493V44.1653L43.2351 43.6325C43.2981 43.2643 43.3514 42.901 43.424 42.5378C43.579 41.8209 43.7147 41.0846 43.9084 40.3871L44.4315 38.2656L44.9934 36.144C45.6279 33.9062 46.2915 31.6878 46.9842 29.4742C48.0643 26.1175 49.2511 22.785 50.5153 19.5203C51.484 16.9918 52.4528 14.4925 53.6395 12.0657C53.8914 11.5281 54.1239 11.0001 54.4436 10.4818L55.1314 9.25636C55.3079 8.98179 55.4987 8.71664 55.7029 8.46198C55.9068 8.16695 56.1571 7.90687 56.444 7.69183C56.5338 7.62234 56.6294 7.56075 56.7298 7.50776C56.972 7.42058 56.5845 8.24401 55.824 9.64386L55.0393 11.252C54.7681 11.7896 54.555 12.3612 54.2982 12.9134C53.78 14.0129 53.3295 15.1657 52.8451 16.304C51.9297 18.6145 51.0287 20.9685 50.2053 23.3565C49.5756 25.1245 48.9895 26.9118 48.4131 28.6846C47.8367 30.4575 47.27 32.2739 46.742 34.0806L46.7129 34.1Z" fill="white"/>
<path d="M27.0133 44.6013C26.6645 44.9839 26.311 45.3666 25.9525 45.7396C25.8217 45.8752 25.7055 46.0253 25.5747 46.1561C25.0903 46.6405 24.6059 47.0813 24.1216 47.5317L23.4822 48.1517C23.2162 48.4242 22.9167 48.6618 22.5909 48.8589C22.3827 48.98 22.3439 48.4327 22.5909 48.1275C23.1026 47.5688 23.646 47.0399 24.2184 46.5436C24.5504 46.2256 24.8626 45.8875 25.1533 45.5313L26.1802 44.3785C26.3884 44.1411 26.6016 43.8941 26.805 43.6616C27.1102 43.2935 27.425 42.9253 27.7059 42.5378C27.9288 42.2424 28.0983 41.913 28.3066 41.6127C28.3502 41.5497 28.3889 41.4771 28.4374 41.4141C28.6166 41.1719 28.7134 41.1235 28.8975 41.1767C28.9403 41.1868 28.9824 41.1997 29.0234 41.2155C29.1494 41.2688 29.1736 41.4383 29.0864 41.6514C28.8207 42.2922 28.4634 42.891 28.0256 43.4291C27.7059 43.8408 27.3669 44.2331 27.0278 44.6303L27.0133 44.6013Z" fill="white"/>
<path d="M9.53695 30.2153C10.1521 30.6174 10.7915 30.9903 11.4357 31.3488C11.673 31.4795 11.9201 31.5716 12.1671 31.7024C13.0067 32.1609 13.856 32.6049 14.7149 33.0344C15.0976 33.2281 15.4899 33.3735 15.9016 33.5188C16.1863 33.6266 16.4538 33.7751 16.696 33.9595C16.9513 34.1563 17.1501 34.417 17.2724 34.7152C17.3402 34.9041 17.1465 34.967 16.8946 34.9719C16.6335 34.9885 16.3714 34.9607 16.1196 34.8895C15.9171 34.8084 15.7101 34.7388 15.4996 34.6813L14.7391 34.3906C14.2166 34.1741 13.7127 33.9149 13.2327 33.6156C12.6466 33.2524 11.9782 33.0199 11.363 32.7002C10.7479 32.3805 10.0116 31.9688 9.35289 31.5764C8.94601 31.3342 8.54398 31.092 8.14679 30.8353C7.53648 30.4575 6.95523 30.0264 6.37398 29.6099C6.15601 29.4403 5.91383 29.2999 5.68617 29.1255C5.45972 28.9554 5.24303 28.7726 5.03711 28.5781C4.94992 28.491 4.85305 28.4086 4.76586 28.3166C4.4607 27.9436 4.44617 27.7547 4.60117 27.5319C4.63556 27.4799 4.67275 27.4297 4.71258 27.3817C4.85789 27.2413 5.10492 27.2849 5.34711 27.4592C5.71523 27.7208 6.11726 27.9436 6.5193 28.2003C6.92133 28.457 7.29914 28.7283 7.70601 28.9899C8.30664 29.387 8.91211 29.8036 9.55148 30.1717L9.53695 30.2153Z" fill="white"/>
<path d="M22.9638 30.661C24.8432 29.2854 26.7516 27.9776 28.6601 26.6697L30.7332 25.2166L38.1441 20.2663C39.234 19.5301 40.3141 18.7647 41.3749 17.9994C42.736 17.0307 44.068 15.9893 45.4969 15.0932C45.9522 14.8219 45.9813 14.9721 45.7343 15.3886C45.3367 16.0433 44.8171 16.6156 44.2037 17.0743C41.4718 19.1619 38.6479 21.114 35.7513 23.0079C34.0172 24.1558 32.2735 25.4201 30.5152 26.6407C28.6019 27.963 26.6887 29.2805 24.8093 30.6368C23.6565 31.4747 22.494 32.3224 21.4187 33.2379C21.2201 33.4122 21.0263 33.5915 20.8519 33.7755C20.6776 33.9596 20.5565 34.0661 20.5855 34.2308C20.5855 34.7152 20.6437 35.2819 20.6921 35.8147C20.8035 36.8852 20.9488 37.9557 21.1038 39.0165C21.3508 40.673 21.6802 42.2811 21.9272 43.9232C21.9854 44.2865 22.0483 44.6401 22.0919 45.0082C22.2566 46.3741 22.1937 46.8391 21.9079 47.1394C21.8508 47.2125 21.7858 47.2791 21.7141 47.338C21.4816 47.4591 21.3072 46.936 21.1474 45.9672C20.663 43.061 20.0915 40.0191 19.6943 36.8901C19.6265 36.304 19.5587 35.7227 19.5151 35.1221L19.4812 34.6668V34.1436C19.4921 33.8572 19.592 33.5812 19.7669 33.3541C19.8789 33.2091 20.0002 33.0715 20.1302 32.9424C21.01 32.123 21.9402 31.3594 22.9154 30.6561L22.9638 30.661Z" fill="white"/>
</svg>
