<svg width="51" height="51" viewBox="0 0 51 51" fill="none" xmlns="http://www.w3.org/2000/svg">
<g clip-path="url(#clip0_981_113)">
<path d="M17.8061 13.0181C17.8646 13.0834 17.8951 13.1691 17.8909 13.2567C17.8868 13.3443 17.8484 13.4268 17.784 13.4863C17.1133 14.091 17.1728 12.3171 17.8061 13.0181Z" stroke="#111216" stroke-width="0.285518" stroke-miterlimit="10"/>
<path d="M17.1578 10.4559C17.1869 10.4879 17.2093 10.5253 17.2238 10.5659C17.2384 10.6066 17.2448 10.6497 17.2426 10.6928C17.2405 10.736 17.2298 10.7783 17.2113 10.8173C17.1928 10.8563 17.1668 10.8913 17.1347 10.9202C16.4567 11.5206 16.5123 9.7477 17.1578 10.4559Z" stroke="#111216" stroke-width="0.285518" stroke-miterlimit="10"/>
<path d="M18.481 6.98837C18.51 7.02035 18.5324 7.05774 18.547 7.0984C18.5615 7.13906 18.5679 7.18219 18.5657 7.22532C18.5636 7.26845 18.553 7.31073 18.5344 7.34975C18.5159 7.38876 18.4899 7.42374 18.4579 7.45269C17.7847 8.05595 17.8403 6.28308 18.481 6.98837Z" stroke="#111216" stroke-width="0.285518" stroke-miterlimit="10"/>
<path d="M36.4996 14.6677C36.265 16.0091 35.975 17.3209 35.6849 18.6328L34.802 22.5673C34.5727 23.5135 34.3818 24.4791 34.1535 25.4293C33.3445 28.7802 32.541 32.1444 31.8348 35.5066C31.5173 37.0046 31.2273 38.5123 30.9714 40.0071C30.8064 40.9682 30.6654 41.9335 30.5386 42.8974C30.4077 43.8571 30.3268 44.8229 30.2962 45.791C30.3193 46.379 30.249 46.324 30.1142 45.8125C29.9532 44.9499 29.9311 44.0672 30.0485 43.1976C30.2636 41.2006 30.6032 39.2343 30.9658 37.2684C31.3285 35.3025 31.739 33.3286 32.1899 31.3818C32.7166 29.0385 33.2178 26.5872 33.7447 24.1876C34.3188 21.5405 34.9421 18.9225 35.4805 16.2741L35.7166 15.0531L35.8164 14.4484L35.8585 14.1647C35.8661 14.1127 35.8747 14.0647 35.8783 14.0137L35.8957 13.8614C35.867 13.8145 35.8011 13.8418 35.7546 13.8474C35.7046 13.8585 35.6553 13.8724 35.6069 13.8893L35.5307 13.9171L35.3938 13.9687C35.0195 14.1185 34.6497 14.2942 34.2844 14.4792C33.7291 14.7606 33.1979 15.0797 32.6634 15.41L31.0324 16.3746L27.7918 18.3066L27.6337 18.4054L27.412 18.5328C27.4033 18.5476 27.374 18.5634 27.3529 18.5542L27.2926 18.5383L27.1656 18.5062C27.1243 18.4949 27.0838 18.4808 27.0444 18.4642L26.9507 18.4319L26.2673 18.1793L24.9098 17.6696C24.012 17.3363 23.1167 17.0044 22.2179 16.6672L21.0342 16.234C19.5628 15.67 19.1123 15.4726 18.8257 15.2561C18.7561 15.2144 18.6893 15.1681 18.6257 15.1176C18.5612 15.0528 18.6781 15.0292 18.9922 15.0594C19.4356 15.118 19.874 15.2094 20.3039 15.3328C21.1404 15.5567 21.9733 15.8316 22.8052 16.1192C23.6371 16.4068 24.4755 16.7115 25.3115 17.0314L26.5675 17.5108L27.1921 17.7451L27.2745 17.7741L27.3789 17.7099L29.7031 16.3099L33.2014 14.2286C33.8066 13.8805 34.4334 13.5714 35.078 13.3034L35.2046 13.2523L35.3845 13.1897C35.5348 13.1334 35.689 13.0884 35.846 13.0551C35.9797 13.0258 36.1181 13.0253 36.252 13.0536C36.3113 13.0677 36.3679 13.0912 36.4198 13.1232C36.4689 13.1524 36.5377 13.1931 36.5409 13.2548L36.6064 13.6257L36.6392 13.8111C36.6388 13.8908 36.6327 13.9703 36.6208 14.0491L36.5664 14.4152L36.5275 14.671L36.4996 14.6677Z" fill="#111216"/>
<path d="M19.3618 23.106C18.9351 23.3609 18.5074 23.5951 18.0694 23.8466C17.9107 23.9351 17.7624 24.0396 17.6007 24.1163L15.8769 24.9463C15.6248 25.069 15.3881 25.2107 15.1331 25.3384C14.8339 25.5314 14.5156 25.693 14.1832 25.8206C14.0697 25.8496 14.0513 25.7855 14.0923 25.6605C14.1395 25.4867 14.2498 25.3367 14.4016 25.2398C15.0107 24.8508 15.6292 24.474 16.268 24.1525C16.6612 23.9409 17.0428 23.7085 17.4113 23.4563C17.834 23.2024 18.2559 22.9613 18.6756 22.6957C18.9304 22.5348 19.195 22.3797 19.4355 22.2037C19.8255 21.952 20.2018 21.6799 20.563 21.3885C20.8425 21.1692 21.0629 20.8983 21.3227 20.6673C21.3741 20.6113 21.4288 20.5583 21.4864 20.5088C21.7138 20.3382 21.8332 20.3327 21.9701 20.3873C22.0021 20.3978 22.0333 20.4107 22.0633 20.426C22.1493 20.477 22.1285 20.624 22.0252 20.8317C21.6618 21.4006 21.1848 21.8885 20.6243 22.2647C20.2233 22.5713 19.7953 22.8453 19.3716 23.1118L19.3618 23.106Z" fill="#111216"/>
<path d="M28.3952 27.6938L28.6169 31.5233L28.717 32.9105L28.9805 37.8337C29.0205 38.5611 29.0741 39.2934 29.1312 40.0144C29.2015 40.9424 29.2949 41.8709 29.2869 42.8022C29.2878 42.8552 29.2832 42.908 29.273 42.96C29.2583 42.9512 29.3455 42.9665 29.0978 42.9756C29.0983 42.9717 29.0995 42.9679 29.1015 42.9645C29.1036 42.9611 29.1062 42.9582 29.1094 42.9559C29.1189 42.9582 29.1274 42.9633 29.134 42.9705C29.1168 42.9603 29.174 42.9478 29.1726 42.9669L29.1505 42.9538C29.1232 42.9088 29.0988 42.8621 29.0774 42.8141C28.9092 42.4291 28.8058 42.019 28.7715 41.6003C28.6165 39.7124 28.4947 37.8244 28.4081 35.9108C28.3622 34.7681 28.2636 33.591 28.1778 32.4147L27.93 28.5565L27.7764 26.1848C27.6935 24.987 27.627 23.7725 27.5192 22.5998C27.4421 21.6777 27.3302 20.7748 27.237 19.8631L27.1747 19.2684C27.1057 18.5171 27.1217 18.2776 27.252 18.1026C27.276 18.0609 27.3054 18.0225 27.3396 17.9886C27.4415 17.9063 27.5473 18.1981 27.6407 18.7514C27.8825 20.3754 28.024 22.0958 28.1508 23.8242L28.4113 27.6834L28.3952 27.6938Z" fill="#111216"/>
<path d="M26.108 28.953L26.6449 32.1728L26.8604 33.3429L27.5563 37.4869C27.6622 38.0974 27.7912 38.7084 27.9157 39.31C28.0885 40.0764 28.2785 40.8531 28.3731 41.6395C28.3949 41.8881 28.318 41.8723 28.1736 41.6904C27.9514 41.4026 27.7928 41.071 27.7083 40.7174C27.3174 39.1378 27.019 37.5532 26.7635 35.9411C26.6151 34.9767 26.401 33.9833 26.2256 33.0029L25.6572 29.7579L25.3087 27.7652C25.1317 26.754 24.9493 25.7462 24.7504 24.7552C24.5849 23.9931 24.3974 23.2346 24.2163 22.4765L24.0918 21.9811C23.9496 21.359 23.9373 21.1558 24.0623 20.9843C24.0876 20.9435 24.117 20.9053 24.1498 20.8703C24.2537 20.7792 24.3954 21.0159 24.5578 21.4641C24.9671 22.8563 25.2964 24.2708 25.544 25.7006C25.7458 26.7763 25.9242 27.8581 26.1227 28.9451L26.108 28.953Z" fill="#111216"/>
<path d="M18.7406 32.0725C17.9966 31.2727 17.242 30.4799 16.459 29.7234C16.0707 29.3371 15.682 28.9571 15.2766 28.5939L14.979 28.3178L14.6687 28.0574L14.3623 27.796C14.285 27.7285 14.203 27.6666 14.117 27.6107L13.8211 27.3987L13.8029 27.3679L13.6359 27.0897L13.6142 27.0535L13.5995 27.0448C13.6695 27.0498 13.4417 27.0309 13.7548 27.0572L13.781 27.013L13.8132 26.886C13.7822 26.7648 13.9845 26.6922 14.1408 26.619L14.557 26.421L15.6405 25.8984C16.9073 25.2456 18.1625 24.6124 19.3983 23.9113C20.6304 23.2333 21.7999 22.4472 22.8929 21.5622C23.0089 21.4618 23.122 21.3662 23.2375 21.2554L23.4011 21.0803L23.499 20.9823C23.5165 20.9529 23.5658 20.9257 23.5515 20.8939L23.4688 20.815L23.1765 20.5354C22.7313 20.1032 22.2883 19.6656 21.8473 19.2225C21.2842 18.6496 20.7215 18.0702 20.1784 17.4692C19.62 16.8719 19.1133 16.2283 18.6639 15.5452C18.4054 15.0799 18.5622 15.1065 18.881 15.3918C19.4196 15.8498 19.9308 16.3392 20.4118 16.8574C21.5059 18.0574 22.6557 19.2307 23.8201 20.3627L24.2413 20.7719L24.3491 20.8757C24.3785 20.8931 24.3316 20.9051 24.3214 20.9223L24.2688 20.9774L24.0716 21.1924L23.8694 21.4045L23.7345 21.5369L23.5025 21.7545C23.1862 22.0416 22.8476 22.2989 22.5219 22.5572C21.8532 23.0652 21.1578 23.5371 20.4387 23.9707C18.7197 24.9827 16.9051 25.9713 15.0822 26.8453L14.7378 27.0062L14.62 27.0592C14.5794 27.0745 14.5404 27.0936 14.5033 27.1161L14.6162 27.1831L14.7096 27.2384L14.9535 27.4429C15.1212 27.5855 15.2893 27.7217 15.4517 27.8678C15.7685 28.162 16.101 28.4521 16.3964 28.7601L17.3147 29.6632L18.2213 30.586C19.1651 31.5806 20.0903 32.5842 21.0043 33.601C22.3813 35.1579 23.714 36.7617 24.989 38.3843C25.9796 39.6357 26.9555 40.8784 27.8289 42.2098C28.0258 42.4992 28.2236 42.7758 28.3902 43.0937L28.8047 43.8109C28.8908 43.983 28.9678 44.1595 29.0355 44.3396C29.1238 44.5316 29.1804 44.7367 29.2032 44.9469C29.2114 45.0133 29.2139 45.0803 29.2105 45.1471C29.1819 45.2961 28.881 44.8521 28.3999 44.0456L27.8206 43.1642C27.6296 42.865 27.4039 42.5851 27.2011 42.2889C26.7995 41.6955 26.3505 41.1205 25.919 40.5326C25.0229 39.3737 24.1004 38.2091 23.1373 37.0736C22.4303 36.2227 21.7004 35.3881 20.9749 34.5628C20.2494 33.7375 19.4989 32.904 18.7417 32.093L18.7406 32.0725Z" fill="#111216"/>
<path d="M19.3403 18.9272C19.2512 18.6353 19.1635 18.341 19.0822 18.0471C19.0528 17.9401 19.0116 17.836 18.9846 17.7303C18.8847 17.3391 18.8069 16.961 18.7241 16.58L18.6021 16.0694C18.544 15.8526 18.5135 15.6293 18.5115 15.4049C18.5128 15.2629 18.8019 15.4078 18.8823 15.6248C19.0118 16.0522 19.1165 16.4868 19.196 16.9262C19.2574 17.1902 19.3349 17.4501 19.4281 17.7046L19.7038 18.5718C19.7615 18.7488 19.8227 18.9311 19.8794 19.1042C19.9743 19.3696 20.0662 19.6399 20.1782 19.8989C20.261 20.1007 20.377 20.2857 20.4666 20.4816C20.4855 20.5226 20.5106 20.5641 20.528 20.6076C20.5969 20.7713 20.5923 20.835 20.51 20.9123C20.492 20.9309 20.4728 20.9484 20.4524 20.9644C20.3876 21.0123 20.2943 20.9736 20.2125 20.8653C19.9675 20.5379 19.7714 20.1767 19.6302 19.7929C19.5176 19.5071 19.4206 19.2172 19.3212 18.9259L19.3403 18.9272Z" fill="#111216"/>
<path d="M31.889 14.3928C31.5002 14.5838 31.1189 14.7958 30.7434 15.0146C30.6058 15.0956 30.4848 15.1932 30.3442 15.2791C29.8593 15.5669 29.3788 15.864 28.9028 16.1703C28.6895 16.3061 28.4979 16.4613 28.3004 16.6263C28.1601 16.7382 28.0044 16.8292 27.838 16.8965C27.6615 16.9668 27.4696 16.9892 27.2816 16.9615C27.1655 16.9391 27.1918 16.8219 27.2651 16.6928C27.3352 16.5554 27.4281 16.4309 27.5399 16.3246C27.6419 16.2464 27.7394 16.1623 27.8319 16.0729L28.2079 15.7748C28.4748 15.5749 28.7577 15.3974 29.0538 15.2441C29.4142 15.0562 29.7331 14.7872 30.0801 14.5714C30.4272 14.3557 30.8573 14.1062 31.2543 13.8902C31.4995 13.7568 31.7431 13.6258 31.9927 13.5016C32.3678 13.3058 32.7611 13.1407 33.1471 12.9713C33.2986 12.9117 33.4426 12.8312 33.5995 12.7682C33.7538 12.7046 33.9116 12.6497 34.0722 12.6037C34.1426 12.5857 34.2135 12.5614 34.2863 12.5449C34.5672 12.5023 34.6673 12.5517 34.7337 12.6973C34.7497 12.7304 34.764 12.7643 34.7763 12.799C34.8038 12.9149 34.7075 13.027 34.5462 13.0974C34.3029 13.2053 34.0691 13.3422 33.818 13.4688C33.567 13.5954 33.3158 13.7054 33.0609 13.833C32.6789 14.0181 32.2857 14.1998 31.9068 14.4133L31.889 14.3928Z" fill="#111216"/>
<path d="M27.6253 21.0661C27.7576 22.4326 27.8468 23.7934 27.936 25.1542L28.0493 26.6422L28.3306 31.888C28.3762 32.6619 28.4394 33.4397 28.5084 34.2076C28.5903 35.189 28.7177 36.1775 28.7424 37.1714C28.743 37.4838 28.6581 37.4534 28.5212 37.2029C28.3089 36.8044 28.175 36.3689 28.1269 35.92C27.8899 33.9072 27.7494 31.8885 27.6602 29.8505C27.5996 28.6262 27.483 27.362 27.3929 26.1035C27.2978 24.7358 27.2051 23.3697 27.0826 22.009C27.0044 21.1726 26.9243 20.3283 26.7835 19.5079C26.7548 19.3547 26.7222 19.2026 26.6813 19.0589C26.6404 18.9151 26.6228 18.8217 26.5306 18.7869C26.285 18.6412 25.9802 18.5003 25.6955 18.3646C25.1193 18.0992 24.5329 17.851 23.9484 17.6106C23.0343 17.2378 22.12 16.9212 21.2132 16.5527C21.0115 16.4729 20.8133 16.3985 20.6136 16.3099C19.8715 15.9827 19.6547 15.8109 19.5884 15.5757C19.5685 15.5248 19.5543 15.4718 19.546 15.4178C19.5545 15.2635 19.8721 15.3324 20.4114 15.5427C22.0304 16.171 23.7445 16.7959 25.4504 17.5354C25.7679 17.6773 26.083 17.8177 26.4006 17.9762L26.6416 18.0959L26.9068 18.2532C27.0488 18.3449 27.1586 18.4785 27.2212 18.6355C27.2611 18.7359 27.2943 18.8388 27.3207 18.9435C27.4716 19.6359 27.579 20.3371 27.6423 21.043L27.6253 21.0661Z" fill="#111216"/>
</g>
<defs>
<clipPath id="clip0_981_113">
<rect width="36.5462" height="36.5462" fill="white" transform="translate(50.0762 18.6433) rotate(120.672)"/>
</clipPath>
</defs>
</svg>
