<svg width="10" height="8" viewBox="0 0 10 8" fill="none" xmlns="http://www.w3.org/2000/svg">
<path d="M1.11298 7.85549L1.10265 6.28584L2.00289 6.27991C2.71077 6.27526 3.06239 5.91899 3.05773 5.21111L3.05287 4.47245L2.66046 4.47503C2.04491 4.47908 1.53586 4.29775 1.13333 3.93106C0.715401 3.56446 0.504565 3.09647 0.50082 2.52709C0.49677 1.91154 0.701227 1.41004 1.11419 1.02259C1.51177 0.635235 2.01833 0.439535 2.63388 0.435485C3.26482 0.431334 3.78161 0.620302 4.18424 1.00239C4.58698 1.39986 4.79053 1.92946 4.79488 2.59117L4.81235 5.24573C4.82369 6.96927 3.96759 7.83671 2.24405 7.84805L1.11298 7.85549ZM6.19126 7.82208L6.18093 6.25243L7.08117 6.2465C7.78906 6.24185 8.14067 5.88558 8.13601 5.1777L8.13115 4.43904L7.73874 4.44162C7.12319 4.44567 6.61415 4.26434 6.21161 3.89765C5.79368 3.53105 5.58285 3.06306 5.5791 2.49368C5.57505 1.87813 5.77951 1.37663 6.19247 0.989176C6.59005 0.601825 7.09661 0.406125 7.71216 0.402075C8.3431 0.397924 8.85989 0.586892 9.26253 0.968978C9.66527 1.36645 9.86881 1.89605 9.87317 2.55776L9.89063 5.21232C9.90197 6.93586 9.04587 7.8033 7.32233 7.81464L6.19126 7.82208Z" fill="#4415FF"/>
</svg>
