<svg width="10" height="9" viewBox="0 0 10 9" fill="none" xmlns="http://www.w3.org/2000/svg">
<path d="M9.04137 0.826903V2.39659H8.14111C7.43321 2.39659 7.07926 2.75054 7.07926 3.45843V4.19711H7.47168C8.08724 4.19711 8.59508 4.38178 8.9952 4.75112C9.4107 5.12045 9.61846 5.58982 9.61846 6.15922C9.61846 6.77478 9.4107 7.27492 8.9952 7.65965C8.59508 8.04438 8.08724 8.23674 7.47168 8.23674C6.84073 8.23674 6.3252 8.04438 5.92508 7.65965C5.52496 7.25953 5.32491 6.72861 5.32491 6.06688V3.41227C5.32491 1.68869 6.18669 0.826903 7.91027 0.826903H9.04137ZM3.96297 0.826903V2.39659H3.06271C2.35482 2.39659 2.00087 2.75054 2.00087 3.45843V4.19711H2.39329C3.00885 4.19711 3.51669 4.38178 3.91681 4.75112C4.33231 5.12045 4.54006 5.58982 4.54006 6.15922C4.54006 6.77478 4.33231 7.27492 3.91681 7.65965C3.51669 8.04438 3.00885 8.23674 2.39329 8.23674C1.76234 8.23674 1.2468 8.04438 0.846688 7.65965C0.446572 7.25953 0.246514 6.72861 0.246514 6.06688V3.41227C0.246514 1.68869 1.1083 0.826903 2.83188 0.826903H3.96297Z" fill="#4415FF"/>
</svg>
