<svg width="25" height="25" viewBox="0 0 25 25" fill="none" xmlns="http://www.w3.org/2000/svg">
<g clip-path="url(#clip0_995_164)">
<path d="M13.0481 5.43164C9.15777 5.43164 5.99243 8.59664 5.99243 12.487C5.99243 16.3773 9.15743 19.5423 13.0481 19.5423C16.9388 19.5423 20.1041 16.3776 20.1041 12.487C20.1041 8.59664 16.9388 5.43164 13.0481 5.43164ZM13.0481 18.2096C9.8931 18.2096 7.32576 15.6426 7.32576 12.4873C7.32576 9.33197 9.89277 6.76531 13.0481 6.76531C16.2038 6.76531 18.7708 9.33197 18.7708 12.4873C18.7708 15.643 16.2038 18.2096 13.0481 18.2096Z" fill="black"/>
<path d="M12.4155 7.9853C11.748 7.98707 11.0924 8.16161 10.5124 8.49194C9.93242 8.82226 9.44783 9.29713 9.10581 9.8703C9.06571 9.94608 9.05628 10.0344 9.07949 10.1169C9.1027 10.1995 9.15676 10.2699 9.23049 10.3137C9.30421 10.3575 9.39194 10.3712 9.47553 10.3521C9.55911 10.333 9.63213 10.2825 9.67948 10.211C9.96206 9.73695 10.3626 9.3442 10.8421 9.07099C11.3216 8.79777 11.8636 8.65341 12.4155 8.65197C12.5039 8.65197 12.5887 8.61685 12.6512 8.55434C12.7137 8.49182 12.7488 8.40704 12.7488 8.31863C12.7488 8.23023 12.7137 8.14544 12.6512 8.08293C12.5887 8.02042 12.5039 7.9853 12.4155 7.9853ZM9.07048 10.7046C8.98446 10.685 8.89415 10.7 8.81915 10.7465C8.74415 10.793 8.69049 10.8672 8.66981 10.953C8.60481 11.2283 8.56848 11.3986 8.56848 11.7096C8.56848 11.798 8.6036 11.8828 8.66611 11.9453C8.72862 12.0078 8.81341 12.043 8.90181 12.043C8.99022 12.043 9.075 12.0078 9.13752 11.9453C9.20003 11.8828 9.23515 11.798 9.23515 11.7096C9.23515 11.471 9.26081 11.352 9.31881 11.1053C9.33901 11.0192 9.32419 10.9287 9.27762 10.8535C9.23105 10.7784 9.15654 10.7248 9.07048 10.7046ZM13.3168 20.3833C13.14 20.3833 12.9704 20.4535 12.8454 20.5786C12.7204 20.7036 12.6501 20.8732 12.6501 21.05V23.05C12.6501 23.2268 12.7204 23.3963 12.8454 23.5214C12.9704 23.6464 13.14 23.7166 13.3168 23.7166C13.4936 23.7166 13.6632 23.6464 13.7882 23.5214C13.9132 23.3963 13.9835 23.2268 13.9835 23.05V21.05C13.9835 20.8732 13.9132 20.7036 13.7882 20.5786C13.6632 20.4535 13.4936 20.3833 13.3168 20.3833ZM13.3168 4.71663C13.4936 4.71663 13.6632 4.6464 13.7882 4.52137C13.9132 4.39635 13.9835 4.22678 13.9835 4.04997V2.04997C13.9835 1.87316 13.9132 1.70359 13.7882 1.57856C13.6632 1.45354 13.4936 1.3833 13.3168 1.3833C13.14 1.3833 12.9704 1.45354 12.8454 1.57856C12.7204 1.70359 12.6501 1.87316 12.6501 2.04997V4.04997C12.6501 4.22678 12.7204 4.39635 12.8454 4.52137C12.9704 4.6464 13.14 4.71663 13.3168 4.71663ZM6.54515 18.026L5.13115 19.44C5.06747 19.5015 5.01669 19.575 4.98175 19.6564C4.94681 19.7377 4.92842 19.8252 4.92765 19.9137C4.92688 20.0022 4.94375 20.09 4.97727 20.1719C5.01079 20.2539 5.06029 20.3283 5.12288 20.3909C5.18548 20.4535 5.25991 20.503 5.34185 20.5365C5.42378 20.57 5.51156 20.5869 5.60008 20.5861C5.6886 20.5854 5.77608 20.567 5.85742 20.532C5.93875 20.4971 6.01232 20.4463 6.07381 20.3826L7.48781 18.9686C7.55149 18.9071 7.60228 18.8336 7.63722 18.7522C7.67215 18.6709 7.69055 18.5834 7.69132 18.4949C7.69208 18.4064 7.67522 18.3186 7.6417 18.2367C7.60817 18.1547 7.55867 18.0803 7.49608 18.0177C7.43348 17.9551 7.35905 17.9056 7.27712 17.8721C7.19519 17.8386 7.1074 17.8217 7.01888 17.8225C6.93036 17.8232 6.84288 17.8416 6.76154 17.8766C6.68021 17.9115 6.60665 17.9623 6.54515 18.026ZM19.0371 7.1433C19.2078 7.1433 19.3781 7.0783 19.5085 6.94797L20.9225 5.53397C20.9862 5.47247 21.0369 5.39891 21.0719 5.31757C21.1068 5.23623 21.1252 5.14875 21.126 5.06024C21.1267 4.97172 21.1099 4.88393 21.0764 4.802C21.0428 4.72007 20.9933 4.64563 20.9307 4.58304C20.8681 4.52044 20.7937 4.47094 20.7118 4.43742C20.6299 4.4039 20.5421 4.38703 20.4535 4.3878C20.365 4.38857 20.2775 4.40696 20.1962 4.4419C20.1149 4.47684 20.0413 4.52763 19.9798 4.5913L18.5658 6.0053C18.4726 6.09854 18.4091 6.21731 18.3834 6.34661C18.3577 6.47591 18.3709 6.60994 18.4214 6.73174C18.4718 6.85354 18.5572 6.95765 18.6668 7.0309C18.7764 7.10416 18.9053 7.14327 19.0371 7.1433ZM6.54515 6.94797C6.67548 7.0783 6.84581 7.1433 7.01648 7.1433C7.14831 7.14327 7.27718 7.10416 7.38679 7.0309C7.49639 6.95765 7.58182 6.85354 7.63227 6.73174C7.68271 6.60994 7.69591 6.47591 7.6702 6.34661C7.64449 6.21731 7.58102 6.09854 7.48781 6.0053L6.07381 4.5913C6.01232 4.52763 5.93875 4.47684 5.85742 4.4419C5.77608 4.40696 5.6886 4.38857 5.60008 4.3878C5.51156 4.38703 5.42378 4.4039 5.34185 4.43742C5.25991 4.47094 5.18548 4.52044 5.12288 4.58304C5.06029 4.64563 5.01079 4.72007 4.97727 4.802C4.94375 4.88393 4.92688 4.97172 4.92765 5.06024C4.92842 5.14875 4.94681 5.23623 4.98175 5.31757C5.01669 5.39891 5.06747 5.47247 5.13115 5.53397L6.54515 6.94797ZM19.5085 18.026C19.447 17.9623 19.3734 17.9115 19.2921 17.8766C19.2107 17.8416 19.1233 17.8232 19.0347 17.8225C18.9462 17.8217 18.8584 17.8386 18.7765 17.8721C18.6946 17.9056 18.6201 17.9551 18.5576 18.0177C18.495 18.0803 18.4455 18.1547 18.4119 18.2367C18.3784 18.3186 18.3615 18.4064 18.3623 18.4949C18.3631 18.5834 18.3815 18.6709 18.4164 18.7522C18.4514 18.8336 18.5021 18.9071 18.5658 18.9686L19.9798 20.3833C20.1101 20.5136 20.2805 20.5786 20.4511 20.5786C20.6218 20.5786 20.7921 20.5136 20.9225 20.3833C21.1825 20.123 21.1825 19.701 20.9225 19.4406L19.5085 18.026ZM4.36015 12.05H2.36015C2.18334 12.05 2.01377 12.1202 1.88874 12.2452C1.76372 12.3703 1.69348 12.5398 1.69348 12.7166C1.69348 12.8934 1.76372 13.063 1.88874 13.188C2.01377 13.3131 2.18334 13.3833 2.36015 13.3833H4.36015C4.53696 13.3833 4.70653 13.3131 4.83155 13.188C4.95658 13.063 5.02681 12.8934 5.02681 12.7166C5.02681 12.5398 4.95658 12.3703 4.83155 12.2452C4.70653 12.1202 4.53696 12.05 4.36015 12.05ZM23.3601 12.05H21.3601C21.1833 12.05 21.0138 12.1202 20.8887 12.2452C20.7637 12.3703 20.6935 12.5398 20.6935 12.7166C20.6935 12.8934 20.7637 13.063 20.8887 13.188C21.0138 13.3131 21.1833 13.3833 21.3601 13.3833H23.3601C23.537 13.3833 23.7065 13.3131 23.8316 13.188C23.9566 13.063 24.0268 12.8934 24.0268 12.7166C24.0268 12.5398 23.9566 12.3703 23.8316 12.2452C23.7065 12.1202 23.537 12.05 23.3601 12.05Z" fill="black"/>
</g>
<defs>
<clipPath id="clip0_995_164">
<rect width="24" height="24" fill="white" transform="translate(0.860107 0.550049)"/>
</clipPath>
</defs>
</svg>
