<svg width="111" height="99" viewBox="0 0 111 99" fill="none" xmlns="http://www.w3.org/2000/svg">
<path d="M6.08536 16.3432C9.94492 10.4284 15.3231 5.73781 21.6186 2.79613C23.9087 1.74276 26.3187 0.992059 28.7912 0.561845C37.4851 -1.00239 46.4339 0.725043 53.9916 5.42636C57.3173 7.47023 60.2782 10.0882 62.745 13.1662C65.9878 17.0621 68.1447 21.7932 68.9857 26.8547C69.2598 28.4197 68.6019 28.2877 67.7248 27.1564C67.1841 26.4343 66.7215 25.6535 66.345 24.8279C65.7248 23.7735 65.193 22.6665 64.7552 21.5189C62.8369 17.1265 59.9561 13.2538 56.3398 10.206C52.6632 7.1234 48.4163 4.84595 43.8585 3.51261C43.172 3.29555 42.4732 3.12239 41.766 2.9941C41.0625 2.87155 40.3589 2.65472 39.6371 2.59815C38.186 2.40481 36.7233 2.31975 35.2604 2.34361C32.3213 2.36532 29.3962 2.76434 26.5526 3.53146C25.0043 3.94849 23.494 4.50366 22.0389 5.19068C21.3098 5.53791 20.5991 5.92498 19.9099 6.35024L18.85 6.96302L17.8358 7.65122C15.1078 9.48165 12.6465 11.7037 10.526 14.2504C9.23678 15.8217 8.06969 17.4955 7.03563 19.2563C6.07172 21.0432 5.24678 22.9063 4.56859 24.8279C2.41352 30.7014 1.84813 37.0692 2.93303 43.2489C3.84701 47.9316 5.76381 52.3443 8.54326 56.1644C8.82651 56.5886 9.14631 56.9846 9.45698 57.3805C9.76764 57.7765 10.0874 58.1819 10.4347 58.5684C12.9474 61.4626 13.852 62.2639 14.0895 63.348C14.1564 63.582 14.2023 63.8219 14.2266 64.0645C14.2266 64.3945 13.8428 64.3662 13.1849 64.0645C12.7679 63.8431 12.365 63.5944 11.9788 63.3198C11.5311 62.971 11.0651 62.5373 10.4803 62.0282C7.15201 58.859 4.51407 54.9966 2.74115 50.6965C1.83668 48.4906 1.14501 46.1981 0.676151 43.8523C0.23125 41.4788 0.00485908 39.0672 0 36.6498C0.0348005 33.0511 0.57022 29.4762 1.58987 26.0346C2.63404 22.61 4.12817 19.3492 6.03054 16.3432H6.08536Z" fill="#4415FF"/>
<path d="M30.3904 73.5013C28.4353 75.2721 26.1887 76.6674 23.7569 77.6211C22.9039 78.0026 22.0315 78.3362 21.1436 78.6204C20.4583 78.8466 19.7548 79.0069 19.0603 79.1766L18.0096 79.4028L17.4796 79.4971L16.8217 79.6197C15.707 79.8082 14.6197 79.959 13.642 80.025C12.6643 80.091 11.3851 80.3079 11.376 79.9496C11.8785 79.3557 12.4542 78.6769 12.9019 78.0641L13.5506 77.2345L13.9709 76.4804C14.1142 76.2472 14.2365 76.0011 14.3364 75.745L14.5283 75.2737C14.7507 74.6341 14.9278 73.9787 15.0583 73.3128C15.4146 71.597 15.4329 69.8152 15.7253 68.0523C15.8075 67.5149 16.4197 67.5621 17.0228 68.0523C17.3829 68.368 17.6646 68.7681 17.8442 69.2192C18.0239 69.6702 18.0962 70.159 18.0553 70.6448C17.9116 72.1769 17.6052 73.6881 17.1415 75.1511C17.0136 75.5188 16.8857 75.8959 16.7304 76.2541L16.5202 76.7349C16.434 76.7989 16.3516 76.8681 16.2735 76.9423L16.1364 77.0649C16.1364 77.0649 16.1364 77.0648 16.1364 77.1214C16.1364 77.178 16.2004 77.1874 16.2735 77.2251C16.409 77.2555 16.5492 77.2555 16.6847 77.2251H16.8217H17.0228L17.4248 77.1403L18.2197 76.9517C19.2705 76.6783 20.3121 76.3295 21.3355 76.009C23.583 75.2621 25.7039 74.1585 27.6219 72.7377C27.9149 72.526 28.1928 72.2929 28.4534 72.0401C28.7183 71.7855 29.0107 71.5593 29.2483 71.2953L30.162 70.2112L30.4453 69.8812C30.4453 69.8812 30.4453 69.8246 30.5184 69.8152H30.6097H30.8108L31.5965 69.9755L32.556 70.1546C32.8392 70.1546 33.1133 70.2583 33.3966 70.296C33.9539 70.3903 34.5113 70.4563 35.0687 70.5223C36.166 70.6627 37.2706 70.7351 38.3763 70.7391C40.0877 70.6589 41.7868 70.3999 43.4475 69.966L44.5348 69.6738C45.8871 69.3344 46.3622 69.3533 46.8099 69.9095C46.924 70.0256 47.0279 70.1518 47.1206 70.2866C47.3947 70.7297 46.9379 71.3236 45.9054 71.729C42.6845 72.9048 39.2611 73.3736 35.8545 73.1054C34.5706 73.0343 33.2921 72.8832 32.026 72.6528L31.5874 72.5774H31.496C31.4412 72.5774 31.3407 72.5303 31.359 72.5774L31.1945 72.7754C30.9773 73.0496 30.7356 73.3021 30.4727 73.5296L30.3904 73.5013Z" fill="#4415FF"/>
<path d="M72.1015 33.1334C69.8815 33.8121 67.7376 34.7317 65.7055 35.8768C63.6846 37.0567 61.7942 38.4602 60.0679 40.0625C58.3536 41.7006 56.8407 43.5496 55.5632 45.5681C52.4307 50.5472 50.8053 56.3757 50.8941 62.3111C50.9497 68.5766 53.0082 74.6481 56.7504 79.583C60.4925 84.5179 65.7089 88.0402 71.5899 89.6033C74.2106 90.2892 76.9092 90.6063 79.6123 90.546C80.2884 90.546 80.9646 90.546 81.6316 90.4517C82.2986 90.3575 82.9839 90.3669 83.6509 90.2349L84.656 90.0746L85.4235 89.9521L85.8164 89.8955H86.0083C86.0631 89.8955 86.0997 89.9898 86.1454 90.0369L87.0591 91.1022C87.276 91.3385 87.5113 91.5561 87.7627 91.7527C89.5772 93.2017 91.7067 94.1724 93.9668 94.5809C95.1132 94.8091 96.2732 94.9571 97.4389 95.024H97.9963H98.9831L98.9374 94.9486C98.8081 94.7673 98.6891 94.5785 98.5811 94.3829L98.4257 94.0718L98.2613 93.7325C98.1882 93.591 98.1334 93.4496 98.0694 93.3177C97.5728 92.1961 97.2402 91.0047 97.0826 89.7824C96.9638 88.6983 97.0826 88.1609 97.3201 88.076C97.5577 87.9912 97.7679 88.3494 98.0877 89.0188C98.4075 89.6881 98.8369 90.5649 99.4582 91.5736C99.6136 91.8281 99.778 92.0827 99.9608 92.3561L100.235 92.7614L100.381 92.9688L100.646 93.3742C101.377 94.5055 102.556 95.9385 103.625 97.3997C103.351 97.4563 102.949 97.494 102.574 97.5411L101.432 97.6731C101.03 97.6731 100.628 97.7579 100.207 97.7768H98.8735H98.2065H97.5851H96.8724C96.3973 97.7297 95.9587 97.7014 95.4379 97.626C94.4771 97.5077 93.5249 97.325 92.5871 97.0792C90.6331 96.6043 88.7767 95.7743 87.1048 94.6281C86.6741 94.3463 86.2647 94.0312 85.8804 93.6853C85.6787 93.5212 85.4894 93.3415 85.3139 93.148L85.0489 92.8463L83.7332 93.0348C82.8194 93.1574 81.8509 93.2045 80.9098 93.2799C79.9686 93.3554 79.0275 93.2799 78.0772 93.2799C74.2716 93.1372 70.5213 92.2944 67.003 90.7911C63.4849 89.2723 60.288 87.0594 57.5917 84.2768C55.9735 82.5371 54.5428 80.6216 53.3246 78.5638C52.0935 76.5435 51.0794 74.3908 50.3002 72.1438C48.7335 67.6165 48.2049 62.7762 48.756 58.0028C49.0733 55.423 49.6868 52.8912 50.5835 50.4609C51.4539 48.0044 52.6303 45.6752 54.083 43.5318C54.7999 42.4576 55.578 41.4282 56.413 40.449C57.2786 39.4907 58.1937 38.5813 59.1542 37.7245C61.0491 35.9971 63.1419 34.5154 65.3857 33.3125C70.8963 30.3148 77.1231 29.0063 83.3311 29.5416C84.497 29.6374 85.6564 29.8042 86.8032 30.0412C87.3803 30.1524 87.9508 30.2972 88.5119 30.4749C89.0784 30.6446 89.6541 30.7577 90.2023 30.9746C91.3131 31.3709 92.3994 31.8368 93.4551 32.3698C93.9851 32.6338 94.515 32.8883 95.0359 33.1711L96.5343 34.1139L97.2836 34.5852L97.9963 35.1226L99.4034 36.1973L100.719 37.3852C101.164 37.7731 101.585 38.1887 101.98 38.6296L103.186 39.9117C103.57 40.3642 103.917 40.8544 104.283 41.3164C107.239 45.1714 109.268 49.6944 110.204 54.5147C110.892 58.1613 110.914 61.9086 110.268 65.5635C109.986 67.1697 109.567 68.7471 109.016 70.2772C108.313 72.327 107.315 74.2561 106.055 75.9996C105.515 76.8212 104.783 77.489 103.926 77.9416C103.655 78.0908 103.37 78.2139 103.077 78.3093C102.711 78.3093 102.839 77.8568 103.314 76.9235C103.789 75.9902 104.593 74.5761 105.489 72.7189C108.216 67.0792 109.015 60.6536 107.755 54.4864C106.466 48.1994 103.148 42.5494 98.3435 38.4599C96.5718 36.9273 94.6155 35.6376 92.5231 34.6229C91.4812 34.1186 90.4101 33.6809 89.316 33.3125C88.7677 33.1334 88.2012 33.0014 87.6439 32.8412L86.8032 32.5772C86.52 32.5112 86.2276 32.4735 85.9444 32.4169C81.3413 31.5501 76.6051 31.8149 72.1198 33.19L72.1015 33.1334Z" fill="#4415FF"/>
<path d="M81.7044 47.6892C81.5305 47.5426 81.3287 47.4352 81.1121 47.3739C80.8955 47.3127 80.6688 47.2989 80.4467 47.3336C80.2246 47.3682 80.012 47.4505 79.8226 47.575C79.6332 47.6996 79.4712 47.8637 79.3471 48.0568C79.2831 52.9402 82.938 60.7272 84.8294 65.2052C85.807 65.0544 85.7431 64.4039 85.7431 63.5743C85.6791 60.4821 82.5085 48.3962 81.7044 47.6892Z" fill="#4415FF"/>
<path d="M72.0193 50.4984C71.6433 50.2498 71.1872 50.1647 70.7506 50.2619C70.314 50.359 69.9325 50.6305 69.6893 51.0169C70.3471 55.6458 74.066 63.4233 76.2132 67.7694C77.1818 67.562 77.1269 66.9115 77.0264 66.0819C76.7523 62.9991 72.9238 51.0452 72.0193 50.4984Z" fill="#4415FF"/>
<path d="M29.4583 50.3571V50.5362C29.411 50.7684 29.3149 50.9871 29.1767 51.1768C29.0385 51.3665 28.8617 51.5226 28.6586 51.6341C28.4556 51.7456 28.2313 51.8097 28.0017 51.822C27.772 51.8343 27.5425 51.7944 27.3293 51.7052C27.0269 51.6364 26.7481 51.4846 26.5224 51.2657C26.2968 51.0469 26.1327 50.7692 26.0475 50.462C25.9623 50.1548 25.9591 49.8295 26.0384 49.5206C26.1177 49.2117 26.2765 48.9307 26.4979 48.7073C27.7679 47.2649 29.6867 48.6413 29.4583 50.3571Z" fill="#4415FF"/>
<path d="M80.1697 71.7477C80.2337 72.6904 79.722 73.5106 78.2052 73.2938C77.9031 73.2489 77.6181 73.1218 77.3794 72.9256C77.1408 72.7293 76.9571 72.471 76.8472 72.1772C76.7374 71.8834 76.7055 71.5647 76.7547 71.254C76.8038 70.9432 76.9324 70.6515 77.127 70.409C78.4702 68.5141 80.0601 70.2582 80.1697 71.7477Z" fill="#4415FF"/>
<path d="M88.4298 68.9855C88.4298 69.9282 87.7719 70.673 86.2917 70.2676C85.9942 70.186 85.7234 70.0234 85.5077 69.7968C85.292 69.5702 85.1393 69.288 85.0655 68.9796C84.9917 68.6713 84.9996 68.3482 85.0883 68.044C85.1771 67.7399 85.3433 67.466 85.5698 67.2509C87.1231 65.554 88.5029 67.4866 88.4298 68.9855Z" fill="#4415FF"/>
<path d="M65.5136 89.5278C68.2317 90.954 71.1526 91.9246 74.1665 92.4031C75.2686 92.5648 76.3794 92.6561 77.4924 92.6765H78.9727C79.4661 92.6765 79.9503 92.6765 80.4437 92.6105L81.924 92.5257C82.4174 92.5257 82.9016 92.3843 83.3859 92.3183L85.0672 92.0637C85.2956 91.9506 85.387 92.224 85.5423 92.3465L85.8804 92.7142L86.3738 93.2516C86.721 93.591 87.1139 93.8832 87.4794 94.1943C87.8449 94.5054 88.2926 94.7317 88.7038 95.0051C90.2355 95.8431 91.8951 96.4042 93.6104 96.6643C95.821 96.969 98.0562 97.0385 100.281 96.8717C100.957 96.8717 100.929 97.1545 100.372 97.5504C99.4467 98.0949 98.3939 98.3657 97.3292 98.3329C94.9132 98.3514 92.513 97.9301 90.2388 97.0885C89.0828 96.6555 87.9863 96.0692 86.9768 95.3444C86.4822 94.9645 86.0093 94.5553 85.5606 94.1189L84.9301 93.4118V93.3553C84.9301 93.3553 84.857 93.3553 84.8479 93.3553C81.996 93.8473 79.1011 94.0211 76.2132 93.8738C73.0184 93.6057 69.8851 92.8166 66.9299 91.5358C66.473 91.3284 66.0161 91.1398 65.5776 90.9324L64.2801 90.2065C63.4119 89.7339 62.5755 89.2016 61.7765 88.6133C59.3548 86.8515 57.1994 84.7293 55.3805 82.3158C53.9825 80.4681 52.7759 78.4743 51.7804 76.3672C51.5611 75.9052 51.351 75.4244 51.1317 74.9719C50.4829 73.1619 50.3916 72.5397 50.5743 72.0589C50.6025 71.9465 50.6455 71.8386 50.7022 71.7383C50.885 71.5027 51.3236 72.1626 51.817 73.4353C53.3154 77.317 55.5172 80.8684 58.3044 83.8996C60.407 86.1904 62.8806 88.0854 65.6141 89.4995L65.5136 89.5278Z" fill="#4415FF"/>
<path d="M32.2452 73.3599L31.6695 73.2468C31.6695 73.2468 31.6147 73.2468 31.6056 73.2468L30.7924 74.1141C30.125 74.7243 29.4166 75.2851 28.6726 75.7922C28.1428 76.171 27.5938 76.5203 27.0279 76.8386C25.0288 77.8836 22.9235 78.6961 20.7506 79.2615C19.7912 79.516 18.8409 79.78 17.8815 80.0062C16.6655 80.3591 15.4151 80.5709 14.1536 80.6379C13.3678 80.6379 14.2449 79.3463 15.5972 79.1012C18.0651 78.6694 20.506 78.0871 22.907 77.3571C24.3636 76.8768 25.7593 76.2185 27.0644 75.3963C27.4328 75.1925 27.7869 74.9626 28.1243 74.7081C28.4811 74.4846 28.8203 74.2324 29.1385 73.9539C29.4492 73.671 29.7964 73.4259 30.0523 73.1243L31.0665 72.0307L31.1761 71.9176H31.3223L31.633 71.9741L32.099 72.059L32.8757 72.191C33.3965 72.2758 33.9173 72.3606 34.4381 72.4266C36.007 72.672 37.594 72.773 39.1803 72.7283C40.3738 72.65 41.5528 72.4156 42.689 72.0307L43.42 71.7573C44.3337 71.4273 44.6626 71.3708 44.9824 71.6065C45.0605 71.6521 45.134 71.7058 45.2017 71.7667C45.3844 71.9647 45.0738 72.3324 44.3885 72.7095C42.2146 73.7093 39.8377 74.1493 37.4625 73.9916C35.7104 73.8962 33.9653 73.6947 32.236 73.3882L32.2452 73.3599Z" fill="#4415FF"/>
<path d="M78.4883 18.54C78.5069 18.3439 78.5999 18.1633 78.7472 18.0379C78.8945 17.9124 79.084 17.8523 79.2741 17.8707C81.2386 18.0592 78.2873 20.68 78.4883 18.54Z" fill="#4415FF" stroke="white" stroke-width="0.548231" stroke-miterlimit="10"/>
<path d="M38.76 85.4834C38.7785 85.2873 38.8716 85.1067 39.0189 84.9812C39.1661 84.8558 39.3556 84.7957 39.5458 84.814C41.5103 85.0026 38.5681 87.614 38.76 85.4834Z" fill="#4415FF" stroke="white" stroke-width="0.548231" stroke-miterlimit="10"/>
<path d="M97.8133 15.0423C97.8884 15.0725 97.957 15.1177 98.0151 15.1753C98.0732 15.2329 98.1198 15.3018 98.152 15.378C98.1843 15.4542 98.2016 15.5362 98.2031 15.6194C98.2046 15.7025 98.1901 15.7851 98.1605 15.8625C97.5575 17.4746 96.1778 14.3918 97.8133 15.0423Z" fill="#4415FF"/>
</svg>
