<svg width="106" height="161" viewBox="0 0 106 161" fill="none" xmlns="http://www.w3.org/2000/svg">
<path d="M35.2733 53.0607C34.8564 55.0009 35.1676 57.0266 36.1477 58.7521C37.1278 60.4776 38.7083 61.7824 40.5882 62.4179C42.3771 63.1054 44.3258 63.2646 46.2025 62.8764C48.1017 62.4856 49.8282 61.5028 51.1338 60.0693C52.2812 58.7502 53.0165 57.1235 53.2485 55.3907C53.4864 53.2109 53.0625 51.01 52.0321 49.0745C51.7233 48.485 52.2005 48.1388 53.0427 48.4008C53.6445 48.6302 54.1786 49.0077 54.5957 49.4984C55.0128 49.9891 55.2994 50.5771 55.4288 51.208C56.0981 53.9659 55.7179 56.8743 54.362 59.3675C53.6825 60.5765 52.7957 61.6565 51.742 62.5583C50.6567 63.4321 49.4196 64.0982 48.0927 64.5233C44.9188 65.5802 41.4564 65.3449 38.4548 63.8683C36.8199 63.0034 35.4515 61.7094 34.4966 60.1254C33.5653 58.5971 33.0313 56.86 32.9433 55.0725C32.8423 52.3015 33.6976 49.5801 35.3656 47.3651C37.0337 45.1501 39.413 43.5764 42.1041 42.9081C44.6319 42.3118 47.2926 42.7211 49.5244 44.0497C50.009 44.326 50.472 44.6389 50.9092 44.9854C52.5093 46.3609 52.7152 47.0627 52.5187 47.7364C52.4871 47.8977 52.4369 48.0547 52.369 48.2043C52.238 48.4102 51.976 48.4195 51.6297 48.2605C51.1713 47.998 50.7443 47.6841 50.3571 47.3247C50.0016 46.9879 49.5899 46.7352 49.2062 46.389C48.8226 46.0428 48.4108 45.8744 47.9804 45.6779C47.1562 45.2544 46.2679 44.9699 45.351 44.8357C43.5002 44.5932 41.6228 45.0071 40.0455 46.0054C38.8141 46.7559 37.7589 47.7628 36.9515 48.9576C36.1442 50.1525 35.6037 51.5072 35.3669 52.9297L35.2733 53.0607Z" fill="#4415FF"/>
<path d="M24.587 52.7425C24.259 55.6182 24.5787 58.5309 25.5227 61.267C26.4152 64.0174 27.9818 66.5007 30.0797 68.4907C31.6217 69.9184 33.3931 71.0762 35.3197 71.9155C38.7838 73.4971 42.6094 74.1179 46.3959 73.7129C50.1823 73.308 53.7902 71.8921 56.8413 69.6136C59.478 67.5134 61.5172 64.7579 62.7551 61.6225C64.2812 57.579 64.6252 53.1846 63.747 48.9529C63.4756 47.6522 64.0651 47.6054 64.926 48.6347C66.1809 50.3871 66.7924 52.519 66.6571 54.6701C66.4953 59.6156 64.6911 64.3664 61.5293 68.1726C58.372 71.9726 53.9868 74.5508 49.131 75.4619C43.2925 76.6837 37.2085 75.718 32.0353 72.7483C29.2239 71.0659 26.8737 68.7125 25.1952 65.8988C24.3615 64.5041 23.7045 63.0111 23.2395 61.4541C22.9941 60.6829 22.791 59.8988 22.6313 59.1054C22.5003 58.3101 22.3693 57.5147 22.3132 56.71C22.1547 54.733 22.2649 52.7436 22.6407 50.7962C22.9983 48.8536 23.6086 46.9662 24.456 45.1819C25.7112 42.474 27.4524 40.0192 29.5931 37.9394C31.7074 35.8436 34.2041 34.1728 36.9479 33.0175C41.2156 31.1576 46.0129 30.9083 50.4504 32.3157C51.4124 32.6281 52.3505 33.0096 53.2575 33.4573C56.5981 35.3287 57.2905 36.4142 57.5057 37.3405C57.569 37.5476 57.6098 37.761 57.6273 37.9768C57.6273 38.2575 57.2343 38.2295 56.6916 37.9768C56.3096 37.7778 55.9436 37.5494 55.5968 37.2937C55.1664 37.0505 54.6611 36.7697 54.1465 36.4235C52.5376 35.4556 50.8069 34.7067 49 34.1965C47.1678 33.7274 45.2726 33.5537 43.3857 33.6819C39.5378 34 35.8769 35.478 32.8868 37.9207C28.2784 41.5746 25.3016 46.9026 24.6057 52.7425H24.587Z" fill="#4415FF"/>
<path d="M13.6946 50.5061C12.9899 55.0412 13.2869 59.6755 14.5648 64.0835C15.2124 66.2754 16.1038 68.3877 17.2223 70.3809C18.3511 72.3685 19.7318 74.202 21.3301 75.8362C23.6819 78.2248 26.4299 80.1876 29.4522 81.6376C34.8344 84.2513 40.8174 85.3788 46.7817 84.9033C52.765 84.4839 58.5088 82.3855 63.3534 78.8492C67.5914 75.6329 70.9114 71.361 72.982 66.4602C75.5845 60.1761 76.2366 53.2544 74.8534 46.5948C74.4136 44.5549 75.0219 44.6111 76.0324 46.2767C77.5063 49.147 78.1542 52.3702 77.9039 55.5871C77.7306 59.291 76.9531 62.9417 75.602 66.3947C74.1951 69.8341 72.2494 73.0275 69.8379 75.8549C67.3949 78.6658 64.482 81.0309 61.2293 82.8447C57.9783 84.6339 54.4524 85.8703 50.796 86.5034C46.3844 87.2707 41.8735 87.2707 37.4619 86.5034C35.2285 86.0963 33.0363 85.4887 30.9119 84.6881C28.8038 83.8578 26.7849 82.817 24.8858 81.5815C20.7263 78.855 17.3162 75.1297 14.9672 70.7458C12.6428 66.3632 11.3468 61.5089 11.1775 56.5509C11.0601 53.5176 11.3592 50.4826 12.0664 47.5305C12.7808 44.6099 13.8361 41.7833 15.2105 39.109C17.3274 35.0464 20.1469 31.3905 23.5384 28.3108C26.9529 25.273 30.921 22.922 35.2256 21.3864C38.5562 20.2256 42.067 19.668 45.5934 19.7396C49.1149 19.8352 52.5872 20.5906 55.8302 21.9666C56.1951 22.1163 56.56 22.238 56.9063 22.4064L57.9356 22.9304C58.6359 23.2629 59.317 23.6346 59.9754 24.0439C61.7195 25.1158 63.3444 26.3705 64.8225 27.7868C65.4771 28.4448 65.9982 29.2233 66.3571 30.0793C66.4759 30.351 66.5699 30.6328 66.6378 30.9215C66.6378 31.2677 66.198 31.118 65.3558 30.5378C64.9348 30.2571 64.4201 29.8641 63.8212 29.3775C63.2224 28.8909 62.4645 28.4418 61.6784 27.8055C59.2774 26.0422 56.637 24.6307 53.8371 23.6135C51.0176 22.5931 48.0487 22.0461 45.0507 21.9947C38.9048 21.9943 32.9204 23.9618 27.9737 27.609C24.2323 30.3014 21.0536 33.6994 18.6165 37.6119C16.1448 41.5394 14.4899 45.9248 13.7507 50.5061H13.6946Z" fill="#4415FF"/>
<path d="M4.29092 49.9634C3.03616 58.6913 4.67977 67.5897 8.96953 75.2935C10.4226 77.822 12.1758 80.1658 14.1909 82.274C15.658 83.8159 17.2615 85.222 18.9818 86.4753C20.7124 87.7208 22.5362 88.8313 24.437 89.7972C37.8179 96.7028 55.0632 95.9823 67.7048 87.4953C73.2943 83.6875 77.8065 78.5017 80.805 72.4395C84.585 64.6717 86.0003 55.9647 84.8754 47.3996C84.5011 44.7702 85.1186 44.9573 86.0731 47.1656C86.6679 48.7033 87.0824 50.3047 87.3082 51.9378C87.6012 54.2773 87.6012 56.6443 87.3082 58.9838C86.1576 68.2579 82.0648 76.919 75.6304 83.6963C72.4285 87.0375 68.6862 89.8149 64.5608 91.9119C60.4044 93.9738 55.9486 95.3665 51.3578 96.0384C48.5996 96.429 45.8152 96.6041 43.0298 96.5624C40.2015 96.4857 37.3845 96.1727 34.6083 95.6267C29.0227 94.5276 23.711 92.3298 18.9818 89.1609C13.7677 85.6889 9.4952 80.9791 6.54601 75.4525C3.64021 69.9568 1.99107 63.8844 1.71768 57.6738C1.39759 50.0457 3.00677 42.46 6.39629 35.6188C8.99575 30.4756 12.4546 25.8141 16.6237 21.8356C20.7954 17.895 25.6626 14.7634 30.9777 12.6C35.0865 10.9645 39.4437 10.0405 43.8626 9.86772C48.2765 9.72169 52.6794 10.391 56.8505 11.8421L58.2353 12.3006C58.6938 12.4597 59.1149 12.6842 59.5641 12.8714C60.4343 13.2738 61.3419 13.6387 62.2028 14.0972C68.5657 17.6623 69.9787 19.7115 70.774 21.0496C70.9616 21.3492 71.1273 21.6619 71.27 21.9853C71.3635 22.3783 70.8021 22.1725 69.726 21.4707C69.1926 21.1245 68.5189 20.6473 67.7516 20.0577L64.9445 18.1863C61.7545 16.1272 58.2892 14.53 54.6515 13.4422C50.9683 12.3868 47.1379 11.9381 43.3106 12.1135C39.4324 12.2993 35.6094 13.1082 31.9883 14.5089C28.3351 15.9587 24.9022 17.9113 21.7889 20.3104L20.9094 20.9654L20.0766 21.6859L18.4484 23.1643L16.8951 24.727C16.3649 25.2337 15.865 25.7711 15.3979 26.3364L13.9569 28.002C13.5078 28.5822 13.0774 29.181 12.6376 29.7705C11.7018 30.9215 11 32.2128 10.186 33.4386C8.68487 35.9728 7.43144 38.6457 6.44308 41.4203C5.94222 42.8013 5.51124 44.2067 5.15178 45.6311C4.94592 46.3422 4.86171 47.0721 4.70264 47.7926C4.54356 48.5131 4.38449 49.2242 4.32835 49.9541L4.29092 49.9634Z" fill="#4415FF"/>
<path d="M68.126 39.9231C66.1516 41.1396 64.1772 42.3747 62.2216 43.666C61.5104 44.1245 60.8461 44.6579 60.1256 45.107L52.5462 49.9073C51.4233 50.6278 50.3566 51.4232 49.3086 52.2185C48.0185 53.2965 46.6307 54.2519 45.1634 55.0725C44.7142 55.2971 44.3586 54.7731 44.3399 53.9964C44.3211 53.5455 44.4039 53.0962 44.582 52.6816C44.7602 52.267 45.0292 51.8977 45.3692 51.601C48.0626 49.424 50.9187 47.4563 53.9124 45.7153C55.7838 44.686 57.4307 43.3104 59.1898 42.1127C61.1361 40.8027 63.1105 39.5208 65.0755 38.2295L68.7061 35.8715C70.5308 34.6644 72.4022 33.5041 74.1801 32.2502C75.5743 31.3145 76.8376 30.1916 78.185 29.181C78.4844 28.9658 78.7558 28.7132 79.0646 28.5073C80.2436 27.7681 80.7489 27.7307 81.4226 28.2921C81.5723 28.4231 81.7408 28.5447 81.8718 28.6851C82.3116 29.1717 82.1057 29.9203 81.3758 30.6127C79.1004 32.6884 76.6525 34.5666 74.0585 36.227L68.1728 40.0448L68.126 39.9231Z" fill="#4415FF"/>
<path d="M84.4361 36.8633C80.5622 37.9769 73.3197 34.4866 73.3197 34.4866C73.3197 34.4866 71.9816 25.5972 75.5561 22.6029C76.0613 22.1819 79.7107 19.2905 82.1061 18.4577C83.0418 18.1302 80.6838 27.6933 81.8348 28.5728C81.8348 28.5728 90.3218 29.6957 91.7815 31.249L84.4361 36.8633Z" fill="#4415FF"/>
<path d="M80.3277 24.0439C80.543 22.5935 80.9079 20.301 80.8892 20.6472C80.9123 20.571 80.9123 20.4895 80.8892 20.4133H80.702L80.4775 20.5069C80.4775 20.5069 80.4775 20.5069 80.3932 20.5069L80.15 20.6472L79.6634 20.9373C78.7277 21.5268 77.7919 22.2099 76.9311 22.8742L76.3416 23.3047C76.1825 23.445 76.0702 23.576 75.9205 23.6977C75.7784 23.839 75.6529 23.9959 75.5462 24.1655C75.4157 24.3312 75.3028 24.5099 75.2093 24.6989C74.7818 25.5047 74.4849 26.3732 74.3298 27.2721C73.9663 29.1895 73.8562 31.1463 74.0023 33.0923V33.5228V33.8128L74.2268 33.9251L74.5356 34.0561C74.8444 34.1965 75.1626 34.3181 75.4713 34.4491C76.1076 34.6924 76.7533 34.917 77.3989 35.1135C79.4455 35.7543 81.58 36.0701 83.7244 36.0492C84.3139 36.0492 84.4917 36.5639 83.9677 37.2469C83.5431 37.6859 83.0176 38.0143 82.437 38.2035C81.8563 38.3927 81.2382 38.4369 80.6365 38.3324C79.2249 38.1095 77.8372 37.7555 76.4913 37.275C75.8269 37.0504 75.1813 36.7884 74.5356 36.5171L73.5999 36.096L72.8045 35.7217L71.9811 35.4223C71.9249 34.9451 71.8688 34.4866 71.822 33.9813V33.6538V33.4573V33.0643C71.822 32.5402 71.822 32.0162 71.822 31.4829C71.8272 30.4217 71.9022 29.3621 72.0466 28.3108C72.2544 26.7573 72.6927 25.2435 73.3472 23.8193C73.7141 23.0437 74.2254 22.345 74.8538 21.7607C75.462 21.2648 76.0328 20.825 76.641 20.4039C77.2492 19.9829 77.9791 19.4682 78.6809 19.0658L79.2142 18.7477C79.4107 18.6354 79.7569 18.4295 80.0189 18.3079C80.5399 18.0226 81.0927 17.7996 81.6658 17.6435C81.8885 17.6028 82.1168 17.6028 82.3395 17.6435C82.436 17.635 82.5331 17.635 82.6296 17.6435C82.7339 17.6931 82.8193 17.7752 82.8729 17.8775C83.1103 18.2988 83.2207 18.7797 83.1911 19.2623C83.1744 19.8895 83.115 20.5147 83.0133 21.1338L82.8355 22.3222C82.6858 23.2579 82.536 24.2497 82.4144 25.1948C82.3583 25.672 82.3021 26.1306 82.274 26.6078C82.274 26.823 82.274 27.1131 82.274 27.2441C82.2648 27.3686 82.2648 27.4938 82.274 27.6183C82.274 27.7587 82.3583 27.9459 82.5267 27.9178L84.1736 28.2079L86.1573 28.6102C86.8217 28.7506 87.4767 28.9003 88.141 29.0687C88.888 29.2407 89.6227 29.4627 90.34 29.7331L90.9014 29.9389L91.3973 30.2009C91.7229 30.3715 92.0356 30.5654 92.3331 30.7811C92.4828 30.9027 92.6512 31.015 92.7822 31.1367L92.436 31.5016L91.7436 32.2595L90.8078 33.0549L90.0031 33.738L88.7212 34.8328C88.3375 35.1509 87.982 35.4878 87.5889 35.7685C86.1386 36.9381 85.5865 37.1814 84.9034 36.9475C84.7457 36.9058 84.5922 36.8494 84.4449 36.7791C84.0145 36.5264 84.3794 35.7591 85.3806 34.8234C86.1199 34.1216 86.8778 33.4385 87.6638 32.7555L88.8428 31.7449L88.9832 31.6232C88.9832 31.6232 88.8896 31.6232 88.8802 31.6232H88.8054L88.0849 31.4174C87.5983 31.2864 87.093 31.1741 86.5971 31.0618C85.8298 30.8934 85.0438 30.7437 84.2671 30.5939L83.0881 30.3881L82.3395 30.1261L81.1325 29.9577C81.0202 29.8173 80.8985 29.7331 80.805 29.6021L80.4681 29.2091C80.285 28.9019 80.1642 28.5617 80.1125 28.2079C80.0541 27.849 80.0259 27.4859 80.0283 27.1224C80.0283 26.8978 80.0283 26.6826 80.0283 26.4674C80.0283 25.6159 80.1687 24.8205 80.2716 24.0439H80.3277Z" fill="#4415FF"/>
<path d="M7.02322 75.8549C10.0517 81.624 14.5765 86.472 20.1233 89.8907C22.1577 91.1201 24.2926 92.175 26.505 93.0441C34.3996 96.1846 43.035 96.9712 51.3671 95.3085C55.0506 94.5877 58.6074 93.3265 61.9221 91.5656C64.0302 90.4404 66.037 89.1349 67.9201 87.6637C69.7839 86.1757 71.5528 84.5725 73.2162 82.8634C74.2643 81.8154 74.5918 82.3207 74.152 83.6588C73.8433 84.5516 73.3982 85.3912 72.8326 86.1478C72.4957 86.6157 72.1121 87.0835 71.6723 87.6169C71.196 88.0995 70.6963 88.5586 70.1751 88.9924C62.0225 95.5022 51.7635 98.792 41.3455 98.2374C35.0522 97.9893 28.8647 96.5377 23.1176 93.9611C16.7974 91.0226 11.3696 86.4602 7.38815 80.7393C6.7425 79.8972 6.25592 78.9427 5.68513 78.0445C5.11434 77.1462 4.70262 76.173 4.20669 75.2373C3.71076 74.3016 3.36454 73.2816 2.99025 72.2991C2.61596 71.3166 2.28846 70.2967 1.97967 69.2954C0.202536 63.1261 -0.199922 56.642 0.800659 50.3003C1.16645 47.8767 1.70112 45.4817 2.40074 43.1326C3.12532 40.8105 4.02301 38.5459 5.08627 36.358C5.53646 35.397 6.03618 34.46 6.58343 33.5508C8.66073 30.0793 9.67131 29.2091 10.6445 28.8722C10.857 28.7887 11.0761 28.723 11.2995 28.6757C11.5989 28.6757 11.5802 29.05 11.2995 29.7237C11.0188 30.3974 10.4199 31.3238 9.7181 32.5309C7.48765 36.1771 5.72107 40.0875 4.45934 44.1713C3.18675 48.3491 2.52489 52.689 2.49432 57.0562C2.47852 63.6023 4.05532 70.054 7.08872 75.8549H7.02322Z" fill="#4415FF"/>
<path d="M43.3761 56.4012C43.0036 56.3299 42.666 56.135 42.4181 55.848C42.1702 55.561 42.0264 55.1987 42.0099 54.8198C42.0067 54.536 42.0964 54.2589 42.2654 54.0308C42.4343 53.8027 42.6732 53.6362 42.9457 53.5566C43.1371 53.5512 43.3275 53.5859 43.5048 53.6585C43.682 53.731 43.8421 53.8397 43.975 53.9777C43.975 54.118 44.1527 54.2116 44.237 54.1929H44.1153C44.0592 54.1929 44.1153 54.1929 44.1153 54.1929L44.1808 54.1274C44.2248 54.0629 44.2536 53.9893 44.265 53.9122C44.265 53.8467 44.265 53.8467 44.265 53.9122C44.265 53.9777 44.265 53.9121 44.1153 53.7905C44.0631 53.7551 44.0065 53.7268 43.9469 53.7063L43.844 53.6595C44.0877 53.6844 44.3335 53.6423 44.5551 53.5379C44.6393 53.4817 44.5551 53.5379 44.5551 53.6034C44.5273 53.7329 44.5273 53.8668 44.5551 53.9964C44.5694 54.1419 44.6074 54.2841 44.6674 54.4174C44.6972 54.4959 44.7348 54.5711 44.7797 54.642V54.6982C44.7797 54.6982 44.8452 54.7917 44.658 54.5578L44.4428 54.3332L44.1247 54.1367C44.0651 54.0795 43.9992 54.0293 43.9282 53.987L43.7972 53.8841C43.722 53.8383 43.6439 53.7976 43.5632 53.7624C43.2919 53.7624 43.6568 53.7624 43.975 53.5098C44.2371 53.305 44.4485 53.0424 44.5925 52.7425C44.6393 52.6209 44.5925 52.7425 44.5925 53.0045C44.5904 53.1432 44.6192 53.2806 44.6767 53.4069C44.5282 53.2449 44.3462 53.1172 44.1434 53.0326L43.975 52.939C43.9791 52.8861 43.9791 52.8329 43.975 52.7799C43.9892 52.5962 43.9892 52.4116 43.975 52.2278C43.975 52.1156 43.975 51.9565 43.8907 51.9097C43.8623 51.8172 43.7984 51.7398 43.7129 51.6945C43.5192 51.5916 43.3192 51.501 43.1141 51.4231C42.5232 51.2783 41.8995 51.3583 41.3643 51.6477C41.1362 51.7675 40.938 51.937 40.7841 52.1436C40.6033 52.3887 40.4613 52.6601 40.3631 52.9484C40.269 53.1569 40.2492 53.3914 40.3069 53.6127C40.3368 54.311 40.4403 55.0041 40.6157 55.6807C40.7355 56.0537 40.9157 56.4046 41.1491 56.7193C41.3549 57.0281 41.5046 57.1591 41.5514 57.2433C41.7784 57.63 42.148 57.9122 42.5807 58.0293C43.2242 58.1774 43.8929 58.1774 44.5364 58.0293C44.7422 58.0293 44.9387 57.8609 45.2007 57.9451C45.4734 58.0095 45.7571 58.0118 46.0308 57.9518C46.3045 57.8919 46.5613 57.7713 46.7821 57.5989L48.822 56.6632C49.2082 56.5229 49.6058 56.4165 50.0104 56.345C50.3753 56.2421 50.5999 56.7848 50.5437 56.9158C50.3753 57.2808 50.7777 57.2995 50.9554 57.4492C51.0213 57.5021 51.0781 57.5653 51.1239 57.6363C50.6631 58.4007 50.1169 59.1102 49.4957 59.7511C48.7918 60.55 47.9602 61.2267 47.0348 61.7535C46.988 61.7535 46.5482 62.0155 45.7622 62.2869C44.7472 62.6678 43.6741 62.8704 42.5901 62.8857C41.2804 62.9218 39.9858 62.5981 38.8472 61.95C38.1944 61.5642 37.5991 61.0886 37.0787 60.5371C36.669 60.1062 36.3507 59.597 36.143 59.0399C35.9198 58.6157 35.723 58.1782 35.5534 57.7299C34.706 55.5773 34.686 53.1872 35.4973 51.0208C35.8338 50.254 36.2679 49.5338 36.7886 48.878C37.3684 48.1824 38.1295 47.6609 38.9875 47.3714C39.3065 47.2616 39.619 47.1335 39.9233 46.9878C41.1987 46.4385 42.6057 46.2696 43.975 46.5012C44.3478 46.5606 44.7143 46.6546 45.0697 46.7819C45.4411 46.9071 45.7985 47.0701 46.1365 47.2685C46.4939 47.4812 46.8293 47.7288 47.1377 48.0077C47.4417 48.3102 47.7144 48.6425 47.9518 48.9996C48.1797 49.3554 48.3679 49.7351 48.5132 50.1318C48.6631 50.5181 48.7698 50.9198 48.8314 51.3296L48.9062 51.891C48.9152 52.0593 48.9152 52.228 48.9062 52.3963C48.9193 52.7528 48.9005 53.1098 48.8501 53.463C48.7977 53.7432 48.7129 54.0164 48.5974 54.2771C48.4522 54.654 48.2737 55.0172 48.0641 55.3625C47.7604 55.8923 47.3375 56.344 46.8289 56.6819C46.3151 57.0237 45.7289 57.2415 45.1165 57.3182C44.0112 57.4437 42.8985 57.1572 41.9912 56.5135C41.4369 56.1279 40.9998 55.5969 40.728 54.9789C40.555 54.5681 40.4722 54.125 40.4851 53.6795C40.498 53.2339 40.6064 52.7964 40.8029 52.3963C41.109 51.8172 41.5564 51.3248 42.1035 50.9646C42.5509 50.6392 43.0556 50.4011 43.5913 50.2628C44.1274 50.1173 44.6927 50.1173 45.2288 50.2628C45.6927 50.3979 46.1199 50.6365 46.4781 50.9606C46.8363 51.2848 47.1162 51.6861 47.2968 52.1343C47.5804 52.8574 47.6134 53.6547 47.3903 54.3987C47.2514 54.8806 47.0332 55.336 46.7447 55.7462C46.321 56.2433 45.7201 56.5555 45.0697 56.6164C44.4963 56.6652 43.9191 56.5918 43.3761 56.4012Z" fill="#4415FF"/>
<path d="M84.8933 9.04428C84.9962 9.19399 84.7997 9.31564 84.4254 9.42793C84.2503 9.47151 84.0672 9.47151 83.8921 9.42793C83.7962 9.35658 83.7083 9.275 83.6301 9.18464C83.6301 9.12849 83.3868 8.30506 83.3025 8.02434C83.2286 7.75929 83.1908 7.48545 83.1903 7.21026L83.0967 5.55403C83.0782 5.43309 83.0782 5.31004 83.0967 5.1891C83.2007 4.77964 83.2261 4.35416 83.1715 3.93523C83.1758 3.85801 83.1526 3.78177 83.106 3.72002C83.0041 3.26251 82.9819 2.79084 83.0405 2.32579C83.162 1.96317 83.265 1.59465 83.3493 1.22164C83.3493 1.22164 83.3493 1.11871 83.4242 1.07192C83.4991 1.02514 83.5739 0.847349 83.5833 0.735062C83.6073 0.573139 83.6449 0.41351 83.6956 0.257843C83.6956 0.182986 83.8359 0.108128 83.9201 0.0332701C84.0043 -0.0415877 84.2663 0.0332701 84.2944 0.0332701C84.3225 0.0332701 84.519 0.0332701 84.6313 0.0332701H84.7529C84.9761 0.345658 85.1585 0.685264 85.2956 1.04385L85.3705 1.74564C85.3705 2.10122 85.4641 2.46615 85.4828 2.54101C85.4867 2.62273 85.4672 2.70388 85.4266 2.77494C85.4266 2.77494 85.5764 3.86973 85.567 3.90716C85.567 4.13173 85.6138 4.34695 85.4454 4.56217C85.4323 4.60486 85.4323 4.65047 85.4454 4.69317C85.4436 5.07283 85.4092 5.45164 85.3424 5.82539C85.3424 6.01254 85.3424 6.20904 85.3424 6.39618C85.3516 6.42988 85.3516 6.46541 85.3424 6.49911C85.339 6.54271 85.339 6.58651 85.3424 6.63011C85.3097 7.08491 85.3097 7.54147 85.3424 7.99627C85.3424 8.0992 85.1646 8.60449 85.1834 8.72613C85.2021 8.84778 84.8465 8.97878 84.8933 9.04428Z" fill="#4415FF"/>
<path d="M95.0845 20.3197C95.0377 20.5162 94.7944 20.4414 94.4014 20.2355C94.234 20.1243 94.0934 19.9773 93.9897 19.8051C93.9746 19.6589 93.9746 19.5115 93.9897 19.3653C94.2768 18.9443 94.5893 18.5412 94.9254 18.1582C95.1479 17.8991 95.4026 17.6696 95.6834 17.4751C96.2448 17.0634 96.7969 16.661 97.3677 16.2868C97.4925 16.2001 97.632 16.1367 97.7794 16.0996C98.2746 15.9347 98.7417 15.6949 99.1643 15.3885C99.2391 15.3417 99.3233 15.3136 99.3608 15.2107C99.8117 14.8347 100.325 14.5403 100.877 14.3404C101.347 14.2444 101.821 14.1726 102.299 14.1252C102.364 14.1252 102.421 14.0691 102.505 14.1252C102.577 14.1637 102.657 14.1839 102.739 14.1839C102.82 14.1839 102.901 14.1637 102.973 14.1252C103.178 14.0968 103.385 14.0968 103.59 14.1252C103.708 14.1524 103.822 14.1965 103.927 14.2562C104.03 14.303 104.039 14.5557 104.021 14.5837C104.002 14.6118 104.021 14.7802 104.077 14.8738C104.084 14.9077 104.084 14.9428 104.077 14.9767C103.802 15.3051 103.508 15.6175 103.197 15.9125C103.197 15.9125 102.86 16.0996 102.524 16.3335C102.187 16.5675 101.822 16.7546 101.756 16.8108C101.673 16.8563 101.58 16.8789 101.485 16.8763C101.485 16.8763 100.427 17.5781 100.39 17.5968C100.156 17.6997 99.969 17.8868 99.6695 17.8588C99.615 17.8614 99.5627 17.8811 99.5198 17.9149C99.1459 18.1385 98.7584 18.3385 98.3595 18.5138C98.1606 18.6178 97.9698 18.7367 97.7887 18.8693H97.6671C97.6175 18.8611 97.567 18.8611 97.5174 18.8693C97.0655 19.1506 96.634 19.4633 96.2261 19.8051C96.1512 19.8893 95.5711 20.0764 95.4869 20.1887C95.4027 20.301 95.1032 20.2355 95.0845 20.3197Z" fill="#4415FF"/>
<path d="M96.7026 32.9613C96.4967 32.9613 96.5435 32.6713 96.7026 32.2783C96.8075 32.1045 96.9478 31.9546 97.1143 31.8385C97.243 31.8026 97.3744 31.7775 97.5073 31.7636C97.5822 31.7636 98.3495 32.0724 98.6395 32.1192C98.8938 32.177 99.1392 32.2682 99.3694 32.3905C99.8466 32.6058 100.305 32.8397 100.801 33.0268C100.911 33.0745 101.013 33.141 101.1 33.2233C101.418 33.4961 101.802 33.6801 102.214 33.7567C102.279 33.7567 102.345 33.8035 102.429 33.7567C102.898 33.7832 103.357 33.8942 103.786 34.0842C104.104 34.3275 104.441 34.5333 104.722 34.7673C104.722 34.7673 104.834 34.7673 104.862 34.8983C104.89 35.0293 105.031 35.1416 105.143 35.1884C105.307 35.254 105.454 35.3564 105.573 35.4878C105.639 35.5868 105.693 35.6937 105.732 35.8059C105.748 35.9438 105.715 36.0827 105.639 36.1989C105.545 36.2644 105.564 36.4142 105.536 36.5358V36.6574C105.351 36.7653 105.157 36.8561 104.956 36.9288C104.752 36.9971 104.542 37.0472 104.329 37.0785L103.571 37.0037L102.719 36.8727C102.635 36.8727 102.57 36.7978 102.495 36.7323C102.42 36.6668 101.316 36.5171 101.269 36.4797C101.044 36.3767 100.792 36.358 100.633 36.096C100.62 36.0744 100.603 36.0562 100.581 36.0431C100.56 36.0301 100.536 36.0225 100.511 36.0211C100.116 35.8594 99.7394 35.6555 99.3881 35.4129C99.2007 35.302 99.007 35.202 98.808 35.1135C98.7786 35.0861 98.7534 35.0546 98.7331 35.0199C98.7331 35.0199 98.6676 34.9357 98.6208 34.917C98.1623 34.6644 97.7974 34.2901 97.3389 34.0468C97.2266 33.9906 96.9178 33.4666 96.7962 33.4011C96.6745 33.3356 96.7775 32.9613 96.7026 32.9613Z" fill="#4415FF"/>
<path d="M22.586 150.298L17.672 135.598H19.835L24.35 149.164H23.258L27.941 135.598H29.873L34.451 149.164H33.401L37.979 135.598H39.974L35.06 150.298H32.855L28.571 137.719H29.138L24.833 150.298H22.586ZM49.0353 150.466C47.9153 150.466 46.8723 150.277 45.9063 149.899C44.9543 149.521 44.1283 148.996 43.4283 148.324C42.7283 147.638 42.1823 146.84 41.7903 145.93C41.3983 145.02 41.2023 144.026 41.2023 142.948C41.2023 141.87 41.3983 140.876 41.7903 139.966C42.1823 139.056 42.7283 138.265 43.4283 137.593C44.1283 136.907 44.9543 136.375 45.9063 135.997C46.8583 135.619 47.9013 135.43 49.0353 135.43C50.1553 135.43 51.1843 135.619 52.1223 135.997C53.0743 136.361 53.9003 136.886 54.6003 137.572C55.3143 138.244 55.8603 139.035 56.2383 139.945C56.6303 140.855 56.8263 141.856 56.8263 142.948C56.8263 144.04 56.6303 145.041 56.2383 145.951C55.8603 146.861 55.3143 147.659 54.6003 148.345C53.9003 149.017 53.0743 149.542 52.1223 149.92C51.1843 150.284 50.1553 150.466 49.0353 150.466ZM49.0353 148.597C49.8473 148.597 50.5963 148.457 51.2823 148.177C51.9823 147.897 52.5843 147.505 53.0883 147.001C53.6063 146.483 54.0053 145.881 54.2853 145.195C54.5793 144.509 54.7263 143.76 54.7263 142.948C54.7263 142.136 54.5793 141.387 54.2853 140.701C54.0053 140.015 53.6063 139.42 53.0883 138.916C52.5843 138.398 51.9823 137.999 51.2823 137.719C50.5963 137.439 49.8473 137.299 49.0353 137.299C48.2093 137.299 47.4463 137.439 46.7463 137.719C46.0603 137.999 45.4583 138.398 44.9403 138.916C44.4223 139.42 44.0163 140.015 43.7223 140.701C43.4423 141.387 43.3023 142.136 43.3023 142.948C43.3023 143.76 43.4423 144.509 43.7223 145.195C44.0163 145.881 44.4223 146.483 44.9403 147.001C45.4583 147.505 46.0603 147.897 46.7463 148.177C47.4463 148.457 48.2093 148.597 49.0353 148.597ZM60.0361 150.298V135.598H65.7691C67.0571 135.598 68.1561 135.801 69.0661 136.207C69.9761 136.613 70.6761 137.201 71.1661 137.971C71.6561 138.741 71.9011 139.658 71.9011 140.722C71.9011 141.786 71.6561 142.703 71.1661 143.473C70.6761 144.229 69.9761 144.81 69.0661 145.216C68.1561 145.622 67.0571 145.825 65.7691 145.825H61.1911L62.1361 144.859V150.298H60.0361ZM69.8641 150.298L66.1261 144.964H68.3731L72.1531 150.298H69.8641ZM62.1361 145.069L61.1911 144.04H65.7061C67.0501 144.04 68.0651 143.753 68.7511 143.179C69.4511 142.591 69.8011 141.772 69.8011 140.722C69.8011 139.672 69.4511 138.86 68.7511 138.286C68.0651 137.712 67.0501 137.425 65.7061 137.425H61.1911L62.1361 136.375V145.069ZM77.1419 146.749L77.0369 144.187L85.3739 135.598H87.7679L81.3209 142.402L80.1449 143.704L77.1419 146.749ZM75.2939 150.298V135.598H77.3939V150.298H75.2939ZM85.7099 150.298L79.6829 143.284L81.0899 141.73L88.1669 150.298H85.7099Z" fill="#4415FF"/>
</svg>
